%TF.GenerationSoftware,KiCad,Pcbnew,10.0.0*%
%TF.CreationDate,2026-06-20T20:42:50+01:00*%
%TF.ProjectId,Devboard,44657662-6f61-4726-942e-6b696361645f,rev?*%
%TF.SameCoordinates,Original*%
%TF.FileFunction,Copper,L2,Inr*%
%TF.FilePolarity,Positive*%
%FSLAX46Y46*%
G04 Gerber Fmt 4.6, Leading zero omitted, Abs format (unit mm)*
G04 Created by KiCad (PCBNEW 10.0.0) date 2026-06-20 20:42:50*
%MOMM*%
%LPD*%
G01*
G04 APERTURE LIST*
G04 Aperture macros list*
%AMOutline5P*
0 Free polygon, 5 corners , with rotation*
0 The origin of the aperture is its center*
0 number of corners: always 5*
0 $1 to $10 corner X, Y*
0 $11 Rotation angle, in degrees counterclockwise*
0 create outline with 5 corners*
4,1,5,$1,$2,$3,$4,$5,$6,$7,$8,$9,$10,$1,$2,$11*%
%AMOutline6P*
0 Free polygon, 6 corners , with rotation*
0 The origin of the aperture is its center*
0 number of corners: always 6*
0 $1 to $12 corner X, Y*
0 $13 Rotation angle, in degrees counterclockwise*
0 create outline with 6 corners*
4,1,6,$1,$2,$3,$4,$5,$6,$7,$8,$9,$10,$11,$12,$1,$2,$13*%
%AMOutline7P*
0 Free polygon, 7 corners , with rotation*
0 The origin of the aperture is its center*
0 number of corners: always 7*
0 $1 to $14 corner X, Y*
0 $15 Rotation angle, in degrees counterclockwise*
0 create outline with 7 corners*
4,1,7,$1,$2,$3,$4,$5,$6,$7,$8,$9,$10,$11,$12,$13,$14,$1,$2,$15*%
%AMOutline8P*
0 Free polygon, 8 corners , with rotation*
0 The origin of the aperture is its center*
0 number of corners: always 8*
0 $1 to $16 corner X, Y*
0 $17 Rotation angle, in degrees counterclockwise*
0 create outline with 8 corners*
4,1,8,$1,$2,$3,$4,$5,$6,$7,$8,$9,$10,$11,$12,$13,$14,$15,$16,$1,$2,$17*%
G04 Aperture macros list end*
%TA.AperFunction,ComponentPad*%
%ADD10Outline8P,-0.750000X0.310660X-0.310660X0.750000X0.310660X0.750000X0.750000X0.310660X0.750000X-0.310660X0.310660X-0.750000X-0.310660X-0.750000X-0.750000X-0.310660X180.000000*%
%TD*%
%TA.AperFunction,ComponentPad*%
%ADD11C,1.500000*%
%TD*%
%TA.AperFunction,ComponentPad*%
%ADD12C,1.270000*%
%TD*%
%TA.AperFunction,ComponentPad*%
%ADD13Outline8P,-0.750000X0.310660X-0.310660X0.750000X0.310660X0.750000X0.750000X0.310660X0.750000X-0.310660X0.310660X-0.750000X-0.310660X-0.750000X-0.750000X-0.310660X0.000000*%
%TD*%
%TA.AperFunction,ComponentPad*%
%ADD14O,0.889000X1.778000*%
%TD*%
%TA.AperFunction,ViaPad*%
%ADD15C,0.450000*%
%TD*%
%TA.AperFunction,Conductor*%
%ADD16C,0.254000*%
%TD*%
G04 APERTURE END LIST*
D10*
%TO.N,/P1.12_RX_D7*%
%TO.C,J14*%
X233977986Y-60661397D03*
D11*
%TO.N,/P1.13_SCK_D8*%
X233977986Y-58121397D03*
%TO.N,/P1.14_MISO_D9*%
X233977986Y-55581397D03*
%TO.N,/P1.15_MOSI_D10*%
X233977986Y-53041397D03*
%TO.N,/3V3*%
X233977986Y-50501397D03*
%TO.N,GND*%
X233977986Y-47961397D03*
%TO.N,/VBUS*%
X233977986Y-45421397D03*
D12*
%TO.N,/P1.12_RX_D7*%
X235247986Y-60661397D03*
%TO.N,/P1.13_SCK_D8*%
X235247986Y-58121397D03*
%TO.N,/P1.14_MISO_D9*%
X235247986Y-55581397D03*
%TO.N,/P1.15_MOSI_D10*%
X235247986Y-53041397D03*
%TO.N,/3V3*%
X235247986Y-50501397D03*
%TO.N,GND*%
X235247986Y-47961397D03*
%TO.N,/VBUS*%
X235247986Y-45421397D03*
%TD*%
D13*
%TO.N,/P0.02_AIN0_LOW_A0_D0*%
%TO.C,J13*%
X218738668Y-45419787D03*
D11*
%TO.N,/P0.03_AIN1_LOW_A1_D1*%
X218738668Y-47959787D03*
%TO.N,/P0.28_AIN4_LOW_A2_D2*%
X218738668Y-50499787D03*
%TO.N,/P0.29_AIN5_LOW_A3_D3*%
X218738668Y-53039787D03*
%TO.N,/P0.04_AIN2_A4_D4*%
X218738668Y-55579787D03*
%TO.N,/P0.05_AIN3_A5_D5*%
X218738668Y-58119787D03*
%TO.N,/P1.11_TX_D6*%
X218738668Y-60659787D03*
D12*
%TO.N,/P0.02_AIN0_LOW_A0_D0*%
X217468668Y-45419787D03*
%TO.N,/P0.03_AIN1_LOW_A1_D1*%
X217468668Y-47959787D03*
%TO.N,/P0.28_AIN4_LOW_A2_D2*%
X217468668Y-50499787D03*
%TO.N,/P0.29_AIN5_LOW_A3_D3*%
X217468668Y-53039787D03*
%TO.N,/P0.04_AIN2_A4_D4*%
X217468668Y-55579787D03*
%TO.N,/P0.05_AIN3_A5_D5*%
X217468668Y-58119787D03*
%TO.N,/P1.11_TX_D6*%
X217468668Y-60659787D03*
%TD*%
D14*
%TO.N,GND*%
%TO.C,USB1*%
X230668000Y-43662500D03*
X222032000Y-43662500D03*
X230668000Y-47853500D03*
X222032000Y-47853500D03*
%TD*%
D15*
%TO.N,GND*%
X233983200Y-43185800D03*
X222070600Y-50932800D03*
X228395200Y-57536800D03*
X226490200Y-60076800D03*
X233983200Y-62870800D03*
X233348200Y-43185800D03*
X221664200Y-60076800D03*
X230757400Y-52177400D03*
X229030200Y-60978500D03*
X220140200Y-55631800D03*
X229411200Y-43058800D03*
X219505200Y-62108800D03*
X229030200Y-62248500D03*
X227379200Y-43058800D03*
X219060700Y-51758300D03*
X232332200Y-60076800D03*
X223315200Y-43058800D03*
X229919200Y-44963800D03*
X226363200Y-55250800D03*
X233665700Y-49218300D03*
X221156200Y-53726800D03*
X222299200Y-60076800D03*
X218108200Y-43820800D03*
X233665700Y-46678300D03*
X230935200Y-60076800D03*
X226998200Y-55885800D03*
X219060700Y-59378300D03*
X225728200Y-60076800D03*
X221029200Y-60076800D03*
X229030200Y-61613500D03*
X227633200Y-55250800D03*
X224966200Y-60076800D03*
X227633200Y-55885800D03*
X229550900Y-51529700D03*
X221473700Y-56012800D03*
X226363200Y-54615800D03*
X220394200Y-60076800D03*
X219060700Y-46678300D03*
X231443200Y-49535800D03*
X220013200Y-61473800D03*
X224331200Y-50996300D03*
X226363200Y-50869300D03*
X220140200Y-54996800D03*
X223569200Y-60076800D03*
X224204200Y-60076800D03*
X229030200Y-60330800D03*
X228522200Y-60076800D03*
X226363200Y-43058800D03*
X227633200Y-54615800D03*
X223378700Y-54933300D03*
X218870200Y-62616800D03*
X224458200Y-43058800D03*
X233348200Y-43820800D03*
X226998200Y-55250800D03*
X222934200Y-60076800D03*
X219060700Y-54298300D03*
X222489700Y-55682600D03*
X226363200Y-55885800D03*
X218743200Y-43185800D03*
X219378200Y-43820800D03*
X226998200Y-54615800D03*
X234618200Y-43820800D03*
X219378200Y-43185800D03*
X220013200Y-61981800D03*
X218743200Y-43820800D03*
X220140200Y-58933800D03*
X220838700Y-57663800D03*
X219568700Y-62680300D03*
X229030200Y-62908900D03*
X233983200Y-62235800D03*
X233983200Y-43820800D03*
X232586200Y-54488800D03*
X219060700Y-56838300D03*
X220140200Y-62616800D03*
X219060700Y-49218300D03*
X228268200Y-43058800D03*
X232586200Y-56330300D03*
X227252200Y-60076800D03*
X225347200Y-43058800D03*
%TO.N,/3V3*%
X231697200Y-44532000D03*
X222997700Y-58616300D03*
X230681200Y-57536800D03*
X230122400Y-51720200D03*
X222045200Y-54234800D03*
X225474200Y-51618600D03*
X223378700Y-55492100D03*
%TO.N,Net-(R44-Pad1)*%
X232455600Y-46233800D03*
X233221200Y-54107800D03*
%TO.N,/VBAT*%
X223569200Y-46233800D03*
X221473700Y-54552300D03*
X224626050Y-59565200D03*
X227607800Y-49535800D03*
%TO.N,/VIN*%
X228776200Y-50297800D03*
X223569200Y-45217800D03*
X220521200Y-53726800D03*
%TO.N,/DEC4-6*%
X228966700Y-58743300D03*
X231951200Y-53218800D03*
%TO.N,Net-(USB1-B5{slash}CC2)*%
X224902700Y-49408800D03*
X226109200Y-49662800D03*
%TO.N,Net-(CHG2-Pad+)*%
X232078200Y-56025500D03*
X232586200Y-47122800D03*
%TO.N,/P1.10_MIC_PWR*%
X233284700Y-59568800D03*
X230681200Y-56901800D03*
%TO.N,/6D_PWR*%
X221473700Y-51758300D03*
X226363200Y-52964800D03*
%TO.N,/RESET*%
X224648700Y-55123800D03*
X224712200Y-45852800D03*
X223696200Y-58552800D03*
%TO.N,/VBUS*%
X223378700Y-52329800D03*
X224131600Y-47613432D03*
X230681200Y-45852800D03*
X222362700Y-54742800D03*
%TO.N,/P0.21_QSPI_SCK*%
X221346700Y-58743300D03*
X224902700Y-55987400D03*
%TO.N,/P0.04_AIN2_A4_D4*%
X228369800Y-51504300D03*
%TO.N,/P0.28_AIN4_LOW_A2_D2*%
X221283200Y-48900800D03*
X229284200Y-54488800D03*
%TO.N,/P0.05_AIN3_A5_D5*%
X227569700Y-53028300D03*
%TO.N,/P1.11_TX_D6*%
X229284200Y-56901800D03*
%TO.N,/P0.02_AIN0_LOW_A0_D0*%
X230541500Y-54996800D03*
%TO.N,/P0.03_AIN1_LOW_A1_D1*%
X229284200Y-55123800D03*
%TO.N,/P0.29_AIN5_LOW_A3_D3*%
X220648200Y-44455800D03*
X230770100Y-54438000D03*
%TO.N,/P1.13_SCK_D8*%
X230617700Y-56038200D03*
%TO.N,/P1.12_RX_D7*%
X229258800Y-56317600D03*
%TO.N,/P1.14_MISO_D9*%
X229267553Y-55691478D03*
%TO.N,/P0.16_PDM_DATA*%
X231570200Y-60076800D03*
X225067800Y-53803000D03*
%TO.N,/P1.00_PDM_CLK*%
X226109200Y-57409800D03*
X232967200Y-62045300D03*
%TO.N,/P0.09{slash}NFC1*%
X226871200Y-57409800D03*
%TO.N,/P0.10{slash}NFC2*%
X227430000Y-57409800D03*
%TO.N,/INTERNAL_I2C_SCL*%
X223505700Y-49726300D03*
X228077700Y-53282400D03*
%TO.N,/INTERNAL_I2C_SDA*%
X226998200Y-52964800D03*
X224077200Y-49726300D03*
%TO.N,/P0.31_AIN7_BAT*%
X230198600Y-53637900D03*
X226426700Y-59060800D03*
%TO.N,/P0.14_~{READ_BAT}*%
X224766600Y-53320400D03*
X225869682Y-59057200D03*
%TO.N,/P0.26_USER_RED*%
X232357600Y-51745600D03*
X228700000Y-52050400D03*
%TO.N,/SWDCLK*%
X224534400Y-58933800D03*
%TO.N,/SWDIO*%
X224250200Y-58057500D03*
%TO.N,/6D_INT1*%
X222045200Y-51694800D03*
X225702800Y-52710800D03*
%TO.N,/P0.23_QSPI_SIO_3*%
X224699500Y-56571600D03*
X221918200Y-58743300D03*
%TO.N,/P0.22_QSPI_SIO_2*%
X221283200Y-57282800D03*
X223061200Y-56520800D03*
%TO.N,/P0.20_QSPI_SIO_0*%
X220775200Y-58743300D03*
X223366000Y-56050900D03*
%TD*%
%TO.N,GND*%
D16*
X222647200Y-43058800D02*
X223315200Y-43058800D01*
X230079200Y-43058800D02*
X229411200Y-43058800D01*
X230663200Y-43642800D02*
X230663200Y-44945800D01*
X230663200Y-43642800D02*
X230079200Y-43058800D01*
X222063200Y-43642800D02*
X222647200Y-43058800D01*
X230663200Y-47842800D02*
X230663200Y-46759800D01*
X231189200Y-46233800D02*
X230663200Y-46759800D01*
X230663200Y-44945800D02*
X231189200Y-45471800D01*
X231189200Y-45471800D02*
X231189200Y-46233800D01*
X222063200Y-47842800D02*
X222063200Y-43642800D01*
%TD*%
%TA.AperFunction,Conductor*%
%TO.N,GND*%
G36*
X233327090Y-42584937D02*
G01*
X233568691Y-42600772D01*
X233570550Y-42600967D01*
X233581307Y-42602513D01*
X233582653Y-42603312D01*
X233817025Y-42649365D01*
X233817271Y-42649414D01*
X233820393Y-42650246D01*
X234053122Y-42729247D01*
X234056053Y-42730461D01*
X234144982Y-42774316D01*
X234276478Y-42839163D01*
X234279242Y-42840759D01*
X234483580Y-42977293D01*
X234486112Y-42979236D01*
X234670880Y-43141274D01*
X234673137Y-43143531D01*
X234835175Y-43328299D01*
X234837118Y-43330831D01*
X234973652Y-43535169D01*
X234975248Y-43537933D01*
X235047484Y-43684411D01*
X235050000Y-43695203D01*
X235050000Y-44703990D01*
X235042853Y-44721243D01*
X235034938Y-44726533D01*
X234905278Y-44780239D01*
X234786781Y-44859417D01*
X234702394Y-44943804D01*
X234685141Y-44950950D01*
X234667887Y-44943803D01*
X234664853Y-44940106D01*
X234629290Y-44886883D01*
X234629287Y-44886879D01*
X234512503Y-44770095D01*
X234512499Y-44770092D01*
X234375164Y-44678327D01*
X234267259Y-44633632D01*
X234222567Y-44615120D01*
X234222565Y-44615119D01*
X234222564Y-44615119D01*
X234060578Y-44582898D01*
X234060574Y-44582897D01*
X234060571Y-44582897D01*
X233895401Y-44582897D01*
X233895397Y-44582897D01*
X233895393Y-44582898D01*
X233733407Y-44615119D01*
X233580807Y-44678327D01*
X233443472Y-44770092D01*
X233443468Y-44770095D01*
X233326684Y-44886879D01*
X233326681Y-44886883D01*
X233234916Y-45024218D01*
X233171708Y-45176818D01*
X233139487Y-45338804D01*
X233139486Y-45338817D01*
X233139486Y-45503976D01*
X233139487Y-45503989D01*
X233171708Y-45665975D01*
X233234916Y-45818575D01*
X233326681Y-45955910D01*
X233326684Y-45955914D01*
X233443468Y-46072698D01*
X233443472Y-46072701D01*
X233443473Y-46072702D01*
X233580807Y-46164466D01*
X233733405Y-46227674D01*
X233895401Y-46259897D01*
X233895406Y-46259897D01*
X234060566Y-46259897D01*
X234060571Y-46259897D01*
X234222567Y-46227674D01*
X234375165Y-46164466D01*
X234512499Y-46072702D01*
X234629291Y-45955910D01*
X234664853Y-45902686D01*
X234680381Y-45892312D01*
X234698697Y-45895955D01*
X234702394Y-45898990D01*
X234786776Y-45983372D01*
X234786780Y-45983375D01*
X234905278Y-46062554D01*
X234905279Y-46062554D01*
X234905280Y-46062555D01*
X235026563Y-46112792D01*
X235034938Y-46116261D01*
X235048143Y-46129467D01*
X235050000Y-46138804D01*
X235050000Y-49783990D01*
X235042853Y-49801243D01*
X235034938Y-49806533D01*
X234905278Y-49860239D01*
X234786781Y-49939417D01*
X234702394Y-50023804D01*
X234685141Y-50030950D01*
X234667887Y-50023803D01*
X234664853Y-50020106D01*
X234640928Y-49984300D01*
X234629291Y-49966884D01*
X234629290Y-49966883D01*
X234629287Y-49966879D01*
X234512503Y-49850095D01*
X234512499Y-49850092D01*
X234375164Y-49758327D01*
X234267259Y-49713632D01*
X234222567Y-49695120D01*
X234222565Y-49695119D01*
X234222564Y-49695119D01*
X234060578Y-49662898D01*
X234060574Y-49662897D01*
X234060571Y-49662897D01*
X233895401Y-49662897D01*
X233895397Y-49662897D01*
X233895393Y-49662898D01*
X233733407Y-49695119D01*
X233580807Y-49758327D01*
X233443472Y-49850092D01*
X233443468Y-49850095D01*
X233326684Y-49966879D01*
X233326681Y-49966883D01*
X233234916Y-50104218D01*
X233171708Y-50256818D01*
X233139487Y-50418804D01*
X233139486Y-50418817D01*
X233139486Y-50583976D01*
X233139487Y-50583989D01*
X233171708Y-50745975D01*
X233234916Y-50898575D01*
X233326681Y-51035910D01*
X233326684Y-51035914D01*
X233443468Y-51152698D01*
X233443472Y-51152701D01*
X233443473Y-51152702D01*
X233580807Y-51244466D01*
X233733405Y-51307674D01*
X233895401Y-51339897D01*
X233895406Y-51339897D01*
X234060566Y-51339897D01*
X234060571Y-51339897D01*
X234222567Y-51307674D01*
X234375165Y-51244466D01*
X234512499Y-51152702D01*
X234629291Y-51035910D01*
X234664853Y-50982686D01*
X234680381Y-50972312D01*
X234698697Y-50975955D01*
X234702394Y-50978990D01*
X234786776Y-51063372D01*
X234786780Y-51063375D01*
X234905278Y-51142554D01*
X234905279Y-51142554D01*
X234905280Y-51142555D01*
X235021754Y-51190800D01*
X235034938Y-51196261D01*
X235048143Y-51209467D01*
X235050000Y-51218804D01*
X235050000Y-52323990D01*
X235042853Y-52341243D01*
X235034938Y-52346533D01*
X234905278Y-52400239D01*
X234786781Y-52479417D01*
X234702394Y-52563804D01*
X234685141Y-52570950D01*
X234667887Y-52563803D01*
X234664853Y-52560106D01*
X234639587Y-52522293D01*
X234629291Y-52506884D01*
X234629290Y-52506883D01*
X234629287Y-52506879D01*
X234512503Y-52390095D01*
X234512499Y-52390092D01*
X234375164Y-52298327D01*
X234267259Y-52253632D01*
X234222567Y-52235120D01*
X234222565Y-52235119D01*
X234222564Y-52235119D01*
X234060578Y-52202898D01*
X234060574Y-52202897D01*
X234060571Y-52202897D01*
X233895401Y-52202897D01*
X233895397Y-52202897D01*
X233895393Y-52202898D01*
X233733407Y-52235119D01*
X233580807Y-52298327D01*
X233443472Y-52390092D01*
X233443468Y-52390095D01*
X233326684Y-52506879D01*
X233326681Y-52506883D01*
X233234916Y-52644218D01*
X233171708Y-52796818D01*
X233139487Y-52958804D01*
X233139486Y-52958817D01*
X233139486Y-53123976D01*
X233139487Y-53123989D01*
X233171388Y-53284368D01*
X233171709Y-53285978D01*
X233187323Y-53323673D01*
X233234916Y-53438575D01*
X233326681Y-53575910D01*
X233326684Y-53575914D01*
X233443468Y-53692698D01*
X233443472Y-53692701D01*
X233443473Y-53692702D01*
X233580807Y-53784466D01*
X233733405Y-53847674D01*
X233895401Y-53879897D01*
X233895406Y-53879897D01*
X234060566Y-53879897D01*
X234060571Y-53879897D01*
X234222567Y-53847674D01*
X234375165Y-53784466D01*
X234512499Y-53692702D01*
X234629291Y-53575910D01*
X234664853Y-53522686D01*
X234680381Y-53512312D01*
X234698697Y-53515955D01*
X234702394Y-53518990D01*
X234786776Y-53603372D01*
X234786780Y-53603375D01*
X234786781Y-53603376D01*
X234832462Y-53633899D01*
X234905278Y-53682554D01*
X234905279Y-53682554D01*
X234905280Y-53682555D01*
X235033062Y-53735484D01*
X235034938Y-53736261D01*
X235048143Y-53749467D01*
X235050000Y-53758804D01*
X235050000Y-54863990D01*
X235042853Y-54881243D01*
X235034938Y-54886533D01*
X234905278Y-54940239D01*
X234786781Y-55019417D01*
X234702394Y-55103804D01*
X234685141Y-55110950D01*
X234667887Y-55103803D01*
X234664853Y-55100106D01*
X234653107Y-55082527D01*
X234629291Y-55046884D01*
X234629290Y-55046883D01*
X234629287Y-55046879D01*
X234512503Y-54930095D01*
X234512499Y-54930092D01*
X234375164Y-54838327D01*
X234246827Y-54785169D01*
X234222567Y-54775120D01*
X234222565Y-54775119D01*
X234222564Y-54775119D01*
X234060578Y-54742898D01*
X234060574Y-54742897D01*
X234060571Y-54742897D01*
X233895401Y-54742897D01*
X233895397Y-54742897D01*
X233895393Y-54742898D01*
X233733407Y-54775119D01*
X233580807Y-54838327D01*
X233443472Y-54930092D01*
X233443468Y-54930095D01*
X233326684Y-55046879D01*
X233326681Y-55046883D01*
X233234916Y-55184218D01*
X233171708Y-55336818D01*
X233139487Y-55498804D01*
X233139486Y-55498817D01*
X233139486Y-55663976D01*
X233139487Y-55663989D01*
X233171388Y-55824368D01*
X233171709Y-55825978D01*
X233188449Y-55866392D01*
X233234916Y-55978575D01*
X233326681Y-56115910D01*
X233326684Y-56115914D01*
X233443468Y-56232698D01*
X233443472Y-56232701D01*
X233443473Y-56232702D01*
X233580807Y-56324466D01*
X233733405Y-56387674D01*
X233895401Y-56419897D01*
X233895406Y-56419897D01*
X234060566Y-56419897D01*
X234060571Y-56419897D01*
X234222567Y-56387674D01*
X234375165Y-56324466D01*
X234512499Y-56232702D01*
X234629291Y-56115910D01*
X234664853Y-56062686D01*
X234680381Y-56052312D01*
X234698697Y-56055955D01*
X234702394Y-56058990D01*
X234786776Y-56143372D01*
X234786780Y-56143375D01*
X234786781Y-56143376D01*
X234831691Y-56173384D01*
X234905278Y-56222554D01*
X234905279Y-56222554D01*
X234905280Y-56222555D01*
X235033062Y-56275484D01*
X235034938Y-56276261D01*
X235048143Y-56289467D01*
X235050000Y-56298804D01*
X235050000Y-57403990D01*
X235042853Y-57421243D01*
X235034938Y-57426533D01*
X234905278Y-57480239D01*
X234786781Y-57559417D01*
X234702394Y-57643804D01*
X234685141Y-57650950D01*
X234667887Y-57643803D01*
X234664853Y-57640106D01*
X234639587Y-57602293D01*
X234629291Y-57586884D01*
X234629290Y-57586883D01*
X234629287Y-57586879D01*
X234512503Y-57470095D01*
X234512499Y-57470092D01*
X234375164Y-57378327D01*
X234267259Y-57333632D01*
X234222567Y-57315120D01*
X234222565Y-57315119D01*
X234222564Y-57315119D01*
X234060578Y-57282898D01*
X234060574Y-57282897D01*
X234060571Y-57282897D01*
X233895401Y-57282897D01*
X233895397Y-57282897D01*
X233895393Y-57282898D01*
X233733407Y-57315119D01*
X233580807Y-57378327D01*
X233443472Y-57470092D01*
X233443468Y-57470095D01*
X233326684Y-57586879D01*
X233326681Y-57586883D01*
X233234916Y-57724218D01*
X233171708Y-57876818D01*
X233139487Y-58038804D01*
X233139486Y-58038817D01*
X233139486Y-58203976D01*
X233139487Y-58203989D01*
X233171708Y-58365975D01*
X233234916Y-58518575D01*
X233326681Y-58655910D01*
X233326684Y-58655914D01*
X233443468Y-58772698D01*
X233443472Y-58772701D01*
X233443473Y-58772702D01*
X233580807Y-58864466D01*
X233733405Y-58927674D01*
X233895401Y-58959897D01*
X233895406Y-58959897D01*
X234060566Y-58959897D01*
X234060571Y-58959897D01*
X234222567Y-58927674D01*
X234375165Y-58864466D01*
X234512499Y-58772702D01*
X234629291Y-58655910D01*
X234664853Y-58602686D01*
X234680381Y-58592312D01*
X234698697Y-58595955D01*
X234702394Y-58598990D01*
X234786776Y-58683372D01*
X234786780Y-58683375D01*
X234905278Y-58762554D01*
X234905279Y-58762554D01*
X234905280Y-58762555D01*
X235026563Y-58812792D01*
X235034938Y-58816261D01*
X235048143Y-58829467D01*
X235050000Y-58838804D01*
X235050000Y-59943990D01*
X235042853Y-59961243D01*
X235034938Y-59966533D01*
X234905278Y-60020239D01*
X234786780Y-60099418D01*
X234786776Y-60099421D01*
X234711555Y-60174643D01*
X234694302Y-60181790D01*
X234677049Y-60174643D01*
X234325303Y-59822897D01*
X233630667Y-59822897D01*
X233630664Y-59822899D01*
X233139486Y-60314079D01*
X233139486Y-61008715D01*
X233139488Y-61008718D01*
X233630668Y-61499896D01*
X233630669Y-61499897D01*
X234325305Y-61499896D01*
X234677050Y-61148148D01*
X234694301Y-61141003D01*
X234711554Y-61148149D01*
X234711554Y-61148150D01*
X234786776Y-61223372D01*
X234786780Y-61223375D01*
X234905278Y-61302554D01*
X234905279Y-61302554D01*
X234905280Y-61302555D01*
X235033062Y-61355484D01*
X235034938Y-61356261D01*
X235048143Y-61369467D01*
X235050000Y-61378804D01*
X235050000Y-62426025D01*
X235047484Y-62436817D01*
X234975248Y-62583296D01*
X234973652Y-62586060D01*
X234837118Y-62790398D01*
X234835175Y-62792930D01*
X234673137Y-62977698D01*
X234670880Y-62979955D01*
X234486112Y-63141993D01*
X234483580Y-63143936D01*
X234279242Y-63280470D01*
X234276478Y-63282066D01*
X234056062Y-63390764D01*
X234053113Y-63391985D01*
X233822008Y-63470433D01*
X233821046Y-63470738D01*
X233818661Y-63471439D01*
X233816540Y-63471960D01*
X233584917Y-63518032D01*
X233583630Y-63518253D01*
X233568920Y-63520368D01*
X233567043Y-63520564D01*
X233327090Y-63536293D01*
X233325494Y-63536345D01*
X228749800Y-63536345D01*
X228732547Y-63529198D01*
X228725400Y-63511945D01*
X228725400Y-62004027D01*
X232653700Y-62004027D01*
X232653700Y-62086573D01*
X232664186Y-62125707D01*
X232675065Y-62166307D01*
X232716338Y-62237793D01*
X232716342Y-62237798D01*
X232774701Y-62296157D01*
X232774706Y-62296161D01*
X232774707Y-62296162D01*
X232846194Y-62337435D01*
X232925927Y-62358800D01*
X232925930Y-62358800D01*
X233008470Y-62358800D01*
X233008473Y-62358800D01*
X233088206Y-62337435D01*
X233159693Y-62296162D01*
X233218062Y-62237793D01*
X233259335Y-62166306D01*
X233280700Y-62086573D01*
X233280700Y-62004027D01*
X233259335Y-61924294D01*
X233218062Y-61852807D01*
X233218061Y-61852806D01*
X233218057Y-61852801D01*
X233159698Y-61794442D01*
X233159693Y-61794438D01*
X233088206Y-61753165D01*
X233088207Y-61753165D01*
X233068272Y-61747823D01*
X233008473Y-61731800D01*
X232925927Y-61731800D01*
X232878087Y-61744619D01*
X232846192Y-61753165D01*
X232774706Y-61794438D01*
X232774701Y-61794442D01*
X232716342Y-61852801D01*
X232716338Y-61852806D01*
X232675065Y-61924292D01*
X232664382Y-61964160D01*
X232653700Y-62004027D01*
X228725400Y-62004027D01*
X228725400Y-60381600D01*
X220419600Y-60381600D01*
X220419600Y-63506800D01*
X220412453Y-63524053D01*
X220395200Y-63531200D01*
X219278605Y-63531200D01*
X219277009Y-63531148D01*
X219115709Y-63520574D01*
X219113833Y-63520378D01*
X219098733Y-63518207D01*
X219097445Y-63517986D01*
X218866209Y-63471991D01*
X218864101Y-63471474D01*
X218861227Y-63470631D01*
X218860252Y-63470322D01*
X218629480Y-63391985D01*
X218626531Y-63390764D01*
X218406115Y-63282066D01*
X218403351Y-63280470D01*
X218199013Y-63143936D01*
X218196481Y-63141993D01*
X218011713Y-62979955D01*
X218009456Y-62977698D01*
X217847418Y-62792930D01*
X217845475Y-62790398D01*
X217708941Y-62586060D01*
X217707345Y-62583296D01*
X217678916Y-62525647D01*
X217676400Y-62514855D01*
X217676400Y-61373156D01*
X217683547Y-61355903D01*
X217691460Y-61350614D01*
X217811374Y-61300945D01*
X217929873Y-61221766D01*
X218014261Y-61137377D01*
X218031512Y-61130232D01*
X218048765Y-61137378D01*
X218051797Y-61141073D01*
X218087363Y-61194300D01*
X218087366Y-61194304D01*
X218204150Y-61311088D01*
X218204154Y-61311091D01*
X218204155Y-61311092D01*
X218341489Y-61402856D01*
X218494087Y-61466064D01*
X218656083Y-61498287D01*
X218656088Y-61498287D01*
X218821248Y-61498287D01*
X218821253Y-61498287D01*
X218983249Y-61466064D01*
X219135847Y-61402856D01*
X219273181Y-61311092D01*
X219389973Y-61194300D01*
X219481737Y-61056966D01*
X219544945Y-60904368D01*
X219577168Y-60742372D01*
X219577168Y-60577202D01*
X219544945Y-60415206D01*
X219481737Y-60262608D01*
X219389973Y-60125274D01*
X219389972Y-60125273D01*
X219389969Y-60125269D01*
X219300227Y-60035527D01*
X231256700Y-60035527D01*
X231256700Y-60118073D01*
X231258630Y-60125274D01*
X231278065Y-60197807D01*
X231319338Y-60269293D01*
X231319342Y-60269298D01*
X231377701Y-60327657D01*
X231377706Y-60327661D01*
X231377707Y-60327662D01*
X231449194Y-60368935D01*
X231528927Y-60390300D01*
X231528930Y-60390300D01*
X231611470Y-60390300D01*
X231611473Y-60390300D01*
X231691206Y-60368935D01*
X231762693Y-60327662D01*
X231821062Y-60269293D01*
X231862335Y-60197806D01*
X231883700Y-60118073D01*
X231883700Y-60035527D01*
X231862335Y-59955794D01*
X231821062Y-59884307D01*
X231821061Y-59884306D01*
X231821057Y-59884301D01*
X231762698Y-59825942D01*
X231762693Y-59825938D01*
X231691206Y-59784665D01*
X231691207Y-59784665D01*
X231671272Y-59779323D01*
X231611473Y-59763300D01*
X231528927Y-59763300D01*
X231481087Y-59776119D01*
X231449192Y-59784665D01*
X231377706Y-59825938D01*
X231377701Y-59825942D01*
X231319342Y-59884301D01*
X231319338Y-59884306D01*
X231278065Y-59955792D01*
X231275187Y-59966533D01*
X231256700Y-60035527D01*
X219300227Y-60035527D01*
X219273185Y-60008485D01*
X219273181Y-60008482D01*
X219135846Y-59916717D01*
X219027941Y-59872022D01*
X218983249Y-59853510D01*
X218983247Y-59853509D01*
X218983246Y-59853509D01*
X218821260Y-59821288D01*
X218821256Y-59821287D01*
X218821253Y-59821287D01*
X218656083Y-59821287D01*
X218656079Y-59821287D01*
X218656075Y-59821288D01*
X218494089Y-59853509D01*
X218341489Y-59916717D01*
X218204154Y-60008482D01*
X218204150Y-60008485D01*
X218087366Y-60125269D01*
X218087363Y-60125273D01*
X218051800Y-60178496D01*
X218036272Y-60188871D01*
X218017956Y-60185228D01*
X218014259Y-60182193D01*
X217929877Y-60097811D01*
X217929873Y-60097808D01*
X217811375Y-60018629D01*
X217691462Y-59968960D01*
X217678257Y-59955754D01*
X217676400Y-59946417D01*
X217676400Y-58833156D01*
X217683547Y-58815903D01*
X217691460Y-58810614D01*
X217811374Y-58760945D01*
X217929873Y-58681766D01*
X218014261Y-58597377D01*
X218031512Y-58590232D01*
X218048765Y-58597378D01*
X218051797Y-58601073D01*
X218087363Y-58654300D01*
X218087366Y-58654304D01*
X218204150Y-58771088D01*
X218204154Y-58771091D01*
X218204155Y-58771092D01*
X218341489Y-58862856D01*
X218494087Y-58926064D01*
X218656083Y-58958287D01*
X218656088Y-58958287D01*
X218821248Y-58958287D01*
X218821253Y-58958287D01*
X218983249Y-58926064D01*
X219135847Y-58862856D01*
X219273181Y-58771092D01*
X219306967Y-58737306D01*
X219342247Y-58702027D01*
X220461700Y-58702027D01*
X220461700Y-58784573D01*
X220473730Y-58829467D01*
X220483065Y-58864307D01*
X220524338Y-58935793D01*
X220524342Y-58935798D01*
X220582701Y-58994157D01*
X220582706Y-58994161D01*
X220582707Y-58994162D01*
X220654194Y-59035435D01*
X220733927Y-59056800D01*
X220733930Y-59056800D01*
X220816470Y-59056800D01*
X220816473Y-59056800D01*
X220896206Y-59035435D01*
X220967693Y-58994162D01*
X221026062Y-58935793D01*
X221039820Y-58911963D01*
X221054635Y-58900595D01*
X221073150Y-58903033D01*
X221082079Y-58911962D01*
X221092378Y-58929800D01*
X221095838Y-58935793D01*
X221095842Y-58935798D01*
X221154201Y-58994157D01*
X221154206Y-58994161D01*
X221154207Y-58994162D01*
X221225694Y-59035435D01*
X221305427Y-59056800D01*
X221305430Y-59056800D01*
X221387970Y-59056800D01*
X221387973Y-59056800D01*
X221467706Y-59035435D01*
X221539193Y-58994162D01*
X221597562Y-58935793D01*
X221611320Y-58911963D01*
X221626135Y-58900595D01*
X221644650Y-58903033D01*
X221653579Y-58911962D01*
X221663878Y-58929800D01*
X221667338Y-58935793D01*
X221667342Y-58935798D01*
X221725701Y-58994157D01*
X221725706Y-58994161D01*
X221725707Y-58994162D01*
X221797194Y-59035435D01*
X221876927Y-59056800D01*
X221876930Y-59056800D01*
X221959470Y-59056800D01*
X221959473Y-59056800D01*
X222039206Y-59035435D01*
X222110693Y-58994162D01*
X222169062Y-58935793D01*
X222210335Y-58864306D01*
X222231700Y-58784573D01*
X222231700Y-58702027D01*
X222210335Y-58622294D01*
X222196880Y-58598990D01*
X222189166Y-58585628D01*
X222183045Y-58575027D01*
X222684200Y-58575027D01*
X222684200Y-58657573D01*
X222696112Y-58702027D01*
X222705565Y-58737307D01*
X222746838Y-58808793D01*
X222746842Y-58808798D01*
X222805201Y-58867157D01*
X222805206Y-58867161D01*
X222805207Y-58867162D01*
X222876694Y-58908435D01*
X222956427Y-58929800D01*
X222956430Y-58929800D01*
X223038970Y-58929800D01*
X223038973Y-58929800D01*
X223118706Y-58908435D01*
X223146259Y-58892527D01*
X224220900Y-58892527D01*
X224220900Y-58975073D01*
X224231847Y-59015927D01*
X224242265Y-59054807D01*
X224283538Y-59126293D01*
X224283542Y-59126298D01*
X224341901Y-59184657D01*
X224341906Y-59184661D01*
X224341907Y-59184662D01*
X224413394Y-59225935D01*
X224474848Y-59242402D01*
X224489663Y-59253770D01*
X224492101Y-59272285D01*
X224480732Y-59287101D01*
X224433556Y-59314338D01*
X224433551Y-59314342D01*
X224375192Y-59372701D01*
X224375188Y-59372706D01*
X224333915Y-59444192D01*
X224332950Y-59447794D01*
X224312550Y-59523927D01*
X224312550Y-59606473D01*
X224313515Y-59610073D01*
X224333915Y-59686207D01*
X224375188Y-59757693D01*
X224375192Y-59757698D01*
X224433551Y-59816057D01*
X224433556Y-59816061D01*
X224433557Y-59816062D01*
X224505044Y-59857335D01*
X224584777Y-59878700D01*
X224584780Y-59878700D01*
X224667320Y-59878700D01*
X224667323Y-59878700D01*
X224747056Y-59857335D01*
X224818543Y-59816062D01*
X224876912Y-59757693D01*
X224918185Y-59686206D01*
X224939550Y-59606473D01*
X224939550Y-59527527D01*
X232971200Y-59527527D01*
X232971200Y-59610073D01*
X232987223Y-59669872D01*
X232992565Y-59689807D01*
X233033838Y-59761293D01*
X233033842Y-59761298D01*
X233092201Y-59819657D01*
X233092206Y-59819661D01*
X233092207Y-59819662D01*
X233163694Y-59860935D01*
X233243427Y-59882300D01*
X233243430Y-59882300D01*
X233325970Y-59882300D01*
X233325973Y-59882300D01*
X233405706Y-59860935D01*
X233477193Y-59819662D01*
X233535562Y-59761293D01*
X233576835Y-59689806D01*
X233598200Y-59610073D01*
X233598200Y-59527527D01*
X233576835Y-59447794D01*
X233574755Y-59444192D01*
X233535561Y-59376306D01*
X233535557Y-59376301D01*
X233477198Y-59317942D01*
X233477193Y-59317938D01*
X233405706Y-59276665D01*
X233405707Y-59276665D01*
X233385772Y-59271323D01*
X233325973Y-59255300D01*
X233243427Y-59255300D01*
X233195587Y-59268119D01*
X233163692Y-59276665D01*
X233092206Y-59317938D01*
X233092201Y-59317942D01*
X233033842Y-59376301D01*
X233033838Y-59376306D01*
X232992565Y-59447792D01*
X232981882Y-59487660D01*
X232971200Y-59527527D01*
X224939550Y-59527527D01*
X224939550Y-59523927D01*
X224918185Y-59444194D01*
X224876912Y-59372707D01*
X224876911Y-59372706D01*
X224876907Y-59372701D01*
X224818548Y-59314342D01*
X224818543Y-59314338D01*
X224747056Y-59273065D01*
X224747057Y-59273065D01*
X224685602Y-59256598D01*
X224670786Y-59245229D01*
X224668348Y-59226714D01*
X224679715Y-59211899D01*
X224726893Y-59184662D01*
X224785262Y-59126293D01*
X224826535Y-59054806D01*
X224836953Y-59015927D01*
X225556182Y-59015927D01*
X225556182Y-59098473D01*
X225557147Y-59102073D01*
X225577547Y-59178207D01*
X225618820Y-59249693D01*
X225618824Y-59249698D01*
X225677183Y-59308057D01*
X225677188Y-59308061D01*
X225677189Y-59308062D01*
X225748676Y-59349335D01*
X225828409Y-59370700D01*
X225828412Y-59370700D01*
X225910952Y-59370700D01*
X225910955Y-59370700D01*
X225990688Y-59349335D01*
X226062175Y-59308062D01*
X226120544Y-59249693D01*
X226126020Y-59240207D01*
X226140833Y-59228838D01*
X226159348Y-59231273D01*
X226168281Y-59240204D01*
X226175838Y-59253293D01*
X226175840Y-59253296D01*
X226234201Y-59311657D01*
X226234206Y-59311661D01*
X226234207Y-59311662D01*
X226305694Y-59352935D01*
X226385427Y-59374300D01*
X226385430Y-59374300D01*
X226467970Y-59374300D01*
X226467973Y-59374300D01*
X226547706Y-59352935D01*
X226619193Y-59311662D01*
X226677562Y-59253293D01*
X226718835Y-59181806D01*
X226740200Y-59102073D01*
X226740200Y-59019527D01*
X226718835Y-58939794D01*
X226716755Y-58936192D01*
X226691547Y-58892530D01*
X226677562Y-58868307D01*
X226677561Y-58868306D01*
X226677557Y-58868301D01*
X226619198Y-58809942D01*
X226619193Y-58809938D01*
X226547706Y-58768665D01*
X226547707Y-58768665D01*
X226518895Y-58760945D01*
X226467973Y-58747300D01*
X226385427Y-58747300D01*
X226337587Y-58760119D01*
X226305692Y-58768665D01*
X226234206Y-58809938D01*
X226234201Y-58809942D01*
X226175842Y-58868301D01*
X226175836Y-58868308D01*
X226170360Y-58877794D01*
X226155544Y-58889162D01*
X226137029Y-58886723D01*
X226128099Y-58877793D01*
X226126697Y-58875365D01*
X226120544Y-58864707D01*
X226120543Y-58864706D01*
X226120539Y-58864701D01*
X226062180Y-58806342D01*
X226062175Y-58806338D01*
X225990688Y-58765065D01*
X225990689Y-58765065D01*
X225970754Y-58759723D01*
X225910955Y-58743700D01*
X225828409Y-58743700D01*
X225780569Y-58756519D01*
X225748674Y-58765065D01*
X225677188Y-58806338D01*
X225677183Y-58806342D01*
X225618824Y-58864701D01*
X225618820Y-58864706D01*
X225577547Y-58936192D01*
X225567130Y-58975070D01*
X225556182Y-59015927D01*
X224836953Y-59015927D01*
X224847900Y-58975073D01*
X224847900Y-58892527D01*
X224826535Y-58812794D01*
X224824888Y-58809942D01*
X224803387Y-58772701D01*
X224785262Y-58741307D01*
X224785261Y-58741306D01*
X224785257Y-58741301D01*
X224745983Y-58702027D01*
X228653200Y-58702027D01*
X228653200Y-58784573D01*
X228665230Y-58829467D01*
X228674565Y-58864307D01*
X228715838Y-58935793D01*
X228715842Y-58935798D01*
X228774201Y-58994157D01*
X228774206Y-58994161D01*
X228774207Y-58994162D01*
X228845694Y-59035435D01*
X228925427Y-59056800D01*
X228925430Y-59056800D01*
X229007970Y-59056800D01*
X229007973Y-59056800D01*
X229087706Y-59035435D01*
X229159193Y-58994162D01*
X229217562Y-58935793D01*
X229258835Y-58864306D01*
X229280200Y-58784573D01*
X229280200Y-58702027D01*
X229258835Y-58622294D01*
X229217562Y-58550807D01*
X229217561Y-58550806D01*
X229217557Y-58550801D01*
X229159198Y-58492442D01*
X229159193Y-58492438D01*
X229087706Y-58451165D01*
X229087707Y-58451165D01*
X229067772Y-58445823D01*
X229007973Y-58429800D01*
X228925427Y-58429800D01*
X228877587Y-58442619D01*
X228845692Y-58451165D01*
X228774206Y-58492438D01*
X228774201Y-58492442D01*
X228715842Y-58550801D01*
X228715838Y-58550806D01*
X228674565Y-58622292D01*
X228665112Y-58657573D01*
X228653200Y-58702027D01*
X224745983Y-58702027D01*
X224726898Y-58682942D01*
X224726893Y-58682938D01*
X224655406Y-58641665D01*
X224655407Y-58641665D01*
X224635472Y-58636323D01*
X224575673Y-58620300D01*
X224493127Y-58620300D01*
X224445287Y-58633119D01*
X224413392Y-58641665D01*
X224341906Y-58682938D01*
X224341901Y-58682942D01*
X224283542Y-58741301D01*
X224283538Y-58741306D01*
X224242265Y-58812792D01*
X224231582Y-58852660D01*
X224220900Y-58892527D01*
X223146259Y-58892527D01*
X223190193Y-58867162D01*
X223248562Y-58808793D01*
X223289835Y-58737306D01*
X223311200Y-58657573D01*
X223311200Y-58575027D01*
X223294185Y-58511527D01*
X223382700Y-58511527D01*
X223382700Y-58594073D01*
X223390262Y-58622294D01*
X223404065Y-58673807D01*
X223445338Y-58745293D01*
X223445342Y-58745298D01*
X223503701Y-58803657D01*
X223503706Y-58803661D01*
X223503707Y-58803662D01*
X223575194Y-58844935D01*
X223654927Y-58866300D01*
X223654930Y-58866300D01*
X223737470Y-58866300D01*
X223737473Y-58866300D01*
X223817206Y-58844935D01*
X223888693Y-58803662D01*
X223947062Y-58745293D01*
X223988335Y-58673806D01*
X224009700Y-58594073D01*
X224009700Y-58511527D01*
X223988335Y-58431794D01*
X223947062Y-58360307D01*
X223947061Y-58360306D01*
X223947057Y-58360301D01*
X223888698Y-58301942D01*
X223888693Y-58301938D01*
X223817206Y-58260665D01*
X223817207Y-58260665D01*
X223797272Y-58255323D01*
X223737473Y-58239300D01*
X223654927Y-58239300D01*
X223615003Y-58249998D01*
X223575192Y-58260665D01*
X223503706Y-58301938D01*
X223503701Y-58301942D01*
X223445342Y-58360301D01*
X223445338Y-58360306D01*
X223404065Y-58431792D01*
X223393382Y-58471660D01*
X223382700Y-58511527D01*
X223294185Y-58511527D01*
X223289835Y-58495294D01*
X223288188Y-58492442D01*
X223270897Y-58462493D01*
X223248562Y-58423807D01*
X223248561Y-58423806D01*
X223248557Y-58423801D01*
X223190198Y-58365442D01*
X223190193Y-58365438D01*
X223118706Y-58324165D01*
X223118707Y-58324165D01*
X223098772Y-58318823D01*
X223038973Y-58302800D01*
X222956427Y-58302800D01*
X222908587Y-58315619D01*
X222876692Y-58324165D01*
X222805206Y-58365438D01*
X222805201Y-58365442D01*
X222746842Y-58423801D01*
X222746838Y-58423806D01*
X222705565Y-58495292D01*
X222699326Y-58518576D01*
X222684200Y-58575027D01*
X222183045Y-58575027D01*
X222169061Y-58550806D01*
X222169057Y-58550801D01*
X222110698Y-58492442D01*
X222110693Y-58492438D01*
X222039206Y-58451165D01*
X222039207Y-58451165D01*
X222019272Y-58445823D01*
X221959473Y-58429800D01*
X221876927Y-58429800D01*
X221829087Y-58442619D01*
X221797192Y-58451165D01*
X221725706Y-58492438D01*
X221725701Y-58492442D01*
X221667342Y-58550801D01*
X221667341Y-58550803D01*
X221667339Y-58550805D01*
X221667338Y-58550807D01*
X221653581Y-58574635D01*
X221638765Y-58586003D01*
X221620249Y-58583565D01*
X221611319Y-58574635D01*
X221597562Y-58550807D01*
X221597558Y-58550803D01*
X221597557Y-58550801D01*
X221539198Y-58492442D01*
X221539193Y-58492438D01*
X221467706Y-58451165D01*
X221467707Y-58451165D01*
X221447772Y-58445823D01*
X221387973Y-58429800D01*
X221305427Y-58429800D01*
X221257587Y-58442619D01*
X221225692Y-58451165D01*
X221154206Y-58492438D01*
X221154201Y-58492442D01*
X221095842Y-58550801D01*
X221095841Y-58550803D01*
X221095839Y-58550805D01*
X221095838Y-58550807D01*
X221082081Y-58574635D01*
X221067265Y-58586003D01*
X221048749Y-58583565D01*
X221039819Y-58574635D01*
X221026062Y-58550807D01*
X221026058Y-58550803D01*
X221026057Y-58550801D01*
X220967698Y-58492442D01*
X220967693Y-58492438D01*
X220896206Y-58451165D01*
X220896207Y-58451165D01*
X220876272Y-58445823D01*
X220816473Y-58429800D01*
X220733927Y-58429800D01*
X220686087Y-58442619D01*
X220654192Y-58451165D01*
X220582706Y-58492438D01*
X220582701Y-58492442D01*
X220524342Y-58550801D01*
X220524338Y-58550806D01*
X220483065Y-58622292D01*
X220473612Y-58657573D01*
X220461700Y-58702027D01*
X219342247Y-58702027D01*
X219361099Y-58683175D01*
X219389969Y-58654304D01*
X219389973Y-58654300D01*
X219481737Y-58516966D01*
X219544945Y-58364368D01*
X219577168Y-58202372D01*
X219577168Y-58037202D01*
X219544945Y-57875206D01*
X219481737Y-57722608D01*
X219389973Y-57585274D01*
X219389972Y-57585273D01*
X219389969Y-57585269D01*
X219273185Y-57468485D01*
X219273181Y-57468482D01*
X219200582Y-57419973D01*
X219194326Y-57415793D01*
X219173090Y-57401603D01*
X219862527Y-57401603D01*
X219862527Y-58244626D01*
X219864271Y-58249993D01*
X219887564Y-58321679D01*
X219904170Y-58344535D01*
X219905030Y-58346612D01*
X219907401Y-58348983D01*
X219908528Y-58350534D01*
X219935184Y-58387224D01*
X219935185Y-58387224D01*
X219935186Y-58387226D01*
X219973439Y-58415018D01*
X219975798Y-58417377D01*
X219977864Y-58418233D01*
X220000733Y-58434848D01*
X220077787Y-58459885D01*
X220077791Y-58459885D01*
X220158803Y-58459885D01*
X220158807Y-58459885D01*
X220235861Y-58434848D01*
X220258782Y-58418195D01*
X220260789Y-58417364D01*
X220263081Y-58415071D01*
X220301408Y-58387226D01*
X220329242Y-58348914D01*
X220331554Y-58346604D01*
X220332393Y-58344578D01*
X220349030Y-58321679D01*
X220374067Y-58244625D01*
X220374067Y-58204115D01*
X220374067Y-58202345D01*
X220374067Y-58016227D01*
X223936700Y-58016227D01*
X223936700Y-58098773D01*
X223952723Y-58158572D01*
X223958065Y-58178507D01*
X223999338Y-58249993D01*
X223999342Y-58249998D01*
X224057701Y-58308357D01*
X224057706Y-58308361D01*
X224057707Y-58308362D01*
X224129194Y-58349635D01*
X224208927Y-58371000D01*
X224208930Y-58371000D01*
X224291470Y-58371000D01*
X224291473Y-58371000D01*
X224371206Y-58349635D01*
X224442693Y-58308362D01*
X224501062Y-58249993D01*
X224542335Y-58178506D01*
X224563700Y-58098773D01*
X224563700Y-58016227D01*
X224542335Y-57936494D01*
X224501062Y-57865007D01*
X224501061Y-57865006D01*
X224501057Y-57865001D01*
X224442698Y-57806642D01*
X224442693Y-57806638D01*
X224371206Y-57765365D01*
X224371207Y-57765365D01*
X224351272Y-57760023D01*
X224291473Y-57744000D01*
X224208927Y-57744000D01*
X224161087Y-57756819D01*
X224129192Y-57765365D01*
X224057706Y-57806638D01*
X224057701Y-57806642D01*
X223999342Y-57865001D01*
X223999338Y-57865006D01*
X223958065Y-57936492D01*
X223947382Y-57976360D01*
X223936700Y-58016227D01*
X220374067Y-58016227D01*
X220374067Y-57441382D01*
X220374067Y-57401605D01*
X220349030Y-57324551D01*
X220335474Y-57305893D01*
X220334960Y-57305185D01*
X220333262Y-57302848D01*
X220331844Y-57299424D01*
X220327932Y-57295512D01*
X220301408Y-57259004D01*
X220277353Y-57241527D01*
X220969700Y-57241527D01*
X220969700Y-57324073D01*
X220975122Y-57344306D01*
X220991065Y-57403807D01*
X221032338Y-57475293D01*
X221032342Y-57475298D01*
X221090701Y-57533657D01*
X221090706Y-57533661D01*
X221090707Y-57533662D01*
X221162194Y-57574935D01*
X221241927Y-57596300D01*
X221241930Y-57596300D01*
X221324470Y-57596300D01*
X221324473Y-57596300D01*
X221404206Y-57574935D01*
X221475693Y-57533662D01*
X221534062Y-57475293D01*
X221575335Y-57403806D01*
X221584788Y-57368527D01*
X225795700Y-57368527D01*
X225795700Y-57451073D01*
X225807612Y-57495527D01*
X225817065Y-57530807D01*
X225858338Y-57602293D01*
X225858342Y-57602298D01*
X225916701Y-57660657D01*
X225916706Y-57660661D01*
X225916707Y-57660662D01*
X225988194Y-57701935D01*
X226067927Y-57723300D01*
X226067930Y-57723300D01*
X226150470Y-57723300D01*
X226150473Y-57723300D01*
X226230206Y-57701935D01*
X226301693Y-57660662D01*
X226360062Y-57602293D01*
X226401335Y-57530806D01*
X226422700Y-57451073D01*
X226422700Y-57368527D01*
X226557700Y-57368527D01*
X226557700Y-57451073D01*
X226569612Y-57495527D01*
X226579065Y-57530807D01*
X226620338Y-57602293D01*
X226620342Y-57602298D01*
X226678701Y-57660657D01*
X226678706Y-57660661D01*
X226678707Y-57660662D01*
X226750194Y-57701935D01*
X226829927Y-57723300D01*
X226829930Y-57723300D01*
X226912470Y-57723300D01*
X226912473Y-57723300D01*
X226992206Y-57701935D01*
X227063693Y-57660662D01*
X227122062Y-57602293D01*
X227129469Y-57589462D01*
X227144285Y-57578094D01*
X227162800Y-57580532D01*
X227171730Y-57589462D01*
X227175678Y-57596300D01*
X227179138Y-57602293D01*
X227179142Y-57602298D01*
X227237501Y-57660657D01*
X227237506Y-57660661D01*
X227237507Y-57660662D01*
X227308994Y-57701935D01*
X227388727Y-57723300D01*
X227388730Y-57723300D01*
X227471270Y-57723300D01*
X227471273Y-57723300D01*
X227551006Y-57701935D01*
X227622493Y-57660662D01*
X227680862Y-57602293D01*
X227722135Y-57530806D01*
X227743500Y-57451073D01*
X227743500Y-57368527D01*
X227722135Y-57288794D01*
X227720488Y-57285942D01*
X227695620Y-57242869D01*
X227680862Y-57217307D01*
X227680861Y-57217306D01*
X227680857Y-57217301D01*
X227622498Y-57158942D01*
X227622493Y-57158938D01*
X227551006Y-57117665D01*
X227551007Y-57117665D01*
X227531072Y-57112323D01*
X227471273Y-57096300D01*
X227388727Y-57096300D01*
X227340887Y-57109119D01*
X227308992Y-57117665D01*
X227237506Y-57158938D01*
X227237501Y-57158942D01*
X227179142Y-57217301D01*
X227179141Y-57217303D01*
X227179139Y-57217305D01*
X227179138Y-57217307D01*
X227172640Y-57228562D01*
X227171731Y-57230137D01*
X227156915Y-57241505D01*
X227138399Y-57239067D01*
X227129469Y-57230137D01*
X227128560Y-57228562D01*
X227122062Y-57217307D01*
X227122058Y-57217303D01*
X227122057Y-57217301D01*
X227063698Y-57158942D01*
X227063693Y-57158938D01*
X226992206Y-57117665D01*
X226992207Y-57117665D01*
X226972272Y-57112323D01*
X226912473Y-57096300D01*
X226829927Y-57096300D01*
X226782087Y-57109119D01*
X226750192Y-57117665D01*
X226678706Y-57158938D01*
X226678701Y-57158942D01*
X226620342Y-57217301D01*
X226620338Y-57217306D01*
X226579065Y-57288792D01*
X226569612Y-57324073D01*
X226557700Y-57368527D01*
X226422700Y-57368527D01*
X226401335Y-57288794D01*
X226399688Y-57285942D01*
X226374820Y-57242869D01*
X226360062Y-57217307D01*
X226360061Y-57217306D01*
X226360057Y-57217301D01*
X226301698Y-57158942D01*
X226301693Y-57158938D01*
X226230206Y-57117665D01*
X226230207Y-57117665D01*
X226210272Y-57112323D01*
X226150473Y-57096300D01*
X226067927Y-57096300D01*
X226020087Y-57109119D01*
X225988192Y-57117665D01*
X225916706Y-57158938D01*
X225916701Y-57158942D01*
X225858342Y-57217301D01*
X225858338Y-57217306D01*
X225817065Y-57288792D01*
X225807612Y-57324073D01*
X225795700Y-57368527D01*
X221584788Y-57368527D01*
X221596700Y-57324073D01*
X221596700Y-57241527D01*
X221575335Y-57161794D01*
X221573688Y-57158942D01*
X221534061Y-57090306D01*
X221534057Y-57090301D01*
X221475698Y-57031942D01*
X221475693Y-57031938D01*
X221404206Y-56990665D01*
X221404207Y-56990665D01*
X221384272Y-56985323D01*
X221324473Y-56969300D01*
X221241927Y-56969300D01*
X221194087Y-56982119D01*
X221162192Y-56990665D01*
X221090706Y-57031938D01*
X221090701Y-57031942D01*
X221032342Y-57090301D01*
X221032338Y-57090306D01*
X220991065Y-57161792D01*
X220982452Y-57193936D01*
X220969700Y-57241527D01*
X220277353Y-57241527D01*
X220266467Y-57233618D01*
X220263556Y-57231131D01*
X220260989Y-57228564D01*
X220260986Y-57228562D01*
X220260211Y-57228241D01*
X220255211Y-57225440D01*
X220235862Y-57211383D01*
X220235861Y-57211382D01*
X220169702Y-57189885D01*
X220158808Y-57186345D01*
X220158807Y-57186345D01*
X220120067Y-57186345D01*
X220118297Y-57186345D01*
X220077787Y-57186345D01*
X220077785Y-57186345D01*
X220041397Y-57198169D01*
X220000733Y-57211382D01*
X220000732Y-57211382D01*
X220000731Y-57211383D01*
X219981433Y-57225403D01*
X219979095Y-57227101D01*
X219975601Y-57228549D01*
X219971611Y-57232539D01*
X219970056Y-57233669D01*
X219935185Y-57259004D01*
X219935184Y-57259006D01*
X219909839Y-57293889D01*
X219908704Y-57295449D01*
X219904739Y-57299416D01*
X219903302Y-57302885D01*
X219901602Y-57305225D01*
X219901602Y-57305227D01*
X219887565Y-57324549D01*
X219862527Y-57401603D01*
X219173090Y-57401603D01*
X219170470Y-57399852D01*
X219135846Y-57376717D01*
X219009904Y-57324551D01*
X218983249Y-57313510D01*
X218983247Y-57313509D01*
X218983246Y-57313509D01*
X218821260Y-57281288D01*
X218821256Y-57281287D01*
X218821253Y-57281287D01*
X218656083Y-57281287D01*
X218656079Y-57281287D01*
X218656075Y-57281288D01*
X218494089Y-57313509D01*
X218341489Y-57376717D01*
X218204154Y-57468482D01*
X218204150Y-57468485D01*
X218087366Y-57585269D01*
X218087363Y-57585273D01*
X218051800Y-57638496D01*
X218036272Y-57648871D01*
X218017956Y-57645228D01*
X218014259Y-57642193D01*
X217929877Y-57557811D01*
X217929873Y-57557808D01*
X217811375Y-57478629D01*
X217691462Y-57428960D01*
X217678257Y-57415754D01*
X217676400Y-57406417D01*
X217676400Y-56479527D01*
X222747700Y-56479527D01*
X222747700Y-56562073D01*
X222761312Y-56612873D01*
X222769065Y-56641807D01*
X222810338Y-56713293D01*
X222810342Y-56713298D01*
X222868701Y-56771657D01*
X222868706Y-56771661D01*
X222868707Y-56771662D01*
X222940194Y-56812935D01*
X223019927Y-56834300D01*
X223019930Y-56834300D01*
X223102470Y-56834300D01*
X223102473Y-56834300D01*
X223182206Y-56812935D01*
X223253693Y-56771662D01*
X223312062Y-56713293D01*
X223353335Y-56641806D01*
X223374700Y-56562073D01*
X223374700Y-56530327D01*
X224386000Y-56530327D01*
X224386000Y-56612873D01*
X224390384Y-56629232D01*
X224407365Y-56692607D01*
X224448638Y-56764093D01*
X224448642Y-56764098D01*
X224507001Y-56822457D01*
X224507006Y-56822461D01*
X224507007Y-56822462D01*
X224578494Y-56863735D01*
X224658227Y-56885100D01*
X224658230Y-56885100D01*
X224740770Y-56885100D01*
X224740773Y-56885100D01*
X224820506Y-56863735D01*
X224891993Y-56822462D01*
X224950362Y-56764093D01*
X224991635Y-56692606D01*
X225013000Y-56612873D01*
X225013000Y-56530327D01*
X224991635Y-56450594D01*
X224950362Y-56379107D01*
X224950361Y-56379106D01*
X224950357Y-56379101D01*
X224913809Y-56342553D01*
X224906662Y-56325300D01*
X224913809Y-56308047D01*
X224931062Y-56300900D01*
X224943970Y-56300900D01*
X224943973Y-56300900D01*
X225023706Y-56279535D01*
X225029262Y-56276327D01*
X228945300Y-56276327D01*
X228945300Y-56358873D01*
X228955869Y-56398316D01*
X228966665Y-56438607D01*
X229007938Y-56510093D01*
X229007942Y-56510098D01*
X229066301Y-56568457D01*
X229066305Y-56568460D01*
X229066307Y-56568462D01*
X229113833Y-56595901D01*
X229125202Y-56610717D01*
X229122764Y-56629232D01*
X229113834Y-56638162D01*
X229091707Y-56650938D01*
X229091705Y-56650939D01*
X229091703Y-56650941D01*
X229091701Y-56650942D01*
X229033342Y-56709301D01*
X229033338Y-56709306D01*
X228992065Y-56780792D01*
X228981382Y-56820660D01*
X228970700Y-56860527D01*
X228970700Y-56943073D01*
X228977728Y-56969300D01*
X228992065Y-57022807D01*
X229033338Y-57094293D01*
X229033342Y-57094298D01*
X229091701Y-57152657D01*
X229091706Y-57152661D01*
X229091707Y-57152662D01*
X229163194Y-57193935D01*
X229242927Y-57215300D01*
X229242930Y-57215300D01*
X229325470Y-57215300D01*
X229325473Y-57215300D01*
X229405206Y-57193935D01*
X229476693Y-57152662D01*
X229535062Y-57094293D01*
X229576335Y-57022806D01*
X229597700Y-56943073D01*
X229597700Y-56860527D01*
X230367700Y-56860527D01*
X230367700Y-56943073D01*
X230374728Y-56969300D01*
X230389065Y-57022807D01*
X230430338Y-57094293D01*
X230430342Y-57094298D01*
X230488701Y-57152657D01*
X230488706Y-57152661D01*
X230488707Y-57152662D01*
X230560194Y-57193935D01*
X230560196Y-57193935D01*
X230560197Y-57193936D01*
X230566897Y-57195732D01*
X230581712Y-57207101D01*
X230584149Y-57225616D01*
X230572780Y-57240431D01*
X230566897Y-57242868D01*
X230560197Y-57244663D01*
X230560193Y-57244665D01*
X230488706Y-57285938D01*
X230488701Y-57285942D01*
X230430342Y-57344301D01*
X230430338Y-57344306D01*
X230389065Y-57415792D01*
X230379612Y-57451073D01*
X230367700Y-57495527D01*
X230367700Y-57578073D01*
X230383723Y-57637872D01*
X230389065Y-57657807D01*
X230430338Y-57729293D01*
X230430342Y-57729298D01*
X230488701Y-57787657D01*
X230488706Y-57787661D01*
X230488707Y-57787662D01*
X230560194Y-57828935D01*
X230639927Y-57850300D01*
X230639930Y-57850300D01*
X230722470Y-57850300D01*
X230722473Y-57850300D01*
X230802206Y-57828935D01*
X230873693Y-57787662D01*
X230932062Y-57729293D01*
X230973335Y-57657806D01*
X230994700Y-57578073D01*
X230994700Y-57495527D01*
X230973335Y-57415794D01*
X230965142Y-57401603D01*
X232308527Y-57401603D01*
X232308527Y-58244626D01*
X232310271Y-58249993D01*
X232333564Y-58321679D01*
X232350170Y-58344535D01*
X232351030Y-58346612D01*
X232353401Y-58348983D01*
X232354528Y-58350534D01*
X232381184Y-58387224D01*
X232381185Y-58387224D01*
X232381186Y-58387226D01*
X232419439Y-58415018D01*
X232421798Y-58417377D01*
X232423864Y-58418233D01*
X232446733Y-58434848D01*
X232523787Y-58459885D01*
X232523791Y-58459885D01*
X232604803Y-58459885D01*
X232604807Y-58459885D01*
X232681861Y-58434848D01*
X232704782Y-58418195D01*
X232706789Y-58417364D01*
X232709081Y-58415071D01*
X232747408Y-58387226D01*
X232775242Y-58348914D01*
X232777554Y-58346604D01*
X232778393Y-58344578D01*
X232795030Y-58321679D01*
X232820067Y-58244625D01*
X232820067Y-58204115D01*
X232820067Y-58202345D01*
X232820067Y-57441382D01*
X232820067Y-57401605D01*
X232795030Y-57324551D01*
X232781474Y-57305893D01*
X232780960Y-57305185D01*
X232779262Y-57302848D01*
X232777844Y-57299424D01*
X232773932Y-57295512D01*
X232747408Y-57259004D01*
X232710910Y-57232487D01*
X232706986Y-57228562D01*
X232703548Y-57227137D01*
X232701211Y-57225440D01*
X232681862Y-57211383D01*
X232681861Y-57211382D01*
X232615702Y-57189885D01*
X232604808Y-57186345D01*
X232604807Y-57186345D01*
X232566067Y-57186345D01*
X232564297Y-57186345D01*
X232523787Y-57186345D01*
X232523785Y-57186345D01*
X232487397Y-57198169D01*
X232446733Y-57211382D01*
X232446732Y-57211382D01*
X232446731Y-57211383D01*
X232427433Y-57225403D01*
X232425095Y-57227101D01*
X232421601Y-57228549D01*
X232417611Y-57232539D01*
X232416056Y-57233669D01*
X232381185Y-57259004D01*
X232381184Y-57259006D01*
X232355839Y-57293889D01*
X232354704Y-57295449D01*
X232350739Y-57299416D01*
X232349302Y-57302885D01*
X232347602Y-57305225D01*
X232347602Y-57305227D01*
X232333565Y-57324549D01*
X232308527Y-57401603D01*
X230965142Y-57401603D01*
X230932062Y-57344307D01*
X230932061Y-57344306D01*
X230932057Y-57344301D01*
X230873698Y-57285942D01*
X230873693Y-57285938D01*
X230802206Y-57244665D01*
X230802207Y-57244665D01*
X230795503Y-57242869D01*
X230780687Y-57231500D01*
X230778249Y-57212985D01*
X230789618Y-57198169D01*
X230795503Y-57195731D01*
X230802206Y-57193935D01*
X230873693Y-57152662D01*
X230932062Y-57094293D01*
X230973335Y-57022806D01*
X230994700Y-56943073D01*
X230994700Y-56860527D01*
X230973335Y-56780794D01*
X230932062Y-56709307D01*
X230932061Y-56709306D01*
X230932057Y-56709301D01*
X230873698Y-56650942D01*
X230873693Y-56650938D01*
X230802206Y-56609665D01*
X230802207Y-56609665D01*
X230782272Y-56604323D01*
X230722473Y-56588300D01*
X230639927Y-56588300D01*
X230592087Y-56601119D01*
X230560192Y-56609665D01*
X230488706Y-56650938D01*
X230488701Y-56650942D01*
X230430342Y-56709301D01*
X230430338Y-56709306D01*
X230389065Y-56780792D01*
X230378382Y-56820660D01*
X230367700Y-56860527D01*
X229597700Y-56860527D01*
X229576335Y-56780794D01*
X229535062Y-56709307D01*
X229535061Y-56709306D01*
X229535057Y-56709301D01*
X229476698Y-56650942D01*
X229476693Y-56650938D01*
X229429166Y-56623498D01*
X229417797Y-56608682D01*
X229420235Y-56590167D01*
X229429164Y-56581237D01*
X229451293Y-56568462D01*
X229509662Y-56510093D01*
X229550935Y-56438606D01*
X229572300Y-56358873D01*
X229572300Y-56276327D01*
X229550935Y-56196594D01*
X229509662Y-56125107D01*
X229509661Y-56125106D01*
X229509657Y-56125101D01*
X229451298Y-56066742D01*
X229451293Y-56066738D01*
X229384084Y-56027934D01*
X229379802Y-56022354D01*
X229375076Y-56018593D01*
X229374755Y-56015777D01*
X229372715Y-56013118D01*
X229373647Y-56006033D01*
X229372966Y-56000037D01*
X229374692Y-55998103D01*
X229374847Y-55996927D01*
X230304200Y-55996927D01*
X230304200Y-56079473D01*
X230316428Y-56125106D01*
X230325565Y-56159207D01*
X230366838Y-56230693D01*
X230366842Y-56230698D01*
X230425201Y-56289057D01*
X230425206Y-56289061D01*
X230425207Y-56289062D01*
X230496694Y-56330335D01*
X230576427Y-56351700D01*
X230576430Y-56351700D01*
X230658970Y-56351700D01*
X230658973Y-56351700D01*
X230738706Y-56330335D01*
X230810193Y-56289062D01*
X230868562Y-56230693D01*
X230909835Y-56159206D01*
X230931200Y-56079473D01*
X230931200Y-55996927D01*
X230927797Y-55984227D01*
X231764700Y-55984227D01*
X231764700Y-56066773D01*
X231775856Y-56108406D01*
X231786065Y-56146507D01*
X231827338Y-56217993D01*
X231827342Y-56217998D01*
X231885701Y-56276357D01*
X231885706Y-56276361D01*
X231885707Y-56276362D01*
X231957194Y-56317635D01*
X232036927Y-56339000D01*
X232036930Y-56339000D01*
X232119470Y-56339000D01*
X232119473Y-56339000D01*
X232199206Y-56317635D01*
X232270693Y-56276362D01*
X232329062Y-56217993D01*
X232370335Y-56146506D01*
X232391700Y-56066773D01*
X232391700Y-55984227D01*
X232370335Y-55904494D01*
X232329062Y-55833007D01*
X232329061Y-55833006D01*
X232329057Y-55833001D01*
X232270698Y-55774642D01*
X232270693Y-55774638D01*
X232199206Y-55733365D01*
X232199207Y-55733365D01*
X232179272Y-55728023D01*
X232119473Y-55712000D01*
X232036927Y-55712000D01*
X231989531Y-55724700D01*
X231957192Y-55733365D01*
X231885706Y-55774638D01*
X231885701Y-55774642D01*
X231827342Y-55833001D01*
X231827338Y-55833006D01*
X231786065Y-55904492D01*
X231779259Y-55929892D01*
X231764700Y-55984227D01*
X230927797Y-55984227D01*
X230909835Y-55917194D01*
X230868562Y-55845707D01*
X230868561Y-55845706D01*
X230868557Y-55845701D01*
X230810198Y-55787342D01*
X230810193Y-55787338D01*
X230738706Y-55746065D01*
X230738707Y-55746065D01*
X230718772Y-55740723D01*
X230658973Y-55724700D01*
X230576427Y-55724700D01*
X230528587Y-55737519D01*
X230496692Y-55746065D01*
X230425206Y-55787338D01*
X230425201Y-55787342D01*
X230366842Y-55845701D01*
X230366838Y-55845706D01*
X230325565Y-55917192D01*
X230322162Y-55929892D01*
X230304200Y-55996927D01*
X229374847Y-55996927D01*
X229375153Y-55994603D01*
X229384491Y-55985442D01*
X229387090Y-55984006D01*
X229388559Y-55983613D01*
X229460046Y-55942340D01*
X229518415Y-55883971D01*
X229559688Y-55812484D01*
X229581053Y-55732751D01*
X229581053Y-55650205D01*
X229559688Y-55570472D01*
X229518415Y-55498985D01*
X229518414Y-55498984D01*
X229518410Y-55498979D01*
X229460049Y-55440618D01*
X229460046Y-55440616D01*
X229447849Y-55433574D01*
X229436482Y-55418758D01*
X229438920Y-55400243D01*
X229447852Y-55391313D01*
X229476689Y-55374665D01*
X229476695Y-55374660D01*
X229535057Y-55316298D01*
X229535062Y-55316293D01*
X229576335Y-55244806D01*
X229597700Y-55165073D01*
X229597700Y-55082527D01*
X229576335Y-55002794D01*
X229549045Y-54955527D01*
X230228000Y-54955527D01*
X230228000Y-55038073D01*
X230239912Y-55082527D01*
X230249365Y-55117807D01*
X230290638Y-55189293D01*
X230290642Y-55189298D01*
X230349001Y-55247657D01*
X230349006Y-55247661D01*
X230349007Y-55247662D01*
X230420494Y-55288935D01*
X230500227Y-55310300D01*
X230500230Y-55310300D01*
X230582770Y-55310300D01*
X230582773Y-55310300D01*
X230662506Y-55288935D01*
X230733993Y-55247662D01*
X230792362Y-55189293D01*
X230833635Y-55117806D01*
X230855000Y-55038073D01*
X230855000Y-54955527D01*
X230833635Y-54875794D01*
X230831988Y-54872942D01*
X230807120Y-54829869D01*
X230792362Y-54804307D01*
X230792361Y-54804306D01*
X230792357Y-54804301D01*
X230781209Y-54793153D01*
X230774062Y-54775900D01*
X230781209Y-54758647D01*
X230798462Y-54751500D01*
X230811370Y-54751500D01*
X230811373Y-54751500D01*
X230891106Y-54730135D01*
X230962593Y-54688862D01*
X231020962Y-54630493D01*
X231062235Y-54559006D01*
X231083600Y-54479273D01*
X231083600Y-54396727D01*
X231062235Y-54316994D01*
X231020962Y-54245507D01*
X231020961Y-54245506D01*
X231020957Y-54245501D01*
X230962598Y-54187142D01*
X230962593Y-54187138D01*
X230891106Y-54145865D01*
X230891107Y-54145865D01*
X230871172Y-54140523D01*
X230811373Y-54124500D01*
X230728827Y-54124500D01*
X230680987Y-54137319D01*
X230649092Y-54145865D01*
X230577606Y-54187138D01*
X230577601Y-54187142D01*
X230519242Y-54245501D01*
X230519238Y-54245506D01*
X230477965Y-54316992D01*
X230471229Y-54342131D01*
X230456600Y-54396727D01*
X230456600Y-54479273D01*
X230470212Y-54530073D01*
X230477965Y-54559007D01*
X230519238Y-54630493D01*
X230519242Y-54630498D01*
X230530391Y-54641647D01*
X230537538Y-54658900D01*
X230530391Y-54676153D01*
X230513138Y-54683300D01*
X230500227Y-54683300D01*
X230452387Y-54696119D01*
X230420492Y-54704665D01*
X230349006Y-54745938D01*
X230349001Y-54745942D01*
X230290642Y-54804301D01*
X230290638Y-54804306D01*
X230249365Y-54875792D01*
X230246487Y-54886533D01*
X230228000Y-54955527D01*
X229549045Y-54955527D01*
X229535062Y-54931307D01*
X229535061Y-54931306D01*
X229535057Y-54931301D01*
X229476698Y-54872942D01*
X229476693Y-54872938D01*
X229405206Y-54831665D01*
X229405207Y-54831665D01*
X229398503Y-54829869D01*
X229383687Y-54818500D01*
X229381249Y-54799985D01*
X229392618Y-54785169D01*
X229398503Y-54782731D01*
X229405206Y-54780935D01*
X229476693Y-54739662D01*
X229535062Y-54681293D01*
X229576335Y-54609806D01*
X229597700Y-54530073D01*
X229597700Y-54447527D01*
X229576335Y-54367794D01*
X229535062Y-54296307D01*
X229535061Y-54296306D01*
X229535057Y-54296301D01*
X229476698Y-54237942D01*
X229476693Y-54237938D01*
X229405206Y-54196665D01*
X229405207Y-54196665D01*
X229385272Y-54191323D01*
X229325473Y-54175300D01*
X229242927Y-54175300D01*
X229195087Y-54188119D01*
X229163192Y-54196665D01*
X229091706Y-54237938D01*
X229091701Y-54237942D01*
X229033342Y-54296301D01*
X229033338Y-54296306D01*
X228992065Y-54367792D01*
X228982122Y-54404900D01*
X228970700Y-54447527D01*
X228970700Y-54530073D01*
X228978453Y-54559006D01*
X228992065Y-54609807D01*
X229033338Y-54681293D01*
X229033342Y-54681298D01*
X229091701Y-54739657D01*
X229091706Y-54739661D01*
X229091707Y-54739662D01*
X229163194Y-54780935D01*
X229163196Y-54780935D01*
X229163197Y-54780936D01*
X229169897Y-54782732D01*
X229184712Y-54794101D01*
X229187149Y-54812616D01*
X229175780Y-54827431D01*
X229169897Y-54829868D01*
X229163197Y-54831663D01*
X229163193Y-54831665D01*
X229091706Y-54872938D01*
X229091701Y-54872942D01*
X229033342Y-54931301D01*
X229033338Y-54931306D01*
X228992065Y-55002792D01*
X228982612Y-55038073D01*
X228970700Y-55082527D01*
X228970700Y-55165073D01*
X228980050Y-55199965D01*
X228992065Y-55244807D01*
X229033338Y-55316293D01*
X229033342Y-55316298D01*
X229091701Y-55374657D01*
X229091705Y-55374660D01*
X229091707Y-55374662D01*
X229103901Y-55381702D01*
X229115270Y-55396518D01*
X229112832Y-55415033D01*
X229103902Y-55423963D01*
X229075060Y-55440616D01*
X229075058Y-55440617D01*
X229075056Y-55440619D01*
X229075054Y-55440620D01*
X229016695Y-55498979D01*
X229016691Y-55498984D01*
X228975418Y-55570470D01*
X228964735Y-55610338D01*
X228954053Y-55650205D01*
X228954053Y-55732751D01*
X228966722Y-55780032D01*
X228975418Y-55812485D01*
X229016691Y-55883971D01*
X229016695Y-55883976D01*
X229075054Y-55942335D01*
X229075059Y-55942339D01*
X229075060Y-55942340D01*
X229106546Y-55960518D01*
X229142268Y-55981143D01*
X229153637Y-55995959D01*
X229151199Y-56014474D01*
X229138887Y-56023927D01*
X229139271Y-56024853D01*
X229137793Y-56025465D01*
X229066306Y-56066738D01*
X229066301Y-56066742D01*
X229007942Y-56125101D01*
X229007938Y-56125106D01*
X228966665Y-56196592D01*
X228958071Y-56228665D01*
X228945300Y-56276327D01*
X225029262Y-56276327D01*
X225095193Y-56238262D01*
X225153562Y-56179893D01*
X225194835Y-56108406D01*
X225216200Y-56028673D01*
X225216200Y-55946127D01*
X225194835Y-55866394D01*
X225153562Y-55794907D01*
X225153561Y-55794906D01*
X225153557Y-55794901D01*
X225095198Y-55736542D01*
X225095193Y-55736538D01*
X225023706Y-55695265D01*
X225023707Y-55695265D01*
X225003772Y-55689923D01*
X224943973Y-55673900D01*
X224861427Y-55673900D01*
X224821503Y-55684598D01*
X224781692Y-55695265D01*
X224710206Y-55736538D01*
X224710201Y-55736542D01*
X224651842Y-55794901D01*
X224651838Y-55794906D01*
X224610565Y-55866392D01*
X224600356Y-55904492D01*
X224589200Y-55946127D01*
X224589200Y-56028673D01*
X224602812Y-56079473D01*
X224610565Y-56108407D01*
X224651838Y-56179893D01*
X224651842Y-56179898D01*
X224688391Y-56216447D01*
X224695538Y-56233700D01*
X224688391Y-56250953D01*
X224671138Y-56258100D01*
X224658227Y-56258100D01*
X224611529Y-56270613D01*
X224578492Y-56279465D01*
X224507006Y-56320738D01*
X224507001Y-56320742D01*
X224448642Y-56379101D01*
X224448638Y-56379106D01*
X224407365Y-56450592D01*
X224399612Y-56479527D01*
X224386000Y-56530327D01*
X223374700Y-56530327D01*
X223374700Y-56479527D01*
X223353335Y-56399794D01*
X223353334Y-56399792D01*
X223352723Y-56398316D01*
X223353620Y-56397944D01*
X223351604Y-56382451D01*
X223362994Y-56367651D01*
X223375163Y-56364400D01*
X223407270Y-56364400D01*
X223407273Y-56364400D01*
X223487006Y-56343035D01*
X223558493Y-56301762D01*
X223616862Y-56243393D01*
X223658135Y-56171906D01*
X223679500Y-56092173D01*
X223679500Y-56009627D01*
X223658135Y-55929894D01*
X223616862Y-55858407D01*
X223616861Y-55858406D01*
X223616857Y-55858401D01*
X223558498Y-55800042D01*
X223558493Y-55800038D01*
X223552013Y-55796297D01*
X223540644Y-55781481D01*
X223543082Y-55762966D01*
X223552012Y-55754035D01*
X223571193Y-55742962D01*
X223629562Y-55684593D01*
X223670835Y-55613106D01*
X223692200Y-55533373D01*
X223692200Y-55450827D01*
X223670835Y-55371094D01*
X223629562Y-55299607D01*
X223629561Y-55299606D01*
X223629557Y-55299601D01*
X223571198Y-55241242D01*
X223571193Y-55241238D01*
X223499706Y-55199965D01*
X223499707Y-55199965D01*
X223479772Y-55194623D01*
X223419973Y-55178600D01*
X223337427Y-55178600D01*
X223297503Y-55189298D01*
X223257692Y-55199965D01*
X223186206Y-55241238D01*
X223186201Y-55241242D01*
X223127842Y-55299601D01*
X223127838Y-55299606D01*
X223086565Y-55371092D01*
X223081147Y-55391313D01*
X223065200Y-55450827D01*
X223065200Y-55533373D01*
X223075141Y-55570472D01*
X223086565Y-55613107D01*
X223127838Y-55684593D01*
X223127842Y-55684598D01*
X223186204Y-55742960D01*
X223186206Y-55742961D01*
X223186207Y-55742962D01*
X223192684Y-55746701D01*
X223204053Y-55761516D01*
X223201617Y-55780032D01*
X223192687Y-55788963D01*
X223173505Y-55800038D01*
X223115142Y-55858401D01*
X223115138Y-55858406D01*
X223073865Y-55929892D01*
X223069514Y-55946130D01*
X223052500Y-56009627D01*
X223052500Y-56092173D01*
X223061325Y-56125106D01*
X223073865Y-56171907D01*
X223074477Y-56173384D01*
X223073579Y-56173755D01*
X223075596Y-56189249D01*
X223064206Y-56204049D01*
X223052037Y-56207300D01*
X223019927Y-56207300D01*
X222980003Y-56217998D01*
X222940192Y-56228665D01*
X222868706Y-56269938D01*
X222868701Y-56269942D01*
X222810342Y-56328301D01*
X222810338Y-56328306D01*
X222769065Y-56399792D01*
X222763679Y-56419895D01*
X222747700Y-56479527D01*
X217676400Y-56479527D01*
X217676400Y-56293156D01*
X217683547Y-56275903D01*
X217691460Y-56270614D01*
X217811374Y-56220945D01*
X217929873Y-56141766D01*
X218014261Y-56057377D01*
X218031512Y-56050232D01*
X218048765Y-56057378D01*
X218051797Y-56061073D01*
X218064090Y-56079470D01*
X218087363Y-56114300D01*
X218087366Y-56114304D01*
X218204150Y-56231088D01*
X218204154Y-56231091D01*
X218204155Y-56231092D01*
X218341489Y-56322856D01*
X218494087Y-56386064D01*
X218656083Y-56418287D01*
X218656088Y-56418287D01*
X218821248Y-56418287D01*
X218821253Y-56418287D01*
X218983249Y-56386064D01*
X219135847Y-56322856D01*
X219273181Y-56231092D01*
X219389973Y-56114300D01*
X219481737Y-55976966D01*
X219544945Y-55824368D01*
X219577168Y-55662372D01*
X219577168Y-55497202D01*
X219544945Y-55335206D01*
X219481737Y-55182608D01*
X219414865Y-55082527D01*
X224335200Y-55082527D01*
X224335200Y-55165073D01*
X224344550Y-55199965D01*
X224356565Y-55244807D01*
X224397838Y-55316293D01*
X224397842Y-55316298D01*
X224456201Y-55374657D01*
X224456205Y-55374660D01*
X224456207Y-55374662D01*
X224527694Y-55415935D01*
X224607427Y-55437300D01*
X224607430Y-55437300D01*
X224689970Y-55437300D01*
X224689973Y-55437300D01*
X224769706Y-55415935D01*
X224841193Y-55374662D01*
X224899562Y-55316293D01*
X224940835Y-55244806D01*
X224962200Y-55165073D01*
X224962200Y-55082527D01*
X224940835Y-55002794D01*
X224899562Y-54931307D01*
X224899561Y-54931306D01*
X224899557Y-54931301D01*
X224841198Y-54872942D01*
X224841193Y-54872938D01*
X224769706Y-54831665D01*
X224769707Y-54831665D01*
X224749772Y-54826323D01*
X224689973Y-54810300D01*
X224607427Y-54810300D01*
X224559587Y-54823119D01*
X224527692Y-54831665D01*
X224456206Y-54872938D01*
X224456201Y-54872942D01*
X224397842Y-54931301D01*
X224397838Y-54931306D01*
X224356565Y-55002792D01*
X224347112Y-55038073D01*
X224335200Y-55082527D01*
X219414865Y-55082527D01*
X219389973Y-55045274D01*
X219389972Y-55045273D01*
X219389969Y-55045269D01*
X219273185Y-54928485D01*
X219273181Y-54928482D01*
X219135846Y-54836717D01*
X219005513Y-54782732D01*
X218983249Y-54773510D01*
X218983247Y-54773509D01*
X218983246Y-54773509D01*
X218821260Y-54741288D01*
X218821256Y-54741287D01*
X218821253Y-54741287D01*
X218656083Y-54741287D01*
X218656079Y-54741287D01*
X218656075Y-54741288D01*
X218494089Y-54773509D01*
X218341489Y-54836717D01*
X218204154Y-54928482D01*
X218204150Y-54928485D01*
X218087366Y-55045269D01*
X218087363Y-55045273D01*
X218051800Y-55098496D01*
X218036272Y-55108871D01*
X218017956Y-55105228D01*
X218014259Y-55102193D01*
X217929877Y-55017811D01*
X217929873Y-55017808D01*
X217811375Y-54938629D01*
X217691462Y-54888960D01*
X217678257Y-54875754D01*
X217676400Y-54866417D01*
X217676400Y-54511027D01*
X221160200Y-54511027D01*
X221160200Y-54593573D01*
X221173082Y-54641647D01*
X221181565Y-54673307D01*
X221222838Y-54744793D01*
X221222842Y-54744798D01*
X221281201Y-54803157D01*
X221281206Y-54803161D01*
X221281207Y-54803162D01*
X221352694Y-54844435D01*
X221432427Y-54865800D01*
X221432430Y-54865800D01*
X221514970Y-54865800D01*
X221514973Y-54865800D01*
X221594706Y-54844435D01*
X221666193Y-54803162D01*
X221724562Y-54744793D01*
X221765835Y-54673306D01*
X221787200Y-54593573D01*
X221787200Y-54511027D01*
X221777506Y-54474850D01*
X221779944Y-54456337D01*
X221794760Y-54444968D01*
X221813275Y-54447406D01*
X221818328Y-54451284D01*
X221852701Y-54485657D01*
X221852706Y-54485661D01*
X221852707Y-54485662D01*
X221924194Y-54526935D01*
X222003927Y-54548300D01*
X222003930Y-54548300D01*
X222070734Y-54548300D01*
X222087987Y-54555447D01*
X222095134Y-54572700D01*
X222091865Y-54584900D01*
X222070565Y-54621792D01*
X222065245Y-54641647D01*
X222049200Y-54701527D01*
X222049200Y-54784073D01*
X222061952Y-54831663D01*
X222070565Y-54863807D01*
X222111838Y-54935293D01*
X222111842Y-54935298D01*
X222170201Y-54993657D01*
X222170206Y-54993661D01*
X222170207Y-54993662D01*
X222241694Y-55034935D01*
X222321427Y-55056300D01*
X222321430Y-55056300D01*
X222403970Y-55056300D01*
X222403973Y-55056300D01*
X222483706Y-55034935D01*
X222555193Y-54993662D01*
X222613562Y-54935293D01*
X222654835Y-54863806D01*
X222676200Y-54784073D01*
X222676200Y-54701527D01*
X222654835Y-54621794D01*
X222613562Y-54550307D01*
X222613561Y-54550306D01*
X222613557Y-54550301D01*
X222555198Y-54491942D01*
X222555193Y-54491938D01*
X222483706Y-54450665D01*
X222483707Y-54450665D01*
X222462445Y-54444968D01*
X222403973Y-54429300D01*
X222337165Y-54429300D01*
X222319912Y-54422153D01*
X222312765Y-54404900D01*
X222316034Y-54392700D01*
X222337335Y-54355806D01*
X222358700Y-54276073D01*
X222358700Y-54193527D01*
X222337335Y-54113794D01*
X222296062Y-54042307D01*
X222296061Y-54042306D01*
X222296057Y-54042301D01*
X222237698Y-53983942D01*
X222237693Y-53983938D01*
X222166206Y-53942665D01*
X222166207Y-53942665D01*
X222146272Y-53937323D01*
X222086473Y-53921300D01*
X222003927Y-53921300D01*
X221956087Y-53934119D01*
X221924192Y-53942665D01*
X221852706Y-53983938D01*
X221852701Y-53983942D01*
X221794342Y-54042301D01*
X221794338Y-54042306D01*
X221753065Y-54113792D01*
X221743612Y-54149073D01*
X221731700Y-54193527D01*
X221731700Y-54276073D01*
X221737122Y-54296306D01*
X221741393Y-54312247D01*
X221738955Y-54330762D01*
X221724139Y-54342131D01*
X221705624Y-54339693D01*
X221700571Y-54335815D01*
X221666198Y-54301442D01*
X221666193Y-54301438D01*
X221594706Y-54260165D01*
X221594707Y-54260165D01*
X221574772Y-54254823D01*
X221514973Y-54238800D01*
X221432427Y-54238800D01*
X221384587Y-54251619D01*
X221352692Y-54260165D01*
X221281206Y-54301438D01*
X221281201Y-54301442D01*
X221222842Y-54359801D01*
X221222838Y-54359806D01*
X221181565Y-54431292D01*
X221170882Y-54471160D01*
X221160200Y-54511027D01*
X217676400Y-54511027D01*
X217676400Y-53753156D01*
X217683547Y-53735903D01*
X217691460Y-53730614D01*
X217811374Y-53680945D01*
X217929873Y-53601766D01*
X218014261Y-53517377D01*
X218031512Y-53510232D01*
X218048765Y-53517378D01*
X218051797Y-53521073D01*
X218085330Y-53571257D01*
X218087363Y-53574300D01*
X218087366Y-53574304D01*
X218204150Y-53691088D01*
X218204154Y-53691091D01*
X218204155Y-53691092D01*
X218341489Y-53782856D01*
X218494087Y-53846064D01*
X218656083Y-53878287D01*
X218656088Y-53878287D01*
X218821248Y-53878287D01*
X218821253Y-53878287D01*
X218983249Y-53846064D01*
X219135847Y-53782856D01*
X219273181Y-53691092D01*
X219278746Y-53685527D01*
X220207700Y-53685527D01*
X220207700Y-53768073D01*
X220212093Y-53784466D01*
X220229065Y-53847807D01*
X220270338Y-53919293D01*
X220270342Y-53919298D01*
X220328701Y-53977657D01*
X220328706Y-53977661D01*
X220328707Y-53977662D01*
X220400194Y-54018935D01*
X220479927Y-54040300D01*
X220479930Y-54040300D01*
X220562470Y-54040300D01*
X220562473Y-54040300D01*
X220642206Y-54018935D01*
X220713693Y-53977662D01*
X220772062Y-53919293D01*
X220813335Y-53847806D01*
X220834700Y-53768073D01*
X220834700Y-53685527D01*
X220813335Y-53605794D01*
X220811938Y-53603375D01*
X220782359Y-53552142D01*
X220772062Y-53534307D01*
X220772061Y-53534306D01*
X220772057Y-53534301D01*
X220713698Y-53475942D01*
X220713693Y-53475938D01*
X220642206Y-53434665D01*
X220642207Y-53434665D01*
X220622272Y-53429323D01*
X220562473Y-53413300D01*
X220479927Y-53413300D01*
X220432087Y-53426119D01*
X220400192Y-53434665D01*
X220328706Y-53475938D01*
X220328701Y-53475942D01*
X220270342Y-53534301D01*
X220270338Y-53534306D01*
X220229065Y-53605792D01*
X220221534Y-53633899D01*
X220207700Y-53685527D01*
X219278746Y-53685527D01*
X219285103Y-53679170D01*
X219297599Y-53666675D01*
X219389969Y-53574304D01*
X219389973Y-53574300D01*
X219481737Y-53436966D01*
X219544945Y-53284368D01*
X219545987Y-53279127D01*
X224453100Y-53279127D01*
X224453100Y-53361673D01*
X224459897Y-53387038D01*
X224474465Y-53441407D01*
X224515738Y-53512893D01*
X224515742Y-53512898D01*
X224574101Y-53571257D01*
X224574106Y-53571261D01*
X224574107Y-53571262D01*
X224645594Y-53612535D01*
X224725327Y-53633900D01*
X224761170Y-53633900D01*
X224778423Y-53641047D01*
X224785570Y-53658300D01*
X224782301Y-53670500D01*
X224775665Y-53681992D01*
X224764982Y-53721860D01*
X224754300Y-53761727D01*
X224754300Y-53844273D01*
X224763845Y-53879895D01*
X224775665Y-53924007D01*
X224816938Y-53995493D01*
X224816942Y-53995498D01*
X224875301Y-54053857D01*
X224875306Y-54053861D01*
X224875307Y-54053862D01*
X224946794Y-54095135D01*
X225026527Y-54116500D01*
X225026530Y-54116500D01*
X225109070Y-54116500D01*
X225109073Y-54116500D01*
X225188806Y-54095135D01*
X225238357Y-54066527D01*
X232907700Y-54066527D01*
X232907700Y-54149073D01*
X232914728Y-54175300D01*
X232929065Y-54228807D01*
X232970338Y-54300293D01*
X232970342Y-54300298D01*
X233028701Y-54358657D01*
X233028706Y-54358661D01*
X233028707Y-54358662D01*
X233100194Y-54399935D01*
X233179927Y-54421300D01*
X233179930Y-54421300D01*
X233262470Y-54421300D01*
X233262473Y-54421300D01*
X233342206Y-54399935D01*
X233413693Y-54358662D01*
X233472062Y-54300293D01*
X233513335Y-54228806D01*
X233534700Y-54149073D01*
X233534700Y-54066527D01*
X233513335Y-53986794D01*
X233511688Y-53983942D01*
X233480565Y-53930035D01*
X233472062Y-53915307D01*
X233472061Y-53915306D01*
X233472057Y-53915301D01*
X233413698Y-53856942D01*
X233413693Y-53856938D01*
X233342206Y-53815665D01*
X233342207Y-53815665D01*
X233322272Y-53810323D01*
X233262473Y-53794300D01*
X233179927Y-53794300D01*
X233132087Y-53807119D01*
X233100192Y-53815665D01*
X233028706Y-53856938D01*
X233028701Y-53856942D01*
X232970342Y-53915301D01*
X232970338Y-53915306D01*
X232929065Y-53986792D01*
X232918382Y-54026660D01*
X232907700Y-54066527D01*
X225238357Y-54066527D01*
X225260293Y-54053862D01*
X225260298Y-54053857D01*
X225266481Y-54047675D01*
X225318657Y-53995498D01*
X225318662Y-53995493D01*
X225359935Y-53924006D01*
X225381300Y-53844273D01*
X225381300Y-53761727D01*
X225359935Y-53681994D01*
X225359329Y-53680945D01*
X225332167Y-53633899D01*
X225318662Y-53610507D01*
X225318661Y-53610506D01*
X225318657Y-53610501D01*
X225304783Y-53596627D01*
X229885100Y-53596627D01*
X229885100Y-53679173D01*
X229898884Y-53730613D01*
X229906465Y-53758907D01*
X229947738Y-53830393D01*
X229947742Y-53830398D01*
X230006101Y-53888757D01*
X230006106Y-53888761D01*
X230006107Y-53888762D01*
X230077594Y-53930035D01*
X230157327Y-53951400D01*
X230157330Y-53951400D01*
X230239870Y-53951400D01*
X230239873Y-53951400D01*
X230319606Y-53930035D01*
X230391093Y-53888762D01*
X230449462Y-53830393D01*
X230490735Y-53758906D01*
X230512100Y-53679173D01*
X230512100Y-53596627D01*
X230490735Y-53516894D01*
X230449462Y-53445407D01*
X230449461Y-53445406D01*
X230449457Y-53445401D01*
X230391098Y-53387042D01*
X230391093Y-53387038D01*
X230319606Y-53345765D01*
X230319607Y-53345765D01*
X230297367Y-53339806D01*
X230239873Y-53324400D01*
X230157327Y-53324400D01*
X230109487Y-53337219D01*
X230077592Y-53345765D01*
X230006106Y-53387038D01*
X230006101Y-53387042D01*
X229947742Y-53445401D01*
X229947738Y-53445406D01*
X229906465Y-53516892D01*
X229901799Y-53534306D01*
X229885100Y-53596627D01*
X225304783Y-53596627D01*
X225260298Y-53552142D01*
X225260293Y-53552138D01*
X225188806Y-53510865D01*
X225188807Y-53510865D01*
X225168872Y-53505523D01*
X225109073Y-53489500D01*
X225109070Y-53489500D01*
X225073230Y-53489500D01*
X225055977Y-53482353D01*
X225048830Y-53465100D01*
X225052099Y-53452900D01*
X225056425Y-53445407D01*
X225058735Y-53441406D01*
X225080100Y-53361673D01*
X225080100Y-53279127D01*
X225058735Y-53199394D01*
X225017462Y-53127907D01*
X225017461Y-53127906D01*
X225017457Y-53127901D01*
X224959098Y-53069542D01*
X224959093Y-53069538D01*
X224887606Y-53028265D01*
X224887607Y-53028265D01*
X224867672Y-53022923D01*
X224807873Y-53006900D01*
X224725327Y-53006900D01*
X224677487Y-53019719D01*
X224645592Y-53028265D01*
X224574106Y-53069538D01*
X224574101Y-53069542D01*
X224515742Y-53127901D01*
X224515738Y-53127906D01*
X224474465Y-53199392D01*
X224463782Y-53239260D01*
X224453100Y-53279127D01*
X219545987Y-53279127D01*
X219577168Y-53122372D01*
X219577168Y-52957202D01*
X219544945Y-52795206D01*
X219492887Y-52669527D01*
X225389300Y-52669527D01*
X225389300Y-52752073D01*
X225401289Y-52796816D01*
X225410665Y-52831807D01*
X225451938Y-52903293D01*
X225451942Y-52903298D01*
X225510301Y-52961657D01*
X225510306Y-52961661D01*
X225510307Y-52961662D01*
X225581794Y-53002935D01*
X225661527Y-53024300D01*
X225661530Y-53024300D01*
X225744070Y-53024300D01*
X225744073Y-53024300D01*
X225823806Y-53002935D01*
X225895293Y-52961662D01*
X225899761Y-52957194D01*
X225933429Y-52923527D01*
X226049700Y-52923527D01*
X226049700Y-53006073D01*
X226064646Y-53061849D01*
X226071065Y-53085807D01*
X226112338Y-53157293D01*
X226112342Y-53157298D01*
X226170701Y-53215657D01*
X226170706Y-53215661D01*
X226170707Y-53215662D01*
X226242194Y-53256935D01*
X226321927Y-53278300D01*
X226321930Y-53278300D01*
X226404470Y-53278300D01*
X226404473Y-53278300D01*
X226484206Y-53256935D01*
X226555693Y-53215662D01*
X226614062Y-53157293D01*
X226655335Y-53085806D01*
X226657131Y-53079102D01*
X226668500Y-53064287D01*
X226687015Y-53061849D01*
X226701831Y-53073218D01*
X226704269Y-53079103D01*
X226706065Y-53085807D01*
X226747338Y-53157293D01*
X226747342Y-53157298D01*
X226805701Y-53215657D01*
X226805706Y-53215661D01*
X226805707Y-53215662D01*
X226877194Y-53256935D01*
X226956927Y-53278300D01*
X226956930Y-53278300D01*
X227039470Y-53278300D01*
X227039473Y-53278300D01*
X227119206Y-53256935D01*
X227190693Y-53215662D01*
X227247570Y-53158784D01*
X227264823Y-53151638D01*
X227282076Y-53158784D01*
X227285954Y-53163838D01*
X227318838Y-53220793D01*
X227318842Y-53220798D01*
X227377201Y-53279157D01*
X227377206Y-53279161D01*
X227377207Y-53279162D01*
X227448694Y-53320435D01*
X227528427Y-53341800D01*
X227528430Y-53341800D01*
X227610970Y-53341800D01*
X227610973Y-53341800D01*
X227690706Y-53320435D01*
X227727600Y-53299133D01*
X227746115Y-53296696D01*
X227760931Y-53308065D01*
X227764200Y-53320265D01*
X227764200Y-53323673D01*
X227779961Y-53382493D01*
X227785565Y-53403407D01*
X227826838Y-53474893D01*
X227826842Y-53474898D01*
X227885201Y-53533257D01*
X227885206Y-53533261D01*
X227885207Y-53533262D01*
X227956694Y-53574535D01*
X228036427Y-53595900D01*
X228036430Y-53595900D01*
X228118970Y-53595900D01*
X228118973Y-53595900D01*
X228198706Y-53574535D01*
X228270193Y-53533262D01*
X228328562Y-53474893D01*
X228369835Y-53403406D01*
X228391200Y-53323673D01*
X228391200Y-53241127D01*
X228374158Y-53177527D01*
X231637700Y-53177527D01*
X231637700Y-53260073D01*
X231648167Y-53299134D01*
X231659065Y-53339807D01*
X231700338Y-53411293D01*
X231700342Y-53411298D01*
X231758701Y-53469657D01*
X231758706Y-53469661D01*
X231758707Y-53469662D01*
X231830194Y-53510935D01*
X231909927Y-53532300D01*
X231909930Y-53532300D01*
X231992470Y-53532300D01*
X231992473Y-53532300D01*
X232072206Y-53510935D01*
X232143693Y-53469662D01*
X232202062Y-53411293D01*
X232243335Y-53339806D01*
X232264700Y-53260073D01*
X232264700Y-53177527D01*
X232243335Y-53097794D01*
X232238781Y-53089907D01*
X232222582Y-53061849D01*
X232202062Y-53026307D01*
X232202061Y-53026306D01*
X232202057Y-53026301D01*
X232143698Y-52967942D01*
X232143693Y-52967938D01*
X232072206Y-52926665D01*
X232072207Y-52926665D01*
X232052272Y-52921323D01*
X231992473Y-52905300D01*
X231909927Y-52905300D01*
X231862087Y-52918119D01*
X231830192Y-52926665D01*
X231758706Y-52967938D01*
X231758701Y-52967942D01*
X231700342Y-53026301D01*
X231700338Y-53026306D01*
X231659065Y-53097792D01*
X231650996Y-53127906D01*
X231637700Y-53177527D01*
X228374158Y-53177527D01*
X228369835Y-53161394D01*
X228328562Y-53089907D01*
X228328561Y-53089906D01*
X228328557Y-53089901D01*
X228270198Y-53031542D01*
X228270193Y-53031538D01*
X228198706Y-52990265D01*
X228198707Y-52990265D01*
X228178772Y-52984923D01*
X228118973Y-52968900D01*
X228036427Y-52968900D01*
X227988587Y-52981719D01*
X227956692Y-52990265D01*
X227919800Y-53011565D01*
X227901285Y-53014003D01*
X227886469Y-53002634D01*
X227883200Y-52990434D01*
X227883200Y-52987030D01*
X227883200Y-52987027D01*
X227861835Y-52907294D01*
X227820562Y-52835807D01*
X227820561Y-52835806D01*
X227820557Y-52835801D01*
X227762198Y-52777442D01*
X227762193Y-52777438D01*
X227690706Y-52736165D01*
X227690707Y-52736165D01*
X227670772Y-52730823D01*
X227610973Y-52714800D01*
X227528427Y-52714800D01*
X227480587Y-52727619D01*
X227448692Y-52736165D01*
X227377206Y-52777438D01*
X227320329Y-52834315D01*
X227303076Y-52841461D01*
X227285822Y-52834314D01*
X227281945Y-52829261D01*
X227262283Y-52795206D01*
X227249062Y-52772307D01*
X227249061Y-52772306D01*
X227249057Y-52772301D01*
X227190698Y-52713942D01*
X227190693Y-52713938D01*
X227119206Y-52672665D01*
X227119207Y-52672665D01*
X227099272Y-52667323D01*
X227039473Y-52651300D01*
X226956927Y-52651300D01*
X226909087Y-52664119D01*
X226877192Y-52672665D01*
X226805706Y-52713938D01*
X226805701Y-52713942D01*
X226747342Y-52772301D01*
X226747338Y-52772306D01*
X226706065Y-52843793D01*
X226706063Y-52843797D01*
X226704268Y-52850497D01*
X226692899Y-52865312D01*
X226674384Y-52867749D01*
X226659569Y-52856380D01*
X226657132Y-52850497D01*
X226655336Y-52843797D01*
X226655335Y-52843796D01*
X226655335Y-52843794D01*
X226614062Y-52772307D01*
X226614061Y-52772306D01*
X226614057Y-52772301D01*
X226555698Y-52713942D01*
X226555693Y-52713938D01*
X226484206Y-52672665D01*
X226484207Y-52672665D01*
X226464272Y-52667323D01*
X226404473Y-52651300D01*
X226321927Y-52651300D01*
X226274087Y-52664119D01*
X226242192Y-52672665D01*
X226170706Y-52713938D01*
X226170701Y-52713942D01*
X226112342Y-52772301D01*
X226112338Y-52772306D01*
X226071065Y-52843792D01*
X226067692Y-52856380D01*
X226049700Y-52923527D01*
X225933429Y-52923527D01*
X225952281Y-52904675D01*
X225953657Y-52903298D01*
X225953662Y-52903293D01*
X225994935Y-52831806D01*
X226016300Y-52752073D01*
X226016300Y-52669527D01*
X225994935Y-52589794D01*
X225953662Y-52518307D01*
X225953661Y-52518306D01*
X225953657Y-52518301D01*
X225895298Y-52459942D01*
X225895293Y-52459938D01*
X225823806Y-52418665D01*
X225823807Y-52418665D01*
X225803872Y-52413323D01*
X225744073Y-52397300D01*
X225661527Y-52397300D01*
X225613687Y-52410119D01*
X225581792Y-52418665D01*
X225510306Y-52459938D01*
X225510301Y-52459942D01*
X225451942Y-52518301D01*
X225451938Y-52518306D01*
X225410665Y-52589792D01*
X225399982Y-52629660D01*
X225389300Y-52669527D01*
X219492887Y-52669527D01*
X219481737Y-52642608D01*
X219389973Y-52505274D01*
X219389972Y-52505273D01*
X219389969Y-52505269D01*
X219273185Y-52388485D01*
X219273181Y-52388482D01*
X219247122Y-52371070D01*
X219135847Y-52296718D01*
X219135848Y-52296718D01*
X219135846Y-52296717D01*
X219116073Y-52288527D01*
X223065200Y-52288527D01*
X223065200Y-52371073D01*
X223077953Y-52418665D01*
X223086565Y-52450807D01*
X223127838Y-52522293D01*
X223127842Y-52522298D01*
X223186201Y-52580657D01*
X223186206Y-52580661D01*
X223186207Y-52580662D01*
X223257694Y-52621935D01*
X223337427Y-52643300D01*
X223337430Y-52643300D01*
X223419970Y-52643300D01*
X223419973Y-52643300D01*
X223499706Y-52621935D01*
X223571193Y-52580662D01*
X223629562Y-52522293D01*
X223670835Y-52450806D01*
X223692200Y-52371073D01*
X223692200Y-52288527D01*
X223670835Y-52208794D01*
X223666501Y-52201288D01*
X223659775Y-52189637D01*
X223629562Y-52137307D01*
X223629561Y-52137306D01*
X223629557Y-52137301D01*
X223571198Y-52078942D01*
X223571193Y-52078938D01*
X223499706Y-52037665D01*
X223499707Y-52037665D01*
X223479772Y-52032323D01*
X223419973Y-52016300D01*
X223337427Y-52016300D01*
X223289587Y-52029119D01*
X223257692Y-52037665D01*
X223186206Y-52078938D01*
X223186201Y-52078942D01*
X223127842Y-52137301D01*
X223127838Y-52137306D01*
X223086565Y-52208792D01*
X223079942Y-52233509D01*
X223065200Y-52288527D01*
X219116073Y-52288527D01*
X219027941Y-52252022D01*
X218983249Y-52233510D01*
X218983247Y-52233509D01*
X218983246Y-52233509D01*
X218821260Y-52201288D01*
X218821256Y-52201287D01*
X218821253Y-52201287D01*
X218656083Y-52201287D01*
X218656079Y-52201287D01*
X218656075Y-52201288D01*
X218494089Y-52233509D01*
X218341489Y-52296717D01*
X218204154Y-52388482D01*
X218204150Y-52388485D01*
X218087366Y-52505269D01*
X218087363Y-52505273D01*
X218051800Y-52558496D01*
X218036272Y-52568871D01*
X218017956Y-52565228D01*
X218014259Y-52562193D01*
X217929877Y-52477811D01*
X217929873Y-52477808D01*
X217811375Y-52398629D01*
X217691462Y-52348960D01*
X217678257Y-52335754D01*
X217676400Y-52326417D01*
X217676400Y-51717027D01*
X221160200Y-51717027D01*
X221160200Y-51799573D01*
X221174670Y-51853575D01*
X221181565Y-51879307D01*
X221222838Y-51950793D01*
X221222842Y-51950798D01*
X221281201Y-52009157D01*
X221281206Y-52009161D01*
X221281207Y-52009162D01*
X221352694Y-52050435D01*
X221432427Y-52071800D01*
X221432430Y-52071800D01*
X221514970Y-52071800D01*
X221514973Y-52071800D01*
X221594706Y-52050435D01*
X221666193Y-52009162D01*
X221724562Y-51950793D01*
X221757445Y-51893838D01*
X221772261Y-51882469D01*
X221790776Y-51884907D01*
X221795829Y-51888785D01*
X221852701Y-51945657D01*
X221852706Y-51945661D01*
X221852707Y-51945662D01*
X221924194Y-51986935D01*
X222003927Y-52008300D01*
X222003930Y-52008300D01*
X222086470Y-52008300D01*
X222086473Y-52008300D01*
X222166206Y-51986935D01*
X222237693Y-51945662D01*
X222296062Y-51887293D01*
X222337335Y-51815806D01*
X222358700Y-51736073D01*
X222358700Y-51653527D01*
X222338282Y-51577327D01*
X225160700Y-51577327D01*
X225160700Y-51659873D01*
X225172612Y-51704327D01*
X225182065Y-51739607D01*
X225223338Y-51811093D01*
X225223342Y-51811098D01*
X225281701Y-51869457D01*
X225281706Y-51869461D01*
X225281707Y-51869462D01*
X225353194Y-51910735D01*
X225432927Y-51932100D01*
X225432930Y-51932100D01*
X225515470Y-51932100D01*
X225515473Y-51932100D01*
X225595206Y-51910735D01*
X225666693Y-51869462D01*
X225725062Y-51811093D01*
X225766335Y-51739606D01*
X225787700Y-51659873D01*
X225787700Y-51577327D01*
X225766335Y-51497594D01*
X225764688Y-51494742D01*
X225752498Y-51473628D01*
X225746378Y-51463027D01*
X228056300Y-51463027D01*
X228056300Y-51545573D01*
X228070668Y-51599192D01*
X228077665Y-51625307D01*
X228118938Y-51696793D01*
X228118942Y-51696798D01*
X228177301Y-51755157D01*
X228177306Y-51755161D01*
X228177307Y-51755162D01*
X228248794Y-51796435D01*
X228328527Y-51817800D01*
X228328530Y-51817800D01*
X228411070Y-51817800D01*
X228411073Y-51817800D01*
X228429899Y-51812755D01*
X228448413Y-51815191D01*
X228459782Y-51830007D01*
X228457346Y-51848522D01*
X228453469Y-51853575D01*
X228449138Y-51857906D01*
X228407865Y-51929392D01*
X228397182Y-51969260D01*
X228386500Y-52009127D01*
X228386500Y-52091673D01*
X228398728Y-52137306D01*
X228407865Y-52171407D01*
X228449138Y-52242893D01*
X228449142Y-52242898D01*
X228507501Y-52301257D01*
X228507506Y-52301261D01*
X228507507Y-52301262D01*
X228578994Y-52342535D01*
X228658727Y-52363900D01*
X228658730Y-52363900D01*
X228741270Y-52363900D01*
X228741273Y-52363900D01*
X228821006Y-52342535D01*
X228892493Y-52301262D01*
X228950862Y-52242893D01*
X228992135Y-52171406D01*
X229013500Y-52091673D01*
X229013500Y-52009127D01*
X228992135Y-51929394D01*
X228950862Y-51857907D01*
X228950861Y-51857906D01*
X228950857Y-51857901D01*
X228892498Y-51799542D01*
X228892493Y-51799538D01*
X228821006Y-51758265D01*
X228821007Y-51758265D01*
X228801072Y-51752923D01*
X228741273Y-51736900D01*
X228658727Y-51736900D01*
X228639899Y-51741944D01*
X228621385Y-51739507D01*
X228610016Y-51724691D01*
X228612454Y-51706176D01*
X228613083Y-51705145D01*
X228614489Y-51702965D01*
X228620662Y-51696793D01*
X228630977Y-51678927D01*
X229808900Y-51678927D01*
X229808900Y-51761473D01*
X229819109Y-51799573D01*
X229830265Y-51841207D01*
X229871538Y-51912693D01*
X229871542Y-51912698D01*
X229929901Y-51971057D01*
X229929906Y-51971061D01*
X229929907Y-51971062D01*
X230001394Y-52012335D01*
X230081127Y-52033700D01*
X230081130Y-52033700D01*
X230163670Y-52033700D01*
X230163673Y-52033700D01*
X230243406Y-52012335D01*
X230314893Y-51971062D01*
X230373262Y-51912693D01*
X230414535Y-51841206D01*
X230435900Y-51761473D01*
X230435900Y-51704327D01*
X232044100Y-51704327D01*
X232044100Y-51786873D01*
X232051688Y-51815191D01*
X232065465Y-51866607D01*
X232106738Y-51938093D01*
X232106742Y-51938098D01*
X232165101Y-51996457D01*
X232165106Y-51996461D01*
X232165107Y-51996462D01*
X232236594Y-52037735D01*
X232316327Y-52059100D01*
X232316330Y-52059100D01*
X232398870Y-52059100D01*
X232398873Y-52059100D01*
X232478606Y-52037735D01*
X232550093Y-51996462D01*
X232608462Y-51938093D01*
X232649735Y-51866606D01*
X232671100Y-51786873D01*
X232671100Y-51704327D01*
X232649735Y-51624594D01*
X232608462Y-51553107D01*
X232608461Y-51553106D01*
X232608457Y-51553101D01*
X232550098Y-51494742D01*
X232550093Y-51494738D01*
X232478606Y-51453465D01*
X232478607Y-51453465D01*
X232458672Y-51448123D01*
X232398873Y-51432100D01*
X232316327Y-51432100D01*
X232268931Y-51444800D01*
X232236592Y-51453465D01*
X232165106Y-51494738D01*
X232165101Y-51494742D01*
X232106742Y-51553101D01*
X232106738Y-51553106D01*
X232065465Y-51624592D01*
X232056012Y-51659873D01*
X232044100Y-51704327D01*
X230435900Y-51704327D01*
X230435900Y-51678927D01*
X230414535Y-51599194D01*
X230373262Y-51527707D01*
X230373261Y-51527706D01*
X230373257Y-51527701D01*
X230314898Y-51469342D01*
X230314893Y-51469338D01*
X230243406Y-51428065D01*
X230243407Y-51428065D01*
X230223472Y-51422723D01*
X230163673Y-51406700D01*
X230081127Y-51406700D01*
X230033287Y-51419519D01*
X230001392Y-51428065D01*
X229929906Y-51469338D01*
X229929901Y-51469342D01*
X229871542Y-51527701D01*
X229871538Y-51527706D01*
X229830265Y-51599192D01*
X229823459Y-51624592D01*
X229808900Y-51678927D01*
X228630977Y-51678927D01*
X228661935Y-51625306D01*
X228683300Y-51545573D01*
X228683300Y-51463027D01*
X228661935Y-51383294D01*
X228620662Y-51311807D01*
X228620661Y-51311806D01*
X228620657Y-51311801D01*
X228562298Y-51253442D01*
X228562293Y-51253438D01*
X228490806Y-51212165D01*
X228490807Y-51212165D01*
X228470872Y-51206823D01*
X228411073Y-51190800D01*
X228328527Y-51190800D01*
X228280687Y-51203619D01*
X228248792Y-51212165D01*
X228177306Y-51253438D01*
X228177301Y-51253442D01*
X228118942Y-51311801D01*
X228118938Y-51311806D01*
X228077665Y-51383292D01*
X228072474Y-51402665D01*
X228056300Y-51463027D01*
X225746378Y-51463027D01*
X225725062Y-51426107D01*
X225725061Y-51426106D01*
X225725057Y-51426101D01*
X225666698Y-51367742D01*
X225666693Y-51367738D01*
X225595206Y-51326465D01*
X225595207Y-51326465D01*
X225575272Y-51321123D01*
X225515473Y-51305100D01*
X225432927Y-51305100D01*
X225385087Y-51317919D01*
X225353192Y-51326465D01*
X225281706Y-51367738D01*
X225281701Y-51367742D01*
X225223342Y-51426101D01*
X225223338Y-51426106D01*
X225182065Y-51497592D01*
X225173996Y-51527706D01*
X225160700Y-51577327D01*
X222338282Y-51577327D01*
X222337335Y-51573794D01*
X222296062Y-51502307D01*
X222296061Y-51502306D01*
X222296057Y-51502301D01*
X222237698Y-51443942D01*
X222237693Y-51443938D01*
X222166206Y-51402665D01*
X222166207Y-51402665D01*
X222146272Y-51397323D01*
X222086473Y-51381300D01*
X222003927Y-51381300D01*
X221956087Y-51394119D01*
X221924192Y-51402665D01*
X221852706Y-51443938D01*
X221852701Y-51443942D01*
X221794342Y-51502301D01*
X221794341Y-51502303D01*
X221794339Y-51502305D01*
X221794338Y-51502307D01*
X221781264Y-51524950D01*
X221761454Y-51559262D01*
X221746638Y-51570630D01*
X221728122Y-51568192D01*
X221723070Y-51564314D01*
X221666198Y-51507442D01*
X221666193Y-51507438D01*
X221594706Y-51466165D01*
X221594707Y-51466165D01*
X221574772Y-51460823D01*
X221514973Y-51444800D01*
X221432427Y-51444800D01*
X221384587Y-51457619D01*
X221352692Y-51466165D01*
X221281206Y-51507438D01*
X221281201Y-51507442D01*
X221222842Y-51565801D01*
X221222838Y-51565806D01*
X221181565Y-51637292D01*
X221175515Y-51659873D01*
X221160200Y-51717027D01*
X217676400Y-51717027D01*
X217676400Y-51213156D01*
X217683547Y-51195903D01*
X217691460Y-51190614D01*
X217811374Y-51140945D01*
X217929873Y-51061766D01*
X218014261Y-50977377D01*
X218031512Y-50970232D01*
X218048765Y-50977378D01*
X218051800Y-50981076D01*
X218087363Y-51034300D01*
X218087366Y-51034304D01*
X218204150Y-51151088D01*
X218204154Y-51151091D01*
X218204155Y-51151092D01*
X218341489Y-51242856D01*
X218494087Y-51306064D01*
X218656083Y-51338287D01*
X218656088Y-51338287D01*
X218821248Y-51338287D01*
X218821253Y-51338287D01*
X218983249Y-51306064D01*
X219135847Y-51242856D01*
X219273181Y-51151092D01*
X219389973Y-51034300D01*
X219481737Y-50896966D01*
X219544945Y-50744368D01*
X219577168Y-50582372D01*
X219577168Y-50417202D01*
X219545208Y-50256527D01*
X228462700Y-50256527D01*
X228462700Y-50339073D01*
X228478723Y-50398872D01*
X228484065Y-50418807D01*
X228525338Y-50490293D01*
X228525342Y-50490298D01*
X228583701Y-50548657D01*
X228583706Y-50548661D01*
X228583707Y-50548662D01*
X228655194Y-50589935D01*
X228734927Y-50611300D01*
X228734930Y-50611300D01*
X228817470Y-50611300D01*
X228817473Y-50611300D01*
X228897206Y-50589935D01*
X228968693Y-50548662D01*
X229027062Y-50490293D01*
X229068335Y-50418806D01*
X229089700Y-50339073D01*
X229089700Y-50256527D01*
X229068335Y-50176794D01*
X229027062Y-50105307D01*
X229027061Y-50105306D01*
X229027057Y-50105301D01*
X228968698Y-50046942D01*
X228968693Y-50046938D01*
X228897206Y-50005665D01*
X228897207Y-50005665D01*
X228877272Y-50000323D01*
X228817473Y-49984300D01*
X228734927Y-49984300D01*
X228687087Y-49997119D01*
X228655192Y-50005665D01*
X228583706Y-50046938D01*
X228583701Y-50046942D01*
X228525342Y-50105301D01*
X228525338Y-50105306D01*
X228484065Y-50176792D01*
X228473382Y-50216660D01*
X228462700Y-50256527D01*
X219545208Y-50256527D01*
X219544945Y-50255206D01*
X219481737Y-50102608D01*
X219389973Y-49965274D01*
X219389972Y-49965273D01*
X219389969Y-49965269D01*
X219273185Y-49848485D01*
X219273181Y-49848482D01*
X219135846Y-49756717D01*
X219049480Y-49720943D01*
X218983249Y-49693510D01*
X218983247Y-49693509D01*
X218983246Y-49693509D01*
X218940604Y-49685027D01*
X223192200Y-49685027D01*
X223192200Y-49767573D01*
X223202640Y-49806533D01*
X223213565Y-49847307D01*
X223254838Y-49918793D01*
X223254842Y-49918798D01*
X223313201Y-49977157D01*
X223313206Y-49977161D01*
X223313207Y-49977162D01*
X223384694Y-50018435D01*
X223464427Y-50039800D01*
X223464430Y-50039800D01*
X223546970Y-50039800D01*
X223546973Y-50039800D01*
X223626706Y-50018435D01*
X223698193Y-49977162D01*
X223756562Y-49918793D01*
X223770320Y-49894963D01*
X223785135Y-49883595D01*
X223803650Y-49886033D01*
X223812579Y-49894962D01*
X223823373Y-49913657D01*
X223826338Y-49918793D01*
X223826342Y-49918798D01*
X223884701Y-49977157D01*
X223884706Y-49977161D01*
X223884707Y-49977162D01*
X223956194Y-50018435D01*
X224035927Y-50039800D01*
X224035930Y-50039800D01*
X224118470Y-50039800D01*
X224118473Y-50039800D01*
X224198206Y-50018435D01*
X224269693Y-49977162D01*
X224328062Y-49918793D01*
X224369335Y-49847306D01*
X224390700Y-49767573D01*
X224390700Y-49685027D01*
X224369335Y-49605294D01*
X224328062Y-49533807D01*
X224328061Y-49533806D01*
X224328057Y-49533801D01*
X224269698Y-49475442D01*
X224269693Y-49475438D01*
X224198206Y-49434165D01*
X224198207Y-49434165D01*
X224178272Y-49428823D01*
X224118473Y-49412800D01*
X224035927Y-49412800D01*
X223988087Y-49425619D01*
X223956192Y-49434165D01*
X223884706Y-49475438D01*
X223884701Y-49475442D01*
X223826342Y-49533801D01*
X223826341Y-49533803D01*
X223826339Y-49533805D01*
X223826338Y-49533807D01*
X223821728Y-49541792D01*
X223812581Y-49557635D01*
X223797765Y-49569003D01*
X223779249Y-49566565D01*
X223770319Y-49557635D01*
X223756562Y-49533807D01*
X223756558Y-49533803D01*
X223756557Y-49533801D01*
X223698198Y-49475442D01*
X223698193Y-49475438D01*
X223626706Y-49434165D01*
X223626707Y-49434165D01*
X223606772Y-49428823D01*
X223546973Y-49412800D01*
X223464427Y-49412800D01*
X223416587Y-49425619D01*
X223384692Y-49434165D01*
X223313206Y-49475438D01*
X223313201Y-49475442D01*
X223254842Y-49533801D01*
X223254838Y-49533806D01*
X223213565Y-49605292D01*
X223209214Y-49621530D01*
X223192200Y-49685027D01*
X218940604Y-49685027D01*
X218821260Y-49661288D01*
X218821256Y-49661287D01*
X218821253Y-49661287D01*
X218656083Y-49661287D01*
X218656079Y-49661287D01*
X218656075Y-49661288D01*
X218494089Y-49693509D01*
X218341489Y-49756717D01*
X218204154Y-49848482D01*
X218204150Y-49848485D01*
X218087366Y-49965269D01*
X218087363Y-49965273D01*
X218051800Y-50018496D01*
X218036272Y-50028871D01*
X218017956Y-50025228D01*
X218014259Y-50022193D01*
X217929877Y-49937811D01*
X217929873Y-49937808D01*
X217811375Y-49858629D01*
X217691462Y-49808960D01*
X217678257Y-49795754D01*
X217676400Y-49786417D01*
X217676400Y-49367527D01*
X224589200Y-49367527D01*
X224589200Y-49450073D01*
X224594622Y-49470306D01*
X224610565Y-49529807D01*
X224651838Y-49601293D01*
X224651842Y-49601298D01*
X224710201Y-49659657D01*
X224710206Y-49659661D01*
X224710207Y-49659662D01*
X224781694Y-49700935D01*
X224861427Y-49722300D01*
X224861430Y-49722300D01*
X224943970Y-49722300D01*
X224943973Y-49722300D01*
X225023706Y-49700935D01*
X225095193Y-49659662D01*
X225098049Y-49656806D01*
X225133329Y-49621527D01*
X225795700Y-49621527D01*
X225795700Y-49704073D01*
X225809806Y-49756717D01*
X225817065Y-49783807D01*
X225858338Y-49855293D01*
X225858342Y-49855298D01*
X225916701Y-49913657D01*
X225916706Y-49913661D01*
X225916707Y-49913662D01*
X225988194Y-49954935D01*
X226067927Y-49976300D01*
X226067930Y-49976300D01*
X226150470Y-49976300D01*
X226150473Y-49976300D01*
X226230206Y-49954935D01*
X226301693Y-49913662D01*
X226360062Y-49855293D01*
X226401335Y-49783806D01*
X226422700Y-49704073D01*
X226422700Y-49621527D01*
X226401335Y-49541794D01*
X226396721Y-49533803D01*
X226380166Y-49505128D01*
X226374045Y-49494527D01*
X227294300Y-49494527D01*
X227294300Y-49577073D01*
X227301862Y-49605294D01*
X227315665Y-49656807D01*
X227356938Y-49728293D01*
X227356942Y-49728298D01*
X227415301Y-49786657D01*
X227415306Y-49786661D01*
X227415307Y-49786662D01*
X227486794Y-49827935D01*
X227566527Y-49849300D01*
X227566530Y-49849300D01*
X227649070Y-49849300D01*
X227649073Y-49849300D01*
X227728806Y-49827935D01*
X227800293Y-49786662D01*
X227858662Y-49728293D01*
X227899935Y-49656806D01*
X227921300Y-49577073D01*
X227921300Y-49494527D01*
X227899935Y-49414794D01*
X227898288Y-49411942D01*
X227872647Y-49367530D01*
X227858662Y-49343307D01*
X227858661Y-49343306D01*
X227858657Y-49343301D01*
X227800298Y-49284942D01*
X227800293Y-49284938D01*
X227728806Y-49243665D01*
X227728807Y-49243665D01*
X227708872Y-49238323D01*
X227649073Y-49222300D01*
X227566527Y-49222300D01*
X227518687Y-49235119D01*
X227486792Y-49243665D01*
X227415306Y-49284938D01*
X227415301Y-49284942D01*
X227356942Y-49343301D01*
X227356938Y-49343306D01*
X227315665Y-49414792D01*
X227306212Y-49450073D01*
X227294300Y-49494527D01*
X226374045Y-49494527D01*
X226360062Y-49470307D01*
X226360061Y-49470306D01*
X226360057Y-49470301D01*
X226301698Y-49411942D01*
X226301693Y-49411938D01*
X226230206Y-49370665D01*
X226230207Y-49370665D01*
X226210272Y-49365323D01*
X226150473Y-49349300D01*
X226067927Y-49349300D01*
X226020087Y-49362119D01*
X225988192Y-49370665D01*
X225916706Y-49411938D01*
X225916701Y-49411942D01*
X225858342Y-49470301D01*
X225858338Y-49470306D01*
X225817065Y-49541792D01*
X225807612Y-49577073D01*
X225795700Y-49621527D01*
X225133329Y-49621527D01*
X225152181Y-49602675D01*
X225153557Y-49601298D01*
X225153562Y-49601293D01*
X225194835Y-49529806D01*
X225216200Y-49450073D01*
X225216200Y-49367527D01*
X225194835Y-49287794D01*
X225193188Y-49284942D01*
X225153561Y-49216306D01*
X225153557Y-49216301D01*
X225095198Y-49157942D01*
X225095193Y-49157938D01*
X225023706Y-49116665D01*
X225023707Y-49116665D01*
X225003772Y-49111323D01*
X224943973Y-49095300D01*
X224861427Y-49095300D01*
X224813587Y-49108119D01*
X224781692Y-49116665D01*
X224710206Y-49157938D01*
X224710201Y-49157942D01*
X224651842Y-49216301D01*
X224651838Y-49216306D01*
X224610565Y-49287792D01*
X224599882Y-49327660D01*
X224589200Y-49367527D01*
X217676400Y-49367527D01*
X217676400Y-48859527D01*
X220969700Y-48859527D01*
X220969700Y-48942073D01*
X220985723Y-49001872D01*
X220991065Y-49021807D01*
X221032338Y-49093293D01*
X221032342Y-49093298D01*
X221090701Y-49151657D01*
X221090706Y-49151661D01*
X221090707Y-49151662D01*
X221162194Y-49192935D01*
X221241927Y-49214300D01*
X221241930Y-49214300D01*
X221324470Y-49214300D01*
X221324473Y-49214300D01*
X221404206Y-49192935D01*
X221475693Y-49151662D01*
X221534062Y-49093293D01*
X221575335Y-49021806D01*
X221596700Y-48942073D01*
X221596700Y-48859527D01*
X221575335Y-48779794D01*
X221534062Y-48708307D01*
X221534061Y-48708306D01*
X221534057Y-48708301D01*
X221475698Y-48649942D01*
X221475693Y-48649938D01*
X221404206Y-48608665D01*
X221404207Y-48608665D01*
X221375395Y-48600945D01*
X221324473Y-48587300D01*
X221241927Y-48587300D01*
X221194087Y-48600119D01*
X221162192Y-48608665D01*
X221090706Y-48649938D01*
X221090701Y-48649942D01*
X221032342Y-48708301D01*
X221032338Y-48708306D01*
X220991065Y-48779792D01*
X220980382Y-48819660D01*
X220969700Y-48859527D01*
X217676400Y-48859527D01*
X217676400Y-48673156D01*
X217683547Y-48655903D01*
X217691460Y-48650614D01*
X217811374Y-48600945D01*
X217929873Y-48521766D01*
X218014261Y-48437377D01*
X218031512Y-48430232D01*
X218048765Y-48437378D01*
X218051800Y-48441076D01*
X218087363Y-48494300D01*
X218087366Y-48494304D01*
X218204150Y-48611088D01*
X218204154Y-48611091D01*
X218204155Y-48611092D01*
X218341489Y-48702856D01*
X218494087Y-48766064D01*
X218656083Y-48798287D01*
X218656088Y-48798287D01*
X218821248Y-48798287D01*
X218821253Y-48798287D01*
X218983249Y-48766064D01*
X219135847Y-48702856D01*
X219273181Y-48611092D01*
X219389973Y-48494300D01*
X219481737Y-48356966D01*
X219544945Y-48204368D01*
X219577168Y-48042372D01*
X219577168Y-47877202D01*
X219544945Y-47715206D01*
X219481737Y-47562608D01*
X219389973Y-47425274D01*
X219389972Y-47425273D01*
X219389969Y-47425269D01*
X219273185Y-47308485D01*
X219273181Y-47308482D01*
X219228597Y-47278692D01*
X219200626Y-47260002D01*
X222981300Y-47260002D01*
X222981300Y-47389997D01*
X223014945Y-47515562D01*
X223079942Y-47628139D01*
X223079946Y-47628144D01*
X223171855Y-47720053D01*
X223171860Y-47720057D01*
X223171861Y-47720058D01*
X223284439Y-47785055D01*
X223410003Y-47818700D01*
X223539997Y-47818700D01*
X223665561Y-47785055D01*
X223778139Y-47720058D01*
X223793582Y-47704614D01*
X223810834Y-47697467D01*
X223828087Y-47704613D01*
X223834403Y-47715551D01*
X223839463Y-47734434D01*
X223839465Y-47734438D01*
X223880738Y-47805925D01*
X223880742Y-47805930D01*
X223939101Y-47864289D01*
X223939106Y-47864293D01*
X223939107Y-47864294D01*
X224010594Y-47905567D01*
X224090327Y-47926932D01*
X224090330Y-47926932D01*
X224172870Y-47926932D01*
X224172873Y-47926932D01*
X224252606Y-47905567D01*
X224324093Y-47864294D01*
X224382462Y-47805925D01*
X224423735Y-47734438D01*
X224445100Y-47654705D01*
X224445100Y-47572159D01*
X224423735Y-47492426D01*
X224382462Y-47420939D01*
X224382461Y-47420938D01*
X224382457Y-47420933D01*
X224324098Y-47362574D01*
X224324093Y-47362570D01*
X224252606Y-47321297D01*
X224252607Y-47321297D01*
X224230199Y-47315293D01*
X224172873Y-47299932D01*
X224090327Y-47299932D01*
X224042487Y-47312751D01*
X224010592Y-47321297D01*
X224005300Y-47324353D01*
X223986784Y-47326791D01*
X223971969Y-47315422D01*
X223968700Y-47303222D01*
X223968700Y-47260003D01*
X223968700Y-47260002D01*
X228731300Y-47260002D01*
X228731300Y-47389997D01*
X228764945Y-47515562D01*
X228829942Y-47628139D01*
X228829946Y-47628144D01*
X228921855Y-47720053D01*
X228921860Y-47720057D01*
X228921861Y-47720058D01*
X229034439Y-47785055D01*
X229160003Y-47818700D01*
X229289997Y-47818700D01*
X229415561Y-47785055D01*
X229528139Y-47720058D01*
X229620058Y-47628139D01*
X229685055Y-47515561D01*
X229718700Y-47389997D01*
X229718700Y-47260003D01*
X229685055Y-47134439D01*
X229654507Y-47081529D01*
X229654506Y-47081527D01*
X232272700Y-47081527D01*
X232272700Y-47164073D01*
X232286806Y-47216717D01*
X232294065Y-47243807D01*
X232335338Y-47315293D01*
X232335342Y-47315298D01*
X232393701Y-47373657D01*
X232393706Y-47373661D01*
X232393707Y-47373662D01*
X232465194Y-47414935D01*
X232544927Y-47436300D01*
X232544930Y-47436300D01*
X232627470Y-47436300D01*
X232627473Y-47436300D01*
X232707206Y-47414935D01*
X232778693Y-47373662D01*
X232837062Y-47315293D01*
X232878335Y-47243806D01*
X232899700Y-47164073D01*
X232899700Y-47081527D01*
X232878335Y-47001794D01*
X232837062Y-46930307D01*
X232837061Y-46930306D01*
X232837057Y-46930301D01*
X232778698Y-46871942D01*
X232778693Y-46871938D01*
X232707206Y-46830665D01*
X232707207Y-46830665D01*
X232687272Y-46825323D01*
X232627473Y-46809300D01*
X232544927Y-46809300D01*
X232497087Y-46822119D01*
X232465192Y-46830665D01*
X232393706Y-46871938D01*
X232393701Y-46871942D01*
X232335342Y-46930301D01*
X232335338Y-46930306D01*
X232294065Y-47001792D01*
X232288688Y-47021860D01*
X232272700Y-47081527D01*
X229654506Y-47081527D01*
X229620057Y-47021860D01*
X229620053Y-47021855D01*
X229528144Y-46929946D01*
X229528139Y-46929942D01*
X229415561Y-46864945D01*
X229415562Y-46864945D01*
X229289997Y-46831300D01*
X229160003Y-46831300D01*
X229034437Y-46864945D01*
X228921860Y-46929942D01*
X228921855Y-46929946D01*
X228829946Y-47021855D01*
X228829942Y-47021860D01*
X228764945Y-47134437D01*
X228731300Y-47260002D01*
X223968700Y-47260002D01*
X223935055Y-47134439D01*
X223870058Y-47021861D01*
X223870057Y-47021860D01*
X223870053Y-47021855D01*
X223778144Y-46929946D01*
X223778139Y-46929942D01*
X223665561Y-46864945D01*
X223665562Y-46864945D01*
X223539997Y-46831300D01*
X223410003Y-46831300D01*
X223284437Y-46864945D01*
X223171860Y-46929942D01*
X223171855Y-46929946D01*
X223079946Y-47021855D01*
X223079942Y-47021860D01*
X223014945Y-47134437D01*
X222981300Y-47260002D01*
X219200626Y-47260002D01*
X219135846Y-47216717D01*
X219008743Y-47164070D01*
X218983249Y-47153510D01*
X218983247Y-47153509D01*
X218983246Y-47153509D01*
X218821260Y-47121288D01*
X218821256Y-47121287D01*
X218821253Y-47121287D01*
X218656083Y-47121287D01*
X218656079Y-47121287D01*
X218656075Y-47121288D01*
X218494089Y-47153509D01*
X218341489Y-47216717D01*
X218204154Y-47308482D01*
X218204150Y-47308485D01*
X218087366Y-47425269D01*
X218087363Y-47425273D01*
X218051800Y-47478496D01*
X218036272Y-47488871D01*
X218017956Y-47485228D01*
X218014259Y-47482193D01*
X217929877Y-47397811D01*
X217929873Y-47397808D01*
X217811375Y-47318629D01*
X217691462Y-47268960D01*
X217678257Y-47255754D01*
X217676400Y-47246417D01*
X217676400Y-46133156D01*
X217683547Y-46115903D01*
X217691460Y-46110614D01*
X217811374Y-46060945D01*
X217929873Y-45981766D01*
X218005099Y-45906539D01*
X218022351Y-45899393D01*
X218039602Y-45906538D01*
X218391351Y-46258287D01*
X219085987Y-46258286D01*
X219116599Y-46227674D01*
X219151747Y-46192527D01*
X223255700Y-46192527D01*
X223255700Y-46275073D01*
X223271723Y-46334872D01*
X223277065Y-46354807D01*
X223318338Y-46426293D01*
X223318342Y-46426298D01*
X223376701Y-46484657D01*
X223376706Y-46484661D01*
X223376707Y-46484662D01*
X223448194Y-46525935D01*
X223527927Y-46547300D01*
X223527930Y-46547300D01*
X223610470Y-46547300D01*
X223610473Y-46547300D01*
X223690206Y-46525935D01*
X223761693Y-46484662D01*
X223820062Y-46426293D01*
X223861335Y-46354806D01*
X223882700Y-46275073D01*
X223882700Y-46192527D01*
X232142100Y-46192527D01*
X232142100Y-46275073D01*
X232158123Y-46334872D01*
X232163465Y-46354807D01*
X232204738Y-46426293D01*
X232204742Y-46426298D01*
X232263101Y-46484657D01*
X232263106Y-46484661D01*
X232263107Y-46484662D01*
X232334594Y-46525935D01*
X232414327Y-46547300D01*
X232414330Y-46547300D01*
X232496870Y-46547300D01*
X232496873Y-46547300D01*
X232576606Y-46525935D01*
X232648093Y-46484662D01*
X232706462Y-46426293D01*
X232747735Y-46354806D01*
X232769100Y-46275073D01*
X232769100Y-46192527D01*
X232747735Y-46112794D01*
X232706462Y-46041307D01*
X232706461Y-46041306D01*
X232706457Y-46041301D01*
X232648098Y-45982942D01*
X232648093Y-45982938D01*
X232576606Y-45941665D01*
X232576607Y-45941665D01*
X232556672Y-45936323D01*
X232496873Y-45920300D01*
X232414327Y-45920300D01*
X232366487Y-45933119D01*
X232334592Y-45941665D01*
X232263106Y-45982938D01*
X232263101Y-45982942D01*
X232204742Y-46041301D01*
X232204738Y-46041306D01*
X232163465Y-46112792D01*
X232152782Y-46152660D01*
X232142100Y-46192527D01*
X223882700Y-46192527D01*
X223861335Y-46112794D01*
X223820062Y-46041307D01*
X223820061Y-46041306D01*
X223820057Y-46041301D01*
X223761698Y-45982942D01*
X223761693Y-45982938D01*
X223690206Y-45941665D01*
X223690207Y-45941665D01*
X223670272Y-45936323D01*
X223610473Y-45920300D01*
X223527927Y-45920300D01*
X223480087Y-45933119D01*
X223448192Y-45941665D01*
X223376706Y-45982938D01*
X223376701Y-45982942D01*
X223318342Y-46041301D01*
X223318338Y-46041306D01*
X223277065Y-46112792D01*
X223266382Y-46152660D01*
X223255700Y-46192527D01*
X219151747Y-46192527D01*
X219170599Y-46173675D01*
X219532745Y-45811527D01*
X224398700Y-45811527D01*
X224398700Y-45894073D01*
X224402041Y-45906540D01*
X224420065Y-45973807D01*
X224461338Y-46045293D01*
X224461342Y-46045298D01*
X224519701Y-46103657D01*
X224519706Y-46103661D01*
X224519707Y-46103662D01*
X224591194Y-46144935D01*
X224670927Y-46166300D01*
X224670930Y-46166300D01*
X224753470Y-46166300D01*
X224753473Y-46166300D01*
X224833206Y-46144935D01*
X224904693Y-46103662D01*
X224963062Y-46045293D01*
X225004335Y-45973806D01*
X225025700Y-45894073D01*
X225025700Y-45811527D01*
X230367700Y-45811527D01*
X230367700Y-45894073D01*
X230371041Y-45906540D01*
X230389065Y-45973807D01*
X230430338Y-46045293D01*
X230430342Y-46045298D01*
X230488701Y-46103657D01*
X230488706Y-46103661D01*
X230488707Y-46103662D01*
X230560194Y-46144935D01*
X230639927Y-46166300D01*
X230639930Y-46166300D01*
X230722470Y-46166300D01*
X230722473Y-46166300D01*
X230802206Y-46144935D01*
X230873693Y-46103662D01*
X230932062Y-46045293D01*
X230973335Y-45973806D01*
X230994700Y-45894073D01*
X230994700Y-45811527D01*
X230973335Y-45731794D01*
X230932062Y-45660307D01*
X230932061Y-45660306D01*
X230932057Y-45660301D01*
X230873698Y-45601942D01*
X230873693Y-45601938D01*
X230802206Y-45560665D01*
X230802207Y-45560665D01*
X230782272Y-45555323D01*
X230722473Y-45539300D01*
X230639927Y-45539300D01*
X230592087Y-45552119D01*
X230560192Y-45560665D01*
X230488706Y-45601938D01*
X230488701Y-45601942D01*
X230430342Y-45660301D01*
X230430338Y-45660306D01*
X230389065Y-45731792D01*
X230379603Y-45767104D01*
X230367700Y-45811527D01*
X225025700Y-45811527D01*
X225004335Y-45731794D01*
X224963062Y-45660307D01*
X224963061Y-45660306D01*
X224963057Y-45660301D01*
X224904698Y-45601942D01*
X224904693Y-45601938D01*
X224833206Y-45560665D01*
X224833207Y-45560665D01*
X224813272Y-45555323D01*
X224753473Y-45539300D01*
X224670927Y-45539300D01*
X224623087Y-45552119D01*
X224591192Y-45560665D01*
X224519706Y-45601938D01*
X224519701Y-45601942D01*
X224461342Y-45660301D01*
X224461338Y-45660306D01*
X224420065Y-45731792D01*
X224410603Y-45767104D01*
X224398700Y-45811527D01*
X219532745Y-45811527D01*
X219551597Y-45792675D01*
X219577168Y-45767104D01*
X219577167Y-45176527D01*
X223255700Y-45176527D01*
X223255700Y-45259073D01*
X223271723Y-45318872D01*
X223277065Y-45338807D01*
X223318338Y-45410293D01*
X223318342Y-45410298D01*
X223376701Y-45468657D01*
X223376706Y-45468661D01*
X223376707Y-45468662D01*
X223448194Y-45509935D01*
X223527927Y-45531300D01*
X223527930Y-45531300D01*
X223610470Y-45531300D01*
X223610473Y-45531300D01*
X223690206Y-45509935D01*
X223761693Y-45468662D01*
X223820062Y-45410293D01*
X223861335Y-45338806D01*
X223882700Y-45259073D01*
X223882700Y-45176527D01*
X223861335Y-45096794D01*
X223820062Y-45025307D01*
X223820061Y-45025306D01*
X223820057Y-45025301D01*
X223761698Y-44966942D01*
X223761693Y-44966938D01*
X223690206Y-44925665D01*
X223690207Y-44925665D01*
X223670272Y-44920323D01*
X223610473Y-44904300D01*
X223527927Y-44904300D01*
X223480087Y-44917119D01*
X223448192Y-44925665D01*
X223376706Y-44966938D01*
X223376701Y-44966942D01*
X223318342Y-45025301D01*
X223318338Y-45025306D01*
X223277065Y-45096792D01*
X223266382Y-45136660D01*
X223255700Y-45176527D01*
X219577167Y-45176527D01*
X219577167Y-45072468D01*
X219577165Y-45072465D01*
X219085985Y-44581287D01*
X218391348Y-44581287D01*
X218039604Y-44933032D01*
X218022351Y-44940179D01*
X218005098Y-44933032D01*
X217929877Y-44857811D01*
X217929873Y-44857808D01*
X217811375Y-44778629D01*
X217691462Y-44728960D01*
X217678257Y-44715754D01*
X217676400Y-44706417D01*
X217676400Y-44414527D01*
X220334700Y-44414527D01*
X220334700Y-44497073D01*
X220350723Y-44556872D01*
X220356065Y-44576807D01*
X220397338Y-44648293D01*
X220397342Y-44648298D01*
X220455701Y-44706657D01*
X220455706Y-44706661D01*
X220455707Y-44706662D01*
X220527194Y-44747935D01*
X220606927Y-44769300D01*
X220606930Y-44769300D01*
X220689470Y-44769300D01*
X220689473Y-44769300D01*
X220769206Y-44747935D01*
X220840693Y-44706662D01*
X220899062Y-44648293D01*
X220940335Y-44576806D01*
X220961700Y-44497073D01*
X220961700Y-44490727D01*
X231383700Y-44490727D01*
X231383700Y-44573273D01*
X231394913Y-44615119D01*
X231405065Y-44653007D01*
X231446338Y-44724493D01*
X231446342Y-44724498D01*
X231504701Y-44782857D01*
X231504706Y-44782861D01*
X231504707Y-44782862D01*
X231576194Y-44824135D01*
X231655927Y-44845500D01*
X231655930Y-44845500D01*
X231738470Y-44845500D01*
X231738473Y-44845500D01*
X231818206Y-44824135D01*
X231889693Y-44782862D01*
X231948062Y-44724493D01*
X231989335Y-44653006D01*
X232010700Y-44573273D01*
X232010700Y-44490727D01*
X231989335Y-44410994D01*
X231948062Y-44339507D01*
X231948061Y-44339506D01*
X231948057Y-44339501D01*
X231889698Y-44281142D01*
X231889693Y-44281138D01*
X231818206Y-44239865D01*
X231818207Y-44239865D01*
X231798272Y-44234523D01*
X231738473Y-44218500D01*
X231655927Y-44218500D01*
X231608087Y-44231319D01*
X231576192Y-44239865D01*
X231504706Y-44281138D01*
X231504701Y-44281142D01*
X231446342Y-44339501D01*
X231446338Y-44339506D01*
X231405065Y-44410992D01*
X231394382Y-44450860D01*
X231383700Y-44490727D01*
X220961700Y-44490727D01*
X220961700Y-44414527D01*
X220940335Y-44334794D01*
X220899062Y-44263307D01*
X220899061Y-44263306D01*
X220899057Y-44263301D01*
X220840698Y-44204942D01*
X220840693Y-44204938D01*
X220769206Y-44163665D01*
X220769207Y-44163665D01*
X220749272Y-44158323D01*
X220689473Y-44142300D01*
X220606927Y-44142300D01*
X220559087Y-44155119D01*
X220527192Y-44163665D01*
X220455706Y-44204938D01*
X220455701Y-44204942D01*
X220397342Y-44263301D01*
X220397338Y-44263306D01*
X220356065Y-44334792D01*
X220354802Y-44339506D01*
X220334700Y-44414527D01*
X217676400Y-44414527D01*
X217676400Y-43606373D01*
X217678916Y-43595581D01*
X217707345Y-43537933D01*
X217708941Y-43535169D01*
X217845482Y-43330821D01*
X217847410Y-43328308D01*
X218009463Y-43143523D01*
X218011705Y-43141281D01*
X218196490Y-42979228D01*
X218199003Y-42977300D01*
X218403354Y-42840756D01*
X218406111Y-42839165D01*
X218626545Y-42730458D01*
X218629465Y-42729249D01*
X218862210Y-42650243D01*
X218865254Y-42649427D01*
X219099816Y-42602771D01*
X219101006Y-42602566D01*
X219112222Y-42600954D01*
X219114052Y-42600763D01*
X219355504Y-42584937D01*
X219357100Y-42584885D01*
X219358067Y-42584885D01*
X233324527Y-42584885D01*
X233325494Y-42584885D01*
X233327090Y-42584937D01*
G37*
%TD.AperFunction*%
%TD*%
M02*
