%TF.GenerationSoftware,KiCad,Pcbnew,10.0.0*%
%TF.CreationDate,2026-06-20T20:42:50+01:00*%
%TF.ProjectId,Devboard,44657662-6f61-4726-942e-6b696361645f,rev?*%
%TF.SameCoordinates,Original*%
%TF.FileFunction,Copper,L4,Bot*%
%TF.FilePolarity,Positive*%
%FSLAX46Y46*%
G04 Gerber Fmt 4.6, Leading zero omitted, Abs format (unit mm)*
G04 Created by KiCad (PCBNEW 10.0.0) date 2026-06-20 20:42:50*
%MOMM*%
%LPD*%
G01*
G04 APERTURE LIST*
G04 Aperture macros list*
%AMRoundRect*
0 Rectangle with rounded corners*
0 $1 Rounding radius*
0 $2 $3 $4 $5 $6 $7 $8 $9 X,Y pos of 4 corners*
0 Add a 4 corners polygon primitive as box body*
4,1,4,$2,$3,$4,$5,$6,$7,$8,$9,$2,$3,0*
0 Add four circle primitives for the rounded corners*
1,1,$1+$1,$2,$3*
1,1,$1+$1,$4,$5*
1,1,$1+$1,$6,$7*
1,1,$1+$1,$8,$9*
0 Add four rect primitives between the rounded corners*
20,1,$1+$1,$2,$3,$4,$5,0*
20,1,$1+$1,$4,$5,$6,$7,0*
20,1,$1+$1,$6,$7,$8,$9,0*
20,1,$1+$1,$8,$9,$2,$3,0*%
%AMOutline5P*
0 Free polygon, 5 corners , with rotation*
0 The origin of the aperture is its center*
0 number of corners: always 5*
0 $1 to $10 corner X, Y*
0 $11 Rotation angle, in degrees counterclockwise*
0 create outline with 5 corners*
4,1,5,$1,$2,$3,$4,$5,$6,$7,$8,$9,$10,$1,$2,$11*%
%AMOutline6P*
0 Free polygon, 6 corners , with rotation*
0 The origin of the aperture is its center*
0 number of corners: always 6*
0 $1 to $12 corner X, Y*
0 $13 Rotation angle, in degrees counterclockwise*
0 create outline with 6 corners*
4,1,6,$1,$2,$3,$4,$5,$6,$7,$8,$9,$10,$11,$12,$1,$2,$13*%
%AMOutline7P*
0 Free polygon, 7 corners , with rotation*
0 The origin of the aperture is its center*
0 number of corners: always 7*
0 $1 to $14 corner X, Y*
0 $15 Rotation angle, in degrees counterclockwise*
0 create outline with 7 corners*
4,1,7,$1,$2,$3,$4,$5,$6,$7,$8,$9,$10,$11,$12,$13,$14,$1,$2,$15*%
%AMOutline8P*
0 Free polygon, 8 corners , with rotation*
0 The origin of the aperture is its center*
0 number of corners: always 8*
0 $1 to $16 corner X, Y*
0 $17 Rotation angle, in degrees counterclockwise*
0 create outline with 8 corners*
4,1,8,$1,$2,$3,$4,$5,$6,$7,$8,$9,$10,$11,$12,$13,$14,$15,$16,$1,$2,$17*%
G04 Aperture macros list end*
%TA.AperFunction,EtchedComponent*%
%ADD10C,0.000000*%
%TD*%
%TA.AperFunction,ComponentPad*%
%ADD11Outline8P,-0.750000X0.310660X-0.310660X0.750000X0.310660X0.750000X0.750000X0.310660X0.750000X-0.310660X0.310660X-0.750000X-0.310660X-0.750000X-0.750000X-0.310660X180.000000*%
%TD*%
%TA.AperFunction,ComponentPad*%
%ADD12C,1.500000*%
%TD*%
%TA.AperFunction,ComponentPad*%
%ADD13C,1.270000*%
%TD*%
%TA.AperFunction,ComponentPad*%
%ADD14Outline8P,-0.750000X0.310660X-0.310660X0.750000X0.310660X0.750000X0.750000X0.310660X0.750000X-0.310660X0.310660X-0.750000X-0.310660X-0.750000X-0.750000X-0.310660X0.000000*%
%TD*%
%TA.AperFunction,ComponentPad*%
%ADD15O,0.889000X1.778000*%
%TD*%
%TA.AperFunction,SMDPad,CuDef*%
%ADD16RoundRect,0.254000X0.254000X-0.762000X0.254000X0.762000X-0.254000X0.762000X-0.254000X-0.762000X0*%
%TD*%
%TA.AperFunction,SMDPad,CuDef*%
%ADD17RoundRect,0.571500X-0.000010X-0.000010X0.000010X-0.000010X0.000010X0.000010X-0.000010X0.000010X0*%
%TD*%
%TA.AperFunction,SMDPad,CuDef*%
%ADD18RoundRect,0.254000X-0.254000X0.762000X-0.254000X-0.762000X0.254000X-0.762000X0.254000X0.762000X0*%
%TD*%
%TA.AperFunction,SMDPad,CuDef*%
%ADD19RoundRect,0.254000X0.762000X0.254000X-0.762000X0.254000X-0.762000X-0.254000X0.762000X-0.254000X0*%
%TD*%
%TA.AperFunction,ViaPad*%
%ADD20C,0.450000*%
%TD*%
%TA.AperFunction,Conductor*%
%ADD21C,0.101600*%
%TD*%
%TA.AperFunction,Conductor*%
%ADD22C,0.609600*%
%TD*%
%TA.AperFunction,Conductor*%
%ADD23C,0.203200*%
%TD*%
%TA.AperFunction,Conductor*%
%ADD24C,0.406400*%
%TD*%
%TA.AperFunction,Conductor*%
%ADD25C,0.304800*%
%TD*%
%TA.AperFunction,Conductor*%
%ADD26C,0.152400*%
%TD*%
%TA.AperFunction,Conductor*%
%ADD27C,0.508000*%
%TD*%
G04 APERTURE END LIST*
D10*
%TA.AperFunction,EtchedComponent*%
%TO.C,J14*%
G36*
X235298786Y-46234197D02*
G01*
X233908762Y-46234197D01*
X233591699Y-46161830D01*
X233447104Y-46070974D01*
X233328409Y-45952279D01*
X233239100Y-45810146D01*
X233183659Y-45651704D01*
X233165186Y-45487750D01*
X233165186Y-45352173D01*
X233237553Y-45035110D01*
X233328409Y-44890515D01*
X233447104Y-44771820D01*
X233589237Y-44682511D01*
X233747679Y-44627070D01*
X233911633Y-44608597D01*
X235298786Y-44608597D01*
X235298786Y-46234197D01*
G37*
%TD.AperFunction*%
%TA.AperFunction,EtchedComponent*%
G36*
X235298786Y-48774197D02*
G01*
X233908762Y-48774197D01*
X233591699Y-48701830D01*
X233447104Y-48610974D01*
X233328409Y-48492279D01*
X233239100Y-48350146D01*
X233183659Y-48191704D01*
X233165186Y-48027750D01*
X233165186Y-47892173D01*
X233237553Y-47575110D01*
X233328409Y-47430515D01*
X233447104Y-47311820D01*
X233589237Y-47222511D01*
X233747679Y-47167070D01*
X233911633Y-47148597D01*
X235298786Y-47148597D01*
X235298786Y-48774197D01*
G37*
%TD.AperFunction*%
%TA.AperFunction,EtchedComponent*%
G36*
X235298786Y-51314197D02*
G01*
X233908762Y-51314197D01*
X233591699Y-51241830D01*
X233447104Y-51150974D01*
X233328409Y-51032279D01*
X233239100Y-50890146D01*
X233183659Y-50731704D01*
X233165186Y-50567750D01*
X233165186Y-50432173D01*
X233237553Y-50115110D01*
X233328409Y-49970515D01*
X233447104Y-49851820D01*
X233589237Y-49762511D01*
X233747679Y-49707070D01*
X233911633Y-49688597D01*
X235298786Y-49688597D01*
X235298786Y-51314197D01*
G37*
%TD.AperFunction*%
%TA.AperFunction,EtchedComponent*%
G36*
X235298786Y-53854197D02*
G01*
X233908762Y-53854197D01*
X233591699Y-53781830D01*
X233447104Y-53690974D01*
X233328409Y-53572279D01*
X233239100Y-53430146D01*
X233183659Y-53271704D01*
X233165186Y-53107750D01*
X233165186Y-52972173D01*
X233237553Y-52655110D01*
X233328409Y-52510515D01*
X233447104Y-52391820D01*
X233589237Y-52302511D01*
X233747679Y-52247070D01*
X233911633Y-52228597D01*
X235298786Y-52228597D01*
X235298786Y-53854197D01*
G37*
%TD.AperFunction*%
%TA.AperFunction,EtchedComponent*%
G36*
X235298786Y-56394197D02*
G01*
X233908762Y-56394197D01*
X233591699Y-56321830D01*
X233447104Y-56230974D01*
X233328409Y-56112279D01*
X233239100Y-55970146D01*
X233183659Y-55811704D01*
X233165186Y-55647750D01*
X233165186Y-55512173D01*
X233237553Y-55195110D01*
X233328409Y-55050515D01*
X233447104Y-54931820D01*
X233589237Y-54842511D01*
X233747679Y-54787070D01*
X233911633Y-54768597D01*
X235298786Y-54768597D01*
X235298786Y-56394197D01*
G37*
%TD.AperFunction*%
%TA.AperFunction,EtchedComponent*%
G36*
X235298786Y-58934197D02*
G01*
X233908762Y-58934197D01*
X233591699Y-58861830D01*
X233447104Y-58770974D01*
X233328409Y-58652279D01*
X233239100Y-58510146D01*
X233183659Y-58351704D01*
X233165186Y-58187750D01*
X233165186Y-58052173D01*
X233237553Y-57735110D01*
X233328409Y-57590515D01*
X233447104Y-57471820D01*
X233589237Y-57382511D01*
X233747679Y-57327070D01*
X233911633Y-57308597D01*
X235298786Y-57308597D01*
X235298786Y-58934197D01*
G37*
%TD.AperFunction*%
%TA.AperFunction,EtchedComponent*%
G36*
X235298786Y-61474197D02*
G01*
X233908762Y-61474197D01*
X233591699Y-61401830D01*
X233447104Y-61310974D01*
X233328409Y-61192279D01*
X233239100Y-61050146D01*
X233183659Y-60891704D01*
X233165186Y-60727750D01*
X233165186Y-60592173D01*
X233237553Y-60275110D01*
X233328409Y-60130515D01*
X233447104Y-60011820D01*
X233589237Y-59922511D01*
X233747679Y-59867070D01*
X233911633Y-59848597D01*
X235298786Y-59848597D01*
X235298786Y-61474197D01*
G37*
%TD.AperFunction*%
%TA.AperFunction,EtchedComponent*%
%TO.C,J13*%
G36*
X219124955Y-44679354D02*
G01*
X219269550Y-44770210D01*
X219388245Y-44888905D01*
X219477554Y-45031038D01*
X219532995Y-45189480D01*
X219551468Y-45353434D01*
X219551468Y-45489011D01*
X219479101Y-45806074D01*
X219388245Y-45950669D01*
X219269550Y-46069364D01*
X219127417Y-46158673D01*
X218968975Y-46214114D01*
X218805021Y-46232587D01*
X217417868Y-46232587D01*
X217417868Y-44606987D01*
X218807892Y-44606987D01*
X219124955Y-44679354D01*
G37*
%TD.AperFunction*%
%TA.AperFunction,EtchedComponent*%
G36*
X219124955Y-47219354D02*
G01*
X219269550Y-47310210D01*
X219388245Y-47428905D01*
X219477554Y-47571038D01*
X219532995Y-47729480D01*
X219551468Y-47893434D01*
X219551468Y-48029011D01*
X219479101Y-48346074D01*
X219388245Y-48490669D01*
X219269550Y-48609364D01*
X219127417Y-48698673D01*
X218968975Y-48754114D01*
X218805021Y-48772587D01*
X217417868Y-48772587D01*
X217417868Y-47146987D01*
X218807892Y-47146987D01*
X219124955Y-47219354D01*
G37*
%TD.AperFunction*%
%TA.AperFunction,EtchedComponent*%
G36*
X219124955Y-49759354D02*
G01*
X219269550Y-49850210D01*
X219388245Y-49968905D01*
X219477554Y-50111038D01*
X219532995Y-50269480D01*
X219551468Y-50433434D01*
X219551468Y-50569011D01*
X219479101Y-50886074D01*
X219388245Y-51030669D01*
X219269550Y-51149364D01*
X219127417Y-51238673D01*
X218968975Y-51294114D01*
X218805021Y-51312587D01*
X217417868Y-51312587D01*
X217417868Y-49686987D01*
X218807892Y-49686987D01*
X219124955Y-49759354D01*
G37*
%TD.AperFunction*%
%TA.AperFunction,EtchedComponent*%
G36*
X219124955Y-52299354D02*
G01*
X219269550Y-52390210D01*
X219388245Y-52508905D01*
X219477554Y-52651038D01*
X219532995Y-52809480D01*
X219551468Y-52973434D01*
X219551468Y-53109011D01*
X219479101Y-53426074D01*
X219388245Y-53570669D01*
X219269550Y-53689364D01*
X219127417Y-53778673D01*
X218968975Y-53834114D01*
X218805021Y-53852587D01*
X217417868Y-53852587D01*
X217417868Y-52226987D01*
X218807892Y-52226987D01*
X219124955Y-52299354D01*
G37*
%TD.AperFunction*%
%TA.AperFunction,EtchedComponent*%
G36*
X219124955Y-54839354D02*
G01*
X219269550Y-54930210D01*
X219388245Y-55048905D01*
X219477554Y-55191038D01*
X219532995Y-55349480D01*
X219551468Y-55513434D01*
X219551468Y-55649011D01*
X219479101Y-55966074D01*
X219388245Y-56110669D01*
X219269550Y-56229364D01*
X219127417Y-56318673D01*
X218968975Y-56374114D01*
X218805021Y-56392587D01*
X217417868Y-56392587D01*
X217417868Y-54766987D01*
X218807892Y-54766987D01*
X219124955Y-54839354D01*
G37*
%TD.AperFunction*%
%TA.AperFunction,EtchedComponent*%
G36*
X219124955Y-57379354D02*
G01*
X219269550Y-57470210D01*
X219388245Y-57588905D01*
X219477554Y-57731038D01*
X219532995Y-57889480D01*
X219551468Y-58053434D01*
X219551468Y-58189011D01*
X219479101Y-58506074D01*
X219388245Y-58650669D01*
X219269550Y-58769364D01*
X219127417Y-58858673D01*
X218968975Y-58914114D01*
X218805021Y-58932587D01*
X217417868Y-58932587D01*
X217417868Y-57306987D01*
X218807892Y-57306987D01*
X219124955Y-57379354D01*
G37*
%TD.AperFunction*%
%TA.AperFunction,EtchedComponent*%
G36*
X219124955Y-59919354D02*
G01*
X219269550Y-60010210D01*
X219388245Y-60128905D01*
X219477554Y-60271038D01*
X219532995Y-60429480D01*
X219551468Y-60593434D01*
X219551468Y-60729011D01*
X219479101Y-61046074D01*
X219388245Y-61190669D01*
X219269550Y-61309364D01*
X219127417Y-61398673D01*
X218968975Y-61454114D01*
X218805021Y-61472587D01*
X217417868Y-61472587D01*
X217417868Y-59846987D01*
X218807892Y-59846987D01*
X219124955Y-59919354D01*
G37*
%TD.AperFunction*%
%TA.AperFunction,EtchedComponent*%
%TO.C,USB1*%
G36*
X222176741Y-42677818D02*
G01*
X222311619Y-42733685D01*
X222427441Y-42822559D01*
X222518395Y-42941091D01*
X222590800Y-43211312D01*
X222590800Y-44110330D01*
X222572182Y-44251741D01*
X222516315Y-44386619D01*
X222427441Y-44502441D01*
X222311619Y-44591315D01*
X222176741Y-44647182D01*
X222032000Y-44666238D01*
X221887259Y-44647182D01*
X221752381Y-44591315D01*
X221636559Y-44502441D01*
X221547685Y-44386619D01*
X221491818Y-44251741D01*
X221473200Y-44110330D01*
X221473200Y-43214670D01*
X221491818Y-43073259D01*
X221547685Y-42938381D01*
X221636559Y-42822559D01*
X221755091Y-42731605D01*
X222028613Y-42658316D01*
X222176741Y-42677818D01*
G37*
%TD.AperFunction*%
%TA.AperFunction,EtchedComponent*%
G36*
X222176741Y-46868818D02*
G01*
X222311619Y-46924685D01*
X222427441Y-47013559D01*
X222518395Y-47132091D01*
X222590800Y-47402312D01*
X222590800Y-48301330D01*
X222572182Y-48442741D01*
X222516315Y-48577619D01*
X222427441Y-48693441D01*
X222311619Y-48782315D01*
X222176741Y-48838182D01*
X222032000Y-48857238D01*
X221887259Y-48838182D01*
X221752381Y-48782315D01*
X221636559Y-48693441D01*
X221547685Y-48577619D01*
X221491818Y-48442741D01*
X221473200Y-48301330D01*
X221473200Y-47405670D01*
X221491818Y-47264259D01*
X221547685Y-47129381D01*
X221636559Y-47013559D01*
X221755091Y-46922605D01*
X222028613Y-46849316D01*
X222176741Y-46868818D01*
G37*
%TD.AperFunction*%
%TA.AperFunction,EtchedComponent*%
G36*
X230812741Y-42677818D02*
G01*
X230947619Y-42733685D01*
X231063441Y-42822559D01*
X231154395Y-42941091D01*
X231226800Y-43211312D01*
X231226800Y-44110330D01*
X231208182Y-44251741D01*
X231152315Y-44386619D01*
X231063441Y-44502441D01*
X230947619Y-44591315D01*
X230812741Y-44647182D01*
X230668000Y-44666238D01*
X230523259Y-44647182D01*
X230388381Y-44591315D01*
X230272559Y-44502441D01*
X230183685Y-44386619D01*
X230127818Y-44251741D01*
X230109200Y-44110330D01*
X230109200Y-43214670D01*
X230127818Y-43073259D01*
X230183685Y-42938381D01*
X230272559Y-42822559D01*
X230391091Y-42731605D01*
X230664613Y-42658316D01*
X230812741Y-42677818D01*
G37*
%TD.AperFunction*%
%TA.AperFunction,EtchedComponent*%
G36*
X230812741Y-46868818D02*
G01*
X230947619Y-46924685D01*
X231063441Y-47013559D01*
X231154395Y-47132091D01*
X231226800Y-47402312D01*
X231226800Y-48301330D01*
X231208182Y-48442741D01*
X231152315Y-48577619D01*
X231063441Y-48693441D01*
X230947619Y-48782315D01*
X230812741Y-48838182D01*
X230668000Y-48857238D01*
X230523259Y-48838182D01*
X230388381Y-48782315D01*
X230272559Y-48693441D01*
X230183685Y-48577619D01*
X230127818Y-48442741D01*
X230109200Y-48301330D01*
X230109200Y-47405670D01*
X230127818Y-47264259D01*
X230183685Y-47129381D01*
X230272559Y-47013559D01*
X230391091Y-46922605D01*
X230664613Y-46849316D01*
X230812741Y-46868818D01*
G37*
%TD.AperFunction*%
%TD*%
D11*
%TO.P,J14,1,1_1*%
%TO.N,/P1.12_RX_D7*%
X233977986Y-60661397D03*
D12*
%TO.P,J14,2,2_2*%
%TO.N,/P1.13_SCK_D8*%
X233977986Y-58121397D03*
%TO.P,J14,3,3_3*%
%TO.N,/P1.14_MISO_D9*%
X233977986Y-55581397D03*
%TO.P,J14,4,4_4*%
%TO.N,/P1.15_MOSI_D10*%
X233977986Y-53041397D03*
%TO.P,J14,5,5_5*%
%TO.N,/3V3*%
X233977986Y-50501397D03*
%TO.P,J14,6,6_6*%
%TO.N,GND*%
X233977986Y-47961397D03*
%TO.P,J14,7,7_7*%
%TO.N,/VBUS*%
X233977986Y-45421397D03*
D13*
%TO.P,J14,13,1_13*%
%TO.N,/P1.12_RX_D7*%
X235247986Y-60661397D03*
%TO.P,J14,14,2_14*%
%TO.N,/P1.13_SCK_D8*%
X235247986Y-58121397D03*
%TO.P,J14,15,3_15*%
%TO.N,/P1.14_MISO_D9*%
X235247986Y-55581397D03*
%TO.P,J14,16,4_16*%
%TO.N,/P1.15_MOSI_D10*%
X235247986Y-53041397D03*
%TO.P,J14,17,5_17*%
%TO.N,/3V3*%
X235247986Y-50501397D03*
%TO.P,J14,18,6_18*%
%TO.N,GND*%
X235247986Y-47961397D03*
%TO.P,J14,19,7_19*%
%TO.N,/VBUS*%
X235247986Y-45421397D03*
%TD*%
D14*
%TO.P,J13,1,1_1*%
%TO.N,/P0.02_AIN0_LOW_A0_D0*%
X218738668Y-45419787D03*
D12*
%TO.P,J13,2,2_2*%
%TO.N,/P0.03_AIN1_LOW_A1_D1*%
X218738668Y-47959787D03*
%TO.P,J13,3,3_3*%
%TO.N,/P0.28_AIN4_LOW_A2_D2*%
X218738668Y-50499787D03*
%TO.P,J13,4,4_4*%
%TO.N,/P0.29_AIN5_LOW_A3_D3*%
X218738668Y-53039787D03*
%TO.P,J13,5,5_5*%
%TO.N,/P0.04_AIN2_A4_D4*%
X218738668Y-55579787D03*
%TO.P,J13,6,6_6*%
%TO.N,/P0.05_AIN3_A5_D5*%
X218738668Y-58119787D03*
%TO.P,J13,7,7_7*%
%TO.N,/P1.11_TX_D6*%
X218738668Y-60659787D03*
D13*
%TO.P,J13,13,1_13*%
%TO.N,/P0.02_AIN0_LOW_A0_D0*%
X217468668Y-45419787D03*
%TO.P,J13,14,2_14*%
%TO.N,/P0.03_AIN1_LOW_A1_D1*%
X217468668Y-47959787D03*
%TO.P,J13,15,3_15*%
%TO.N,/P0.28_AIN4_LOW_A2_D2*%
X217468668Y-50499787D03*
%TO.P,J13,16,4_16*%
%TO.N,/P0.29_AIN5_LOW_A3_D3*%
X217468668Y-53039787D03*
%TO.P,J13,17,5_17*%
%TO.N,/P0.04_AIN2_A4_D4*%
X217468668Y-55579787D03*
%TO.P,J13,18,6_18*%
%TO.N,/P0.05_AIN3_A5_D5*%
X217468668Y-58119787D03*
%TO.P,J13,19,7_19*%
%TO.N,/P1.11_TX_D6*%
X217468668Y-60659787D03*
%TD*%
D15*
%TO.P,USB1,S1,S1_S1*%
%TO.N,GND*%
X230668000Y-43662500D03*
%TO.P,USB1,S2,S2_S2*%
X222032000Y-43662500D03*
%TO.P,USB1,S3,S3_S3*%
X230668000Y-47853500D03*
%TO.P,USB1,S4,S4_S4*%
X222032000Y-47853500D03*
%TD*%
D16*
%TO.P,NFC2,1,T_1*%
%TO.N,/P0.10{slash}NFC2*%
X232052998Y-62270595D03*
%TD*%
D17*
%TO.P,TP5,T,T_T*%
%TO.N,/SWDIO*%
X225072766Y-44487652D03*
%TD*%
D18*
%TO.P,NFC1,1,T_1*%
%TO.N,/P0.09{slash}NFC1*%
X230146047Y-62270791D03*
%TD*%
D19*
%TO.P,GND1,1,T_1*%
%TO.N,GND*%
X221897496Y-50836961D03*
%TD*%
D17*
%TO.P,TP3,T,T_T*%
%TO.N,/SWDCLK*%
X227611454Y-44487652D03*
%TD*%
%TO.P,TP2,T,T_T*%
%TO.N,/RESET*%
X225072766Y-47028515D03*
%TD*%
D19*
%TO.P,BAT1,1,T_1*%
%TO.N,/VBAT*%
X221897501Y-52739843D03*
%TD*%
D17*
%TO.P,TP1,T,T_T*%
%TO.N,GND*%
X227611454Y-47028515D03*
%TD*%
D20*
%TO.N,GND*%
X233983200Y-43185800D03*
X222070600Y-50932800D03*
X228395200Y-57536800D03*
X226490200Y-60076800D03*
X233983200Y-62870800D03*
X233348200Y-43185800D03*
X221664200Y-60076800D03*
X230757400Y-52177400D03*
X229030200Y-60978500D03*
X220140200Y-55631800D03*
X229411200Y-43058800D03*
X219505200Y-62108800D03*
X229030200Y-62248500D03*
X227379200Y-43058800D03*
X219060700Y-51758300D03*
X232332200Y-60076800D03*
X223315200Y-43058800D03*
X229919200Y-44963800D03*
X226363200Y-55250800D03*
X233665700Y-49218300D03*
X221156200Y-53726800D03*
X222299200Y-60076800D03*
X218108200Y-43820800D03*
X233665700Y-46678300D03*
X230935200Y-60076800D03*
X226998200Y-55885800D03*
X219060700Y-59378300D03*
X225728200Y-60076800D03*
X221029200Y-60076800D03*
X229030200Y-61613500D03*
X227633200Y-55250800D03*
X224966200Y-60076800D03*
X227633200Y-55885800D03*
X229550900Y-51529700D03*
X221473700Y-56012800D03*
X226363200Y-54615800D03*
X220394200Y-60076800D03*
X219060700Y-46678300D03*
X231443200Y-49535800D03*
X220013200Y-61473800D03*
X224331200Y-50996300D03*
X226363200Y-50869300D03*
X220140200Y-54996800D03*
X223569200Y-60076800D03*
X224204200Y-60076800D03*
X229030200Y-60330800D03*
X228522200Y-60076800D03*
X226363200Y-43058800D03*
X227633200Y-54615800D03*
X223378700Y-54933300D03*
X218870200Y-62616800D03*
X224458200Y-43058800D03*
X233348200Y-43820800D03*
X226998200Y-55250800D03*
X222934200Y-60076800D03*
X219060700Y-54298300D03*
X222489700Y-55682600D03*
X226363200Y-55885800D03*
X218743200Y-43185800D03*
X219378200Y-43820800D03*
X226998200Y-54615800D03*
X234618200Y-43820800D03*
X219378200Y-43185800D03*
X220013200Y-61981800D03*
X218743200Y-43820800D03*
X220140200Y-58933800D03*
X220838700Y-57663800D03*
X219568700Y-62680300D03*
X229030200Y-62908900D03*
X233983200Y-62235800D03*
X233983200Y-43820800D03*
X232586200Y-54488800D03*
X219060700Y-56838300D03*
X220140200Y-62616800D03*
X219060700Y-49218300D03*
X228268200Y-43058800D03*
X232586200Y-56330300D03*
X227252200Y-60076800D03*
X225347200Y-43058800D03*
%TO.N,/3V3*%
X231697200Y-44532000D03*
X222997700Y-58616300D03*
X230681200Y-57536800D03*
X230122400Y-51720200D03*
X222045200Y-54234800D03*
X225474200Y-51618600D03*
X223378700Y-55492100D03*
%TO.N,Net-(R44-Pad1)*%
X232455600Y-46233800D03*
X233221200Y-54107800D03*
%TO.N,/VBAT*%
X223569200Y-46233800D03*
X221473700Y-54552300D03*
X224626050Y-59565200D03*
X227607800Y-49535800D03*
%TO.N,/VIN*%
X228776200Y-50297800D03*
X223569200Y-45217800D03*
X220521200Y-53726800D03*
%TO.N,/DEC4-6*%
X228966700Y-58743300D03*
X231951200Y-53218800D03*
%TO.N,Net-(USB1-B5{slash}CC2)*%
X224902700Y-49408800D03*
X226109200Y-49662800D03*
%TO.N,Net-(CHG2-Pad+)*%
X232078200Y-56025500D03*
X232586200Y-47122800D03*
%TO.N,/P1.10_MIC_PWR*%
X233284700Y-59568800D03*
X230681200Y-56901800D03*
%TO.N,/6D_PWR*%
X221473700Y-51758300D03*
X226363200Y-52964800D03*
%TO.N,/RESET*%
X224648700Y-55123800D03*
X224712200Y-45852800D03*
X223696200Y-58552800D03*
%TO.N,/VBUS*%
X223378700Y-52329800D03*
X224131600Y-47613432D03*
X230681200Y-45852800D03*
X222362700Y-54742800D03*
%TO.N,/P0.21_QSPI_SCK*%
X221346700Y-58743300D03*
X224902700Y-55987400D03*
%TO.N,/P0.04_AIN2_A4_D4*%
X228369800Y-51504300D03*
%TO.N,/P0.28_AIN4_LOW_A2_D2*%
X221283200Y-48900800D03*
X229284200Y-54488800D03*
%TO.N,/P0.05_AIN3_A5_D5*%
X227569700Y-53028300D03*
%TO.N,/P1.11_TX_D6*%
X229284200Y-56901800D03*
%TO.N,/P0.02_AIN0_LOW_A0_D0*%
X230541500Y-54996800D03*
%TO.N,/P0.03_AIN1_LOW_A1_D1*%
X229284200Y-55123800D03*
%TO.N,/P0.29_AIN5_LOW_A3_D3*%
X220648200Y-44455800D03*
X230770100Y-54438000D03*
%TO.N,/P1.13_SCK_D8*%
X230617700Y-56038200D03*
%TO.N,/P1.12_RX_D7*%
X229258800Y-56317600D03*
%TO.N,/P1.14_MISO_D9*%
X229267553Y-55691478D03*
%TO.N,/P0.16_PDM_DATA*%
X231570200Y-60076800D03*
X225067800Y-53803000D03*
%TO.N,/P1.00_PDM_CLK*%
X226109200Y-57409800D03*
X232967200Y-62045300D03*
%TO.N,/P0.09{slash}NFC1*%
X226871200Y-57409800D03*
%TO.N,/P0.10{slash}NFC2*%
X227430000Y-57409800D03*
%TO.N,/INTERNAL_I2C_SCL*%
X223505700Y-49726300D03*
X228077700Y-53282400D03*
%TO.N,/INTERNAL_I2C_SDA*%
X226998200Y-52964800D03*
X224077200Y-49726300D03*
%TO.N,/P0.31_AIN7_BAT*%
X230198600Y-53637900D03*
X226426700Y-59060800D03*
%TO.N,/P0.14_~{READ_BAT}*%
X224766600Y-53320400D03*
X225869682Y-59057200D03*
%TO.N,/P0.26_USER_RED*%
X232357600Y-51745600D03*
X228700000Y-52050400D03*
%TO.N,/SWDCLK*%
X224534400Y-58933800D03*
%TO.N,/SWDIO*%
X224250200Y-58057500D03*
%TO.N,/6D_INT1*%
X222045200Y-51694800D03*
X225702800Y-52710800D03*
%TO.N,/P0.23_QSPI_SIO_3*%
X224699500Y-56571600D03*
X221918200Y-58743300D03*
%TO.N,/P0.22_QSPI_SIO_2*%
X221283200Y-57282800D03*
X223061200Y-56520800D03*
%TO.N,/P0.20_QSPI_SIO_0*%
X220775200Y-58743300D03*
X223366000Y-56050900D03*
%TD*%
%TO.N,GND*%
D21*
X223620000Y-54692000D02*
X223620000Y-52622225D01*
X223620000Y-52622225D02*
X223946600Y-52295625D01*
X224077200Y-44201800D02*
X224712200Y-43566800D01*
X224509000Y-50120000D02*
X224509000Y-47435350D01*
X223946600Y-52295625D02*
X223946600Y-50682400D01*
X229919200Y-44963800D02*
X228522200Y-43566800D01*
X222063200Y-49390800D02*
X221918200Y-49535800D01*
X223946600Y-50682400D02*
X224509000Y-50120000D01*
X224712200Y-43566800D02*
X228522200Y-43566800D01*
X224369300Y-47287900D02*
X224077200Y-46995800D01*
X224077200Y-46995800D02*
X224077200Y-44201800D01*
X224369300Y-47295650D02*
X224369300Y-47287900D01*
X223378700Y-54933300D02*
X223620000Y-54692000D01*
X224509000Y-47435350D02*
X224369300Y-47295650D01*
X222063200Y-47842800D02*
X222063200Y-49390800D01*
D22*
X221918200Y-49535800D02*
X221918200Y-50805800D01*
%TO.N,/3V3*%
D23*
X222045200Y-54234800D02*
X221909100Y-54370900D01*
D24*
X230122400Y-51263000D02*
X229792200Y-50932800D01*
D25*
X222997700Y-57600300D02*
X221981700Y-56584300D01*
D23*
X221909100Y-54370900D02*
X221909100Y-55051200D01*
D24*
X229792200Y-50932800D02*
X227506200Y-50932800D01*
X233538700Y-50932800D02*
X233983200Y-50488300D01*
D25*
X221981700Y-55123800D02*
X221981700Y-56584300D01*
D23*
X221909100Y-55051200D02*
X221981700Y-55123800D01*
D24*
X230427200Y-50932800D02*
X233538700Y-50932800D01*
X226820400Y-51618600D02*
X225474200Y-51618600D01*
X227506200Y-50932800D02*
X226820400Y-51618600D01*
D25*
X222997700Y-58616300D02*
X222997700Y-57600300D01*
D24*
X230122400Y-51720200D02*
X230122400Y-51263000D01*
X230122400Y-51263000D02*
X230122400Y-51237600D01*
X229792200Y-50932800D02*
X230427200Y-50932800D01*
X230122400Y-51237600D02*
X230427200Y-50932800D01*
%TO.N,/VBAT*%
D21*
X221096300Y-54929700D02*
X221473700Y-54552300D01*
D25*
X221112625Y-46233800D02*
X223569200Y-46233800D01*
D21*
X224502650Y-59441800D02*
X223188200Y-59441800D01*
D25*
X221473700Y-54112112D02*
X221473700Y-54552300D01*
D21*
X223188200Y-59441800D02*
X222553200Y-58806800D01*
X222553200Y-57790800D02*
X221096300Y-56333900D01*
X222553200Y-58806800D02*
X222553200Y-57790800D01*
X221096300Y-56333900D02*
X221096300Y-54929700D01*
D25*
X221112625Y-46233800D02*
X220622800Y-46723625D01*
X221283200Y-52710800D02*
X221918200Y-52710800D01*
X220622800Y-52050400D02*
X221283200Y-52710800D01*
D21*
X224626050Y-59565200D02*
X224502650Y-59441800D01*
D25*
X221918200Y-53667612D02*
X221918200Y-52710800D01*
X220622800Y-46723625D02*
X220622800Y-52050400D01*
X221918200Y-53667612D02*
X221473700Y-54112112D01*
%TO.N,/VIN*%
D24*
X220165600Y-53371200D02*
X220521200Y-53726800D01*
X220165600Y-46462400D02*
X220165600Y-53371200D01*
X221410200Y-45217800D02*
X220165600Y-46462400D01*
X223569200Y-45217800D02*
X221410200Y-45217800D01*
%TO.N,/P1.10_MIC_PWR*%
D21*
X233033937Y-59568800D02*
X233284700Y-59568800D01*
X232076931Y-58297531D02*
X232076931Y-58532281D01*
X230681200Y-56901800D02*
X232076931Y-58297531D01*
X232078200Y-58613062D02*
X233033937Y-59568800D01*
X232076931Y-58532281D02*
X232078200Y-58533550D01*
X232078200Y-58533550D02*
X232078200Y-58613062D01*
%TO.N,/RESET*%
X224175200Y-51723800D02*
X225347200Y-50551800D01*
X223797800Y-55974700D02*
X224648700Y-55123800D01*
X224648700Y-55123800D02*
X224648700Y-54819000D01*
D26*
X224712200Y-46614800D02*
X225093200Y-46995800D01*
D21*
X223696200Y-58552800D02*
X223797800Y-58451200D01*
D26*
X224712200Y-45852800D02*
X224712200Y-46614800D01*
D21*
X225347200Y-50551800D02*
X225347200Y-47249800D01*
X224175200Y-52390319D02*
X224175200Y-51723800D01*
X223848600Y-52716919D02*
X224175200Y-52390319D01*
X225093200Y-46995800D02*
X225347200Y-47249800D01*
X223848600Y-54018900D02*
X224648700Y-54819000D01*
X223848600Y-54018900D02*
X223848600Y-52716919D01*
X223797800Y-55974700D02*
X223797800Y-58451200D01*
%TO.N,/VBUS*%
D27*
X231125700Y-45408300D02*
X230681200Y-45852800D01*
D25*
X222975900Y-49150132D02*
X222975900Y-49945757D01*
X223264400Y-52444100D02*
X223264400Y-52456800D01*
X224131600Y-47613432D02*
X224131600Y-47994432D01*
X223264400Y-53841100D02*
X223264400Y-52456800D01*
X224131600Y-47994432D02*
X222975900Y-49150132D01*
X222975900Y-49945757D02*
X223378700Y-50348557D01*
X222362700Y-54742800D02*
X223264400Y-53841100D01*
D27*
X233970500Y-45408300D02*
X233983200Y-45408300D01*
D25*
X223378700Y-52329800D02*
X223264400Y-52444100D01*
X223378700Y-50348557D02*
X223378700Y-52329800D01*
D27*
X231125700Y-45408300D02*
X233970500Y-45408300D01*
%TO.N,/P0.29_AIN5_LOW_A3_D3*%
D21*
X219810000Y-51974200D02*
X218755900Y-53028300D01*
X220648200Y-44455800D02*
X220648200Y-45476900D01*
X218755900Y-53028300D02*
X218743200Y-53028300D01*
X219810000Y-46315100D02*
X219810000Y-51974200D01*
X220648200Y-45476900D02*
X219810000Y-46315100D01*
%TO.N,/P1.13_SCK_D8*%
X233983200Y-57810050D02*
X233983200Y-58108300D01*
X230617700Y-56038200D02*
X231354300Y-56774800D01*
X232947950Y-56774800D02*
X233983200Y-57810050D01*
X231354300Y-56774800D02*
X232947950Y-56774800D01*
%TO.N,/P1.12_RX_D7*%
X230173200Y-57663800D02*
X231316200Y-58806800D01*
X231984568Y-58806800D02*
X233826068Y-60648300D01*
X233826068Y-60648300D02*
X233983200Y-60648300D01*
X230173200Y-56901800D02*
X230173200Y-57663800D01*
X229589000Y-56317600D02*
X230173200Y-56901800D01*
X229258800Y-56317600D02*
X229589000Y-56317600D01*
X231316200Y-58806800D02*
X231984568Y-58806800D01*
%TO.N,/P1.14_MISO_D9*%
X233970500Y-55581000D02*
X233919700Y-55631800D01*
X233983200Y-55568300D02*
X233970500Y-55581000D01*
X229267553Y-55691478D02*
X229327231Y-55631800D01*
X229327231Y-55631800D02*
X233919700Y-55631800D01*
%TO.N,/P0.16_PDM_DATA*%
X225686500Y-54575268D02*
X225686500Y-57622100D01*
X225686500Y-57622100D02*
X225855200Y-57790800D01*
X226490200Y-57663800D02*
X226490200Y-57155800D01*
X226617200Y-57028800D02*
X228522200Y-57028800D01*
X228522200Y-57028800D02*
X231570200Y-60076800D01*
X225067800Y-53956568D02*
X225686500Y-54575268D01*
X226363200Y-57790800D02*
X226490200Y-57663800D01*
X225855200Y-57790800D02*
X226363200Y-57790800D01*
X226490200Y-57155800D02*
X226617200Y-57028800D01*
X225067800Y-53956568D02*
X225067800Y-53803000D01*
%TO.N,/P1.00_PDM_CLK*%
X232256000Y-59365600D02*
X232967200Y-60076800D01*
X226533031Y-56825600D02*
X228606368Y-56825600D01*
X232967200Y-60076800D02*
X232967200Y-62045300D01*
X226109200Y-57409800D02*
X226109200Y-57249431D01*
X228606368Y-56825600D02*
X231146368Y-59365600D01*
X226109200Y-57249431D02*
X226533031Y-56825600D01*
X231146368Y-59365600D02*
X232256000Y-59365600D01*
%TO.N,/P0.09{slash}NFC1*%
X229327031Y-59391000D02*
X228057031Y-59391000D01*
X230770100Y-62235800D02*
X230173200Y-62235800D01*
X229327031Y-59391000D02*
X231024100Y-61088068D01*
X227049000Y-57587600D02*
X226871200Y-57409800D01*
X227049000Y-58382968D02*
X227049000Y-57587600D01*
X231024100Y-61981800D02*
X231024100Y-61088068D01*
X228057031Y-59391000D02*
X227049000Y-58382968D01*
X230770100Y-62235800D02*
G75*
G03*
X231024100Y-61981800I0J254000D01*
G01*
%TO.N,/P0.10{slash}NFC2*%
X227252200Y-58298800D02*
X228141200Y-59187800D01*
X227252200Y-57587600D02*
X227252200Y-58298800D01*
X231227300Y-61003900D02*
X229411200Y-59187800D01*
X231227300Y-61981800D02*
X231227300Y-61003900D01*
X227430000Y-57409800D02*
X227252200Y-57587600D01*
X228141200Y-59187800D02*
X229411200Y-59187800D01*
X231481300Y-62235800D02*
X232078200Y-62235800D01*
X231481300Y-62235800D02*
G75*
G02*
X231227300Y-61981800I0J254000D01*
G01*
%TO.N,/P0.14_~{READ_BAT}*%
X224690400Y-53993537D02*
X224690400Y-53396600D01*
X225869682Y-59057200D02*
X225483300Y-58670818D01*
X225483300Y-54786437D02*
X224690400Y-53993537D01*
X224690400Y-53396600D02*
X224766600Y-53320400D01*
X225483300Y-58670818D02*
X225483300Y-54786437D01*
%TO.N,/P0.26_USER_RED*%
X231519400Y-52583800D02*
X232357600Y-51745600D01*
X229233400Y-52583800D02*
X231519400Y-52583800D01*
X228700000Y-52050400D02*
X229233400Y-52583800D01*
%TO.N,/SWDCLK*%
X225280100Y-54870606D02*
X225280100Y-58188100D01*
X227633200Y-44455800D02*
X227633200Y-44963800D01*
X227633200Y-44963800D02*
X226490200Y-46106800D01*
X224607000Y-52569182D02*
X224607000Y-51902663D01*
X224607000Y-51902663D02*
X226490200Y-50019463D01*
X225280100Y-58188100D02*
X224534400Y-58933800D01*
X224280400Y-52895782D02*
X224607000Y-52569182D01*
X224280400Y-53870906D02*
X225280100Y-54870606D01*
X224280400Y-53870906D02*
X224280400Y-52895782D01*
X226490200Y-46106800D02*
X226490200Y-50019463D01*
%TO.N,/SWDIO*%
X225728200Y-48908550D02*
X225728200Y-50494094D01*
X224077200Y-53955075D02*
X224077200Y-52811613D01*
X225076900Y-55267425D02*
X224077200Y-56267125D01*
X226071100Y-48565650D02*
X226071100Y-45433700D01*
X226071100Y-45433700D02*
X225093200Y-44455800D01*
X225076900Y-55267425D02*
X225076900Y-54954775D01*
X224403800Y-52485013D02*
X224403800Y-51818494D01*
X224077200Y-52811613D02*
X224403800Y-52485013D01*
X224077200Y-57884500D02*
X224250200Y-58057500D01*
X225076900Y-54954775D02*
X224077200Y-53955075D01*
X225728200Y-50494094D02*
X224403800Y-51818494D01*
X226071100Y-48565650D02*
X225728200Y-48908550D01*
X224077200Y-56267125D02*
X224077200Y-57884500D01*
%TD*%
%TA.AperFunction,Conductor*%
%TO.N,GND*%
G36*
X219866753Y-52148952D02*
G01*
X219873900Y-52166205D01*
X219873900Y-53409603D01*
X219893779Y-53483793D01*
X219932182Y-53550308D01*
X219932186Y-53550313D01*
X220225952Y-53844078D01*
X220229830Y-53849131D01*
X220270338Y-53919293D01*
X220270342Y-53919298D01*
X220328701Y-53977657D01*
X220328706Y-53977661D01*
X220328707Y-53977662D01*
X220400194Y-54018935D01*
X220479927Y-54040300D01*
X220479930Y-54040300D01*
X220562470Y-54040300D01*
X220562473Y-54040300D01*
X220642206Y-54018935D01*
X220713693Y-53977662D01*
X220772062Y-53919293D01*
X220813335Y-53847806D01*
X220834700Y-53768073D01*
X220834700Y-53685527D01*
X220813335Y-53605794D01*
X220811009Y-53601766D01*
X220791415Y-53567828D01*
X220772062Y-53534307D01*
X220772061Y-53534306D01*
X220772057Y-53534301D01*
X220713698Y-53475942D01*
X220713693Y-53475938D01*
X220643531Y-53435430D01*
X220638478Y-53431552D01*
X220464447Y-53257521D01*
X220457300Y-53240268D01*
X220457300Y-52284490D01*
X220464447Y-52267237D01*
X220481700Y-52260090D01*
X220498953Y-52267237D01*
X220785854Y-52554138D01*
X220793001Y-52571391D01*
X220793001Y-53033984D01*
X220799566Y-53083854D01*
X220850612Y-53193324D01*
X220936019Y-53278731D01*
X220943401Y-53282173D01*
X221045488Y-53329777D01*
X221045490Y-53329777D01*
X221045492Y-53329778D01*
X221080029Y-53334324D01*
X221095364Y-53336343D01*
X221652900Y-53336342D01*
X221670153Y-53343489D01*
X221677300Y-53360742D01*
X221677300Y-53557721D01*
X221670153Y-53574974D01*
X221503811Y-53741316D01*
X221337242Y-53907885D01*
X221337241Y-53907886D01*
X221318103Y-53927024D01*
X221269475Y-53975651D01*
X221269474Y-53975652D01*
X221269474Y-53975653D01*
X221259961Y-53998621D01*
X221232799Y-54064193D01*
X221232799Y-54064195D01*
X221232799Y-54162867D01*
X221232800Y-54162876D01*
X221232800Y-54339738D01*
X221225653Y-54356991D01*
X221222842Y-54359801D01*
X221222838Y-54359806D01*
X221181565Y-54431292D01*
X221177214Y-54447530D01*
X221160200Y-54511027D01*
X221160200Y-54511029D01*
X221160200Y-54593573D01*
X221172451Y-54639295D01*
X221170013Y-54657810D01*
X221166135Y-54662863D01*
X221017394Y-54811606D01*
X221017393Y-54811607D01*
X221001569Y-54827431D01*
X220978207Y-54850792D01*
X220967852Y-54875792D01*
X220957000Y-54901992D01*
X220957000Y-56361608D01*
X220978207Y-56412807D01*
X221017393Y-56451993D01*
X221017394Y-56451993D01*
X221020825Y-56455424D01*
X221020824Y-56455424D01*
X221020826Y-56455425D01*
X222406753Y-57841352D01*
X222413900Y-57858605D01*
X222413900Y-58834511D01*
X222417535Y-58843287D01*
X222417536Y-58843287D01*
X222435107Y-58885707D01*
X222474293Y-58924893D01*
X222474294Y-58924893D01*
X222477725Y-58928324D01*
X223109293Y-59559893D01*
X223160492Y-59581100D01*
X223215909Y-59581100D01*
X224288150Y-59581100D01*
X224305403Y-59588247D01*
X224312297Y-59604889D01*
X224312341Y-59604884D01*
X224312362Y-59605047D01*
X224312550Y-59605500D01*
X224312550Y-59606473D01*
X224313515Y-59610073D01*
X224333915Y-59686207D01*
X224375188Y-59757693D01*
X224375192Y-59757698D01*
X224433551Y-59816057D01*
X224433556Y-59816061D01*
X224433557Y-59816062D01*
X224505044Y-59857335D01*
X224584777Y-59878700D01*
X224584780Y-59878700D01*
X224667320Y-59878700D01*
X224667323Y-59878700D01*
X224747056Y-59857335D01*
X224818543Y-59816062D01*
X224876912Y-59757693D01*
X224918185Y-59686206D01*
X224939550Y-59606473D01*
X224939550Y-59523927D01*
X224918185Y-59444194D01*
X224876912Y-59372707D01*
X224876911Y-59372706D01*
X224876907Y-59372701D01*
X224818548Y-59314342D01*
X224818543Y-59314338D01*
X224747056Y-59273065D01*
X224747057Y-59273065D01*
X224685602Y-59256598D01*
X224670786Y-59245229D01*
X224668348Y-59226714D01*
X224679715Y-59211899D01*
X224726893Y-59184662D01*
X224785262Y-59126293D01*
X224826535Y-59054806D01*
X224847900Y-58975073D01*
X224847900Y-58892527D01*
X224835647Y-58846800D01*
X224838085Y-58828287D01*
X224841959Y-58823238D01*
X225302348Y-58362850D01*
X225319600Y-58355704D01*
X225336853Y-58362851D01*
X225344000Y-58380104D01*
X225344000Y-58698526D01*
X225365207Y-58749725D01*
X225404393Y-58788911D01*
X225404394Y-58788911D01*
X225407825Y-58792342D01*
X225407824Y-58792342D01*
X225407826Y-58792343D01*
X225562117Y-58946635D01*
X225569264Y-58963888D01*
X225568433Y-58970203D01*
X225559815Y-59002367D01*
X225556182Y-59015927D01*
X225556182Y-59098473D01*
X225563637Y-59126293D01*
X225577547Y-59178207D01*
X225618820Y-59249693D01*
X225618824Y-59249698D01*
X225677183Y-59308057D01*
X225677188Y-59308061D01*
X225677189Y-59308062D01*
X225748676Y-59349335D01*
X225828409Y-59370700D01*
X225828412Y-59370700D01*
X225910952Y-59370700D01*
X225910955Y-59370700D01*
X225990688Y-59349335D01*
X226062175Y-59308062D01*
X226120544Y-59249693D01*
X226126020Y-59240207D01*
X226140833Y-59228838D01*
X226159348Y-59231273D01*
X226168281Y-59240204D01*
X226175838Y-59253293D01*
X226175840Y-59253296D01*
X226234201Y-59311657D01*
X226234206Y-59311661D01*
X226234207Y-59311662D01*
X226305694Y-59352935D01*
X226385427Y-59374300D01*
X226385430Y-59374300D01*
X226467970Y-59374300D01*
X226467973Y-59374300D01*
X226547706Y-59352935D01*
X226619193Y-59311662D01*
X226677562Y-59253293D01*
X226718835Y-59181806D01*
X226740200Y-59102073D01*
X226740200Y-59019527D01*
X226718835Y-58939794D01*
X226717707Y-58937841D01*
X226691547Y-58892530D01*
X226677562Y-58868307D01*
X226677561Y-58868306D01*
X226677557Y-58868301D01*
X226619198Y-58809942D01*
X226619193Y-58809938D01*
X226547706Y-58768665D01*
X226547707Y-58768665D01*
X226518895Y-58760945D01*
X226467973Y-58747300D01*
X226385427Y-58747300D01*
X226339535Y-58759597D01*
X226305692Y-58768665D01*
X226234206Y-58809938D01*
X226234201Y-58809942D01*
X226175842Y-58868301D01*
X226175836Y-58868308D01*
X226170360Y-58877794D01*
X226155544Y-58889162D01*
X226137029Y-58886723D01*
X226128099Y-58877793D01*
X226121961Y-58867162D01*
X226120544Y-58864707D01*
X226120543Y-58864706D01*
X226120539Y-58864701D01*
X226062180Y-58806342D01*
X226062175Y-58806338D01*
X225990688Y-58765065D01*
X225990689Y-58765065D01*
X225970282Y-58759597D01*
X225910955Y-58743700D01*
X225828409Y-58743700D01*
X225782685Y-58755951D01*
X225764170Y-58753513D01*
X225759117Y-58749635D01*
X225629747Y-58620265D01*
X225622600Y-58603012D01*
X225622600Y-57814105D01*
X225629747Y-57796852D01*
X225647000Y-57789705D01*
X225664253Y-57796852D01*
X225776293Y-57908893D01*
X225827491Y-57930100D01*
X225827492Y-57930100D01*
X225827493Y-57930100D01*
X226390909Y-57930100D01*
X226394305Y-57928692D01*
X226405903Y-57923889D01*
X226405904Y-57923888D01*
X226442107Y-57908893D01*
X226481293Y-57869707D01*
X226481293Y-57869706D01*
X226484724Y-57866275D01*
X226484725Y-57866273D01*
X226608292Y-57742708D01*
X226608293Y-57742707D01*
X226625181Y-57701935D01*
X226629500Y-57691509D01*
X226629500Y-57668525D01*
X226629773Y-57666718D01*
X226633722Y-57660167D01*
X226636647Y-57653108D01*
X226638422Y-57652372D01*
X226639416Y-57650725D01*
X226646839Y-57648885D01*
X226653900Y-57645961D01*
X226655675Y-57646696D01*
X226657543Y-57646234D01*
X226664093Y-57650183D01*
X226671153Y-57653108D01*
X226671154Y-57653109D01*
X226678702Y-57660658D01*
X226678706Y-57660661D01*
X226678707Y-57660662D01*
X226750194Y-57701935D01*
X226829927Y-57723300D01*
X226885300Y-57723300D01*
X226902553Y-57730447D01*
X226909700Y-57747700D01*
X226909700Y-58355259D01*
X226909700Y-58410677D01*
X226925620Y-58449112D01*
X226930907Y-58461875D01*
X226930909Y-58461878D01*
X227978120Y-59509090D01*
X227978123Y-59509092D01*
X227978124Y-59509093D01*
X228029322Y-59530300D01*
X228029323Y-59530300D01*
X229259226Y-59530300D01*
X229276479Y-59537447D01*
X230877653Y-61138621D01*
X230884800Y-61155874D01*
X230884800Y-61979397D01*
X230884331Y-61984157D01*
X230877016Y-62020932D01*
X230873373Y-62029728D01*
X230853901Y-62058869D01*
X230847169Y-62065601D01*
X230818028Y-62085073D01*
X230809232Y-62088716D01*
X230772458Y-62096031D01*
X230767698Y-62096500D01*
X230766946Y-62096500D01*
X230749693Y-62089353D01*
X230742546Y-62072100D01*
X230742546Y-61468649D01*
X230736918Y-61425903D01*
X230735981Y-61418778D01*
X230684935Y-61309310D01*
X230684935Y-61309309D01*
X230599528Y-61223902D01*
X230490060Y-61172857D01*
X230490055Y-61172855D01*
X230440189Y-61166291D01*
X229851905Y-61166291D01*
X229851905Y-61166292D01*
X229802035Y-61172856D01*
X229692565Y-61223902D01*
X229607158Y-61309309D01*
X229556113Y-61418777D01*
X229556111Y-61418782D01*
X229549547Y-61468648D01*
X229549547Y-63072932D01*
X229556112Y-63122802D01*
X229607158Y-63232272D01*
X229692565Y-63317679D01*
X229743611Y-63341481D01*
X229802034Y-63368725D01*
X229802036Y-63368725D01*
X229802038Y-63368726D01*
X229836575Y-63373272D01*
X229851910Y-63375291D01*
X230440183Y-63375290D01*
X230440188Y-63375290D01*
X230440188Y-63375289D01*
X230490060Y-63368725D01*
X230599528Y-63317679D01*
X230684935Y-63232272D01*
X230735981Y-63122804D01*
X230736007Y-63122606D01*
X230742547Y-63072933D01*
X230742547Y-62399500D01*
X230749694Y-62382247D01*
X230766947Y-62375100D01*
X230821879Y-62375100D01*
X230921908Y-62348297D01*
X231011592Y-62296518D01*
X231084818Y-62223292D01*
X231104570Y-62189080D01*
X231119385Y-62177712D01*
X231137900Y-62180150D01*
X231146829Y-62189079D01*
X231160688Y-62213083D01*
X231166582Y-62223292D01*
X231166586Y-62223297D01*
X231239802Y-62296513D01*
X231239807Y-62296517D01*
X231239808Y-62296518D01*
X231329492Y-62348297D01*
X231429521Y-62375100D01*
X231432099Y-62375100D01*
X231449352Y-62382247D01*
X231456499Y-62399500D01*
X231456499Y-63072736D01*
X231463063Y-63122606D01*
X231514109Y-63232076D01*
X231599516Y-63317483D01*
X231650562Y-63341285D01*
X231708985Y-63368529D01*
X231708987Y-63368529D01*
X231708989Y-63368530D01*
X231743526Y-63373076D01*
X231758861Y-63375095D01*
X232347134Y-63375094D01*
X232347139Y-63375094D01*
X232347139Y-63375093D01*
X232397011Y-63368529D01*
X232506479Y-63317483D01*
X232591886Y-63232076D01*
X232642932Y-63122608D01*
X232649498Y-63072732D01*
X232649497Y-62213081D01*
X232656644Y-62195830D01*
X232673897Y-62188683D01*
X232691150Y-62195830D01*
X232695028Y-62200883D01*
X232716338Y-62237793D01*
X232716342Y-62237798D01*
X232774701Y-62296157D01*
X232774706Y-62296161D01*
X232774707Y-62296162D01*
X232846194Y-62337435D01*
X232925927Y-62358800D01*
X232925930Y-62358800D01*
X233008470Y-62358800D01*
X233008473Y-62358800D01*
X233088206Y-62337435D01*
X233159693Y-62296162D01*
X233218062Y-62237793D01*
X233259335Y-62166306D01*
X233280700Y-62086573D01*
X233280700Y-62004027D01*
X233259335Y-61924294D01*
X233218062Y-61852807D01*
X233218061Y-61852806D01*
X233218057Y-61852801D01*
X233159698Y-61794442D01*
X233159693Y-61794438D01*
X233118700Y-61770770D01*
X233107331Y-61755954D01*
X233106500Y-61749639D01*
X233106500Y-61095842D01*
X233113647Y-61078589D01*
X233130900Y-61071442D01*
X233148153Y-61078589D01*
X233152883Y-61085255D01*
X233159929Y-61099886D01*
X233159931Y-61099890D01*
X233159932Y-61099891D01*
X233184268Y-61138621D01*
X233237731Y-61223707D01*
X233249241Y-61242024D01*
X233262295Y-61258393D01*
X233380990Y-61377088D01*
X233397359Y-61390142D01*
X233541954Y-61480998D01*
X233570893Y-61492986D01*
X233570896Y-61492986D01*
X233570897Y-61492987D01*
X233887946Y-61565351D01*
X233887948Y-61565351D01*
X233887956Y-61565353D01*
X233908762Y-61567697D01*
X235025600Y-61567697D01*
X235042853Y-61574844D01*
X235050000Y-61592097D01*
X235050000Y-62426025D01*
X235047484Y-62436817D01*
X234975248Y-62583296D01*
X234973652Y-62586060D01*
X234837118Y-62790398D01*
X234835175Y-62792930D01*
X234673137Y-62977698D01*
X234670880Y-62979955D01*
X234486112Y-63141993D01*
X234483580Y-63143936D01*
X234279242Y-63280470D01*
X234276478Y-63282066D01*
X234056062Y-63390764D01*
X234053113Y-63391985D01*
X233822008Y-63470433D01*
X233821046Y-63470738D01*
X233818661Y-63471439D01*
X233816540Y-63471960D01*
X233584917Y-63518032D01*
X233583630Y-63518253D01*
X233568920Y-63520368D01*
X233567043Y-63520564D01*
X233327090Y-63536293D01*
X233325494Y-63536345D01*
X228749800Y-63536345D01*
X228732547Y-63529198D01*
X228725400Y-63511945D01*
X228725400Y-60381600D01*
X220419600Y-60381600D01*
X220419600Y-63506800D01*
X220412453Y-63524053D01*
X220395200Y-63531200D01*
X219278605Y-63531200D01*
X219277009Y-63531148D01*
X219115709Y-63520574D01*
X219113833Y-63520378D01*
X219098733Y-63518207D01*
X219097445Y-63517986D01*
X218866209Y-63471991D01*
X218864101Y-63471474D01*
X218861227Y-63470631D01*
X218860252Y-63470322D01*
X218629480Y-63391985D01*
X218626531Y-63390764D01*
X218406115Y-63282066D01*
X218403351Y-63280470D01*
X218199013Y-63143936D01*
X218196481Y-63141993D01*
X218011713Y-62979955D01*
X218009456Y-62977698D01*
X217847418Y-62792930D01*
X217845475Y-62790398D01*
X217708941Y-62586060D01*
X217707345Y-62583296D01*
X217678916Y-62525647D01*
X217676400Y-62514855D01*
X217676400Y-61590487D01*
X217683547Y-61573234D01*
X217700800Y-61566087D01*
X218805010Y-61566087D01*
X218805021Y-61566087D01*
X218815490Y-61565499D01*
X218979444Y-61547026D01*
X218999856Y-61542367D01*
X219158298Y-61486926D01*
X219177162Y-61477841D01*
X219319295Y-61388532D01*
X219335664Y-61375478D01*
X219454359Y-61256783D01*
X219467413Y-61240414D01*
X219558269Y-61095819D01*
X219570257Y-61066880D01*
X219642624Y-60749817D01*
X219644968Y-60729011D01*
X219644968Y-60593434D01*
X219644380Y-60582965D01*
X219625907Y-60419011D01*
X219621248Y-60398599D01*
X219565807Y-60240157D01*
X219556722Y-60221293D01*
X219467413Y-60079160D01*
X219454359Y-60062791D01*
X219335664Y-59944096D01*
X219319295Y-59931042D01*
X219174700Y-59840186D01*
X219174698Y-59840185D01*
X219145762Y-59828198D01*
X219145756Y-59828196D01*
X218828707Y-59755832D01*
X218827402Y-59755685D01*
X218807892Y-59753487D01*
X218807887Y-59753487D01*
X217700800Y-59753487D01*
X217683547Y-59746340D01*
X217676400Y-59729087D01*
X217676400Y-59050487D01*
X217683547Y-59033234D01*
X217700800Y-59026087D01*
X218805010Y-59026087D01*
X218805021Y-59026087D01*
X218815490Y-59025499D01*
X218979444Y-59007026D01*
X218999856Y-59002367D01*
X219158298Y-58946926D01*
X219177162Y-58937841D01*
X219319295Y-58848532D01*
X219335664Y-58835478D01*
X219454359Y-58716783D01*
X219466127Y-58702027D01*
X220461700Y-58702027D01*
X220461700Y-58784573D01*
X220473540Y-58828758D01*
X220483065Y-58864307D01*
X220524338Y-58935793D01*
X220524342Y-58935798D01*
X220582701Y-58994157D01*
X220582706Y-58994161D01*
X220582707Y-58994162D01*
X220654194Y-59035435D01*
X220733927Y-59056800D01*
X220733930Y-59056800D01*
X220816470Y-59056800D01*
X220816473Y-59056800D01*
X220896206Y-59035435D01*
X220967693Y-58994162D01*
X221026062Y-58935793D01*
X221039820Y-58911963D01*
X221054635Y-58900595D01*
X221073150Y-58903033D01*
X221082079Y-58911962D01*
X221092378Y-58929800D01*
X221095838Y-58935793D01*
X221095842Y-58935798D01*
X221154201Y-58994157D01*
X221154206Y-58994161D01*
X221154207Y-58994162D01*
X221225694Y-59035435D01*
X221305427Y-59056800D01*
X221305430Y-59056800D01*
X221387970Y-59056800D01*
X221387973Y-59056800D01*
X221467706Y-59035435D01*
X221539193Y-58994162D01*
X221597562Y-58935793D01*
X221611320Y-58911963D01*
X221626135Y-58900595D01*
X221644650Y-58903033D01*
X221653579Y-58911962D01*
X221663878Y-58929800D01*
X221667338Y-58935793D01*
X221667342Y-58935798D01*
X221725701Y-58994157D01*
X221725706Y-58994161D01*
X221725707Y-58994162D01*
X221797194Y-59035435D01*
X221876927Y-59056800D01*
X221876930Y-59056800D01*
X221959470Y-59056800D01*
X221959473Y-59056800D01*
X222039206Y-59035435D01*
X222110693Y-58994162D01*
X222169062Y-58935793D01*
X222210335Y-58864306D01*
X222231700Y-58784573D01*
X222231700Y-58702027D01*
X222210335Y-58622294D01*
X222169062Y-58550807D01*
X222169061Y-58550806D01*
X222169057Y-58550801D01*
X222110698Y-58492442D01*
X222110693Y-58492438D01*
X222039206Y-58451165D01*
X222039207Y-58451165D01*
X222016960Y-58445204D01*
X221959473Y-58429800D01*
X221876927Y-58429800D01*
X221837193Y-58440447D01*
X221797192Y-58451165D01*
X221725706Y-58492438D01*
X221725701Y-58492442D01*
X221667342Y-58550801D01*
X221667341Y-58550803D01*
X221667339Y-58550805D01*
X221667338Y-58550807D01*
X221657466Y-58567906D01*
X221653581Y-58574635D01*
X221638765Y-58586003D01*
X221620249Y-58583565D01*
X221611319Y-58574635D01*
X221607434Y-58567906D01*
X221597562Y-58550807D01*
X221597558Y-58550803D01*
X221597557Y-58550801D01*
X221539198Y-58492442D01*
X221539193Y-58492438D01*
X221467706Y-58451165D01*
X221467707Y-58451165D01*
X221445460Y-58445204D01*
X221387973Y-58429800D01*
X221305427Y-58429800D01*
X221265693Y-58440447D01*
X221225692Y-58451165D01*
X221154206Y-58492438D01*
X221154201Y-58492442D01*
X221095842Y-58550801D01*
X221095841Y-58550803D01*
X221095839Y-58550805D01*
X221095838Y-58550807D01*
X221085966Y-58567906D01*
X221082081Y-58574635D01*
X221067265Y-58586003D01*
X221048749Y-58583565D01*
X221039819Y-58574635D01*
X221035934Y-58567906D01*
X221026062Y-58550807D01*
X221026058Y-58550803D01*
X221026057Y-58550801D01*
X220967698Y-58492442D01*
X220967693Y-58492438D01*
X220896206Y-58451165D01*
X220896207Y-58451165D01*
X220873960Y-58445204D01*
X220816473Y-58429800D01*
X220733927Y-58429800D01*
X220694193Y-58440447D01*
X220654192Y-58451165D01*
X220582706Y-58492438D01*
X220582701Y-58492442D01*
X220524342Y-58550801D01*
X220524338Y-58550806D01*
X220483065Y-58622292D01*
X220473612Y-58657573D01*
X220461700Y-58702027D01*
X219466127Y-58702027D01*
X219467413Y-58700414D01*
X219558269Y-58555819D01*
X219570257Y-58526880D01*
X219636449Y-58236873D01*
X219642622Y-58209826D01*
X219642622Y-58209825D01*
X219642624Y-58209817D01*
X219644968Y-58189011D01*
X219644968Y-58053434D01*
X219644380Y-58042965D01*
X219625907Y-57879011D01*
X219621248Y-57858599D01*
X219580695Y-57742705D01*
X219565810Y-57700165D01*
X219565809Y-57700163D01*
X219565807Y-57700157D01*
X219556722Y-57681293D01*
X219467413Y-57539160D01*
X219454359Y-57522791D01*
X219335664Y-57404096D01*
X219332538Y-57401603D01*
X219862527Y-57401603D01*
X219862527Y-58244626D01*
X219863704Y-58248247D01*
X219887564Y-58321679D01*
X219904170Y-58344535D01*
X219905030Y-58346612D01*
X219907401Y-58348983D01*
X219908528Y-58350534D01*
X219935184Y-58387224D01*
X219935185Y-58387224D01*
X219935186Y-58387226D01*
X219973439Y-58415018D01*
X219975798Y-58417377D01*
X219977864Y-58418233D01*
X220000733Y-58434848D01*
X220077787Y-58459885D01*
X220077791Y-58459885D01*
X220158803Y-58459885D01*
X220158807Y-58459885D01*
X220235861Y-58434848D01*
X220258782Y-58418195D01*
X220260789Y-58417364D01*
X220263081Y-58415071D01*
X220301408Y-58387226D01*
X220329242Y-58348914D01*
X220331554Y-58346604D01*
X220332393Y-58344578D01*
X220349030Y-58321679D01*
X220374067Y-58244625D01*
X220374067Y-58204115D01*
X220374067Y-58202345D01*
X220374067Y-57441382D01*
X220374067Y-57401605D01*
X220349030Y-57324551D01*
X220335474Y-57305893D01*
X220334960Y-57305185D01*
X220333262Y-57302848D01*
X220331844Y-57299424D01*
X220327932Y-57295512D01*
X220301408Y-57259004D01*
X220277353Y-57241527D01*
X220969700Y-57241527D01*
X220969700Y-57324073D01*
X220980445Y-57364172D01*
X220991065Y-57403807D01*
X221032338Y-57475293D01*
X221032342Y-57475298D01*
X221090701Y-57533657D01*
X221090706Y-57533661D01*
X221090707Y-57533662D01*
X221162194Y-57574935D01*
X221241927Y-57596300D01*
X221241930Y-57596300D01*
X221324470Y-57596300D01*
X221324473Y-57596300D01*
X221404206Y-57574935D01*
X221475693Y-57533662D01*
X221534062Y-57475293D01*
X221575335Y-57403806D01*
X221596700Y-57324073D01*
X221596700Y-57241527D01*
X221575335Y-57161794D01*
X221573688Y-57158942D01*
X221534061Y-57090306D01*
X221534057Y-57090301D01*
X221475698Y-57031942D01*
X221475693Y-57031938D01*
X221404206Y-56990665D01*
X221404207Y-56990665D01*
X221384272Y-56985323D01*
X221324473Y-56969300D01*
X221241927Y-56969300D01*
X221194087Y-56982119D01*
X221162192Y-56990665D01*
X221090706Y-57031938D01*
X221090701Y-57031942D01*
X221032342Y-57090301D01*
X221032338Y-57090306D01*
X220991065Y-57161792D01*
X220982452Y-57193936D01*
X220969700Y-57241527D01*
X220277353Y-57241527D01*
X220272577Y-57238057D01*
X220266467Y-57233618D01*
X220263556Y-57231131D01*
X220260989Y-57228564D01*
X220260986Y-57228562D01*
X220260211Y-57228241D01*
X220255211Y-57225440D01*
X220235862Y-57211383D01*
X220235861Y-57211382D01*
X220177750Y-57192500D01*
X220158808Y-57186345D01*
X220158807Y-57186345D01*
X220120067Y-57186345D01*
X220118297Y-57186345D01*
X220077787Y-57186345D01*
X220077785Y-57186345D01*
X220028899Y-57202230D01*
X220000733Y-57211382D01*
X220000732Y-57211382D01*
X220000731Y-57211383D01*
X219981433Y-57225403D01*
X219979095Y-57227101D01*
X219975601Y-57228549D01*
X219971611Y-57232539D01*
X219970056Y-57233669D01*
X219935185Y-57259004D01*
X219935184Y-57259006D01*
X219909839Y-57293889D01*
X219908704Y-57295449D01*
X219904739Y-57299416D01*
X219903302Y-57302885D01*
X219901602Y-57305225D01*
X219901602Y-57305227D01*
X219887565Y-57324549D01*
X219862527Y-57401603D01*
X219332538Y-57401603D01*
X219319295Y-57391042D01*
X219174700Y-57300186D01*
X219172861Y-57299424D01*
X219145762Y-57288198D01*
X219145756Y-57288196D01*
X218828707Y-57215832D01*
X218827402Y-57215685D01*
X218807892Y-57213487D01*
X218807887Y-57213487D01*
X217700800Y-57213487D01*
X217683547Y-57206340D01*
X217676400Y-57189087D01*
X217676400Y-56510487D01*
X217683547Y-56493234D01*
X217700800Y-56486087D01*
X218805010Y-56486087D01*
X218805021Y-56486087D01*
X218815490Y-56485499D01*
X218979444Y-56467026D01*
X218999856Y-56462367D01*
X219158298Y-56406926D01*
X219177162Y-56397841D01*
X219319295Y-56308532D01*
X219335664Y-56295478D01*
X219454359Y-56176783D01*
X219467413Y-56160414D01*
X219558269Y-56015819D01*
X219570257Y-55986880D01*
X219642624Y-55669817D01*
X219644968Y-55649011D01*
X219644968Y-55513434D01*
X219644380Y-55502965D01*
X219625907Y-55339011D01*
X219621248Y-55318599D01*
X219576002Y-55189293D01*
X219565810Y-55160165D01*
X219565809Y-55160163D01*
X219565807Y-55160157D01*
X219556722Y-55141293D01*
X219467413Y-54999160D01*
X219454359Y-54982791D01*
X219335664Y-54864096D01*
X219319295Y-54851042D01*
X219289561Y-54832359D01*
X219243095Y-54803162D01*
X219174700Y-54760186D01*
X219170985Y-54758647D01*
X219145762Y-54748198D01*
X219145756Y-54748196D01*
X218828707Y-54675832D01*
X218827402Y-54675685D01*
X218807892Y-54673487D01*
X218807887Y-54673487D01*
X217700800Y-54673487D01*
X217683547Y-54666340D01*
X217676400Y-54649087D01*
X217676400Y-53970487D01*
X217683547Y-53953234D01*
X217700800Y-53946087D01*
X218805010Y-53946087D01*
X218805021Y-53946087D01*
X218815490Y-53945499D01*
X218979444Y-53927026D01*
X218999856Y-53922367D01*
X219158298Y-53866926D01*
X219177162Y-53857841D01*
X219319295Y-53768532D01*
X219335664Y-53755478D01*
X219454359Y-53636783D01*
X219467413Y-53620414D01*
X219558269Y-53475819D01*
X219570257Y-53446880D01*
X219642624Y-53129817D01*
X219644968Y-53109011D01*
X219644968Y-52973434D01*
X219644380Y-52962965D01*
X219625907Y-52799011D01*
X219621248Y-52778599D01*
X219565807Y-52620157D01*
X219556722Y-52601293D01*
X219498843Y-52509181D01*
X219495716Y-52490771D01*
X219502249Y-52478949D01*
X219832247Y-52148952D01*
X219849500Y-52141805D01*
X219866753Y-52148952D01*
G37*
%TD.AperFunction*%
%TA.AperFunction,Conductor*%
G36*
X228471648Y-57175247D02*
G01*
X231262635Y-59966235D01*
X231269782Y-59983488D01*
X231268951Y-59989803D01*
X231260796Y-60020239D01*
X231256700Y-60035527D01*
X231256700Y-60118073D01*
X231272723Y-60177872D01*
X231278065Y-60197807D01*
X231319338Y-60269293D01*
X231319342Y-60269298D01*
X231377701Y-60327657D01*
X231377706Y-60327661D01*
X231377707Y-60327662D01*
X231449194Y-60368935D01*
X231528927Y-60390300D01*
X231528930Y-60390300D01*
X231611470Y-60390300D01*
X231611473Y-60390300D01*
X231691206Y-60368935D01*
X231762693Y-60327662D01*
X231821062Y-60269293D01*
X231862335Y-60197806D01*
X231883700Y-60118073D01*
X231883700Y-60035527D01*
X231862335Y-59955794D01*
X231821062Y-59884307D01*
X231821061Y-59884306D01*
X231821057Y-59884301D01*
X231762698Y-59825942D01*
X231762693Y-59825938D01*
X231691206Y-59784665D01*
X231691207Y-59784665D01*
X231670800Y-59779197D01*
X231611473Y-59763300D01*
X231528927Y-59763300D01*
X231483203Y-59775551D01*
X231464688Y-59773113D01*
X231459635Y-59769235D01*
X231236953Y-59546553D01*
X231229806Y-59529300D01*
X231236953Y-59512047D01*
X231254206Y-59504900D01*
X232188195Y-59504900D01*
X232205448Y-59512047D01*
X232820753Y-60127352D01*
X232827900Y-60144605D01*
X232827900Y-61749639D01*
X232820753Y-61766892D01*
X232815700Y-61770770D01*
X232774706Y-61794438D01*
X232774701Y-61794442D01*
X232716342Y-61852801D01*
X232716338Y-61852806D01*
X232695028Y-61889716D01*
X232680212Y-61901085D01*
X232661697Y-61898647D01*
X232650328Y-61883831D01*
X232649497Y-61877516D01*
X232649497Y-61468453D01*
X232642958Y-61418777D01*
X232642932Y-61418582D01*
X232613509Y-61355484D01*
X232591886Y-61309113D01*
X232506479Y-61223706D01*
X232397011Y-61172661D01*
X232397006Y-61172659D01*
X232347140Y-61166095D01*
X231758856Y-61166095D01*
X231758856Y-61166096D01*
X231708986Y-61172660D01*
X231599516Y-61223706D01*
X231514109Y-61309113D01*
X231463064Y-61418581D01*
X231463062Y-61418586D01*
X231456498Y-61468452D01*
X231456498Y-62054876D01*
X231449351Y-62072129D01*
X231432098Y-62079276D01*
X231418542Y-62075164D01*
X231404230Y-62065601D01*
X231397498Y-62058869D01*
X231378026Y-62029728D01*
X231374384Y-62020935D01*
X231367069Y-61984157D01*
X231366600Y-61979397D01*
X231366600Y-60976194D01*
X231366600Y-60976192D01*
X231345393Y-60924993D01*
X231306207Y-60885807D01*
X231306206Y-60885806D01*
X229532724Y-59112325D01*
X229529293Y-59108893D01*
X229490107Y-59069707D01*
X229453904Y-59054711D01*
X229453903Y-59054710D01*
X229443706Y-59050487D01*
X229438909Y-59048500D01*
X229438908Y-59048500D01*
X229156138Y-59048500D01*
X229138885Y-59041353D01*
X229131738Y-59024100D01*
X229138885Y-59006847D01*
X229143935Y-59002970D01*
X229159193Y-58994162D01*
X229217562Y-58935793D01*
X229258835Y-58864306D01*
X229280200Y-58784573D01*
X229280200Y-58702027D01*
X229258835Y-58622294D01*
X229217562Y-58550807D01*
X229217561Y-58550806D01*
X229217557Y-58550801D01*
X229159198Y-58492442D01*
X229159193Y-58492438D01*
X229087706Y-58451165D01*
X229087707Y-58451165D01*
X229065460Y-58445204D01*
X229007973Y-58429800D01*
X228925427Y-58429800D01*
X228885693Y-58440447D01*
X228845692Y-58451165D01*
X228774206Y-58492438D01*
X228774201Y-58492442D01*
X228715842Y-58550801D01*
X228715838Y-58550806D01*
X228674565Y-58622292D01*
X228665112Y-58657573D01*
X228653200Y-58702027D01*
X228653200Y-58784573D01*
X228665040Y-58828758D01*
X228674565Y-58864307D01*
X228715838Y-58935793D01*
X228715842Y-58935798D01*
X228774201Y-58994157D01*
X228774206Y-58994161D01*
X228774207Y-58994162D01*
X228789462Y-59002969D01*
X228800831Y-59017785D01*
X228798393Y-59036300D01*
X228783577Y-59047669D01*
X228777262Y-59048500D01*
X228209006Y-59048500D01*
X228191753Y-59041353D01*
X227398647Y-58248247D01*
X227391500Y-58230994D01*
X227391500Y-57747700D01*
X227398647Y-57730447D01*
X227415900Y-57723300D01*
X227471270Y-57723300D01*
X227471273Y-57723300D01*
X227551006Y-57701935D01*
X227622493Y-57660662D01*
X227680862Y-57602293D01*
X227722135Y-57530806D01*
X227743500Y-57451073D01*
X227743500Y-57368527D01*
X227722135Y-57288794D01*
X227720488Y-57285942D01*
X227706495Y-57261704D01*
X227680862Y-57217307D01*
X227680861Y-57217306D01*
X227680857Y-57217301D01*
X227673309Y-57209753D01*
X227666162Y-57192500D01*
X227673309Y-57175247D01*
X227690562Y-57168100D01*
X228454395Y-57168100D01*
X228471648Y-57175247D01*
G37*
%TD.AperFunction*%
%TA.AperFunction,Conductor*%
G36*
X221773320Y-42592032D02*
G01*
X221780467Y-42609285D01*
X221773320Y-42626538D01*
X221762383Y-42632852D01*
X221730892Y-42641291D01*
X221730891Y-42641291D01*
X221730889Y-42641292D01*
X221698174Y-42657425D01*
X221698172Y-42657426D01*
X221698171Y-42657427D01*
X221670496Y-42678663D01*
X221579637Y-42748382D01*
X221579636Y-42748383D01*
X221562382Y-42765638D01*
X221562381Y-42765639D01*
X221473507Y-42881462D01*
X221461303Y-42902598D01*
X221461302Y-42902601D01*
X221429560Y-42979236D01*
X221405434Y-43037482D01*
X221399116Y-43061060D01*
X221380499Y-43202469D01*
X221379700Y-43214671D01*
X221379700Y-44110328D01*
X221380499Y-44122530D01*
X221399116Y-44263939D01*
X221399118Y-44263946D01*
X221405435Y-44287521D01*
X221461302Y-44422399D01*
X221473507Y-44443538D01*
X221527181Y-44513487D01*
X221562379Y-44559358D01*
X221562385Y-44559365D01*
X221579634Y-44576614D01*
X221579641Y-44576620D01*
X221579885Y-44576807D01*
X221695462Y-44665493D01*
X221716601Y-44677698D01*
X221851479Y-44733565D01*
X221875054Y-44739882D01*
X221875058Y-44739882D01*
X221875060Y-44739883D01*
X222019789Y-44758938D01*
X222019795Y-44758938D01*
X222044211Y-44758938D01*
X222188939Y-44739883D01*
X222188939Y-44739882D01*
X222188946Y-44739882D01*
X222212521Y-44733565D01*
X222347399Y-44677698D01*
X222368538Y-44665493D01*
X222484360Y-44576619D01*
X222501619Y-44559360D01*
X222590493Y-44443538D01*
X222602698Y-44422399D01*
X222658565Y-44287521D01*
X222664882Y-44263946D01*
X222683500Y-44122535D01*
X222684300Y-44110330D01*
X222684300Y-43211312D01*
X222684300Y-43211306D01*
X222681115Y-43187119D01*
X222681114Y-43187117D01*
X222681114Y-43187113D01*
X222608709Y-42916892D01*
X222592573Y-42884171D01*
X222501619Y-42765639D01*
X222484360Y-42748381D01*
X222368538Y-42659507D01*
X222347399Y-42647302D01*
X222310039Y-42631827D01*
X222296834Y-42618623D01*
X222296834Y-42599948D01*
X222310039Y-42586742D01*
X222319377Y-42584885D01*
X230392067Y-42584885D01*
X230409320Y-42592032D01*
X230416467Y-42609285D01*
X230409320Y-42626538D01*
X230398383Y-42632852D01*
X230366892Y-42641291D01*
X230366891Y-42641291D01*
X230366889Y-42641292D01*
X230334174Y-42657425D01*
X230334172Y-42657426D01*
X230334171Y-42657427D01*
X230306496Y-42678663D01*
X230215637Y-42748382D01*
X230215636Y-42748383D01*
X230198382Y-42765638D01*
X230198381Y-42765639D01*
X230109507Y-42881462D01*
X230097303Y-42902598D01*
X230097302Y-42902601D01*
X230065560Y-42979236D01*
X230041434Y-43037482D01*
X230035116Y-43061060D01*
X230016499Y-43202469D01*
X230015700Y-43214671D01*
X230015700Y-44110328D01*
X230016499Y-44122530D01*
X230035116Y-44263939D01*
X230035118Y-44263946D01*
X230041435Y-44287521D01*
X230097302Y-44422399D01*
X230109507Y-44443538D01*
X230163181Y-44513487D01*
X230198379Y-44559358D01*
X230198385Y-44559365D01*
X230215634Y-44576614D01*
X230215641Y-44576620D01*
X230215885Y-44576807D01*
X230331462Y-44665493D01*
X230352601Y-44677698D01*
X230487479Y-44733565D01*
X230511054Y-44739882D01*
X230511058Y-44739882D01*
X230511060Y-44739883D01*
X230655789Y-44758938D01*
X230655795Y-44758938D01*
X230680211Y-44758938D01*
X230824939Y-44739883D01*
X230824939Y-44739882D01*
X230824946Y-44739882D01*
X230848521Y-44733565D01*
X230983399Y-44677698D01*
X231004538Y-44665493D01*
X231120360Y-44576619D01*
X231137619Y-44559360D01*
X231190283Y-44490727D01*
X231383700Y-44490727D01*
X231383700Y-44573273D01*
X231399723Y-44633072D01*
X231405065Y-44653007D01*
X231446338Y-44724493D01*
X231446342Y-44724498D01*
X231504701Y-44782857D01*
X231504706Y-44782861D01*
X231504707Y-44782862D01*
X231576194Y-44824135D01*
X231655927Y-44845500D01*
X231655930Y-44845500D01*
X231738470Y-44845500D01*
X231738473Y-44845500D01*
X231818206Y-44824135D01*
X231889693Y-44782862D01*
X231948062Y-44724493D01*
X231989335Y-44653006D01*
X232010700Y-44573273D01*
X232010700Y-44490727D01*
X231989335Y-44410994D01*
X231948062Y-44339507D01*
X231948061Y-44339506D01*
X231948057Y-44339501D01*
X231889698Y-44281142D01*
X231889693Y-44281138D01*
X231818206Y-44239865D01*
X231818207Y-44239865D01*
X231798272Y-44234523D01*
X231738473Y-44218500D01*
X231655927Y-44218500D01*
X231608087Y-44231319D01*
X231576192Y-44239865D01*
X231504706Y-44281138D01*
X231504701Y-44281142D01*
X231446342Y-44339501D01*
X231446338Y-44339506D01*
X231405065Y-44410992D01*
X231402009Y-44422399D01*
X231383700Y-44490727D01*
X231190283Y-44490727D01*
X231226493Y-44443538D01*
X231238698Y-44422399D01*
X231294565Y-44287521D01*
X231300882Y-44263946D01*
X231319500Y-44122535D01*
X231320300Y-44110330D01*
X231320300Y-43211312D01*
X231320300Y-43211306D01*
X231317115Y-43187119D01*
X231317114Y-43187117D01*
X231317114Y-43187113D01*
X231244709Y-42916892D01*
X231228573Y-42884171D01*
X231137619Y-42765639D01*
X231120360Y-42748381D01*
X231004538Y-42659507D01*
X230983399Y-42647302D01*
X230946039Y-42631827D01*
X230932834Y-42618623D01*
X230932834Y-42599948D01*
X230946039Y-42586742D01*
X230955377Y-42584885D01*
X233324527Y-42584885D01*
X233325494Y-42584885D01*
X233327090Y-42584937D01*
X233340863Y-42585839D01*
X233568691Y-42600772D01*
X233570550Y-42600967D01*
X233581331Y-42602517D01*
X233582565Y-42602728D01*
X233817329Y-42649425D01*
X233820393Y-42650246D01*
X234053122Y-42729247D01*
X234056053Y-42730461D01*
X234144982Y-42774316D01*
X234276478Y-42839163D01*
X234279242Y-42840759D01*
X234483580Y-42977293D01*
X234486110Y-42979235D01*
X234568460Y-43051454D01*
X234670880Y-43141274D01*
X234673137Y-43143531D01*
X234835175Y-43328299D01*
X234837118Y-43330831D01*
X234973652Y-43535169D01*
X234975248Y-43537933D01*
X235047484Y-43684411D01*
X235050000Y-43695203D01*
X235050000Y-44490697D01*
X235042853Y-44507950D01*
X235025600Y-44515097D01*
X233911632Y-44515097D01*
X233910289Y-44515172D01*
X233901164Y-44515685D01*
X233901157Y-44515685D01*
X233901153Y-44515686D01*
X233785039Y-44528769D01*
X233737210Y-44534158D01*
X233737209Y-44534158D01*
X233737202Y-44534159D01*
X233716800Y-44538816D01*
X233716799Y-44538816D01*
X233558364Y-44594254D01*
X233558356Y-44594258D01*
X233539492Y-44603343D01*
X233539489Y-44603345D01*
X233397361Y-44692650D01*
X233380999Y-44705698D01*
X233380977Y-44705718D01*
X233262307Y-44824388D01*
X233262287Y-44824410D01*
X233249239Y-44840772D01*
X233158384Y-44985366D01*
X233146397Y-45014302D01*
X233146395Y-45014308D01*
X233138973Y-45046829D01*
X233128167Y-45062060D01*
X233115185Y-45065800D01*
X231080609Y-45065800D01*
X230993498Y-45089141D01*
X230915399Y-45134232D01*
X230915394Y-45134236D01*
X230407136Y-45642494D01*
X230407132Y-45642499D01*
X230362041Y-45720598D01*
X230338700Y-45807708D01*
X230338700Y-45897891D01*
X230362041Y-45985001D01*
X230407132Y-46063100D01*
X230407136Y-46063105D01*
X230470894Y-46126863D01*
X230470899Y-46126867D01*
X230470900Y-46126868D01*
X230549000Y-46171959D01*
X230636109Y-46195300D01*
X230726291Y-46195300D01*
X230736640Y-46192527D01*
X232142100Y-46192527D01*
X232142100Y-46275073D01*
X232155612Y-46325499D01*
X232163465Y-46354807D01*
X232204738Y-46426293D01*
X232204742Y-46426298D01*
X232263101Y-46484657D01*
X232263106Y-46484661D01*
X232263107Y-46484662D01*
X232334594Y-46525935D01*
X232414327Y-46547300D01*
X232414330Y-46547300D01*
X232496870Y-46547300D01*
X232496873Y-46547300D01*
X232576606Y-46525935D01*
X232648093Y-46484662D01*
X232706462Y-46426293D01*
X232747735Y-46354806D01*
X232769100Y-46275073D01*
X232769100Y-46192527D01*
X232747735Y-46112794D01*
X232706462Y-46041307D01*
X232706461Y-46041306D01*
X232706457Y-46041301D01*
X232648098Y-45982942D01*
X232648093Y-45982938D01*
X232576606Y-45941665D01*
X232576607Y-45941665D01*
X232556672Y-45936323D01*
X232496873Y-45920300D01*
X232414327Y-45920300D01*
X232366487Y-45933119D01*
X232334592Y-45941665D01*
X232263106Y-45982938D01*
X232263101Y-45982942D01*
X232204742Y-46041301D01*
X232204738Y-46041306D01*
X232163465Y-46112792D01*
X232157385Y-46135485D01*
X232142100Y-46192527D01*
X230736640Y-46192527D01*
X230813400Y-46171959D01*
X230891500Y-46126868D01*
X231260421Y-45757947D01*
X231277674Y-45750800D01*
X233101962Y-45750800D01*
X233119215Y-45757947D01*
X233124993Y-45767141D01*
X233150843Y-45841017D01*
X233150844Y-45841020D01*
X233150847Y-45841027D01*
X233159932Y-45859891D01*
X233249241Y-46002024D01*
X233262295Y-46018393D01*
X233380990Y-46137088D01*
X233397359Y-46150142D01*
X233541954Y-46240998D01*
X233570893Y-46252986D01*
X233570896Y-46252986D01*
X233570897Y-46252987D01*
X233887946Y-46325351D01*
X233887948Y-46325351D01*
X233887956Y-46325353D01*
X233908762Y-46327697D01*
X235025600Y-46327697D01*
X235042853Y-46334844D01*
X235050000Y-46352097D01*
X235050000Y-47030697D01*
X235042853Y-47047950D01*
X235025600Y-47055097D01*
X233911632Y-47055097D01*
X233910289Y-47055172D01*
X233901164Y-47055685D01*
X233901157Y-47055685D01*
X233901153Y-47055686D01*
X233785039Y-47068769D01*
X233737210Y-47074158D01*
X233737209Y-47074158D01*
X233737202Y-47074159D01*
X233716800Y-47078816D01*
X233716799Y-47078816D01*
X233558364Y-47134254D01*
X233558356Y-47134258D01*
X233539492Y-47143343D01*
X233539489Y-47143345D01*
X233397361Y-47232650D01*
X233380999Y-47245698D01*
X233380977Y-47245718D01*
X233262307Y-47364388D01*
X233262287Y-47364410D01*
X233249239Y-47380772D01*
X233158384Y-47525366D01*
X233146397Y-47554302D01*
X233146396Y-47554305D01*
X233116996Y-47683112D01*
X233115751Y-47687018D01*
X233111036Y-47698403D01*
X233111034Y-47698408D01*
X233094333Y-47782365D01*
X233094190Y-47783033D01*
X233074031Y-47871357D01*
X233074030Y-47871367D01*
X233071686Y-47892173D01*
X233071686Y-48027750D01*
X233072274Y-48038219D01*
X233090737Y-48202088D01*
X233090748Y-48202180D01*
X233095405Y-48222582D01*
X233095405Y-48222583D01*
X233150843Y-48381018D01*
X233150846Y-48381024D01*
X233150847Y-48381027D01*
X233159932Y-48399891D01*
X233249241Y-48542024D01*
X233262295Y-48558393D01*
X233380990Y-48677088D01*
X233397359Y-48690142D01*
X233541954Y-48780998D01*
X233570893Y-48792986D01*
X233699698Y-48822384D01*
X233703604Y-48823629D01*
X233715000Y-48828349D01*
X233798945Y-48845046D01*
X233799554Y-48845176D01*
X233887956Y-48865353D01*
X233908762Y-48867697D01*
X235025600Y-48867697D01*
X235042853Y-48874844D01*
X235050000Y-48892097D01*
X235050000Y-49570697D01*
X235042853Y-49587950D01*
X235025600Y-49595097D01*
X233911632Y-49595097D01*
X233910289Y-49595172D01*
X233901164Y-49595685D01*
X233901157Y-49595685D01*
X233901153Y-49595686D01*
X233785039Y-49608769D01*
X233737210Y-49614158D01*
X233737209Y-49614158D01*
X233737202Y-49614159D01*
X233716800Y-49618816D01*
X233716799Y-49618816D01*
X233558364Y-49674254D01*
X233558356Y-49674258D01*
X233539492Y-49683343D01*
X233539489Y-49683345D01*
X233397361Y-49772650D01*
X233380999Y-49785698D01*
X233380977Y-49785718D01*
X233262307Y-49904388D01*
X233262287Y-49904410D01*
X233249239Y-49920772D01*
X233158384Y-50065366D01*
X233146397Y-50094302D01*
X233146395Y-50094308D01*
X233074031Y-50411357D01*
X233074030Y-50411367D01*
X233071686Y-50432173D01*
X233071686Y-50432178D01*
X233071686Y-50567750D01*
X233072275Y-50578229D01*
X233076302Y-50613968D01*
X233071132Y-50631913D01*
X233054787Y-50640947D01*
X233052055Y-50641100D01*
X228891593Y-50641100D01*
X228874340Y-50633953D01*
X228867193Y-50616700D01*
X228874340Y-50599447D01*
X228885277Y-50593131D01*
X228897206Y-50589935D01*
X228968693Y-50548662D01*
X229027062Y-50490293D01*
X229068335Y-50418806D01*
X229089700Y-50339073D01*
X229089700Y-50256527D01*
X229068335Y-50176794D01*
X229027062Y-50105307D01*
X229027061Y-50105306D01*
X229027057Y-50105301D01*
X228968698Y-50046942D01*
X228968693Y-50046938D01*
X228897206Y-50005665D01*
X228897207Y-50005665D01*
X228877272Y-50000323D01*
X228817473Y-49984300D01*
X228734927Y-49984300D01*
X228687087Y-49997119D01*
X228655192Y-50005665D01*
X228583706Y-50046938D01*
X228583701Y-50046942D01*
X228525342Y-50105301D01*
X228525338Y-50105306D01*
X228484065Y-50176792D01*
X228479882Y-50192404D01*
X228462700Y-50256527D01*
X228462700Y-50339073D01*
X228473684Y-50380064D01*
X228484065Y-50418807D01*
X228525338Y-50490293D01*
X228525342Y-50490298D01*
X228583701Y-50548657D01*
X228583706Y-50548661D01*
X228583707Y-50548662D01*
X228655194Y-50589935D01*
X228667122Y-50593131D01*
X228681938Y-50604500D01*
X228684376Y-50623015D01*
X228673007Y-50637831D01*
X228660807Y-50641100D01*
X227467797Y-50641100D01*
X227393606Y-50660979D01*
X227327091Y-50699382D01*
X227327086Y-50699386D01*
X226706721Y-51319753D01*
X226689468Y-51326900D01*
X225600041Y-51326900D01*
X225593730Y-51326069D01*
X225515473Y-51305100D01*
X225460467Y-51305100D01*
X225443214Y-51297953D01*
X225436067Y-51280700D01*
X225443214Y-51263447D01*
X226307343Y-50399320D01*
X226608293Y-50098370D01*
X226629500Y-50047172D01*
X226629500Y-49991754D01*
X226629500Y-49494527D01*
X227294300Y-49494527D01*
X227294300Y-49577073D01*
X227305486Y-49618817D01*
X227315665Y-49656807D01*
X227356938Y-49728293D01*
X227356942Y-49728298D01*
X227415301Y-49786657D01*
X227415306Y-49786661D01*
X227415307Y-49786662D01*
X227486794Y-49827935D01*
X227566527Y-49849300D01*
X227566530Y-49849300D01*
X227649070Y-49849300D01*
X227649073Y-49849300D01*
X227728806Y-49827935D01*
X227800293Y-49786662D01*
X227858662Y-49728293D01*
X227899935Y-49656806D01*
X227921300Y-49577073D01*
X227921300Y-49494527D01*
X227899935Y-49414794D01*
X227898288Y-49411942D01*
X227874457Y-49370665D01*
X227858662Y-49343307D01*
X227858661Y-49343306D01*
X227858657Y-49343301D01*
X227800298Y-49284942D01*
X227800293Y-49284938D01*
X227728806Y-49243665D01*
X227728807Y-49243665D01*
X227702492Y-49236614D01*
X227649073Y-49222300D01*
X227566527Y-49222300D01*
X227518687Y-49235119D01*
X227486792Y-49243665D01*
X227415306Y-49284938D01*
X227415301Y-49284942D01*
X227356942Y-49343301D01*
X227356938Y-49343306D01*
X227315665Y-49414792D01*
X227306212Y-49450073D01*
X227294300Y-49494527D01*
X226629500Y-49494527D01*
X226629500Y-47260002D01*
X228731300Y-47260002D01*
X228731300Y-47389997D01*
X228764945Y-47515562D01*
X228829942Y-47628139D01*
X228829946Y-47628144D01*
X228921855Y-47720053D01*
X228921860Y-47720057D01*
X228921861Y-47720058D01*
X229034439Y-47785055D01*
X229160003Y-47818700D01*
X229289997Y-47818700D01*
X229415561Y-47785055D01*
X229528139Y-47720058D01*
X229620058Y-47628139D01*
X229685055Y-47515561D01*
X229714500Y-47405671D01*
X230015700Y-47405671D01*
X230015700Y-48301328D01*
X230016499Y-48313530D01*
X230035116Y-48454939D01*
X230035118Y-48454946D01*
X230041435Y-48478521D01*
X230097302Y-48613399D01*
X230109507Y-48634538D01*
X230150939Y-48688533D01*
X230198379Y-48750358D01*
X230198385Y-48750365D01*
X230215634Y-48767614D01*
X230215641Y-48767620D01*
X230228961Y-48777841D01*
X230331462Y-48856493D01*
X230352601Y-48868698D01*
X230487479Y-48924565D01*
X230511054Y-48930882D01*
X230511058Y-48930882D01*
X230511060Y-48930883D01*
X230655789Y-48949938D01*
X230655795Y-48949938D01*
X230680211Y-48949938D01*
X230824939Y-48930883D01*
X230824939Y-48930882D01*
X230824946Y-48930882D01*
X230848521Y-48924565D01*
X230983399Y-48868698D01*
X231004538Y-48856493D01*
X231120360Y-48767619D01*
X231137619Y-48750360D01*
X231226493Y-48634538D01*
X231238698Y-48613399D01*
X231294565Y-48478521D01*
X231300882Y-48454946D01*
X231319500Y-48313535D01*
X231320300Y-48301330D01*
X231320300Y-47402312D01*
X231320300Y-47402306D01*
X231317115Y-47378119D01*
X231317114Y-47378117D01*
X231317114Y-47378113D01*
X231244709Y-47107892D01*
X231237662Y-47093601D01*
X231236241Y-47090719D01*
X231231707Y-47081527D01*
X232272700Y-47081527D01*
X232272700Y-47164073D01*
X232288723Y-47223872D01*
X232294065Y-47243807D01*
X232335338Y-47315293D01*
X232335342Y-47315298D01*
X232393701Y-47373657D01*
X232393706Y-47373661D01*
X232393707Y-47373662D01*
X232465194Y-47414935D01*
X232544927Y-47436300D01*
X232544930Y-47436300D01*
X232627470Y-47436300D01*
X232627473Y-47436300D01*
X232707206Y-47414935D01*
X232778693Y-47373662D01*
X232837062Y-47315293D01*
X232878335Y-47243806D01*
X232899700Y-47164073D01*
X232899700Y-47081527D01*
X232878335Y-47001794D01*
X232837062Y-46930307D01*
X232837061Y-46930306D01*
X232837057Y-46930301D01*
X232778698Y-46871942D01*
X232778693Y-46871938D01*
X232707206Y-46830665D01*
X232707207Y-46830665D01*
X232680127Y-46823409D01*
X232627473Y-46809300D01*
X232544927Y-46809300D01*
X232497087Y-46822119D01*
X232465192Y-46830665D01*
X232393706Y-46871938D01*
X232393701Y-46871942D01*
X232335342Y-46930301D01*
X232335338Y-46930306D01*
X232294065Y-47001792D01*
X232286320Y-47030697D01*
X232272700Y-47081527D01*
X231231707Y-47081527D01*
X231228574Y-47075174D01*
X231228573Y-47075171D01*
X231137619Y-46956639D01*
X231120360Y-46939381D01*
X231004538Y-46850507D01*
X230983399Y-46838302D01*
X230848521Y-46782435D01*
X230824946Y-46776118D01*
X230824939Y-46776116D01*
X230676822Y-46756616D01*
X230676819Y-46756616D01*
X230676818Y-46756616D01*
X230652548Y-46758206D01*
X230640412Y-46759002D01*
X230452697Y-46809300D01*
X230366892Y-46832291D01*
X230366891Y-46832291D01*
X230366889Y-46832292D01*
X230334174Y-46848425D01*
X230334172Y-46848426D01*
X230334171Y-46848427D01*
X230312645Y-46864945D01*
X230215637Y-46939382D01*
X230215636Y-46939383D01*
X230198382Y-46956638D01*
X230198381Y-46956639D01*
X230109507Y-47072462D01*
X230097303Y-47093598D01*
X230097302Y-47093601D01*
X230068114Y-47164070D01*
X230041434Y-47228482D01*
X230035116Y-47252060D01*
X230016499Y-47393469D01*
X230015700Y-47405671D01*
X229714500Y-47405671D01*
X229718700Y-47389997D01*
X229718700Y-47260003D01*
X229685055Y-47134439D01*
X229684950Y-47134258D01*
X229661475Y-47093598D01*
X229620058Y-47021861D01*
X229620057Y-47021860D01*
X229620053Y-47021855D01*
X229528144Y-46929946D01*
X229528139Y-46929942D01*
X229415561Y-46864945D01*
X229415562Y-46864945D01*
X229289997Y-46831300D01*
X229160003Y-46831300D01*
X229034437Y-46864945D01*
X228921860Y-46929942D01*
X228921855Y-46929946D01*
X228829946Y-47021855D01*
X228829942Y-47021860D01*
X228764945Y-47134437D01*
X228731300Y-47260002D01*
X226629500Y-47260002D01*
X226629500Y-46174605D01*
X226636647Y-46157352D01*
X227639201Y-45154799D01*
X227656454Y-45147652D01*
X227664794Y-45147652D01*
X227731296Y-45141609D01*
X227884316Y-45093926D01*
X228021478Y-45011009D01*
X228134811Y-44897676D01*
X228217728Y-44760514D01*
X228265411Y-44607494D01*
X228271454Y-44540992D01*
X228271454Y-44434312D01*
X228265411Y-44367810D01*
X228217728Y-44214790D01*
X228173907Y-44142300D01*
X228134810Y-44077626D01*
X228021479Y-43964295D01*
X227884317Y-43881378D01*
X227731299Y-43833696D01*
X227731300Y-43833696D01*
X227731296Y-43833695D01*
X227731294Y-43833694D01*
X227731291Y-43833694D01*
X227664794Y-43827652D01*
X227558114Y-43827652D01*
X227491616Y-43833694D01*
X227491608Y-43833696D01*
X227338590Y-43881378D01*
X227201428Y-43964295D01*
X227088097Y-44077626D01*
X227005180Y-44214788D01*
X226957498Y-44367806D01*
X226957496Y-44367814D01*
X226951454Y-44434311D01*
X226951454Y-44540992D01*
X226957496Y-44607489D01*
X226957498Y-44607497D01*
X227005180Y-44760515D01*
X227088097Y-44897677D01*
X227201428Y-45011008D01*
X227291672Y-45065562D01*
X227302740Y-45080604D01*
X227299930Y-45099066D01*
X227296302Y-45103696D01*
X226592292Y-45807708D01*
X226411294Y-45988706D01*
X226411293Y-45988707D01*
X226399589Y-46000411D01*
X226372107Y-46027892D01*
X226350900Y-46079092D01*
X226350900Y-49402238D01*
X226343753Y-49419491D01*
X226326500Y-49426638D01*
X226309247Y-49419491D01*
X226301698Y-49411942D01*
X226301693Y-49411938D01*
X226230206Y-49370665D01*
X226230207Y-49370665D01*
X226210272Y-49365323D01*
X226150473Y-49349300D01*
X226067927Y-49349300D01*
X226020087Y-49362119D01*
X225988192Y-49370665D01*
X225916706Y-49411938D01*
X225916701Y-49411942D01*
X225909153Y-49419491D01*
X225891900Y-49426638D01*
X225874647Y-49419491D01*
X225867500Y-49402238D01*
X225867500Y-48976355D01*
X225874647Y-48959102D01*
X226029682Y-48804068D01*
X226189193Y-48644557D01*
X226210400Y-48593359D01*
X226210400Y-48537941D01*
X226210400Y-45405992D01*
X226209689Y-45404276D01*
X226191132Y-45359475D01*
X226189193Y-45354793D01*
X226150007Y-45315607D01*
X226150006Y-45315606D01*
X225660860Y-44826461D01*
X225653714Y-44809209D01*
X225657232Y-44796588D01*
X225679040Y-44760514D01*
X225726723Y-44607494D01*
X225732766Y-44540992D01*
X225732766Y-44434312D01*
X225726723Y-44367810D01*
X225679040Y-44214790D01*
X225635219Y-44142300D01*
X225596122Y-44077626D01*
X225482791Y-43964295D01*
X225345629Y-43881378D01*
X225192611Y-43833696D01*
X225192612Y-43833696D01*
X225192608Y-43833695D01*
X225192606Y-43833694D01*
X225192603Y-43833694D01*
X225126106Y-43827652D01*
X225019426Y-43827652D01*
X224952928Y-43833694D01*
X224952920Y-43833696D01*
X224799902Y-43881378D01*
X224662740Y-43964295D01*
X224549409Y-44077626D01*
X224466492Y-44214788D01*
X224418810Y-44367806D01*
X224418808Y-44367814D01*
X224412766Y-44434311D01*
X224412766Y-44540992D01*
X224418808Y-44607489D01*
X224418810Y-44607497D01*
X224466492Y-44760515D01*
X224549409Y-44897677D01*
X224662740Y-45011008D01*
X224791989Y-45089141D01*
X224799904Y-45093926D01*
X224952924Y-45141609D01*
X225019426Y-45147652D01*
X225126106Y-45147652D01*
X225192608Y-45141609D01*
X225345628Y-45093926D01*
X225446874Y-45032719D01*
X225465335Y-45029910D01*
X225476749Y-45036348D01*
X225924653Y-45484252D01*
X225931800Y-45501505D01*
X225931800Y-48497844D01*
X225924653Y-48515097D01*
X225649294Y-48790456D01*
X225649293Y-48790457D01*
X225638270Y-48801480D01*
X225610107Y-48829642D01*
X225588900Y-48880842D01*
X225588900Y-50426288D01*
X225581753Y-50443541D01*
X225528153Y-50497141D01*
X225510900Y-50504288D01*
X225493647Y-50497141D01*
X225486500Y-50479888D01*
X225486500Y-47558268D01*
X225493647Y-47541015D01*
X225596122Y-47438540D01*
X225597477Y-47436300D01*
X225679040Y-47301377D01*
X225726723Y-47148357D01*
X225732766Y-47081855D01*
X225732766Y-46975175D01*
X225726723Y-46908673D01*
X225679040Y-46755653D01*
X225601551Y-46627469D01*
X225596122Y-46618489D01*
X225482791Y-46505158D01*
X225345629Y-46422241D01*
X225192611Y-46374559D01*
X225192612Y-46374559D01*
X225192608Y-46374558D01*
X225192606Y-46374557D01*
X225192603Y-46374557D01*
X225126106Y-46368515D01*
X225019426Y-46368515D01*
X224952928Y-46374557D01*
X224952920Y-46374559D01*
X224908559Y-46388382D01*
X224889960Y-46386692D01*
X224878005Y-46372346D01*
X224876900Y-46365087D01*
X224876900Y-46133795D01*
X224884047Y-46116542D01*
X224889097Y-46112665D01*
X224904693Y-46103662D01*
X224963062Y-46045293D01*
X225004335Y-45973806D01*
X225025700Y-45894073D01*
X225025700Y-45811527D01*
X225004335Y-45731794D01*
X224963062Y-45660307D01*
X224963061Y-45660306D01*
X224963057Y-45660301D01*
X224904698Y-45601942D01*
X224904693Y-45601938D01*
X224833206Y-45560665D01*
X224833207Y-45560665D01*
X224813272Y-45555323D01*
X224753473Y-45539300D01*
X224670927Y-45539300D01*
X224623087Y-45552119D01*
X224591192Y-45560665D01*
X224519706Y-45601938D01*
X224519701Y-45601942D01*
X224461342Y-45660301D01*
X224461338Y-45660306D01*
X224420065Y-45731792D01*
X224409382Y-45771660D01*
X224398700Y-45811527D01*
X224398700Y-45894073D01*
X224405728Y-45920300D01*
X224420065Y-45973807D01*
X224461338Y-46045293D01*
X224461342Y-46045298D01*
X224519705Y-46103661D01*
X224519707Y-46103662D01*
X224535300Y-46112664D01*
X224546669Y-46127480D01*
X224547500Y-46133795D01*
X224547500Y-46614846D01*
X224543981Y-46627469D01*
X224466492Y-46755651D01*
X224418810Y-46908669D01*
X224418808Y-46908677D01*
X224412766Y-46975174D01*
X224412766Y-47081855D01*
X224418808Y-47148352D01*
X224418810Y-47148360D01*
X224466492Y-47301378D01*
X224549409Y-47438540D01*
X224662740Y-47551871D01*
X224788912Y-47628144D01*
X224799904Y-47634789D01*
X224952924Y-47682472D01*
X225019426Y-47688515D01*
X225126106Y-47688515D01*
X225181292Y-47683500D01*
X225199121Y-47689056D01*
X225207800Y-47705592D01*
X225207900Y-47707800D01*
X225207900Y-49219361D01*
X225200753Y-49236614D01*
X225183500Y-49243761D01*
X225166247Y-49236614D01*
X225162369Y-49231561D01*
X225153561Y-49216306D01*
X225153557Y-49216301D01*
X225095198Y-49157942D01*
X225095193Y-49157938D01*
X225023706Y-49116665D01*
X225023707Y-49116665D01*
X225003772Y-49111323D01*
X224943973Y-49095300D01*
X224861427Y-49095300D01*
X224813587Y-49108119D01*
X224781692Y-49116665D01*
X224710206Y-49157938D01*
X224710201Y-49157942D01*
X224651842Y-49216301D01*
X224651838Y-49216306D01*
X224610565Y-49287792D01*
X224599882Y-49327660D01*
X224589200Y-49367527D01*
X224589200Y-49450073D01*
X224592167Y-49461145D01*
X224610565Y-49529807D01*
X224651838Y-49601293D01*
X224651842Y-49601298D01*
X224710201Y-49659657D01*
X224710206Y-49659661D01*
X224710207Y-49659662D01*
X224781694Y-49700935D01*
X224861427Y-49722300D01*
X224861430Y-49722300D01*
X224943970Y-49722300D01*
X224943973Y-49722300D01*
X225023706Y-49700935D01*
X225095193Y-49659662D01*
X225153562Y-49601293D01*
X225162369Y-49586037D01*
X225177185Y-49574669D01*
X225195700Y-49577107D01*
X225207069Y-49591923D01*
X225207900Y-49598238D01*
X225207900Y-50483994D01*
X225200753Y-50501247D01*
X224096294Y-51605706D01*
X224096293Y-51605707D01*
X224077408Y-51624592D01*
X224057107Y-51644892D01*
X224035900Y-51696092D01*
X224035900Y-52322513D01*
X224028753Y-52339766D01*
X223769694Y-52598825D01*
X223769693Y-52598826D01*
X223756858Y-52611661D01*
X223730507Y-52638011D01*
X223720279Y-52662705D01*
X223709300Y-52689211D01*
X223709300Y-53991191D01*
X223709300Y-54046609D01*
X223715511Y-54061604D01*
X223730507Y-54097807D01*
X223769693Y-54136993D01*
X223769694Y-54136993D01*
X223773125Y-54140424D01*
X223773124Y-54140424D01*
X223773126Y-54140425D01*
X224465060Y-54832359D01*
X224472207Y-54849612D01*
X224465060Y-54866865D01*
X224460011Y-54870740D01*
X224456211Y-54872934D01*
X224456201Y-54872942D01*
X224397842Y-54931301D01*
X224397838Y-54931306D01*
X224356565Y-55002792D01*
X224347112Y-55038073D01*
X224335200Y-55082527D01*
X224335200Y-55082529D01*
X224335200Y-55165073D01*
X224347451Y-55210795D01*
X224345013Y-55229310D01*
X224341135Y-55234363D01*
X223852262Y-55723238D01*
X223718894Y-55856606D01*
X223718893Y-55856607D01*
X223699299Y-55876201D01*
X223679705Y-55895794D01*
X223679371Y-55896295D01*
X223678870Y-55896629D01*
X223678007Y-55897493D01*
X223677835Y-55897321D01*
X223663843Y-55906669D01*
X223645527Y-55903025D01*
X223637953Y-55894938D01*
X223616861Y-55858406D01*
X223616857Y-55858401D01*
X223558498Y-55800042D01*
X223558493Y-55800038D01*
X223552013Y-55796297D01*
X223540644Y-55781481D01*
X223543082Y-55762966D01*
X223552012Y-55754035D01*
X223571193Y-55742962D01*
X223629562Y-55684593D01*
X223670835Y-55613106D01*
X223692200Y-55533373D01*
X223692200Y-55450827D01*
X223670835Y-55371094D01*
X223629562Y-55299607D01*
X223629561Y-55299606D01*
X223629557Y-55299601D01*
X223571198Y-55241242D01*
X223571193Y-55241238D01*
X223499706Y-55199965D01*
X223499707Y-55199965D01*
X223479772Y-55194623D01*
X223419973Y-55178600D01*
X223337427Y-55178600D01*
X223297503Y-55189298D01*
X223257692Y-55199965D01*
X223186206Y-55241238D01*
X223186201Y-55241242D01*
X223127842Y-55299601D01*
X223127838Y-55299606D01*
X223086565Y-55371092D01*
X223081147Y-55391313D01*
X223065200Y-55450827D01*
X223065200Y-55533373D01*
X223075141Y-55570472D01*
X223086565Y-55613107D01*
X223127838Y-55684593D01*
X223127842Y-55684598D01*
X223186204Y-55742960D01*
X223186206Y-55742961D01*
X223186207Y-55742962D01*
X223192684Y-55746701D01*
X223204053Y-55761516D01*
X223201617Y-55780032D01*
X223192687Y-55788963D01*
X223173505Y-55800038D01*
X223115142Y-55858401D01*
X223115138Y-55858406D01*
X223073865Y-55929892D01*
X223070940Y-55940810D01*
X223052500Y-56009627D01*
X223052500Y-56092173D01*
X223067736Y-56149032D01*
X223073865Y-56171907D01*
X223074477Y-56173384D01*
X223073579Y-56173755D01*
X223075596Y-56189249D01*
X223064206Y-56204049D01*
X223052037Y-56207300D01*
X223019927Y-56207300D01*
X222980003Y-56217998D01*
X222940192Y-56228665D01*
X222868706Y-56269938D01*
X222868701Y-56269942D01*
X222810342Y-56328301D01*
X222810338Y-56328306D01*
X222769065Y-56399792D01*
X222763254Y-56421480D01*
X222747700Y-56479527D01*
X222747700Y-56562073D01*
X222761312Y-56612873D01*
X222769065Y-56641807D01*
X222810338Y-56713293D01*
X222810342Y-56713298D01*
X222868701Y-56771657D01*
X222868706Y-56771661D01*
X222868707Y-56771662D01*
X222940194Y-56812935D01*
X223019927Y-56834300D01*
X223019930Y-56834300D01*
X223102470Y-56834300D01*
X223102473Y-56834300D01*
X223182206Y-56812935D01*
X223253693Y-56771662D01*
X223312062Y-56713293D01*
X223353335Y-56641806D01*
X223374700Y-56562073D01*
X223374700Y-56479527D01*
X223353335Y-56399794D01*
X223353334Y-56399792D01*
X223352723Y-56398316D01*
X223353620Y-56397944D01*
X223351604Y-56382451D01*
X223362994Y-56367651D01*
X223375163Y-56364400D01*
X223407270Y-56364400D01*
X223407273Y-56364400D01*
X223487006Y-56343035D01*
X223558493Y-56301762D01*
X223584771Y-56275484D01*
X223616847Y-56243409D01*
X223634100Y-56236262D01*
X223651353Y-56243409D01*
X223658500Y-56260662D01*
X223658500Y-58219620D01*
X223651353Y-58236873D01*
X223640416Y-58243188D01*
X223615021Y-58249993D01*
X223575192Y-58260665D01*
X223503706Y-58301938D01*
X223503701Y-58301942D01*
X223445342Y-58360301D01*
X223445338Y-58360306D01*
X223404065Y-58431792D01*
X223393382Y-58471660D01*
X223382700Y-58511527D01*
X223382700Y-58594073D01*
X223395213Y-58640771D01*
X223404065Y-58673807D01*
X223445338Y-58745293D01*
X223445342Y-58745298D01*
X223503701Y-58803657D01*
X223503706Y-58803661D01*
X223503707Y-58803662D01*
X223575194Y-58844935D01*
X223654927Y-58866300D01*
X223654930Y-58866300D01*
X223737470Y-58866300D01*
X223737473Y-58866300D01*
X223817206Y-58844935D01*
X223888693Y-58803662D01*
X223947062Y-58745293D01*
X223988335Y-58673806D01*
X224009700Y-58594073D01*
X224009700Y-58511527D01*
X223988335Y-58431794D01*
X223947062Y-58360307D01*
X223947061Y-58360306D01*
X223947057Y-58360301D01*
X223944247Y-58357491D01*
X223937100Y-58340238D01*
X223937100Y-58233255D01*
X223944247Y-58216002D01*
X223961500Y-58208855D01*
X223978753Y-58216002D01*
X223982629Y-58221053D01*
X223994204Y-58241100D01*
X223999338Y-58249993D01*
X223999342Y-58249998D01*
X224057701Y-58308357D01*
X224057706Y-58308361D01*
X224057707Y-58308362D01*
X224129194Y-58349635D01*
X224208927Y-58371000D01*
X224208930Y-58371000D01*
X224291470Y-58371000D01*
X224291473Y-58371000D01*
X224371206Y-58349635D01*
X224442693Y-58308362D01*
X224501062Y-58249993D01*
X224542335Y-58178506D01*
X224563700Y-58098773D01*
X224563700Y-58016227D01*
X224542335Y-57936494D01*
X224538643Y-57930100D01*
X224528313Y-57912208D01*
X224501062Y-57865007D01*
X224501061Y-57865006D01*
X224501057Y-57865001D01*
X224442698Y-57806642D01*
X224442693Y-57806638D01*
X224371206Y-57765365D01*
X224371207Y-57765365D01*
X224351272Y-57760023D01*
X224291473Y-57744000D01*
X224291470Y-57744000D01*
X224240900Y-57744000D01*
X224223647Y-57736853D01*
X224216500Y-57719600D01*
X224216500Y-56334930D01*
X224223647Y-56317677D01*
X224547547Y-55993777D01*
X224564800Y-55986630D01*
X224582053Y-55993777D01*
X224589200Y-56011030D01*
X224589200Y-56028673D01*
X224602812Y-56079473D01*
X224610565Y-56108407D01*
X224651838Y-56179893D01*
X224651842Y-56179898D01*
X224688391Y-56216447D01*
X224695538Y-56233700D01*
X224688391Y-56250953D01*
X224671138Y-56258100D01*
X224658227Y-56258100D01*
X224610387Y-56270919D01*
X224578492Y-56279465D01*
X224507006Y-56320738D01*
X224507001Y-56320742D01*
X224448642Y-56379101D01*
X224448638Y-56379106D01*
X224407365Y-56450592D01*
X224398012Y-56485499D01*
X224386000Y-56530327D01*
X224386000Y-56612873D01*
X224392777Y-56638163D01*
X224407365Y-56692607D01*
X224448638Y-56764093D01*
X224448642Y-56764098D01*
X224507001Y-56822457D01*
X224507006Y-56822461D01*
X224507007Y-56822462D01*
X224578494Y-56863735D01*
X224658227Y-56885100D01*
X224658230Y-56885100D01*
X224740770Y-56885100D01*
X224740773Y-56885100D01*
X224820506Y-56863735D01*
X224891993Y-56822462D01*
X224950362Y-56764093D01*
X224991635Y-56692606D01*
X225013000Y-56612873D01*
X225013000Y-56530327D01*
X224991635Y-56450594D01*
X224950362Y-56379107D01*
X224950361Y-56379106D01*
X224950357Y-56379101D01*
X224913809Y-56342553D01*
X224906662Y-56325300D01*
X224913809Y-56308047D01*
X224931062Y-56300900D01*
X224943970Y-56300900D01*
X224943973Y-56300900D01*
X225023706Y-56279535D01*
X225095193Y-56238262D01*
X225099146Y-56234308D01*
X225116398Y-56227161D01*
X225133652Y-56234306D01*
X225140800Y-56251559D01*
X225140800Y-58120294D01*
X225133653Y-58137547D01*
X224644964Y-58626235D01*
X224627711Y-58633382D01*
X224621396Y-58632551D01*
X224575673Y-58620300D01*
X224493127Y-58620300D01*
X224447407Y-58632551D01*
X224413392Y-58641665D01*
X224341906Y-58682938D01*
X224341901Y-58682942D01*
X224283542Y-58741301D01*
X224283538Y-58741306D01*
X224242265Y-58812792D01*
X224233152Y-58846802D01*
X224220900Y-58892527D01*
X224220900Y-58975073D01*
X224234412Y-59025499D01*
X224242265Y-59054807D01*
X224283538Y-59126293D01*
X224283542Y-59126298D01*
X224341901Y-59184657D01*
X224341906Y-59184661D01*
X224341907Y-59184662D01*
X224413394Y-59225935D01*
X224474848Y-59242402D01*
X224489663Y-59253770D01*
X224492101Y-59272285D01*
X224480732Y-59287101D01*
X224459723Y-59299231D01*
X224447523Y-59302500D01*
X223256006Y-59302500D01*
X223238753Y-59295353D01*
X222907125Y-58963725D01*
X222899978Y-58946472D01*
X222907125Y-58929219D01*
X222924378Y-58922072D01*
X222930689Y-58922903D01*
X222956427Y-58929800D01*
X222956430Y-58929800D01*
X223038970Y-58929800D01*
X223038973Y-58929800D01*
X223118706Y-58908435D01*
X223190193Y-58867162D01*
X223248562Y-58808793D01*
X223289835Y-58737306D01*
X223311200Y-58657573D01*
X223311200Y-58575027D01*
X223289835Y-58495294D01*
X223288188Y-58492442D01*
X223270542Y-58461878D01*
X223248562Y-58423807D01*
X223248561Y-58423806D01*
X223248557Y-58423801D01*
X223245747Y-58420991D01*
X223238600Y-58403738D01*
X223238600Y-57651064D01*
X223238601Y-57651055D01*
X223238601Y-57552384D01*
X223238601Y-57552382D01*
X223212226Y-57488708D01*
X223201926Y-57463841D01*
X223201924Y-57463839D01*
X223201923Y-57463837D01*
X223132776Y-57394690D01*
X223132761Y-57394677D01*
X222229747Y-56491663D01*
X222222600Y-56474410D01*
X222222600Y-55075884D01*
X222222600Y-55075882D01*
X222220071Y-55069778D01*
X222220071Y-55051106D01*
X222233275Y-55037900D01*
X222248926Y-55036873D01*
X222321427Y-55056300D01*
X222321430Y-55056300D01*
X222403970Y-55056300D01*
X222403973Y-55056300D01*
X222483706Y-55034935D01*
X222555193Y-54993662D01*
X222613562Y-54935293D01*
X222654835Y-54863806D01*
X222676200Y-54784073D01*
X222676200Y-54780089D01*
X222683346Y-54762837D01*
X223400857Y-54045326D01*
X223400859Y-54045326D01*
X223468626Y-53977559D01*
X223501325Y-53898615D01*
X223505300Y-53889019D01*
X223505300Y-53793182D01*
X223505300Y-52632792D01*
X223512447Y-52615539D01*
X223517497Y-52611662D01*
X223571193Y-52580662D01*
X223629562Y-52522293D01*
X223670835Y-52450806D01*
X223692200Y-52371073D01*
X223692200Y-52288527D01*
X223670835Y-52208794D01*
X223629562Y-52137307D01*
X223629561Y-52137306D01*
X223629557Y-52137301D01*
X223626747Y-52134491D01*
X223619600Y-52117238D01*
X223619600Y-50399320D01*
X223619601Y-50399311D01*
X223619601Y-50300640D01*
X223619601Y-50300638D01*
X223593903Y-50238599D01*
X223582926Y-50212098D01*
X223582924Y-50212096D01*
X223582923Y-50212094D01*
X223513776Y-50142947D01*
X223513761Y-50142934D01*
X223452280Y-50081453D01*
X223445133Y-50064200D01*
X223452280Y-50046947D01*
X223469533Y-50039800D01*
X223546970Y-50039800D01*
X223546973Y-50039800D01*
X223626706Y-50018435D01*
X223698193Y-49977162D01*
X223756562Y-49918793D01*
X223770320Y-49894963D01*
X223785135Y-49883595D01*
X223803650Y-49886033D01*
X223812579Y-49894962D01*
X223819015Y-49906109D01*
X223826338Y-49918793D01*
X223826342Y-49918798D01*
X223884701Y-49977157D01*
X223884706Y-49977161D01*
X223884707Y-49977162D01*
X223956194Y-50018435D01*
X224035927Y-50039800D01*
X224035930Y-50039800D01*
X224118470Y-50039800D01*
X224118473Y-50039800D01*
X224198206Y-50018435D01*
X224269693Y-49977162D01*
X224328062Y-49918793D01*
X224369335Y-49847306D01*
X224390700Y-49767573D01*
X224390700Y-49685027D01*
X224369335Y-49605294D01*
X224328062Y-49533807D01*
X224328061Y-49533806D01*
X224328057Y-49533801D01*
X224269698Y-49475442D01*
X224269693Y-49475438D01*
X224198206Y-49434165D01*
X224198207Y-49434165D01*
X224178272Y-49428823D01*
X224118473Y-49412800D01*
X224035927Y-49412800D01*
X223988087Y-49425619D01*
X223956192Y-49434165D01*
X223884706Y-49475438D01*
X223884701Y-49475442D01*
X223826342Y-49533801D01*
X223826341Y-49533803D01*
X223826339Y-49533805D01*
X223826338Y-49533807D01*
X223812581Y-49557635D01*
X223797765Y-49569003D01*
X223779249Y-49566565D01*
X223770319Y-49557635D01*
X223756562Y-49533807D01*
X223756558Y-49533803D01*
X223756557Y-49533801D01*
X223698198Y-49475442D01*
X223698193Y-49475438D01*
X223626706Y-49434165D01*
X223626707Y-49434165D01*
X223606772Y-49428823D01*
X223546973Y-49412800D01*
X223464427Y-49412800D01*
X223416587Y-49425619D01*
X223384692Y-49434165D01*
X223313206Y-49475438D01*
X223313201Y-49475442D01*
X223258453Y-49530191D01*
X223241200Y-49537338D01*
X223223947Y-49530191D01*
X223216800Y-49512938D01*
X223216800Y-49260021D01*
X223223946Y-49242769D01*
X224268057Y-48198658D01*
X224268059Y-48198658D01*
X224335826Y-48130891D01*
X224354163Y-48086620D01*
X224372501Y-48042350D01*
X224372501Y-47946513D01*
X224372501Y-47944553D01*
X224372500Y-47944539D01*
X224372500Y-47825993D01*
X224379647Y-47808740D01*
X224382462Y-47805925D01*
X224423735Y-47734438D01*
X224445100Y-47654705D01*
X224445100Y-47572159D01*
X224423735Y-47492426D01*
X224382462Y-47420939D01*
X224382461Y-47420938D01*
X224382457Y-47420933D01*
X224324098Y-47362574D01*
X224324093Y-47362570D01*
X224252606Y-47321297D01*
X224252607Y-47321297D01*
X224230199Y-47315293D01*
X224172873Y-47299932D01*
X224090327Y-47299932D01*
X224042487Y-47312751D01*
X224010592Y-47321297D01*
X224005300Y-47324353D01*
X223986784Y-47326791D01*
X223971969Y-47315422D01*
X223968700Y-47303222D01*
X223968700Y-47260003D01*
X223935055Y-47134439D01*
X223934950Y-47134258D01*
X223911475Y-47093598D01*
X223870058Y-47021861D01*
X223870057Y-47021860D01*
X223870053Y-47021855D01*
X223778144Y-46929946D01*
X223778139Y-46929942D01*
X223665561Y-46864945D01*
X223665562Y-46864945D01*
X223539997Y-46831300D01*
X223410003Y-46831300D01*
X223284437Y-46864945D01*
X223171860Y-46929942D01*
X223171855Y-46929946D01*
X223079946Y-47021855D01*
X223079942Y-47021860D01*
X223014945Y-47134437D01*
X222981300Y-47260002D01*
X222981300Y-47389997D01*
X223014945Y-47515562D01*
X223079942Y-47628139D01*
X223079946Y-47628144D01*
X223171855Y-47720053D01*
X223171860Y-47720057D01*
X223171861Y-47720058D01*
X223284439Y-47785055D01*
X223410003Y-47818700D01*
X223539997Y-47818700D01*
X223665561Y-47785055D01*
X223778139Y-47720058D01*
X223793582Y-47704614D01*
X223810834Y-47697467D01*
X223828087Y-47704613D01*
X223834403Y-47715551D01*
X223839463Y-47734434D01*
X223839465Y-47734438D01*
X223880738Y-47805925D01*
X223883551Y-47808738D01*
X223890700Y-47825990D01*
X223890700Y-47884541D01*
X223883553Y-47901794D01*
X223364355Y-48420992D01*
X222839442Y-48945905D01*
X222839441Y-48945906D01*
X222819098Y-48966249D01*
X222771674Y-49013672D01*
X222757518Y-49047850D01*
X222757518Y-49047851D01*
X222734999Y-49102214D01*
X222734999Y-49200887D01*
X222735000Y-49200896D01*
X222735000Y-49895864D01*
X222734999Y-49895878D01*
X222734999Y-49897838D01*
X222734999Y-49993676D01*
X222756483Y-50045541D01*
X222771674Y-50082216D01*
X222839441Y-50149983D01*
X222839442Y-50149983D01*
X222842873Y-50153414D01*
X222842872Y-50153414D01*
X222842874Y-50153415D01*
X222872105Y-50182646D01*
X222879252Y-50199899D01*
X222872105Y-50217152D01*
X222854852Y-50224299D01*
X222843775Y-50221640D01*
X222786395Y-50192404D01*
X222691418Y-50177361D01*
X221973296Y-50177361D01*
X221973296Y-50761161D01*
X223065096Y-50761161D01*
X223065096Y-50551038D01*
X223050052Y-50456061D01*
X223020816Y-50398681D01*
X223019351Y-50380064D01*
X223031480Y-50365863D01*
X223050097Y-50364398D01*
X223059810Y-50370351D01*
X223130653Y-50441194D01*
X223137800Y-50458447D01*
X223137800Y-52117238D01*
X223130653Y-52134491D01*
X223127842Y-52137301D01*
X223127838Y-52137306D01*
X223086565Y-52208792D01*
X223077428Y-52242893D01*
X223065200Y-52288527D01*
X223065200Y-52288529D01*
X223065200Y-52292717D01*
X223063121Y-52302572D01*
X223061443Y-52306371D01*
X223060174Y-52307641D01*
X223049503Y-52333404D01*
X223049427Y-52333587D01*
X223049391Y-52333669D01*
X223031594Y-52376635D01*
X223018389Y-52389840D01*
X222999714Y-52389839D01*
X222986938Y-52377609D01*
X222986484Y-52376635D01*
X222944389Y-52286362D01*
X222944388Y-52286361D01*
X222944388Y-52286360D01*
X222858982Y-52200954D01*
X222749514Y-52149909D01*
X222749509Y-52149907D01*
X222699643Y-52143343D01*
X221095359Y-52143343D01*
X221072885Y-52146302D01*
X221054847Y-52141468D01*
X221052448Y-52139364D01*
X220870847Y-51957763D01*
X220863700Y-51940510D01*
X220863700Y-51447507D01*
X220870847Y-51430254D01*
X220888100Y-51423107D01*
X220899177Y-51425766D01*
X221008596Y-51481517D01*
X221103574Y-51496561D01*
X221233177Y-51496561D01*
X221250430Y-51503708D01*
X221257577Y-51520961D01*
X221250430Y-51538214D01*
X221222842Y-51565801D01*
X221222838Y-51565806D01*
X221181565Y-51637292D01*
X221175515Y-51659873D01*
X221160200Y-51717027D01*
X221160200Y-51799573D01*
X221174010Y-51851110D01*
X221181565Y-51879307D01*
X221222838Y-51950793D01*
X221222842Y-51950798D01*
X221281201Y-52009157D01*
X221281206Y-52009161D01*
X221281207Y-52009162D01*
X221352694Y-52050435D01*
X221432427Y-52071800D01*
X221432430Y-52071800D01*
X221514970Y-52071800D01*
X221514973Y-52071800D01*
X221594706Y-52050435D01*
X221666193Y-52009162D01*
X221724562Y-51950793D01*
X221757445Y-51893838D01*
X221772261Y-51882469D01*
X221790776Y-51884907D01*
X221795829Y-51888785D01*
X221852701Y-51945657D01*
X221852706Y-51945661D01*
X221852707Y-51945662D01*
X221924194Y-51986935D01*
X222003927Y-52008300D01*
X222003930Y-52008300D01*
X222086470Y-52008300D01*
X222086473Y-52008300D01*
X222166206Y-51986935D01*
X222237693Y-51945662D01*
X222296062Y-51887293D01*
X222337335Y-51815806D01*
X222358700Y-51736073D01*
X222358700Y-51653527D01*
X222337335Y-51573794D01*
X222313874Y-51533159D01*
X222311437Y-51514646D01*
X222322806Y-51499830D01*
X222335006Y-51496561D01*
X222691418Y-51496561D01*
X222786395Y-51481517D01*
X222900875Y-51423188D01*
X222991723Y-51332340D01*
X223050052Y-51217860D01*
X223065096Y-51122883D01*
X223065096Y-50912761D01*
X221921896Y-50912761D01*
X221904643Y-50905614D01*
X221897496Y-50888361D01*
X221897496Y-50836961D01*
X221846096Y-50836961D01*
X221828843Y-50829814D01*
X221821696Y-50812561D01*
X221821696Y-50177361D01*
X221103574Y-50177361D01*
X221008596Y-50192404D01*
X220899177Y-50248155D01*
X220880560Y-50249620D01*
X220866359Y-50237491D01*
X220863700Y-50226414D01*
X220863700Y-48859527D01*
X220969700Y-48859527D01*
X220969700Y-48942073D01*
X220978886Y-48976355D01*
X220991065Y-49021807D01*
X221032338Y-49093293D01*
X221032342Y-49093298D01*
X221090701Y-49151657D01*
X221090706Y-49151661D01*
X221090707Y-49151662D01*
X221162194Y-49192935D01*
X221241927Y-49214300D01*
X221241930Y-49214300D01*
X221324470Y-49214300D01*
X221324473Y-49214300D01*
X221404206Y-49192935D01*
X221475693Y-49151662D01*
X221534062Y-49093293D01*
X221575335Y-49021806D01*
X221596700Y-48942073D01*
X221596700Y-48859527D01*
X221588718Y-48829739D01*
X221591156Y-48811226D01*
X221605972Y-48799857D01*
X221624487Y-48802295D01*
X221627140Y-48804067D01*
X221695462Y-48856493D01*
X221716601Y-48868698D01*
X221851479Y-48924565D01*
X221875054Y-48930882D01*
X221875058Y-48930882D01*
X221875060Y-48930883D01*
X222019789Y-48949938D01*
X222019795Y-48949938D01*
X222044211Y-48949938D01*
X222188939Y-48930883D01*
X222188939Y-48930882D01*
X222188946Y-48930882D01*
X222212521Y-48924565D01*
X222347399Y-48868698D01*
X222368538Y-48856493D01*
X222484360Y-48767619D01*
X222501619Y-48750360D01*
X222590493Y-48634538D01*
X222602698Y-48613399D01*
X222658565Y-48478521D01*
X222664882Y-48454946D01*
X222683500Y-48313535D01*
X222684300Y-48301330D01*
X222684300Y-47402312D01*
X222684300Y-47402306D01*
X222681115Y-47378119D01*
X222681114Y-47378117D01*
X222681114Y-47378113D01*
X222608709Y-47107892D01*
X222592573Y-47075171D01*
X222501619Y-46956639D01*
X222484360Y-46939381D01*
X222368538Y-46850507D01*
X222347399Y-46838302D01*
X222212521Y-46782435D01*
X222188946Y-46776118D01*
X222188939Y-46776116D01*
X222040822Y-46756616D01*
X222040819Y-46756616D01*
X222040818Y-46756616D01*
X222016548Y-46758206D01*
X222004412Y-46759002D01*
X221816697Y-46809300D01*
X221730892Y-46832291D01*
X221730891Y-46832291D01*
X221730889Y-46832292D01*
X221698174Y-46848425D01*
X221698172Y-46848426D01*
X221698171Y-46848427D01*
X221676645Y-46864945D01*
X221579637Y-46939382D01*
X221579636Y-46939383D01*
X221562382Y-46956638D01*
X221562381Y-46956639D01*
X221473507Y-47072462D01*
X221461303Y-47093598D01*
X221461302Y-47093601D01*
X221432114Y-47164070D01*
X221405434Y-47228482D01*
X221399116Y-47252060D01*
X221380499Y-47393469D01*
X221379700Y-47405671D01*
X221379700Y-48301328D01*
X221380499Y-48313530D01*
X221399116Y-48454939D01*
X221399118Y-48454946D01*
X221405435Y-48478521D01*
X221449164Y-48584094D01*
X221449164Y-48602769D01*
X221435958Y-48615974D01*
X221417283Y-48615974D01*
X221414421Y-48614562D01*
X221404207Y-48608665D01*
X221375395Y-48600945D01*
X221324473Y-48587300D01*
X221241927Y-48587300D01*
X221194087Y-48600119D01*
X221162192Y-48608665D01*
X221090706Y-48649938D01*
X221090701Y-48649942D01*
X221032342Y-48708301D01*
X221032338Y-48708306D01*
X220991065Y-48779792D01*
X220980382Y-48819660D01*
X220969700Y-48859527D01*
X220863700Y-48859527D01*
X220863700Y-46833515D01*
X220870847Y-46816262D01*
X221205262Y-46481847D01*
X221222515Y-46474700D01*
X223356638Y-46474700D01*
X223373891Y-46481847D01*
X223376701Y-46484657D01*
X223376706Y-46484661D01*
X223376707Y-46484662D01*
X223448194Y-46525935D01*
X223527927Y-46547300D01*
X223527930Y-46547300D01*
X223610470Y-46547300D01*
X223610473Y-46547300D01*
X223690206Y-46525935D01*
X223761693Y-46484662D01*
X223820062Y-46426293D01*
X223861335Y-46354806D01*
X223882700Y-46275073D01*
X223882700Y-46192527D01*
X223861335Y-46112794D01*
X223820062Y-46041307D01*
X223820061Y-46041306D01*
X223820057Y-46041301D01*
X223761698Y-45982942D01*
X223761693Y-45982938D01*
X223690206Y-45941665D01*
X223690207Y-45941665D01*
X223670272Y-45936323D01*
X223610473Y-45920300D01*
X223527927Y-45920300D01*
X223480087Y-45933119D01*
X223448192Y-45941665D01*
X223376706Y-45982938D01*
X223376701Y-45982942D01*
X223373891Y-45985753D01*
X223356638Y-45992900D01*
X221163388Y-45992900D01*
X221163380Y-45992899D01*
X221160543Y-45992899D01*
X221106532Y-45992899D01*
X221089279Y-45985752D01*
X221082132Y-45968499D01*
X221089279Y-45951246D01*
X221289726Y-45750800D01*
X221523879Y-45516647D01*
X221541132Y-45509500D01*
X223443359Y-45509500D01*
X223449669Y-45510330D01*
X223527927Y-45531300D01*
X223527930Y-45531300D01*
X223610470Y-45531300D01*
X223610473Y-45531300D01*
X223690206Y-45509935D01*
X223761693Y-45468662D01*
X223820062Y-45410293D01*
X223861335Y-45338806D01*
X223882700Y-45259073D01*
X223882700Y-45176527D01*
X223861335Y-45096794D01*
X223852605Y-45081674D01*
X223841281Y-45062060D01*
X223820062Y-45025307D01*
X223820061Y-45025306D01*
X223820057Y-45025301D01*
X223761698Y-44966942D01*
X223761693Y-44966938D01*
X223690206Y-44925665D01*
X223690207Y-44925665D01*
X223670272Y-44920323D01*
X223610473Y-44904300D01*
X223527927Y-44904300D01*
X223449669Y-44925269D01*
X223443359Y-44926100D01*
X221371797Y-44926100D01*
X221297606Y-44945979D01*
X221231091Y-44984382D01*
X221231086Y-44984386D01*
X220829153Y-45386320D01*
X220811900Y-45393467D01*
X220794647Y-45386320D01*
X220787500Y-45369067D01*
X220787500Y-44751459D01*
X220794647Y-44734206D01*
X220799701Y-44730328D01*
X220840687Y-44706666D01*
X220840688Y-44706665D01*
X220840688Y-44706664D01*
X220840693Y-44706662D01*
X220899062Y-44648293D01*
X220940335Y-44576806D01*
X220961700Y-44497073D01*
X220961700Y-44414527D01*
X220940335Y-44334794D01*
X220899062Y-44263307D01*
X220899061Y-44263306D01*
X220899057Y-44263301D01*
X220840698Y-44204942D01*
X220840693Y-44204938D01*
X220769206Y-44163665D01*
X220769207Y-44163665D01*
X220749272Y-44158323D01*
X220689473Y-44142300D01*
X220606927Y-44142300D01*
X220559087Y-44155119D01*
X220527192Y-44163665D01*
X220455706Y-44204938D01*
X220455701Y-44204942D01*
X220397342Y-44263301D01*
X220397338Y-44263306D01*
X220356065Y-44334792D01*
X220354802Y-44339506D01*
X220334700Y-44414527D01*
X220334700Y-44497073D01*
X220349426Y-44552029D01*
X220356065Y-44576807D01*
X220397338Y-44648293D01*
X220455707Y-44706662D01*
X220455709Y-44706663D01*
X220455711Y-44706665D01*
X220455712Y-44706666D01*
X220496699Y-44730328D01*
X220508068Y-44745143D01*
X220508900Y-44751459D01*
X220508900Y-45409094D01*
X220501753Y-45426347D01*
X219731094Y-46197006D01*
X219731093Y-46197007D01*
X219711500Y-46216600D01*
X219691907Y-46236192D01*
X219670700Y-46287392D01*
X219670700Y-47698705D01*
X219663553Y-47715958D01*
X219646300Y-47723105D01*
X219629047Y-47715958D01*
X219622512Y-47704135D01*
X219621272Y-47698705D01*
X219621248Y-47698599D01*
X219565807Y-47540157D01*
X219556722Y-47521293D01*
X219467413Y-47379160D01*
X219454359Y-47362791D01*
X219335664Y-47244096D01*
X219319295Y-47231042D01*
X219174700Y-47140186D01*
X219160827Y-47134439D01*
X219145762Y-47128198D01*
X219145756Y-47128196D01*
X218828707Y-47055832D01*
X218827402Y-47055685D01*
X218807892Y-47053487D01*
X218807887Y-47053487D01*
X217700800Y-47053487D01*
X217683547Y-47046340D01*
X217676400Y-47029087D01*
X217676400Y-46350487D01*
X217683547Y-46333234D01*
X217700800Y-46326087D01*
X218805010Y-46326087D01*
X218805021Y-46326087D01*
X218815490Y-46325499D01*
X218979444Y-46307026D01*
X218999856Y-46302367D01*
X219158298Y-46246926D01*
X219177162Y-46237841D01*
X219319295Y-46148532D01*
X219335664Y-46135478D01*
X219454359Y-46016783D01*
X219467413Y-46000414D01*
X219558269Y-45855819D01*
X219570257Y-45826880D01*
X219642624Y-45509817D01*
X219644968Y-45489011D01*
X219644968Y-45353434D01*
X219644380Y-45342965D01*
X219625907Y-45179011D01*
X219621248Y-45158599D01*
X219565807Y-45000157D01*
X219556722Y-44981293D01*
X219467413Y-44839160D01*
X219454359Y-44822791D01*
X219335664Y-44704096D01*
X219319295Y-44691042D01*
X219174700Y-44600186D01*
X219174698Y-44600185D01*
X219145762Y-44588198D01*
X219145756Y-44588196D01*
X218828707Y-44515832D01*
X218827402Y-44515685D01*
X218807892Y-44513487D01*
X218807887Y-44513487D01*
X217700800Y-44513487D01*
X217683547Y-44506340D01*
X217676400Y-44489087D01*
X217676400Y-43606373D01*
X217678916Y-43595581D01*
X217707345Y-43537933D01*
X217708941Y-43535169D01*
X217845482Y-43330821D01*
X217847410Y-43328308D01*
X218009463Y-43143523D01*
X218011705Y-43141281D01*
X218196490Y-42979228D01*
X218199003Y-42977300D01*
X218403354Y-42840756D01*
X218406111Y-42839165D01*
X218626545Y-42730458D01*
X218629465Y-42729249D01*
X218862210Y-42650243D01*
X218865254Y-42649427D01*
X219099816Y-42602771D01*
X219101006Y-42602566D01*
X219112222Y-42600954D01*
X219114052Y-42600763D01*
X219355504Y-42584937D01*
X219357100Y-42584885D01*
X219358067Y-42584885D01*
X221756067Y-42584885D01*
X221773320Y-42592032D01*
G37*
%TD.AperFunction*%
%TA.AperFunction,Conductor*%
G36*
X221711853Y-54792007D02*
G01*
X221719000Y-54809260D01*
X221719000Y-55013387D01*
X221719000Y-55089013D01*
X221730927Y-55117807D01*
X221738943Y-55137159D01*
X221740800Y-55146496D01*
X221740800Y-56534407D01*
X221740799Y-56534421D01*
X221740799Y-56536381D01*
X221740799Y-56632219D01*
X221762283Y-56684084D01*
X221777474Y-56720759D01*
X221845241Y-56788526D01*
X221845242Y-56788526D01*
X221848673Y-56791957D01*
X221848672Y-56791957D01*
X221848674Y-56791958D01*
X222749653Y-57692937D01*
X222756800Y-57710190D01*
X222756800Y-58403738D01*
X222752668Y-58417324D01*
X222751340Y-58419304D01*
X222746838Y-58423807D01*
X222737621Y-58439770D01*
X222737168Y-58440447D01*
X222730024Y-58445204D01*
X222723215Y-58450430D01*
X222722350Y-58450316D01*
X222721625Y-58450799D01*
X222713212Y-58449112D01*
X222704700Y-58447992D01*
X222704169Y-58447300D01*
X222703314Y-58447129D01*
X222698556Y-58439985D01*
X222693331Y-58433176D01*
X222693161Y-58431884D01*
X222692962Y-58431586D01*
X222693053Y-58431065D01*
X222692500Y-58426861D01*
X222692500Y-57763091D01*
X222692499Y-57763089D01*
X222691800Y-57761401D01*
X222691798Y-57761398D01*
X222671293Y-57711893D01*
X222671292Y-57711892D01*
X222671290Y-57711889D01*
X221242747Y-56283346D01*
X221235600Y-56266093D01*
X221235600Y-54997505D01*
X221242747Y-54980252D01*
X221291698Y-54931301D01*
X221363136Y-54859862D01*
X221380388Y-54852716D01*
X221386696Y-54853546D01*
X221432427Y-54865800D01*
X221432430Y-54865800D01*
X221514970Y-54865800D01*
X221514973Y-54865800D01*
X221594706Y-54844435D01*
X221666193Y-54803162D01*
X221677347Y-54792007D01*
X221694599Y-54784861D01*
X221711853Y-54792007D01*
G37*
%TD.AperFunction*%
%TA.AperFunction,Conductor*%
G36*
X231847591Y-55778247D02*
G01*
X231854738Y-55795500D01*
X231847806Y-55812536D01*
X231847687Y-55812657D01*
X231827338Y-55833007D01*
X231826609Y-55834268D01*
X231826609Y-55834269D01*
X231786065Y-55904492D01*
X231779259Y-55929892D01*
X231764700Y-55984227D01*
X231764700Y-56066773D01*
X231775856Y-56108406D01*
X231786065Y-56146507D01*
X231827338Y-56217993D01*
X231827342Y-56217998D01*
X231885701Y-56276357D01*
X231885706Y-56276361D01*
X231885707Y-56276362D01*
X231957194Y-56317635D01*
X232036927Y-56339000D01*
X232036930Y-56339000D01*
X232119470Y-56339000D01*
X232119473Y-56339000D01*
X232199206Y-56317635D01*
X232270693Y-56276362D01*
X232329062Y-56217993D01*
X232370335Y-56146506D01*
X232391700Y-56066773D01*
X232391700Y-55984227D01*
X232370335Y-55904494D01*
X232365311Y-55895793D01*
X232358486Y-55883971D01*
X232329062Y-55833007D01*
X232329061Y-55833006D01*
X232329057Y-55833001D01*
X232308809Y-55812753D01*
X232301662Y-55795500D01*
X232308809Y-55778247D01*
X232326062Y-55771100D01*
X233063187Y-55771100D01*
X233080440Y-55778247D01*
X233087434Y-55792768D01*
X233089655Y-55812484D01*
X233090748Y-55822180D01*
X233095405Y-55842582D01*
X233095405Y-55842583D01*
X233150843Y-56001018D01*
X233150846Y-56001024D01*
X233150847Y-56001027D01*
X233159932Y-56019891D01*
X233215550Y-56108406D01*
X233241077Y-56149032D01*
X233249241Y-56162024D01*
X233262295Y-56178393D01*
X233380990Y-56297088D01*
X233397359Y-56310142D01*
X233541954Y-56400998D01*
X233570893Y-56412986D01*
X233570896Y-56412986D01*
X233570897Y-56412987D01*
X233887946Y-56485351D01*
X233887948Y-56485351D01*
X233887956Y-56485353D01*
X233908762Y-56487697D01*
X235025600Y-56487697D01*
X235042853Y-56494844D01*
X235050000Y-56512097D01*
X235050000Y-57190697D01*
X235042853Y-57207950D01*
X235025600Y-57215097D01*
X233911632Y-57215097D01*
X233910289Y-57215172D01*
X233901164Y-57215685D01*
X233901157Y-57215685D01*
X233901153Y-57215686D01*
X233789725Y-57228241D01*
X233737210Y-57234158D01*
X233737209Y-57234158D01*
X233737202Y-57234159D01*
X233716800Y-57238816D01*
X233716794Y-57238818D01*
X233651386Y-57261704D01*
X233632741Y-57260656D01*
X233626075Y-57255926D01*
X233069475Y-56699326D01*
X233069474Y-56699324D01*
X233069474Y-56699325D01*
X233066043Y-56695894D01*
X233066043Y-56695893D01*
X233026857Y-56656707D01*
X232981752Y-56638024D01*
X232981752Y-56638023D01*
X232981750Y-56638023D01*
X232975659Y-56635500D01*
X231422106Y-56635500D01*
X231404853Y-56628353D01*
X230925263Y-56148763D01*
X230918116Y-56131510D01*
X230918948Y-56125194D01*
X230931200Y-56079473D01*
X230931200Y-55996927D01*
X230909835Y-55917194D01*
X230868562Y-55845707D01*
X230868561Y-55845706D01*
X230868557Y-55845701D01*
X230835609Y-55812753D01*
X230828462Y-55795500D01*
X230835609Y-55778247D01*
X230852862Y-55771100D01*
X231830338Y-55771100D01*
X231847591Y-55778247D01*
G37*
%TD.AperFunction*%
%TA.AperFunction,Conductor*%
G36*
X228164591Y-51231647D02*
G01*
X228171738Y-51248900D01*
X228164591Y-51266153D01*
X228118942Y-51311801D01*
X228118938Y-51311806D01*
X228077665Y-51383292D01*
X228071557Y-51406087D01*
X228056300Y-51463027D01*
X228056300Y-51545573D01*
X228063862Y-51573794D01*
X228077665Y-51625307D01*
X228118938Y-51696793D01*
X228118942Y-51696798D01*
X228177301Y-51755157D01*
X228177306Y-51755161D01*
X228177307Y-51755162D01*
X228248794Y-51796435D01*
X228328527Y-51817800D01*
X228328530Y-51817800D01*
X228411070Y-51817800D01*
X228411073Y-51817800D01*
X228429899Y-51812755D01*
X228448413Y-51815191D01*
X228459782Y-51830007D01*
X228457346Y-51848522D01*
X228453469Y-51853575D01*
X228449138Y-51857906D01*
X228407865Y-51929392D01*
X228401482Y-51953214D01*
X228386500Y-52009127D01*
X228386500Y-52091673D01*
X228398728Y-52137306D01*
X228407865Y-52171407D01*
X228449138Y-52242893D01*
X228449142Y-52242898D01*
X228507501Y-52301257D01*
X228507506Y-52301261D01*
X228507507Y-52301262D01*
X228578994Y-52342535D01*
X228658727Y-52363900D01*
X228658730Y-52363900D01*
X228741270Y-52363900D01*
X228741273Y-52363900D01*
X228786995Y-52351648D01*
X228805510Y-52354085D01*
X228810563Y-52357963D01*
X229154493Y-52701893D01*
X229205692Y-52723100D01*
X229205694Y-52723100D01*
X231547109Y-52723100D01*
X231569227Y-52713938D01*
X231598307Y-52701893D01*
X231637493Y-52662707D01*
X231637493Y-52662706D01*
X231640924Y-52659275D01*
X231640924Y-52659273D01*
X232247036Y-52053162D01*
X232264288Y-52046016D01*
X232270596Y-52046846D01*
X232316327Y-52059100D01*
X232316330Y-52059100D01*
X232398870Y-52059100D01*
X232398873Y-52059100D01*
X232478606Y-52037735D01*
X232550093Y-51996462D01*
X232608462Y-51938093D01*
X232649735Y-51866606D01*
X232671100Y-51786873D01*
X232671100Y-51704327D01*
X232649735Y-51624594D01*
X232608462Y-51553107D01*
X232608461Y-51553106D01*
X232608457Y-51553101D01*
X232550098Y-51494742D01*
X232550093Y-51494738D01*
X232478606Y-51453465D01*
X232478607Y-51453465D01*
X232456371Y-51447507D01*
X232398873Y-51432100D01*
X232316327Y-51432100D01*
X232272148Y-51443938D01*
X232236592Y-51453465D01*
X232165106Y-51494738D01*
X232165101Y-51494742D01*
X232106742Y-51553101D01*
X232106738Y-51553106D01*
X232065465Y-51624592D01*
X232056012Y-51659873D01*
X232044100Y-51704327D01*
X232044100Y-51704329D01*
X232044100Y-51786873D01*
X232056351Y-51832595D01*
X232053913Y-51851110D01*
X232050035Y-51856163D01*
X231468848Y-52437353D01*
X231451595Y-52444500D01*
X229301206Y-52444500D01*
X229283953Y-52437353D01*
X229007563Y-52160963D01*
X229000416Y-52143710D01*
X229001248Y-52137394D01*
X229013500Y-52091673D01*
X229013500Y-52009127D01*
X228992135Y-51929394D01*
X228988816Y-51923646D01*
X228963217Y-51879307D01*
X228950862Y-51857907D01*
X228950861Y-51857906D01*
X228950857Y-51857901D01*
X228892498Y-51799542D01*
X228892493Y-51799538D01*
X228821006Y-51758265D01*
X228821007Y-51758265D01*
X228801072Y-51752923D01*
X228741273Y-51736900D01*
X228658727Y-51736900D01*
X228639899Y-51741944D01*
X228621385Y-51739507D01*
X228610016Y-51724691D01*
X228612454Y-51706176D01*
X228616329Y-51701125D01*
X228620662Y-51696793D01*
X228661935Y-51625306D01*
X228683300Y-51545573D01*
X228683300Y-51463027D01*
X228661935Y-51383294D01*
X228620662Y-51311807D01*
X228620661Y-51311806D01*
X228620657Y-51311801D01*
X228575009Y-51266153D01*
X228567862Y-51248900D01*
X228575009Y-51231647D01*
X228592262Y-51224500D01*
X229661268Y-51224500D01*
X229678521Y-51231647D01*
X229823553Y-51376679D01*
X229830700Y-51393932D01*
X229830700Y-51594358D01*
X229829869Y-51600670D01*
X229808900Y-51678927D01*
X229808900Y-51761473D01*
X229819109Y-51799573D01*
X229830265Y-51841207D01*
X229871538Y-51912693D01*
X229871542Y-51912698D01*
X229929901Y-51971057D01*
X229929906Y-51971061D01*
X229929907Y-51971062D01*
X230001394Y-52012335D01*
X230081127Y-52033700D01*
X230081130Y-52033700D01*
X230163670Y-52033700D01*
X230163673Y-52033700D01*
X230243406Y-52012335D01*
X230314893Y-51971062D01*
X230373262Y-51912693D01*
X230414535Y-51841206D01*
X230435900Y-51761473D01*
X230435900Y-51678927D01*
X230414930Y-51600670D01*
X230414100Y-51594358D01*
X230414100Y-51368532D01*
X230421247Y-51351279D01*
X230540879Y-51231647D01*
X230558132Y-51224500D01*
X233381746Y-51224500D01*
X233396779Y-51229762D01*
X233396794Y-51229742D01*
X233396865Y-51229792D01*
X233396963Y-51229826D01*
X233397359Y-51230142D01*
X233541954Y-51320998D01*
X233570893Y-51332986D01*
X233570896Y-51332986D01*
X233570897Y-51332987D01*
X233887946Y-51405351D01*
X233887948Y-51405351D01*
X233887956Y-51405353D01*
X233908762Y-51407697D01*
X235025600Y-51407697D01*
X235042853Y-51414844D01*
X235050000Y-51432097D01*
X235050000Y-52110697D01*
X235042853Y-52127950D01*
X235025600Y-52135097D01*
X233911632Y-52135097D01*
X233910289Y-52135172D01*
X233901164Y-52135685D01*
X233901157Y-52135685D01*
X233901153Y-52135686D01*
X233793000Y-52147872D01*
X233737210Y-52154158D01*
X233737209Y-52154158D01*
X233737202Y-52154159D01*
X233716800Y-52158816D01*
X233716799Y-52158816D01*
X233558364Y-52214254D01*
X233558356Y-52214258D01*
X233539492Y-52223343D01*
X233539489Y-52223345D01*
X233397361Y-52312650D01*
X233380999Y-52325698D01*
X233380977Y-52325718D01*
X233262307Y-52444388D01*
X233262287Y-52444410D01*
X233249239Y-52460772D01*
X233210583Y-52522293D01*
X233158385Y-52605365D01*
X233153420Y-52617349D01*
X233146397Y-52634302D01*
X233146395Y-52634308D01*
X233074031Y-52951357D01*
X233074030Y-52951367D01*
X233071686Y-52972173D01*
X233071686Y-53107750D01*
X233071756Y-53109005D01*
X233072275Y-53118229D01*
X233076845Y-53158785D01*
X233087969Y-53257521D01*
X233090748Y-53282180D01*
X233095405Y-53302582D01*
X233095405Y-53302583D01*
X233150843Y-53461018D01*
X233150846Y-53461024D01*
X233150847Y-53461027D01*
X233159932Y-53479891D01*
X233219677Y-53574974D01*
X233242000Y-53610501D01*
X233249241Y-53622024D01*
X233262295Y-53638393D01*
X233380990Y-53757088D01*
X233397359Y-53770142D01*
X233541954Y-53860998D01*
X233570893Y-53872986D01*
X233570896Y-53872986D01*
X233570897Y-53872987D01*
X233887946Y-53945351D01*
X233887948Y-53945351D01*
X233887956Y-53945353D01*
X233908762Y-53947697D01*
X235025600Y-53947697D01*
X235042853Y-53954844D01*
X235050000Y-53972097D01*
X235050000Y-54650697D01*
X235042853Y-54667950D01*
X235025600Y-54675097D01*
X233911632Y-54675097D01*
X233910289Y-54675172D01*
X233901164Y-54675685D01*
X233901157Y-54675685D01*
X233901153Y-54675686D01*
X233785039Y-54688769D01*
X233737210Y-54694158D01*
X233737209Y-54694158D01*
X233737202Y-54694159D01*
X233716800Y-54698816D01*
X233716799Y-54698816D01*
X233558364Y-54754254D01*
X233558356Y-54754258D01*
X233539492Y-54763343D01*
X233539489Y-54763345D01*
X233397361Y-54852650D01*
X233380999Y-54865698D01*
X233380977Y-54865718D01*
X233262307Y-54984388D01*
X233262287Y-54984410D01*
X233249239Y-55000772D01*
X233158384Y-55145366D01*
X233146397Y-55174302D01*
X233146395Y-55174308D01*
X233078101Y-55473529D01*
X233067295Y-55488760D01*
X233054313Y-55492500D01*
X229522036Y-55492500D01*
X229504783Y-55485353D01*
X229460046Y-55440616D01*
X229447849Y-55433574D01*
X229436482Y-55418758D01*
X229438920Y-55400243D01*
X229447852Y-55391313D01*
X229476689Y-55374665D01*
X229476695Y-55374660D01*
X229535057Y-55316298D01*
X229535062Y-55316293D01*
X229576335Y-55244806D01*
X229597700Y-55165073D01*
X229597700Y-55082527D01*
X229576335Y-55002794D01*
X229575166Y-55000770D01*
X229555166Y-54966128D01*
X229549045Y-54955527D01*
X230228000Y-54955527D01*
X230228000Y-55038073D01*
X230241650Y-55089013D01*
X230249365Y-55117807D01*
X230290638Y-55189293D01*
X230290642Y-55189298D01*
X230349001Y-55247657D01*
X230349006Y-55247661D01*
X230349007Y-55247662D01*
X230420494Y-55288935D01*
X230500227Y-55310300D01*
X230500230Y-55310300D01*
X230582770Y-55310300D01*
X230582773Y-55310300D01*
X230662506Y-55288935D01*
X230733993Y-55247662D01*
X230792362Y-55189293D01*
X230833635Y-55117806D01*
X230855000Y-55038073D01*
X230855000Y-54955527D01*
X230833635Y-54875794D01*
X230831988Y-54872942D01*
X230807120Y-54829869D01*
X230792362Y-54804307D01*
X230792361Y-54804306D01*
X230792357Y-54804301D01*
X230781209Y-54793153D01*
X230774062Y-54775900D01*
X230781209Y-54758647D01*
X230798462Y-54751500D01*
X230811370Y-54751500D01*
X230811373Y-54751500D01*
X230891106Y-54730135D01*
X230962593Y-54688862D01*
X231020962Y-54630493D01*
X231062235Y-54559006D01*
X231083600Y-54479273D01*
X231083600Y-54396727D01*
X231062235Y-54316994D01*
X231020962Y-54245507D01*
X231020961Y-54245506D01*
X231020957Y-54245501D01*
X230962598Y-54187142D01*
X230962593Y-54187138D01*
X230891106Y-54145865D01*
X230891107Y-54145865D01*
X230857996Y-54136993D01*
X230811373Y-54124500D01*
X230728827Y-54124500D01*
X230682204Y-54136993D01*
X230649092Y-54145865D01*
X230577606Y-54187138D01*
X230577601Y-54187142D01*
X230519242Y-54245501D01*
X230519238Y-54245506D01*
X230477965Y-54316992D01*
X230469162Y-54349845D01*
X230456600Y-54396727D01*
X230456600Y-54479273D01*
X230470212Y-54530073D01*
X230477965Y-54559007D01*
X230519238Y-54630493D01*
X230519242Y-54630498D01*
X230530391Y-54641647D01*
X230537538Y-54658900D01*
X230530391Y-54676153D01*
X230513138Y-54683300D01*
X230500227Y-54683300D01*
X230459706Y-54694158D01*
X230420492Y-54704665D01*
X230349006Y-54745938D01*
X230349001Y-54745942D01*
X230290642Y-54804301D01*
X230290638Y-54804306D01*
X230249365Y-54875792D01*
X230242345Y-54901992D01*
X230228000Y-54955527D01*
X229549045Y-54955527D01*
X229535061Y-54931306D01*
X229535057Y-54931301D01*
X229476698Y-54872942D01*
X229476693Y-54872938D01*
X229405206Y-54831665D01*
X229405207Y-54831665D01*
X229398503Y-54829869D01*
X229383687Y-54818500D01*
X229381249Y-54799985D01*
X229392618Y-54785169D01*
X229398503Y-54782731D01*
X229405206Y-54780935D01*
X229476693Y-54739662D01*
X229535062Y-54681293D01*
X229576335Y-54609806D01*
X229597700Y-54530073D01*
X229597700Y-54447527D01*
X229576335Y-54367794D01*
X229568512Y-54354245D01*
X229556297Y-54333087D01*
X229535062Y-54296307D01*
X229535061Y-54296306D01*
X229535057Y-54296301D01*
X229476698Y-54237942D01*
X229476693Y-54237938D01*
X229405206Y-54196665D01*
X229405207Y-54196665D01*
X229385272Y-54191323D01*
X229325473Y-54175300D01*
X229242927Y-54175300D01*
X229195087Y-54188119D01*
X229163192Y-54196665D01*
X229091706Y-54237938D01*
X229091701Y-54237942D01*
X229033342Y-54296301D01*
X229033338Y-54296306D01*
X228992065Y-54367792D01*
X228983037Y-54401486D01*
X228970700Y-54447527D01*
X228970700Y-54530073D01*
X228975386Y-54547560D01*
X228992065Y-54609807D01*
X229033338Y-54681293D01*
X229033342Y-54681298D01*
X229091701Y-54739657D01*
X229091706Y-54739661D01*
X229091707Y-54739662D01*
X229163194Y-54780935D01*
X229163196Y-54780935D01*
X229163197Y-54780936D01*
X229169897Y-54782732D01*
X229184712Y-54794101D01*
X229187149Y-54812616D01*
X229175780Y-54827431D01*
X229169897Y-54829868D01*
X229163197Y-54831663D01*
X229163193Y-54831665D01*
X229091706Y-54872938D01*
X229091701Y-54872942D01*
X229033342Y-54931301D01*
X229033338Y-54931306D01*
X228992065Y-55002792D01*
X228982612Y-55038073D01*
X228970700Y-55082527D01*
X228970700Y-55165073D01*
X228980050Y-55199965D01*
X228992065Y-55244807D01*
X229033338Y-55316293D01*
X229033342Y-55316298D01*
X229091701Y-55374657D01*
X229091705Y-55374660D01*
X229091707Y-55374662D01*
X229103901Y-55381702D01*
X229115270Y-55396518D01*
X229112832Y-55415033D01*
X229103902Y-55423963D01*
X229075060Y-55440616D01*
X229075058Y-55440617D01*
X229075056Y-55440619D01*
X229075054Y-55440620D01*
X229016695Y-55498979D01*
X229016691Y-55498984D01*
X228975418Y-55570470D01*
X228964735Y-55610338D01*
X228954053Y-55650205D01*
X228954053Y-55732751D01*
X228968680Y-55787338D01*
X228975418Y-55812485D01*
X229016691Y-55883971D01*
X229016695Y-55883976D01*
X229075054Y-55942335D01*
X229075059Y-55942339D01*
X229075060Y-55942340D01*
X229106546Y-55960518D01*
X229142268Y-55981143D01*
X229153637Y-55995959D01*
X229151199Y-56014474D01*
X229138887Y-56023927D01*
X229139271Y-56024853D01*
X229137793Y-56025465D01*
X229066306Y-56066738D01*
X229066301Y-56066742D01*
X229007942Y-56125101D01*
X229007938Y-56125106D01*
X228966665Y-56196592D01*
X228958474Y-56227161D01*
X228945300Y-56276327D01*
X228945300Y-56358873D01*
X228955869Y-56398316D01*
X228966665Y-56438607D01*
X229007938Y-56510093D01*
X229007942Y-56510098D01*
X229066301Y-56568457D01*
X229066305Y-56568460D01*
X229066307Y-56568462D01*
X229113833Y-56595901D01*
X229125202Y-56610717D01*
X229122764Y-56629232D01*
X229113834Y-56638162D01*
X229091707Y-56650938D01*
X229091705Y-56650939D01*
X229091703Y-56650941D01*
X229091701Y-56650942D01*
X229033342Y-56709301D01*
X229033338Y-56709306D01*
X228992065Y-56780792D01*
X228981382Y-56820660D01*
X228970700Y-56860527D01*
X228970700Y-56860529D01*
X228970700Y-56934027D01*
X228963553Y-56951280D01*
X228946300Y-56958427D01*
X228929047Y-56951280D01*
X228727893Y-56750126D01*
X228727892Y-56750124D01*
X228727892Y-56750125D01*
X228724461Y-56746694D01*
X228724461Y-56746693D01*
X228685275Y-56707507D01*
X228640170Y-56688824D01*
X228640170Y-56688823D01*
X228640168Y-56688823D01*
X228634077Y-56686300D01*
X228634076Y-56686300D01*
X226560740Y-56686300D01*
X226505323Y-56686300D01*
X226454123Y-56707507D01*
X226454120Y-56707509D01*
X226069004Y-57092625D01*
X226058067Y-57098940D01*
X225988197Y-57117663D01*
X225988193Y-57117665D01*
X225916706Y-57158938D01*
X225916701Y-57158942D01*
X225867453Y-57208191D01*
X225850200Y-57215338D01*
X225832947Y-57208191D01*
X225825800Y-57190938D01*
X225825800Y-54547560D01*
X225822047Y-54538500D01*
X225804593Y-54496361D01*
X225804592Y-54496360D01*
X225804590Y-54496357D01*
X225390413Y-54082181D01*
X225374759Y-54066527D01*
X232907700Y-54066527D01*
X232907700Y-54149073D01*
X232911399Y-54162876D01*
X232929065Y-54228807D01*
X232970338Y-54300293D01*
X232970342Y-54300298D01*
X233028701Y-54358657D01*
X233028706Y-54358661D01*
X233028707Y-54358662D01*
X233100194Y-54399935D01*
X233179927Y-54421300D01*
X233179930Y-54421300D01*
X233262470Y-54421300D01*
X233262473Y-54421300D01*
X233342206Y-54399935D01*
X233413693Y-54358662D01*
X233472062Y-54300293D01*
X233513335Y-54228806D01*
X233534700Y-54149073D01*
X233534700Y-54066527D01*
X233513335Y-53986794D01*
X233511688Y-53983942D01*
X233480565Y-53930035D01*
X233472062Y-53915307D01*
X233472061Y-53915306D01*
X233472057Y-53915301D01*
X233413698Y-53856942D01*
X233413693Y-53856938D01*
X233342206Y-53815665D01*
X233342207Y-53815665D01*
X233322272Y-53810323D01*
X233262473Y-53794300D01*
X233179927Y-53794300D01*
X233132087Y-53807119D01*
X233100192Y-53815665D01*
X233028706Y-53856938D01*
X233028701Y-53856942D01*
X232970342Y-53915301D01*
X232970338Y-53915306D01*
X232929065Y-53986792D01*
X232918382Y-54026660D01*
X232907700Y-54066527D01*
X225374759Y-54066527D01*
X225326433Y-54018201D01*
X225319286Y-54000948D01*
X225322553Y-53988751D01*
X225359935Y-53924006D01*
X225381300Y-53844273D01*
X225381300Y-53761727D01*
X225359935Y-53681994D01*
X225359329Y-53680945D01*
X225333832Y-53636783D01*
X225318662Y-53610507D01*
X225318661Y-53610506D01*
X225318657Y-53610501D01*
X225304783Y-53596627D01*
X229885100Y-53596627D01*
X229885100Y-53679173D01*
X229894842Y-53715528D01*
X229906465Y-53758907D01*
X229947738Y-53830393D01*
X229947742Y-53830398D01*
X230006101Y-53888757D01*
X230006106Y-53888761D01*
X230006107Y-53888762D01*
X230077594Y-53930035D01*
X230157327Y-53951400D01*
X230157330Y-53951400D01*
X230239870Y-53951400D01*
X230239873Y-53951400D01*
X230319606Y-53930035D01*
X230391093Y-53888762D01*
X230449462Y-53830393D01*
X230490735Y-53758906D01*
X230512100Y-53679173D01*
X230512100Y-53596627D01*
X230490735Y-53516894D01*
X230449462Y-53445407D01*
X230449461Y-53445406D01*
X230449457Y-53445401D01*
X230391098Y-53387042D01*
X230391093Y-53387038D01*
X230319606Y-53345765D01*
X230319607Y-53345765D01*
X230297367Y-53339806D01*
X230239873Y-53324400D01*
X230157327Y-53324400D01*
X230109487Y-53337219D01*
X230077592Y-53345765D01*
X230006106Y-53387038D01*
X230006101Y-53387042D01*
X229947742Y-53445401D01*
X229947738Y-53445406D01*
X229906465Y-53516892D01*
X229897511Y-53550308D01*
X229885100Y-53596627D01*
X225304783Y-53596627D01*
X225260298Y-53552142D01*
X225260293Y-53552138D01*
X225188806Y-53510865D01*
X225188807Y-53510865D01*
X225168872Y-53505523D01*
X225109073Y-53489500D01*
X225109070Y-53489500D01*
X225073230Y-53489500D01*
X225055977Y-53482353D01*
X225048830Y-53465100D01*
X225052099Y-53452900D01*
X225055574Y-53446881D01*
X225058735Y-53441406D01*
X225080100Y-53361673D01*
X225080100Y-53279127D01*
X225058735Y-53199394D01*
X225055230Y-53193324D01*
X225036796Y-53161394D01*
X225017462Y-53127907D01*
X225017461Y-53127906D01*
X225017457Y-53127901D01*
X224959098Y-53069542D01*
X224959093Y-53069538D01*
X224887606Y-53028265D01*
X224887607Y-53028265D01*
X224867672Y-53022923D01*
X224807873Y-53006900D01*
X224725327Y-53006900D01*
X224677487Y-53019719D01*
X224645592Y-53028265D01*
X224574106Y-53069538D01*
X224574101Y-53069542D01*
X224515742Y-53127901D01*
X224515738Y-53127906D01*
X224474465Y-53199392D01*
X224467669Y-53224757D01*
X224456300Y-53239573D01*
X224437785Y-53242011D01*
X224422969Y-53230642D01*
X224419700Y-53218442D01*
X224419700Y-52963587D01*
X224426847Y-52946334D01*
X224574171Y-52799011D01*
X224703655Y-52669527D01*
X225389300Y-52669527D01*
X225389300Y-52752073D01*
X225405323Y-52811872D01*
X225410665Y-52831807D01*
X225451938Y-52903293D01*
X225451942Y-52903298D01*
X225510301Y-52961657D01*
X225510306Y-52961661D01*
X225510307Y-52961662D01*
X225581794Y-53002935D01*
X225661527Y-53024300D01*
X225661530Y-53024300D01*
X225744070Y-53024300D01*
X225744073Y-53024300D01*
X225823806Y-53002935D01*
X225895293Y-52961662D01*
X225910621Y-52946334D01*
X225933429Y-52923527D01*
X226049700Y-52923527D01*
X226049700Y-53006073D01*
X226057178Y-53033979D01*
X226071065Y-53085807D01*
X226112338Y-53157293D01*
X226112342Y-53157298D01*
X226170701Y-53215657D01*
X226170706Y-53215661D01*
X226170707Y-53215662D01*
X226242194Y-53256935D01*
X226321927Y-53278300D01*
X226321930Y-53278300D01*
X226404470Y-53278300D01*
X226404473Y-53278300D01*
X226484206Y-53256935D01*
X226555693Y-53215662D01*
X226614062Y-53157293D01*
X226655335Y-53085806D01*
X226657131Y-53079102D01*
X226668500Y-53064287D01*
X226687015Y-53061849D01*
X226701831Y-53073218D01*
X226704269Y-53079103D01*
X226706065Y-53085807D01*
X226747338Y-53157293D01*
X226747342Y-53157298D01*
X226805701Y-53215657D01*
X226805706Y-53215661D01*
X226805707Y-53215662D01*
X226877194Y-53256935D01*
X226956927Y-53278300D01*
X226956930Y-53278300D01*
X227039470Y-53278300D01*
X227039473Y-53278300D01*
X227119206Y-53256935D01*
X227190693Y-53215662D01*
X227247570Y-53158784D01*
X227264823Y-53151638D01*
X227282076Y-53158784D01*
X227285954Y-53163838D01*
X227318838Y-53220793D01*
X227318842Y-53220798D01*
X227377201Y-53279157D01*
X227377206Y-53279161D01*
X227377207Y-53279162D01*
X227448694Y-53320435D01*
X227528427Y-53341800D01*
X227528430Y-53341800D01*
X227610970Y-53341800D01*
X227610973Y-53341800D01*
X227690706Y-53320435D01*
X227727600Y-53299133D01*
X227746115Y-53296696D01*
X227760931Y-53308065D01*
X227764200Y-53320265D01*
X227764200Y-53323673D01*
X227779961Y-53382493D01*
X227785565Y-53403407D01*
X227826838Y-53474893D01*
X227826842Y-53474898D01*
X227885201Y-53533257D01*
X227885206Y-53533261D01*
X227885207Y-53533262D01*
X227956694Y-53574535D01*
X228036427Y-53595900D01*
X228036430Y-53595900D01*
X228118970Y-53595900D01*
X228118973Y-53595900D01*
X228198706Y-53574535D01*
X228270193Y-53533262D01*
X228328562Y-53474893D01*
X228369835Y-53403406D01*
X228391200Y-53323673D01*
X228391200Y-53241127D01*
X228374158Y-53177527D01*
X231637700Y-53177527D01*
X231637700Y-53260073D01*
X231650560Y-53308065D01*
X231659065Y-53339807D01*
X231700338Y-53411293D01*
X231700342Y-53411298D01*
X231758701Y-53469657D01*
X231758706Y-53469661D01*
X231758707Y-53469662D01*
X231830194Y-53510935D01*
X231909927Y-53532300D01*
X231909930Y-53532300D01*
X231992470Y-53532300D01*
X231992473Y-53532300D01*
X232072206Y-53510935D01*
X232143693Y-53469662D01*
X232202062Y-53411293D01*
X232243335Y-53339806D01*
X232264700Y-53260073D01*
X232264700Y-53177527D01*
X232243335Y-53097794D01*
X232238781Y-53089907D01*
X232206491Y-53033979D01*
X232202062Y-53026307D01*
X232202061Y-53026306D01*
X232202057Y-53026301D01*
X232143698Y-52967942D01*
X232143693Y-52967938D01*
X232072206Y-52926665D01*
X232072207Y-52926665D01*
X232052272Y-52921323D01*
X231992473Y-52905300D01*
X231909927Y-52905300D01*
X231862087Y-52918119D01*
X231830192Y-52926665D01*
X231758706Y-52967938D01*
X231758701Y-52967942D01*
X231700342Y-53026301D01*
X231700338Y-53026306D01*
X231659065Y-53097792D01*
X231650996Y-53127906D01*
X231637700Y-53177527D01*
X228374158Y-53177527D01*
X228369835Y-53161394D01*
X228328562Y-53089907D01*
X228328561Y-53089906D01*
X228328557Y-53089901D01*
X228270198Y-53031542D01*
X228270193Y-53031538D01*
X228198706Y-52990265D01*
X228198707Y-52990265D01*
X228178772Y-52984923D01*
X228118973Y-52968900D01*
X228036427Y-52968900D01*
X227988587Y-52981719D01*
X227956692Y-52990265D01*
X227919800Y-53011565D01*
X227901285Y-53014003D01*
X227886469Y-53002634D01*
X227883200Y-52990434D01*
X227883200Y-52987030D01*
X227883200Y-52987027D01*
X227861835Y-52907294D01*
X227820562Y-52835807D01*
X227820561Y-52835806D01*
X227820557Y-52835801D01*
X227762198Y-52777442D01*
X227762193Y-52777438D01*
X227690706Y-52736165D01*
X227690707Y-52736165D01*
X227670772Y-52730823D01*
X227610973Y-52714800D01*
X227528427Y-52714800D01*
X227480587Y-52727619D01*
X227448692Y-52736165D01*
X227377206Y-52777438D01*
X227320329Y-52834315D01*
X227303076Y-52841461D01*
X227285822Y-52834314D01*
X227281945Y-52829261D01*
X227252695Y-52778600D01*
X227249062Y-52772307D01*
X227249061Y-52772306D01*
X227249057Y-52772301D01*
X227190698Y-52713942D01*
X227190693Y-52713938D01*
X227119206Y-52672665D01*
X227119207Y-52672665D01*
X227099272Y-52667323D01*
X227039473Y-52651300D01*
X226956927Y-52651300D01*
X226914357Y-52662707D01*
X226877192Y-52672665D01*
X226805706Y-52713938D01*
X226805701Y-52713942D01*
X226747342Y-52772301D01*
X226747338Y-52772306D01*
X226706065Y-52843793D01*
X226706063Y-52843797D01*
X226704268Y-52850497D01*
X226692899Y-52865312D01*
X226674384Y-52867749D01*
X226659569Y-52856380D01*
X226657132Y-52850497D01*
X226655336Y-52843797D01*
X226655335Y-52843796D01*
X226655335Y-52843794D01*
X226614062Y-52772307D01*
X226614061Y-52772306D01*
X226614057Y-52772301D01*
X226555698Y-52713942D01*
X226555693Y-52713938D01*
X226484206Y-52672665D01*
X226484207Y-52672665D01*
X226464272Y-52667323D01*
X226404473Y-52651300D01*
X226321927Y-52651300D01*
X226279357Y-52662707D01*
X226242192Y-52672665D01*
X226170706Y-52713938D01*
X226170701Y-52713942D01*
X226112342Y-52772301D01*
X226112338Y-52772306D01*
X226071065Y-52843792D01*
X226067692Y-52856380D01*
X226049700Y-52923527D01*
X225933429Y-52923527D01*
X225952281Y-52904675D01*
X225953657Y-52903298D01*
X225953662Y-52903293D01*
X225994935Y-52831806D01*
X226016300Y-52752073D01*
X226016300Y-52669527D01*
X225994935Y-52589794D01*
X225953662Y-52518307D01*
X225953661Y-52518306D01*
X225953657Y-52518301D01*
X225895298Y-52459942D01*
X225895293Y-52459938D01*
X225823806Y-52418665D01*
X225823807Y-52418665D01*
X225803872Y-52413323D01*
X225744073Y-52397300D01*
X225661527Y-52397300D01*
X225613687Y-52410119D01*
X225581792Y-52418665D01*
X225510306Y-52459938D01*
X225510301Y-52459942D01*
X225451942Y-52518301D01*
X225451938Y-52518306D01*
X225410665Y-52589792D01*
X225403766Y-52615539D01*
X225389300Y-52669527D01*
X224703655Y-52669527D01*
X224725092Y-52648090D01*
X224725093Y-52648089D01*
X224742790Y-52605365D01*
X224746300Y-52596891D01*
X224746300Y-52541473D01*
X224746300Y-51970467D01*
X224753446Y-51953215D01*
X225119047Y-51587613D01*
X225136300Y-51580467D01*
X225153553Y-51587614D01*
X225160700Y-51604867D01*
X225160700Y-51659873D01*
X225171753Y-51701121D01*
X225182065Y-51739607D01*
X225223338Y-51811093D01*
X225223342Y-51811098D01*
X225281701Y-51869457D01*
X225281706Y-51869461D01*
X225281707Y-51869462D01*
X225353194Y-51910735D01*
X225432927Y-51932100D01*
X225432930Y-51932100D01*
X225515470Y-51932100D01*
X225515473Y-51932100D01*
X225593730Y-51911130D01*
X225600041Y-51910300D01*
X226858803Y-51910300D01*
X226932992Y-51890421D01*
X226999508Y-51852018D01*
X227619879Y-51231647D01*
X227637132Y-51224500D01*
X228147338Y-51224500D01*
X228164591Y-51231647D01*
G37*
%TD.AperFunction*%
%TA.AperFunction,Conductor*%
G36*
X219666960Y-50670384D02*
G01*
X219670700Y-50683366D01*
X219670700Y-51906393D01*
X219663553Y-51923646D01*
X219306562Y-52280636D01*
X219289309Y-52287783D01*
X219276327Y-52284043D01*
X219210845Y-52242898D01*
X219174700Y-52220186D01*
X219174698Y-52220185D01*
X219145762Y-52208198D01*
X219145756Y-52208196D01*
X218828707Y-52135832D01*
X218827402Y-52135685D01*
X218807892Y-52133487D01*
X218807887Y-52133487D01*
X217700800Y-52133487D01*
X217683547Y-52126340D01*
X217676400Y-52109087D01*
X217676400Y-51430487D01*
X217683547Y-51413234D01*
X217700800Y-51406087D01*
X218805010Y-51406087D01*
X218805021Y-51406087D01*
X218815490Y-51405499D01*
X218979444Y-51387026D01*
X218999856Y-51382367D01*
X219158298Y-51326926D01*
X219177162Y-51317841D01*
X219319295Y-51228532D01*
X219335664Y-51215478D01*
X219454359Y-51096783D01*
X219467413Y-51080414D01*
X219558269Y-50935819D01*
X219570257Y-50906880D01*
X219584953Y-50842493D01*
X219622512Y-50677937D01*
X219633318Y-50662706D01*
X219651729Y-50659578D01*
X219666960Y-50670384D01*
G37*
%TD.AperFunction*%
%TA.AperFunction,Conductor*%
G36*
X219666960Y-48130384D02*
G01*
X219670700Y-48143366D01*
X219670700Y-50238705D01*
X219663553Y-50255958D01*
X219646300Y-50263105D01*
X219629047Y-50255958D01*
X219622512Y-50244135D01*
X219621248Y-50238598D01*
X219565810Y-50080165D01*
X219565809Y-50080163D01*
X219565807Y-50080157D01*
X219556722Y-50061293D01*
X219467413Y-49919160D01*
X219454359Y-49902791D01*
X219335664Y-49784096D01*
X219319295Y-49771042D01*
X219313769Y-49767570D01*
X219241722Y-49722299D01*
X219174700Y-49680186D01*
X219174698Y-49680185D01*
X219145762Y-49668198D01*
X219145756Y-49668196D01*
X218828707Y-49595832D01*
X218827402Y-49595685D01*
X218807892Y-49593487D01*
X218807887Y-49593487D01*
X217700800Y-49593487D01*
X217683547Y-49586340D01*
X217676400Y-49569087D01*
X217676400Y-48890487D01*
X217683547Y-48873234D01*
X217700800Y-48866087D01*
X218805010Y-48866087D01*
X218805021Y-48866087D01*
X218815490Y-48865499D01*
X218979444Y-48847026D01*
X218999856Y-48842367D01*
X219158298Y-48786926D01*
X219177162Y-48777841D01*
X219319295Y-48688532D01*
X219335664Y-48675478D01*
X219454359Y-48556783D01*
X219467413Y-48540414D01*
X219558269Y-48395819D01*
X219570257Y-48366880D01*
X219588365Y-48287545D01*
X219622512Y-48137937D01*
X219633318Y-48122706D01*
X219651729Y-48119578D01*
X219666960Y-48130384D01*
G37*
%TD.AperFunction*%
%TD*%
M02*
