%TF.GenerationSoftware,KiCad,Pcbnew,10.0.0*%
%TF.CreationDate,2026-06-20T20:42:50+01:00*%
%TF.ProjectId,Devboard,44657662-6f61-4726-942e-6b696361645f,rev?*%
%TF.SameCoordinates,Original*%
%TF.FileFunction,Paste,Top*%
%TF.FilePolarity,Positive*%
%FSLAX46Y46*%
G04 Gerber Fmt 4.6, Leading zero omitted, Abs format (unit mm)*
G04 Created by KiCad (PCBNEW 10.0.0) date 2026-06-20 20:42:50*
%MOMM*%
%LPD*%
G01*
G04 APERTURE LIST*
G04 Aperture macros list*
%AMRoundRect*
0 Rectangle with rounded corners*
0 $1 Rounding radius*
0 $2 $3 $4 $5 $6 $7 $8 $9 X,Y pos of 4 corners*
0 Add a 4 corners polygon primitive as box body*
4,1,4,$2,$3,$4,$5,$6,$7,$8,$9,$2,$3,0*
0 Add four circle primitives for the rounded corners*
1,1,$1+$1,$2,$3*
1,1,$1+$1,$4,$5*
1,1,$1+$1,$6,$7*
1,1,$1+$1,$8,$9*
0 Add four rect primitives between the rounded corners*
20,1,$1+$1,$2,$3,$4,$5,0*
20,1,$1+$1,$4,$5,$6,$7,0*
20,1,$1+$1,$6,$7,$8,$9,0*
20,1,$1+$1,$8,$9,$2,$3,0*%
G04 Aperture macros list end*
%ADD10C,0.000000*%
%ADD11RoundRect,0.055880X-0.102870X0.083820X-0.102870X-0.083820X0.102870X-0.083820X0.102870X0.083820X0*%
%ADD12RoundRect,0.055880X-0.083820X-0.102870X0.083820X-0.102870X0.083820X0.102870X-0.083820X0.102870X0*%
%ADD13RoundRect,0.027940X0.130810X-0.111760X0.130810X0.111760X-0.130810X0.111760X-0.130810X-0.111760X0*%
%ADD14RoundRect,0.027940X-0.111760X-0.130810X0.111760X-0.130810X0.111760X0.130810X-0.111760X0.130810X0*%
%ADD15RoundRect,0.055880X0.083820X0.102870X-0.083820X0.102870X-0.083820X-0.102870X0.083820X-0.102870X0*%
%ADD16RoundRect,0.027940X-0.130810X0.111760X-0.130810X-0.111760X0.130810X-0.111760X0.130810X0.111760X0*%
%ADD17RoundRect,0.055880X0.102870X-0.083820X0.102870X0.083820X-0.102870X0.083820X-0.102870X-0.083820X0*%
%ADD18RoundRect,0.060000X0.140000X-0.140000X0.140000X0.140000X-0.140000X0.140000X-0.140000X-0.140000X0*%
%ADD19RoundRect,0.060000X0.140000X0.140000X-0.140000X0.140000X-0.140000X-0.140000X0.140000X-0.140000X0*%
%ADD20RoundRect,0.060000X-0.140000X0.140000X-0.140000X-0.140000X0.140000X-0.140000X0.140000X0.140000X0*%
%ADD21RoundRect,0.060000X-0.140000X-0.140000X0.140000X-0.140000X0.140000X0.140000X-0.140000X0.140000X0*%
%ADD22RoundRect,0.067500X0.157500X-0.207500X0.157500X0.207500X-0.157500X0.207500X-0.157500X-0.207500X0*%
%ADD23RoundRect,0.066675X0.155575X0.187325X-0.155575X0.187325X-0.155575X-0.187325X0.155575X-0.187325X0*%
%ADD24RoundRect,0.079375X-0.428625X-0.238125X0.428625X-0.238125X0.428625X0.238125X-0.428625X0.238125X0*%
%ADD25RoundRect,0.063500X-0.444500X-0.190500X0.444500X-0.190500X0.444500X0.190500X-0.444500X0.190500X0*%
%ADD26RoundRect,0.027940X0.111760X0.130810X-0.111760X0.130810X-0.111760X-0.130810X0.111760X-0.130810X0*%
%ADD27RoundRect,0.127000X0.000010X0.000010X-0.000010X0.000010X-0.000010X-0.000010X0.000010X-0.000010X0*%
%ADD28RoundRect,0.032500X-0.097500X0.267500X-0.097500X-0.267500X0.097500X-0.267500X0.097500X0.267500X0*%
%ADD29RoundRect,0.043750X-0.756250X-0.131250X0.756250X-0.131250X0.756250X0.131250X-0.756250X0.131250X0*%
%ADD30RoundRect,0.090000X-0.210000X0.510000X-0.210000X-0.510000X0.210000X-0.510000X0.210000X0.510000X0*%
%ADD31RoundRect,0.045000X-0.105000X0.555000X-0.105000X-0.555000X0.105000X-0.555000X0.105000X0.555000X0*%
%ADD32RoundRect,0.300000X-0.700000X0.700000X-0.700000X-0.700000X0.700000X-0.700000X0.700000X0.700000X0*%
%ADD33RoundRect,0.112500X-0.037500X0.000010X-0.037500X-0.000010X0.037500X-0.000010X0.037500X0.000010X0*%
%ADD34RoundRect,0.112500X-0.000010X0.037500X-0.000010X-0.037500X0.000010X-0.037500X0.000010X0.037500X0*%
%ADD35RoundRect,0.137500X-0.000010X0.000010X-0.000010X-0.000010X0.000010X-0.000010X0.000010X0.000010X0*%
%ADD36RoundRect,0.031250X-0.093750X0.268750X-0.093750X-0.268750X0.093750X-0.268750X0.093750X0.268750X0*%
%ADD37RoundRect,0.031250X-0.268750X-0.093750X0.268750X-0.093750X0.268750X0.093750X-0.268750X0.093750X0*%
%ADD38RoundRect,0.031250X0.093750X-0.268750X0.093750X0.268750X-0.093750X0.268750X-0.093750X-0.268750X0*%
%ADD39RoundRect,0.037500X-0.212500X-0.087500X0.212500X-0.087500X0.212500X0.087500X-0.212500X0.087500X0*%
%ADD40RoundRect,0.022500X0.052500X-0.102500X0.052500X0.102500X-0.052500X0.102500X-0.052500X-0.102500X0*%
%ADD41RoundRect,0.162500X-0.187500X0.162500X-0.187500X-0.162500X0.187500X-0.162500X0.187500X0.162500X0*%
%ADD42RoundRect,0.175000X-0.175000X0.625000X-0.175000X-0.625000X0.175000X-0.625000X0.175000X0.625000X0*%
%ADD43RoundRect,0.062500X0.187500X-0.212500X0.187500X0.212500X-0.187500X0.212500X-0.187500X-0.212500X0*%
%ADD44RoundRect,0.079375X-0.301625X0.238125X-0.301625X-0.238125X0.301625X-0.238125X0.301625X0.238125X0*%
%ADD45RoundRect,0.067500X0.157500X-0.357500X0.157500X0.357500X-0.157500X0.357500X-0.157500X-0.357500X0*%
%ADD46RoundRect,0.067500X0.157500X-0.382500X0.157500X0.382500X-0.157500X0.382500X-0.157500X-0.382500X0*%
%ADD47RoundRect,0.087500X0.293500X0.262500X-0.293500X0.262500X-0.293500X-0.262500X0.293500X-0.262500X0*%
%ADD48RoundRect,0.057750X-0.134750X0.196250X-0.134750X-0.196250X0.134750X-0.196250X0.134750X0.196250X0*%
G04 APERTURE END LIST*
D10*
%TO.C,U7*%
G36*
X221263269Y-53891120D02*
G01*
X221003269Y-53891120D01*
X221003269Y-53631120D01*
X221263269Y-53631120D01*
X221263269Y-53891120D01*
G37*
G36*
X221738269Y-54009049D02*
G01*
X221738269Y-54188191D01*
X221710340Y-54216120D01*
X221356198Y-54216120D01*
X221328269Y-54188191D01*
X221328269Y-54145482D01*
X221336351Y-54125966D01*
X221473115Y-53989202D01*
X221492631Y-53981120D01*
X221710340Y-53981120D01*
X221738269Y-54009049D01*
G37*
G36*
X221738269Y-53334049D02*
G01*
X221738269Y-53513191D01*
X221710340Y-53541120D01*
X221492631Y-53541120D01*
X221473115Y-53533038D01*
X221336351Y-53396274D01*
X221328269Y-53376758D01*
X221328269Y-53334049D01*
X221356198Y-53306120D01*
X221710340Y-53306120D01*
X221738269Y-53334049D01*
G37*
G36*
X220938269Y-53334049D02*
G01*
X220938269Y-53376758D01*
X220930187Y-53396274D01*
X220793778Y-53532683D01*
X220784431Y-53538928D01*
X220773405Y-53541120D01*
X220556198Y-53541120D01*
X220528269Y-53513191D01*
X220528269Y-53334049D01*
X220556198Y-53306120D01*
X220910340Y-53306120D01*
X220938269Y-53334049D01*
G37*
G36*
X220784431Y-53983312D02*
G01*
X220793778Y-53989557D01*
X220930187Y-54125966D01*
X220938269Y-54145482D01*
X220938269Y-54188191D01*
X220910340Y-54216120D01*
X220556198Y-54216120D01*
X220528269Y-54188191D01*
X220528269Y-54009049D01*
X220556198Y-53981120D01*
X220773405Y-53981120D01*
X220784431Y-53983312D01*
G37*
%TO.C,USB1*%
G36*
X222169755Y-42794032D02*
G01*
X222294027Y-42857352D01*
X222392722Y-42956047D01*
X222477770Y-43217799D01*
X222477770Y-44107100D01*
X222455968Y-44244755D01*
X222392648Y-44369027D01*
X222293953Y-44467722D01*
X222032102Y-44552802D01*
X221894245Y-44530968D01*
X221769973Y-44467648D01*
X221671278Y-44368953D01*
X221586230Y-44107201D01*
X221586230Y-43217900D01*
X221608032Y-43080245D01*
X221671352Y-42955973D01*
X221770047Y-42857278D01*
X222031898Y-42772198D01*
X222169755Y-42794032D01*
G37*
G36*
X222169755Y-46985032D02*
G01*
X222294027Y-47048352D01*
X222392722Y-47147047D01*
X222477770Y-47408799D01*
X222477770Y-48298100D01*
X222455968Y-48435755D01*
X222392648Y-48560027D01*
X222293953Y-48658722D01*
X222032102Y-48743802D01*
X221894245Y-48721968D01*
X221769973Y-48658648D01*
X221671278Y-48559953D01*
X221586230Y-48298201D01*
X221586230Y-47408900D01*
X221608032Y-47271245D01*
X221671352Y-47146973D01*
X221770047Y-47048278D01*
X222031898Y-46963198D01*
X222169755Y-46985032D01*
G37*
G36*
X230805755Y-42794032D02*
G01*
X230930027Y-42857352D01*
X231028722Y-42956047D01*
X231113770Y-43217799D01*
X231113770Y-44107100D01*
X231091968Y-44244755D01*
X231028648Y-44369027D01*
X230929953Y-44467722D01*
X230668102Y-44552802D01*
X230530245Y-44530968D01*
X230405973Y-44467648D01*
X230307278Y-44368953D01*
X230222230Y-44107201D01*
X230222230Y-43217900D01*
X230244032Y-43080245D01*
X230307352Y-42955973D01*
X230406047Y-42857278D01*
X230667898Y-42772198D01*
X230805755Y-42794032D01*
G37*
G36*
X230805755Y-46985032D02*
G01*
X230930027Y-47048352D01*
X231028722Y-47147047D01*
X231113770Y-47408799D01*
X231113770Y-48298100D01*
X231091968Y-48435755D01*
X231028648Y-48560027D01*
X230929953Y-48658722D01*
X230668102Y-48743802D01*
X230530245Y-48721968D01*
X230405973Y-48658648D01*
X230307278Y-48559953D01*
X230222230Y-48298201D01*
X230222230Y-47408900D01*
X230244032Y-47271245D01*
X230307352Y-47146973D01*
X230406047Y-47048278D01*
X230667898Y-46963198D01*
X230805755Y-46985032D01*
G37*
%TO.C,U9*%
G36*
X226776297Y-55083115D02*
G01*
X225776297Y-55083115D01*
X225776297Y-54083115D01*
X226776297Y-54083115D01*
X226776297Y-55083115D01*
G37*
G36*
X226776297Y-56483115D02*
G01*
X225776297Y-56483115D01*
X225776297Y-55483115D01*
X226776297Y-55483115D01*
X226776297Y-56483115D01*
G37*
G36*
X228176297Y-55083115D02*
G01*
X227176297Y-55083115D01*
X227176297Y-54083115D01*
X228176297Y-54083115D01*
X228176297Y-55083115D01*
G37*
G36*
X228176297Y-56483115D02*
G01*
X227176297Y-56483115D01*
X227176297Y-55483115D01*
X228176297Y-55483115D01*
X228176297Y-56483115D01*
G37*
%TD*%
D11*
%TO.C,C64*%
X229516297Y-59093115D03*
X229516297Y-59601115D03*
%TD*%
%TO.C,C79*%
X231357797Y-51219115D03*
X231357797Y-51727115D03*
%TD*%
D12*
%TO.C,C68*%
X231421297Y-57569115D03*
X231929297Y-57569115D03*
%TD*%
D13*
%TO.C,R26*%
X223509197Y-59601115D03*
X223509197Y-59093115D03*
%TD*%
D14*
%TO.C,R32*%
X226404797Y-51346115D03*
X226912797Y-51346115D03*
%TD*%
D15*
%TO.C,C57*%
X225960297Y-51219115D03*
X225452297Y-51219115D03*
%TD*%
D16*
%TO.C,R43*%
X231992797Y-51219115D03*
X231992797Y-51727115D03*
%TD*%
D11*
%TO.C,C54*%
X231294297Y-56451515D03*
X231294297Y-56959515D03*
%TD*%
D12*
%TO.C,C55*%
X222531297Y-53378115D03*
X223039297Y-53378115D03*
%TD*%
D17*
%TO.C,C47*%
X224563297Y-50584115D03*
X224563297Y-50076115D03*
%TD*%
D11*
%TO.C,C63*%
X226912797Y-59093115D03*
X226912797Y-59601115D03*
%TD*%
D13*
%TO.C,R35*%
X225541197Y-59601115D03*
X225541197Y-59093115D03*
%TD*%
D15*
%TO.C,C51*%
X221134297Y-56045115D03*
X220626297Y-56045115D03*
%TD*%
D18*
%TO.C,RGB6*%
X231672878Y-44997376D03*
D19*
X231672878Y-45747376D03*
D20*
X232422878Y-45747376D03*
D21*
X232422878Y-44997376D03*
%TD*%
D22*
%TO.C,X2*%
X231818507Y-59391996D03*
X231818507Y-58291996D03*
X231018507Y-58291996D03*
X231018507Y-59391996D03*
%TD*%
D11*
%TO.C,C49*%
X221134297Y-54502915D03*
X221134297Y-55010915D03*
%TD*%
D23*
%TO.C,C71*%
X221660436Y-62473220D03*
X220771436Y-62473220D03*
%TD*%
D15*
%TO.C,C45*%
X224055297Y-51219115D03*
X223547297Y-51219115D03*
%TD*%
D24*
%TO.C,MIC1*%
X232053603Y-62904874D03*
D25*
X232053603Y-62015874D03*
D24*
X232053603Y-61126874D03*
X229767603Y-61126874D03*
D25*
X229767603Y-62015874D03*
D24*
X229767603Y-62904874D03*
%TD*%
D15*
%TO.C,C70*%
X228372763Y-60871062D03*
X227864763Y-60871062D03*
%TD*%
D11*
%TO.C,C67*%
X227865297Y-59855115D03*
X227865297Y-60363115D03*
%TD*%
D16*
%TO.C,R37*%
X225071297Y-50076115D03*
X225071297Y-50584115D03*
%TD*%
D26*
%TO.C,R33*%
X221134297Y-55537115D03*
X220626297Y-55537115D03*
%TD*%
D13*
%TO.C,R44*%
X231421297Y-54775115D03*
X231421297Y-54267115D03*
%TD*%
D16*
%TO.C,R36*%
X225579297Y-50076115D03*
X225579297Y-50584115D03*
%TD*%
D13*
%TO.C,R34*%
X225007797Y-59601115D03*
X225007797Y-59093115D03*
%TD*%
D11*
%TO.C,C48*%
X220626297Y-54521115D03*
X220626297Y-55029115D03*
%TD*%
D13*
%TO.C,R40*%
X226595297Y-50584115D03*
X226595297Y-50076115D03*
%TD*%
D11*
%TO.C,C65*%
X228881297Y-59093115D03*
X228881297Y-59601115D03*
%TD*%
D16*
%TO.C,R31*%
X222848797Y-55346615D03*
X222848797Y-55854615D03*
%TD*%
D27*
%TO.C,U6*%
X221695814Y-55007279D03*
X222095814Y-55007279D03*
X221695814Y-55407279D03*
X222095814Y-55407279D03*
X221695814Y-55807279D03*
X222095814Y-55807279D03*
%TD*%
D11*
%TO.C,C59*%
X231929297Y-54267115D03*
X231929297Y-54775115D03*
%TD*%
D28*
%TO.C,U8*%
X222265732Y-56727427D03*
X221765732Y-56727427D03*
X221265732Y-56727427D03*
X220765732Y-56727427D03*
X220765732Y-59427427D03*
X221265732Y-59427427D03*
X221765732Y-59427427D03*
X222265732Y-59427427D03*
D29*
X221515732Y-58077427D03*
%TD*%
D13*
%TO.C,R41*%
X226087297Y-50584115D03*
X226087297Y-50076115D03*
%TD*%
%TO.C,R28*%
X224055297Y-50584115D03*
X224055297Y-50076115D03*
%TD*%
D11*
%TO.C,C61*%
X222937697Y-59093115D03*
X222937697Y-59601115D03*
%TD*%
D17*
%TO.C,C78*%
X230824397Y-51727115D03*
X230824397Y-51219115D03*
%TD*%
D30*
%TO.C,USB1*%
X229550000Y-48475000D03*
X228750000Y-48475000D03*
D31*
X227600000Y-48475000D03*
X226600000Y-48475000D03*
X226100000Y-48475000D03*
X225100000Y-48475000D03*
D30*
X223150000Y-48475000D03*
X223950000Y-48475000D03*
D31*
X224600000Y-48475000D03*
X225600000Y-48475000D03*
X227100000Y-48475000D03*
X228100000Y-48475000D03*
D32*
X227850000Y-43925000D03*
X224850000Y-43925000D03*
%TD*%
D13*
%TO.C,R27*%
X223547297Y-50584115D03*
X223547297Y-50076115D03*
%TD*%
D11*
%TO.C,C46*%
X224029897Y-59093115D03*
X224029897Y-59601115D03*
%TD*%
D33*
%TO.C,U9*%
X230226297Y-54033115D03*
X230226297Y-54533115D03*
X230226297Y-55033115D03*
X230226297Y-55533115D03*
X230226297Y-56033115D03*
X230226297Y-56533115D03*
X230226297Y-57033115D03*
X230226297Y-57533115D03*
X230226297Y-58033115D03*
D34*
X224726297Y-58533115D03*
D35*
X224476297Y-52533115D03*
X224226297Y-53283115D03*
X224226297Y-54283115D03*
X224226297Y-54783115D03*
X224226297Y-55283115D03*
X224226297Y-55783115D03*
X224226297Y-56283115D03*
X224226297Y-56783115D03*
X224226297Y-57283115D03*
D34*
X224226297Y-58533115D03*
D33*
X223726297Y-52533115D03*
X223726297Y-53033115D03*
X223726297Y-53533115D03*
X223726297Y-54033115D03*
X223726297Y-54533115D03*
X223726297Y-55033115D03*
X223726297Y-55533115D03*
X223726297Y-56033115D03*
X223726297Y-56533115D03*
X223726297Y-57033115D03*
X223726297Y-57533115D03*
X223726297Y-58033115D03*
D34*
X229726297Y-52033115D03*
D35*
X229726297Y-52783115D03*
X229726297Y-53283115D03*
X229726297Y-53783115D03*
X229726297Y-54283115D03*
X229726297Y-54783115D03*
X229726297Y-55283115D03*
X229726297Y-55783115D03*
X229726297Y-56283115D03*
X229726297Y-56783115D03*
D34*
X229726297Y-58533115D03*
X229226297Y-52033115D03*
D35*
X228976297Y-52533115D03*
X228976297Y-58033115D03*
D34*
X228726297Y-58533115D03*
D35*
X228476297Y-52533115D03*
X228476297Y-58033115D03*
D34*
X228226297Y-52033115D03*
D35*
X227976297Y-52533115D03*
X227976297Y-58033115D03*
D34*
X227726297Y-52033115D03*
X227726297Y-58533115D03*
D35*
X227476297Y-52533115D03*
D34*
X227226297Y-52033115D03*
X227226297Y-58533115D03*
D35*
X226976297Y-52533115D03*
D34*
X226726297Y-52033115D03*
X226726297Y-58533115D03*
D35*
X226476297Y-52533115D03*
X226476297Y-58033115D03*
D34*
X226226297Y-52033115D03*
X226226297Y-58533115D03*
D35*
X225976297Y-52533115D03*
X225976297Y-58033115D03*
D34*
X225726297Y-52033115D03*
X225726297Y-58533115D03*
D35*
X225476297Y-58033115D03*
D34*
X225226297Y-52033115D03*
X225226297Y-58533115D03*
D35*
X224976297Y-52533115D03*
X224976297Y-58033115D03*
%TD*%
D11*
%TO.C,C69*%
X230151297Y-59093115D03*
X230151297Y-59601115D03*
%TD*%
D36*
%TO.C,U5*%
X222630443Y-50270929D03*
X222130443Y-50270929D03*
X221630443Y-50270929D03*
X221130443Y-50270929D03*
D37*
X220930443Y-50970929D03*
X220930443Y-51470929D03*
X220930443Y-51970929D03*
D38*
X221130443Y-52670929D03*
X221630443Y-52670929D03*
X222130443Y-52670929D03*
X222630443Y-52670929D03*
D37*
X222830443Y-51970929D03*
X222830443Y-51470929D03*
X222830443Y-50970929D03*
%TD*%
D12*
%TO.C,C62*%
X229749097Y-51219115D03*
X230257097Y-51219115D03*
%TD*%
D39*
%TO.C,Q2*%
X227229237Y-50131738D03*
D40*
X227054237Y-50781738D03*
X227404237Y-50781738D03*
%TD*%
D13*
%TO.C,R30*%
X222848797Y-54902115D03*
X222848797Y-54394115D03*
%TD*%
D11*
%TO.C,C50*%
X222023297Y-53378115D03*
X222023297Y-53886115D03*
%TD*%
D15*
%TO.C,C44*%
X233583066Y-62774043D03*
X233075066Y-62774043D03*
%TD*%
%TO.C,C66*%
X228373297Y-59347115D03*
X227865297Y-59347115D03*
%TD*%
D41*
%TO.C,ANT1*%
X226144768Y-61996758D03*
X226144768Y-62936758D03*
D42*
X222944768Y-62466758D03*
%TD*%
D15*
%TO.C,C58*%
X223039297Y-53886115D03*
X222531297Y-53886115D03*
%TD*%
D43*
%TO.C,K1*%
X220244886Y-45792071D03*
X220244886Y-43192071D03*
X220994886Y-45792071D03*
X220994886Y-43192071D03*
%TD*%
D44*
%TO.C,L5*%
X231738681Y-52386769D03*
X231738681Y-53656769D03*
%TD*%
D26*
%TO.C,R45*%
X227877997Y-51346115D03*
X227369997Y-51346115D03*
%TD*%
D12*
%TO.C,C60*%
X231294297Y-55600615D03*
X231802297Y-55600615D03*
%TD*%
D45*
%TO.C,X4*%
X230831164Y-50442229D03*
D46*
X231931164Y-50442229D03*
%TD*%
D13*
%TO.C,R42*%
X231929297Y-56959515D03*
X231929297Y-56451515D03*
%TD*%
D15*
%TO.C,C80*%
X229262297Y-51219115D03*
X228754297Y-51219115D03*
%TD*%
D47*
%TO.C,D3*%
X229869006Y-50328980D03*
X228269006Y-50328980D03*
%TD*%
D48*
%TO.C,CHG2*%
X232432264Y-43215004D03*
X231666264Y-43215004D03*
%TD*%
M02*
