%TF.GenerationSoftware,KiCad,Pcbnew,10.0.0*%
%TF.CreationDate,2026-06-20T20:42:51+01:00*%
%TF.ProjectId,Devboard,44657662-6f61-4726-942e-6b696361645f,rev?*%
%TF.SameCoordinates,Original*%
%TF.FileFunction,Soldermask,Bot*%
%TF.FilePolarity,Negative*%
%FSLAX46Y46*%
G04 Gerber Fmt 4.6, Leading zero omitted, Abs format (unit mm)*
G04 Created by KiCad (PCBNEW 10.0.0) date 2026-06-20 20:42:51*
%MOMM*%
%LPD*%
G01*
G04 APERTURE LIST*
G04 Aperture macros list*
%AMRoundRect*
0 Rectangle with rounded corners*
0 $1 Rounding radius*
0 $2 $3 $4 $5 $6 $7 $8 $9 X,Y pos of 4 corners*
0 Add a 4 corners polygon primitive as box body*
4,1,4,$2,$3,$4,$5,$6,$7,$8,$9,$2,$3,0*
0 Add four circle primitives for the rounded corners*
1,1,$1+$1,$2,$3*
1,1,$1+$1,$4,$5*
1,1,$1+$1,$6,$7*
1,1,$1+$1,$8,$9*
0 Add four rect primitives between the rounded corners*
20,1,$1+$1,$2,$3,$4,$5,0*
20,1,$1+$1,$4,$5,$6,$7,0*
20,1,$1+$1,$6,$7,$8,$9,0*
20,1,$1+$1,$8,$9,$2,$3,0*%
%AMFreePoly0*
4,1,17,0.337601,0.776941,0.776941,0.337601,0.788100,0.310660,0.788100,-0.310660,0.776941,-0.337601,0.337601,-0.776941,0.310660,-0.788100,-0.310660,-0.788100,-0.337601,-0.776941,-0.776941,-0.337601,-0.788100,-0.310660,-0.788100,0.310660,-0.776941,0.337601,-0.337601,0.776941,-0.310660,0.788100,0.310660,0.788100,0.337601,0.776941,0.337601,0.776941,$1*%
G04 Aperture macros list end*
%ADD10C,0.000000*%
%ADD11FreePoly0,180.000000*%
%ADD12C,1.576200*%
%ADD13C,1.346200*%
%ADD14FreePoly0,0.000000*%
%ADD15C,0.580000*%
%ADD16O,0.965200X1.854200*%
%ADD17RoundRect,0.273050X0.273050X-0.781050X0.273050X0.781050X-0.273050X0.781050X-0.273050X-0.781050X0*%
%ADD18RoundRect,0.609600X-0.000010X-0.000010X0.000010X-0.000010X0.000010X0.000010X-0.000010X0.000010X0*%
%ADD19RoundRect,0.273050X-0.273050X0.781050X-0.273050X-0.781050X0.273050X-0.781050X0.273050X0.781050X0*%
%ADD20RoundRect,0.273050X0.781050X0.273050X-0.781050X0.273050X-0.781050X-0.273050X0.781050X-0.273050X0*%
G04 APERTURE END LIST*
D10*
%TO.C,J14*%
G36*
X235349586Y-46284997D02*
G01*
X233903038Y-46284997D01*
X233571980Y-46209435D01*
X233415231Y-46110943D01*
X233288440Y-45984152D01*
X233193041Y-45832327D01*
X233133820Y-45663079D01*
X233114386Y-45490603D01*
X233114386Y-45346449D01*
X233189948Y-45015391D01*
X233288440Y-44858642D01*
X233415231Y-44731851D01*
X233567056Y-44636452D01*
X233736304Y-44577231D01*
X233908780Y-44557797D01*
X235349586Y-44557797D01*
X235349586Y-46284997D01*
G37*
G36*
X235349586Y-48824997D02*
G01*
X233903038Y-48824997D01*
X233571980Y-48749435D01*
X233415231Y-48650943D01*
X233288440Y-48524152D01*
X233193041Y-48372327D01*
X233133820Y-48203079D01*
X233114386Y-48030603D01*
X233114386Y-47886449D01*
X233189948Y-47555391D01*
X233288440Y-47398642D01*
X233415231Y-47271851D01*
X233567056Y-47176452D01*
X233736304Y-47117231D01*
X233908780Y-47097797D01*
X235349586Y-47097797D01*
X235349586Y-48824997D01*
G37*
G36*
X235349586Y-51364997D02*
G01*
X233903038Y-51364997D01*
X233571980Y-51289435D01*
X233415231Y-51190943D01*
X233288440Y-51064152D01*
X233193041Y-50912327D01*
X233133820Y-50743079D01*
X233114386Y-50570603D01*
X233114386Y-50426449D01*
X233189948Y-50095391D01*
X233288440Y-49938642D01*
X233415231Y-49811851D01*
X233567056Y-49716452D01*
X233736304Y-49657231D01*
X233908780Y-49637797D01*
X235349586Y-49637797D01*
X235349586Y-51364997D01*
G37*
G36*
X235349586Y-53904997D02*
G01*
X233903038Y-53904997D01*
X233571980Y-53829435D01*
X233415231Y-53730943D01*
X233288440Y-53604152D01*
X233193041Y-53452327D01*
X233133820Y-53283079D01*
X233114386Y-53110603D01*
X233114386Y-52966449D01*
X233189948Y-52635391D01*
X233288440Y-52478642D01*
X233415231Y-52351851D01*
X233567056Y-52256452D01*
X233736304Y-52197231D01*
X233908780Y-52177797D01*
X235349586Y-52177797D01*
X235349586Y-53904997D01*
G37*
G36*
X235349586Y-56444997D02*
G01*
X233903038Y-56444997D01*
X233571980Y-56369435D01*
X233415231Y-56270943D01*
X233288440Y-56144152D01*
X233193041Y-55992327D01*
X233133820Y-55823079D01*
X233114386Y-55650603D01*
X233114386Y-55506449D01*
X233189948Y-55175391D01*
X233288440Y-55018642D01*
X233415231Y-54891851D01*
X233567056Y-54796452D01*
X233736304Y-54737231D01*
X233908780Y-54717797D01*
X235349586Y-54717797D01*
X235349586Y-56444997D01*
G37*
G36*
X235349586Y-58984997D02*
G01*
X233903038Y-58984997D01*
X233571980Y-58909435D01*
X233415231Y-58810943D01*
X233288440Y-58684152D01*
X233193041Y-58532327D01*
X233133820Y-58363079D01*
X233114386Y-58190603D01*
X233114386Y-58046449D01*
X233189948Y-57715391D01*
X233288440Y-57558642D01*
X233415231Y-57431851D01*
X233567056Y-57336452D01*
X233736304Y-57277231D01*
X233908780Y-57257797D01*
X235349586Y-57257797D01*
X235349586Y-58984997D01*
G37*
G36*
X235349586Y-61524997D02*
G01*
X233903038Y-61524997D01*
X233571980Y-61449435D01*
X233415231Y-61350943D01*
X233288440Y-61224152D01*
X233193041Y-61072327D01*
X233133820Y-60903079D01*
X233114386Y-60730603D01*
X233114386Y-60586449D01*
X233189948Y-60255391D01*
X233288440Y-60098642D01*
X233415231Y-59971851D01*
X233567056Y-59876452D01*
X233736304Y-59817231D01*
X233908780Y-59797797D01*
X235349586Y-59797797D01*
X235349586Y-61524997D01*
G37*
%TO.C,J13*%
G36*
X219144674Y-44631749D02*
G01*
X219301423Y-44730241D01*
X219428214Y-44857032D01*
X219523613Y-45008857D01*
X219582834Y-45178105D01*
X219602268Y-45350581D01*
X219602268Y-45494735D01*
X219526706Y-45825793D01*
X219428214Y-45982542D01*
X219301423Y-46109333D01*
X219149598Y-46204732D01*
X218980350Y-46263953D01*
X218807874Y-46283387D01*
X217367068Y-46283387D01*
X217367068Y-44556187D01*
X218813616Y-44556187D01*
X219144674Y-44631749D01*
G37*
G36*
X219144674Y-47171749D02*
G01*
X219301423Y-47270241D01*
X219428214Y-47397032D01*
X219523613Y-47548857D01*
X219582834Y-47718105D01*
X219602268Y-47890581D01*
X219602268Y-48034735D01*
X219526706Y-48365793D01*
X219428214Y-48522542D01*
X219301423Y-48649333D01*
X219149598Y-48744732D01*
X218980350Y-48803953D01*
X218807874Y-48823387D01*
X217367068Y-48823387D01*
X217367068Y-47096187D01*
X218813616Y-47096187D01*
X219144674Y-47171749D01*
G37*
G36*
X219144674Y-49711749D02*
G01*
X219301423Y-49810241D01*
X219428214Y-49937032D01*
X219523613Y-50088857D01*
X219582834Y-50258105D01*
X219602268Y-50430581D01*
X219602268Y-50574735D01*
X219526706Y-50905793D01*
X219428214Y-51062542D01*
X219301423Y-51189333D01*
X219149598Y-51284732D01*
X218980350Y-51343953D01*
X218807874Y-51363387D01*
X217367068Y-51363387D01*
X217367068Y-49636187D01*
X218813616Y-49636187D01*
X219144674Y-49711749D01*
G37*
G36*
X219144674Y-52251749D02*
G01*
X219301423Y-52350241D01*
X219428214Y-52477032D01*
X219523613Y-52628857D01*
X219582834Y-52798105D01*
X219602268Y-52970581D01*
X219602268Y-53114735D01*
X219526706Y-53445793D01*
X219428214Y-53602542D01*
X219301423Y-53729333D01*
X219149598Y-53824732D01*
X218980350Y-53883953D01*
X218807874Y-53903387D01*
X217367068Y-53903387D01*
X217367068Y-52176187D01*
X218813616Y-52176187D01*
X219144674Y-52251749D01*
G37*
G36*
X219144674Y-54791749D02*
G01*
X219301423Y-54890241D01*
X219428214Y-55017032D01*
X219523613Y-55168857D01*
X219582834Y-55338105D01*
X219602268Y-55510581D01*
X219602268Y-55654735D01*
X219526706Y-55985793D01*
X219428214Y-56142542D01*
X219301423Y-56269333D01*
X219149598Y-56364732D01*
X218980350Y-56423953D01*
X218807874Y-56443387D01*
X217367068Y-56443387D01*
X217367068Y-54716187D01*
X218813616Y-54716187D01*
X219144674Y-54791749D01*
G37*
G36*
X219144674Y-57331749D02*
G01*
X219301423Y-57430241D01*
X219428214Y-57557032D01*
X219523613Y-57708857D01*
X219582834Y-57878105D01*
X219602268Y-58050581D01*
X219602268Y-58194735D01*
X219526706Y-58525793D01*
X219428214Y-58682542D01*
X219301423Y-58809333D01*
X219149598Y-58904732D01*
X218980350Y-58963953D01*
X218807874Y-58983387D01*
X217367068Y-58983387D01*
X217367068Y-57256187D01*
X218813616Y-57256187D01*
X219144674Y-57331749D01*
G37*
G36*
X219144674Y-59871749D02*
G01*
X219301423Y-59970241D01*
X219428214Y-60097032D01*
X219523613Y-60248857D01*
X219582834Y-60418105D01*
X219602268Y-60590581D01*
X219602268Y-60734735D01*
X219526706Y-61065793D01*
X219428214Y-61222542D01*
X219301423Y-61349333D01*
X219149598Y-61444732D01*
X218980350Y-61503953D01*
X218807874Y-61523387D01*
X217367068Y-61523387D01*
X217367068Y-59796187D01*
X218813616Y-59796187D01*
X219144674Y-59871749D01*
G37*
%TD*%
D11*
%TO.C,J14*%
X233977986Y-60661397D03*
D12*
X233977986Y-58121397D03*
X233977986Y-55581397D03*
X233977986Y-53041397D03*
X233977986Y-50501397D03*
X233977986Y-47961397D03*
X233977986Y-45421397D03*
D13*
X235247986Y-60661397D03*
X235247986Y-58121397D03*
X235247986Y-55581397D03*
X235247986Y-53041397D03*
X235247986Y-50501397D03*
X235247986Y-47961397D03*
X235247986Y-45421397D03*
%TD*%
D14*
%TO.C,J13*%
X218738668Y-45419787D03*
D12*
X218738668Y-47959787D03*
X218738668Y-50499787D03*
X218738668Y-53039787D03*
X218738668Y-55579787D03*
X218738668Y-58119787D03*
X218738668Y-60659787D03*
D13*
X217468668Y-45419787D03*
X217468668Y-47959787D03*
X217468668Y-50499787D03*
X217468668Y-53039787D03*
X217468668Y-55579787D03*
X217468668Y-58119787D03*
X217468668Y-60659787D03*
%TD*%
D15*
%TO.C,USB1*%
X229225000Y-47325000D03*
X223475000Y-47325000D03*
D16*
X230668000Y-43662500D03*
X222032000Y-43662500D03*
X230668000Y-47853500D03*
X222032000Y-47853500D03*
%TD*%
D17*
%TO.C,NFC2*%
X232052998Y-62270595D03*
%TD*%
D18*
%TO.C,TP5*%
X225072766Y-44487652D03*
%TD*%
D19*
%TO.C,NFC1*%
X230146047Y-62270791D03*
%TD*%
D20*
%TO.C,GND1*%
X221897496Y-50836961D03*
%TD*%
D18*
%TO.C,TP3*%
X227611454Y-44487652D03*
%TD*%
%TO.C,TP2*%
X225072766Y-47028515D03*
%TD*%
D20*
%TO.C,BAT1*%
X221897501Y-52739843D03*
%TD*%
D18*
%TO.C,TP1*%
X227611454Y-47028515D03*
%TD*%
M02*
