%TF.GenerationSoftware,KiCad,Pcbnew,10.0.0*%
%TF.CreationDate,2026-06-20T20:42:51+01:00*%
%TF.ProjectId,Devboard,44657662-6f61-4726-942e-6b696361645f,rev?*%
%TF.SameCoordinates,Original*%
%TF.FileFunction,Soldermask,Top*%
%TF.FilePolarity,Negative*%
%FSLAX46Y46*%
G04 Gerber Fmt 4.6, Leading zero omitted, Abs format (unit mm)*
G04 Created by KiCad (PCBNEW 10.0.0) date 2026-06-20 20:42:51*
%MOMM*%
%LPD*%
G01*
G04 APERTURE LIST*
G04 Aperture macros list*
%AMRoundRect*
0 Rectangle with rounded corners*
0 $1 Rounding radius*
0 $2 $3 $4 $5 $6 $7 $8 $9 X,Y pos of 4 corners*
0 Add a 4 corners polygon primitive as box body*
4,1,4,$2,$3,$4,$5,$6,$7,$8,$9,$2,$3,0*
0 Add four circle primitives for the rounded corners*
1,1,$1+$1,$2,$3*
1,1,$1+$1,$4,$5*
1,1,$1+$1,$6,$7*
1,1,$1+$1,$8,$9*
0 Add four rect primitives between the rounded corners*
20,1,$1+$1,$2,$3,$4,$5,0*
20,1,$1+$1,$4,$5,$6,$7,0*
20,1,$1+$1,$6,$7,$8,$9,0*
20,1,$1+$1,$8,$9,$2,$3,0*%
%AMFreePoly0*
4,1,17,0.337601,0.776941,0.776941,0.337601,0.788100,0.310660,0.788100,-0.310660,0.776941,-0.337601,0.337601,-0.776941,0.310660,-0.788100,-0.310660,-0.788100,-0.337601,-0.776941,-0.776941,-0.337601,-0.788100,-0.310660,-0.788100,0.310660,-0.776941,0.337601,-0.337601,0.776941,-0.310660,0.788100,0.310660,0.788100,0.337601,0.776941,0.337601,0.776941,$1*%
G04 Aperture macros list end*
%ADD10C,0.381000*%
%ADD11C,0.022860*%
%ADD12C,0.025400*%
%ADD13C,0.000000*%
%ADD14C,0.175000*%
%ADD15RoundRect,0.071120X-0.125730X0.106680X-0.125730X-0.106680X0.125730X-0.106680X0.125730X0.106680X0*%
%ADD16RoundRect,0.071120X-0.106680X-0.125730X0.106680X-0.125730X0.106680X0.125730X-0.106680X0.125730X0*%
%ADD17RoundRect,0.035560X0.161290X-0.142240X0.161290X0.142240X-0.161290X0.142240X-0.161290X-0.142240X0*%
%ADD18RoundRect,0.035560X-0.142240X-0.161290X0.142240X-0.161290X0.142240X0.161290X-0.142240X0.161290X0*%
%ADD19FreePoly0,180.000000*%
%ADD20C,1.576200*%
%ADD21C,1.346200*%
%ADD22RoundRect,0.071120X0.106680X0.125730X-0.106680X0.125730X-0.106680X-0.125730X0.106680X-0.125730X0*%
%ADD23RoundRect,0.035560X-0.161290X0.142240X-0.161290X-0.142240X0.161290X-0.142240X0.161290X0.142240X0*%
%ADD24RoundRect,0.071120X0.125730X-0.106680X0.125730X0.106680X-0.125730X0.106680X-0.125730X-0.106680X0*%
%ADD25RoundRect,0.071430X0.166670X-0.166670X0.166670X0.166670X-0.166670X0.166670X-0.166670X-0.166670X0*%
%ADD26RoundRect,0.071430X0.166670X0.166670X-0.166670X0.166670X-0.166670X-0.166670X0.166670X-0.166670X0*%
%ADD27RoundRect,0.071430X-0.166670X0.166670X-0.166670X-0.166670X0.166670X-0.166670X0.166670X0.166670X0*%
%ADD28RoundRect,0.071430X-0.166670X-0.166670X0.166670X-0.166670X0.166670X0.166670X-0.166670X0.166670X0*%
%ADD29RoundRect,0.078930X0.184170X-0.234170X0.184170X0.234170X-0.184170X0.234170X-0.184170X-0.234170X0*%
%ADD30RoundRect,0.078105X0.182245X0.213995X-0.182245X0.213995X-0.182245X-0.213995X0.182245X-0.213995X0*%
%ADD31RoundRect,0.088900X-0.457200X-0.266700X0.457200X-0.266700X0.457200X0.266700X-0.457200X0.266700X0*%
%ADD32RoundRect,0.073025X-0.473075X-0.219075X0.473075X-0.219075X0.473075X0.219075X-0.473075X0.219075X0*%
%ADD33RoundRect,0.035560X0.142240X0.161290X-0.142240X0.161290X-0.142240X-0.161290X0.142240X-0.161290X0*%
%ADD34FreePoly0,0.000000*%
%ADD35RoundRect,0.165100X0.000010X0.000010X-0.000010X0.000010X-0.000010X-0.000010X0.000010X-0.000010X0*%
%ADD36RoundRect,0.042025X-0.126075X0.296075X-0.126075X-0.296075X0.126075X-0.296075X0.126075X0.296075X0*%
%ADD37RoundRect,0.053275X-0.784825X-0.159825X0.784825X-0.159825X0.784825X0.159825X-0.784825X0.159825X0*%
%ADD38C,0.580000*%
%ADD39RoundRect,0.101430X-0.236670X0.536670X-0.236670X-0.536670X0.236670X-0.536670X0.236670X0.536670X0*%
%ADD40RoundRect,0.056430X-0.131670X0.581670X-0.131670X-0.581670X0.131670X-0.581670X0.131670X0.581670X0*%
%ADD41O,0.965200X1.854200*%
%ADD42RoundRect,0.311430X-0.726670X0.726670X-0.726670X-0.726670X0.726670X-0.726670X0.726670X0.726670X0*%
%ADD43RoundRect,0.406400X-1.219200X1.219200X-1.219200X-1.219200X1.219200X-1.219200X1.219200X1.219200X0*%
%ADD44RoundRect,0.040775X-0.122325X0.297325X-0.122325X-0.297325X0.122325X-0.297325X0.122325X0.297325X0*%
%ADD45RoundRect,0.040775X-0.297325X-0.122325X0.297325X-0.122325X0.297325X0.122325X-0.297325X0.122325X0*%
%ADD46RoundRect,0.040775X0.122325X-0.297325X0.122325X0.297325X-0.122325X0.297325X-0.122325X-0.297325X0*%
%ADD47RoundRect,0.048930X-0.239170X-0.114170X0.239170X-0.114170X0.239170X0.114170X-0.239170X0.114170X0*%
%ADD48RoundRect,0.033930X0.079170X-0.129170X0.079170X0.129170X-0.079170X0.129170X-0.079170X-0.129170X0*%
%ADD49RoundRect,0.181550X-0.206550X0.181550X-0.206550X-0.181550X0.206550X-0.181550X0.206550X0.181550X0*%
%ADD50RoundRect,0.194050X-0.194050X0.644050X-0.194050X-0.644050X0.194050X-0.644050X0.194050X0.644050X0*%
%ADD51RoundRect,0.072025X0.216075X-0.241075X0.216075X0.241075X-0.216075X0.241075X-0.216075X-0.241075X0*%
%ADD52RoundRect,0.088900X-0.330200X0.266700X-0.330200X-0.266700X0.330200X-0.266700X0.330200X0.266700X0*%
%ADD53RoundRect,0.078930X0.184170X-0.384170X0.184170X0.384170X-0.184170X0.384170X-0.184170X-0.384170X0*%
%ADD54RoundRect,0.078930X0.184170X-0.409170X0.184170X0.409170X-0.184170X0.409170X-0.184170X-0.409170X0*%
%ADD55RoundRect,0.097025X0.322075X0.291075X-0.322075X0.291075X-0.322075X-0.291075X0.322075X-0.291075X0*%
%ADD56RoundRect,0.069180X-0.161420X0.222920X-0.161420X-0.222920X0.161420X-0.222920X0.161420X0.222920X0*%
G04 APERTURE END LIST*
D10*
X220054797Y-52870115D02*
X220054797Y-49949115D01*
X220054797Y-56680115D02*
X220054797Y-55029115D01*
X220054797Y-59855115D02*
X220054797Y-58966115D01*
X220372297Y-49504615D02*
X222531297Y-49504615D01*
X220626297Y-60172615D02*
X226976297Y-60172615D01*
X228754297Y-60172615D02*
X230786297Y-60172615D01*
X231167297Y-49504615D02*
X232056297Y-49504615D01*
X232627797Y-52362115D02*
X232627797Y-54394115D01*
X232627797Y-55791115D02*
X232627797Y-56680115D01*
X232627797Y-58966115D02*
X232627797Y-59855115D01*
D11*
X229469894Y-59263839D02*
X229463726Y-59257671D01*
X229463726Y-59257671D02*
X229457557Y-59239165D01*
X229457557Y-59239165D02*
X229457557Y-59226828D01*
X229457557Y-59226828D02*
X229463726Y-59208322D01*
X229463726Y-59208322D02*
X229476063Y-59195985D01*
X229476063Y-59195985D02*
X229488400Y-59189816D01*
X229488400Y-59189816D02*
X229513074Y-59183648D01*
X229513074Y-59183648D02*
X229531580Y-59183648D01*
X229531580Y-59183648D02*
X229556254Y-59189816D01*
X229556254Y-59189816D02*
X229568591Y-59195985D01*
X229568591Y-59195985D02*
X229580928Y-59208322D01*
X229580928Y-59208322D02*
X229587097Y-59226828D01*
X229587097Y-59226828D02*
X229587097Y-59239165D01*
X229587097Y-59239165D02*
X229580928Y-59257671D01*
X229580928Y-59257671D02*
X229574760Y-59263839D01*
X229587097Y-59374874D02*
X229587097Y-59350199D01*
X229587097Y-59350199D02*
X229580928Y-59337862D01*
X229580928Y-59337862D02*
X229574760Y-59331694D01*
X229574760Y-59331694D02*
X229556254Y-59319356D01*
X229556254Y-59319356D02*
X229531580Y-59313188D01*
X229531580Y-59313188D02*
X229482231Y-59313188D01*
X229482231Y-59313188D02*
X229469894Y-59319356D01*
X229469894Y-59319356D02*
X229463726Y-59325525D01*
X229463726Y-59325525D02*
X229457557Y-59337862D01*
X229457557Y-59337862D02*
X229457557Y-59362536D01*
X229457557Y-59362536D02*
X229463726Y-59374874D01*
X229463726Y-59374874D02*
X229469894Y-59381042D01*
X229469894Y-59381042D02*
X229482231Y-59387211D01*
X229482231Y-59387211D02*
X229513074Y-59387211D01*
X229513074Y-59387211D02*
X229525411Y-59381042D01*
X229525411Y-59381042D02*
X229531580Y-59374874D01*
X229531580Y-59374874D02*
X229537748Y-59362536D01*
X229537748Y-59362536D02*
X229537748Y-59337862D01*
X229537748Y-59337862D02*
X229531580Y-59325525D01*
X229531580Y-59325525D02*
X229525411Y-59319356D01*
X229525411Y-59319356D02*
X229513074Y-59313188D01*
X229543917Y-59498245D02*
X229457557Y-59498245D01*
X229593266Y-59467402D02*
X229500737Y-59436559D01*
X229500737Y-59436559D02*
X229500737Y-59516750D01*
X231311394Y-51389839D02*
X231305226Y-51383671D01*
X231305226Y-51383671D02*
X231299057Y-51365165D01*
X231299057Y-51365165D02*
X231299057Y-51352828D01*
X231299057Y-51352828D02*
X231305226Y-51334322D01*
X231305226Y-51334322D02*
X231317563Y-51321985D01*
X231317563Y-51321985D02*
X231329900Y-51315816D01*
X231329900Y-51315816D02*
X231354574Y-51309648D01*
X231354574Y-51309648D02*
X231373080Y-51309648D01*
X231373080Y-51309648D02*
X231397754Y-51315816D01*
X231397754Y-51315816D02*
X231410091Y-51321985D01*
X231410091Y-51321985D02*
X231422428Y-51334322D01*
X231422428Y-51334322D02*
X231428597Y-51352828D01*
X231428597Y-51352828D02*
X231428597Y-51365165D01*
X231428597Y-51365165D02*
X231422428Y-51383671D01*
X231422428Y-51383671D02*
X231416260Y-51389839D01*
X231428597Y-51433019D02*
X231428597Y-51519379D01*
X231428597Y-51519379D02*
X231299057Y-51463862D01*
X231299057Y-51574896D02*
X231299057Y-51599570D01*
X231299057Y-51599570D02*
X231305226Y-51611907D01*
X231305226Y-51611907D02*
X231311394Y-51618076D01*
X231311394Y-51618076D02*
X231329900Y-51630413D01*
X231329900Y-51630413D02*
X231354574Y-51636582D01*
X231354574Y-51636582D02*
X231403923Y-51636582D01*
X231403923Y-51636582D02*
X231416260Y-51630413D01*
X231416260Y-51630413D02*
X231422428Y-51624245D01*
X231422428Y-51624245D02*
X231428597Y-51611907D01*
X231428597Y-51611907D02*
X231428597Y-51587233D01*
X231428597Y-51587233D02*
X231422428Y-51574896D01*
X231422428Y-51574896D02*
X231416260Y-51568727D01*
X231416260Y-51568727D02*
X231403923Y-51562559D01*
X231403923Y-51562559D02*
X231373080Y-51562559D01*
X231373080Y-51562559D02*
X231360743Y-51568727D01*
X231360743Y-51568727D02*
X231354574Y-51574896D01*
X231354574Y-51574896D02*
X231348406Y-51587233D01*
X231348406Y-51587233D02*
X231348406Y-51611907D01*
X231348406Y-51611907D02*
X231354574Y-51624245D01*
X231354574Y-51624245D02*
X231360743Y-51630413D01*
X231360743Y-51630413D02*
X231373080Y-51636582D01*
X231592021Y-57615517D02*
X231585853Y-57621686D01*
X231585853Y-57621686D02*
X231567347Y-57627854D01*
X231567347Y-57627854D02*
X231555010Y-57627854D01*
X231555010Y-57627854D02*
X231536504Y-57621686D01*
X231536504Y-57621686D02*
X231524167Y-57609348D01*
X231524167Y-57609348D02*
X231517998Y-57597011D01*
X231517998Y-57597011D02*
X231511830Y-57572337D01*
X231511830Y-57572337D02*
X231511830Y-57553831D01*
X231511830Y-57553831D02*
X231517998Y-57529157D01*
X231517998Y-57529157D02*
X231524167Y-57516820D01*
X231524167Y-57516820D02*
X231536504Y-57504483D01*
X231536504Y-57504483D02*
X231555010Y-57498314D01*
X231555010Y-57498314D02*
X231567347Y-57498314D01*
X231567347Y-57498314D02*
X231585853Y-57504483D01*
X231585853Y-57504483D02*
X231592021Y-57510651D01*
X231703056Y-57498314D02*
X231678381Y-57498314D01*
X231678381Y-57498314D02*
X231666044Y-57504483D01*
X231666044Y-57504483D02*
X231659876Y-57510651D01*
X231659876Y-57510651D02*
X231647538Y-57529157D01*
X231647538Y-57529157D02*
X231641370Y-57553831D01*
X231641370Y-57553831D02*
X231641370Y-57603180D01*
X231641370Y-57603180D02*
X231647538Y-57615517D01*
X231647538Y-57615517D02*
X231653707Y-57621686D01*
X231653707Y-57621686D02*
X231666044Y-57627854D01*
X231666044Y-57627854D02*
X231690718Y-57627854D01*
X231690718Y-57627854D02*
X231703056Y-57621686D01*
X231703056Y-57621686D02*
X231709224Y-57615517D01*
X231709224Y-57615517D02*
X231715393Y-57603180D01*
X231715393Y-57603180D02*
X231715393Y-57572337D01*
X231715393Y-57572337D02*
X231709224Y-57560000D01*
X231709224Y-57560000D02*
X231703056Y-57553831D01*
X231703056Y-57553831D02*
X231690718Y-57547663D01*
X231690718Y-57547663D02*
X231666044Y-57547663D01*
X231666044Y-57547663D02*
X231653707Y-57553831D01*
X231653707Y-57553831D02*
X231647538Y-57560000D01*
X231647538Y-57560000D02*
X231641370Y-57572337D01*
X231789415Y-57553831D02*
X231777078Y-57547663D01*
X231777078Y-57547663D02*
X231770909Y-57541494D01*
X231770909Y-57541494D02*
X231764741Y-57529157D01*
X231764741Y-57529157D02*
X231764741Y-57522988D01*
X231764741Y-57522988D02*
X231770909Y-57510651D01*
X231770909Y-57510651D02*
X231777078Y-57504483D01*
X231777078Y-57504483D02*
X231789415Y-57498314D01*
X231789415Y-57498314D02*
X231814089Y-57498314D01*
X231814089Y-57498314D02*
X231826427Y-57504483D01*
X231826427Y-57504483D02*
X231832595Y-57510651D01*
X231832595Y-57510651D02*
X231838764Y-57522988D01*
X231838764Y-57522988D02*
X231838764Y-57529157D01*
X231838764Y-57529157D02*
X231832595Y-57541494D01*
X231832595Y-57541494D02*
X231826427Y-57547663D01*
X231826427Y-57547663D02*
X231814089Y-57553831D01*
X231814089Y-57553831D02*
X231789415Y-57553831D01*
X231789415Y-57553831D02*
X231777078Y-57560000D01*
X231777078Y-57560000D02*
X231770909Y-57566168D01*
X231770909Y-57566168D02*
X231764741Y-57578506D01*
X231764741Y-57578506D02*
X231764741Y-57603180D01*
X231764741Y-57603180D02*
X231770909Y-57615517D01*
X231770909Y-57615517D02*
X231777078Y-57621686D01*
X231777078Y-57621686D02*
X231789415Y-57627854D01*
X231789415Y-57627854D02*
X231814089Y-57627854D01*
X231814089Y-57627854D02*
X231826427Y-57621686D01*
X231826427Y-57621686D02*
X231832595Y-57615517D01*
X231832595Y-57615517D02*
X231838764Y-57603180D01*
X231838764Y-57603180D02*
X231838764Y-57578506D01*
X231838764Y-57578506D02*
X231832595Y-57566168D01*
X231832595Y-57566168D02*
X231826427Y-57560000D01*
X231826427Y-57560000D02*
X231814089Y-57553831D01*
X223567936Y-59430390D02*
X223506250Y-59473570D01*
X223567936Y-59504413D02*
X223438396Y-59504413D01*
X223438396Y-59504413D02*
X223438396Y-59455064D01*
X223438396Y-59455064D02*
X223444565Y-59442727D01*
X223444565Y-59442727D02*
X223450733Y-59436558D01*
X223450733Y-59436558D02*
X223463070Y-59430390D01*
X223463070Y-59430390D02*
X223481576Y-59430390D01*
X223481576Y-59430390D02*
X223493913Y-59436558D01*
X223493913Y-59436558D02*
X223500082Y-59442727D01*
X223500082Y-59442727D02*
X223506250Y-59455064D01*
X223506250Y-59455064D02*
X223506250Y-59504413D01*
X223450733Y-59381041D02*
X223444565Y-59374873D01*
X223444565Y-59374873D02*
X223438396Y-59362536D01*
X223438396Y-59362536D02*
X223438396Y-59331693D01*
X223438396Y-59331693D02*
X223444565Y-59319356D01*
X223444565Y-59319356D02*
X223450733Y-59313187D01*
X223450733Y-59313187D02*
X223463070Y-59307018D01*
X223463070Y-59307018D02*
X223475408Y-59307018D01*
X223475408Y-59307018D02*
X223493913Y-59313187D01*
X223493913Y-59313187D02*
X223567936Y-59387210D01*
X223567936Y-59387210D02*
X223567936Y-59307018D01*
X223438396Y-59195985D02*
X223438396Y-59220659D01*
X223438396Y-59220659D02*
X223444565Y-59232996D01*
X223444565Y-59232996D02*
X223450733Y-59239165D01*
X223450733Y-59239165D02*
X223469239Y-59251502D01*
X223469239Y-59251502D02*
X223493913Y-59257670D01*
X223493913Y-59257670D02*
X223543262Y-59257670D01*
X223543262Y-59257670D02*
X223555599Y-59251502D01*
X223555599Y-59251502D02*
X223561768Y-59245333D01*
X223561768Y-59245333D02*
X223567936Y-59232996D01*
X223567936Y-59232996D02*
X223567936Y-59208322D01*
X223567936Y-59208322D02*
X223561768Y-59195985D01*
X223561768Y-59195985D02*
X223555599Y-59189816D01*
X223555599Y-59189816D02*
X223543262Y-59183647D01*
X223543262Y-59183647D02*
X223512419Y-59183647D01*
X223512419Y-59183647D02*
X223500082Y-59189816D01*
X223500082Y-59189816D02*
X223493913Y-59195985D01*
X223493913Y-59195985D02*
X223487745Y-59208322D01*
X223487745Y-59208322D02*
X223487745Y-59232996D01*
X223487745Y-59232996D02*
X223493913Y-59245333D01*
X223493913Y-59245333D02*
X223500082Y-59251502D01*
X223500082Y-59251502D02*
X223512419Y-59257670D01*
X226575521Y-51404854D02*
X226532341Y-51343168D01*
X226501498Y-51404854D02*
X226501498Y-51275314D01*
X226501498Y-51275314D02*
X226550847Y-51275314D01*
X226550847Y-51275314D02*
X226563184Y-51281483D01*
X226563184Y-51281483D02*
X226569353Y-51287651D01*
X226569353Y-51287651D02*
X226575521Y-51299988D01*
X226575521Y-51299988D02*
X226575521Y-51318494D01*
X226575521Y-51318494D02*
X226569353Y-51330831D01*
X226569353Y-51330831D02*
X226563184Y-51337000D01*
X226563184Y-51337000D02*
X226550847Y-51343168D01*
X226550847Y-51343168D02*
X226501498Y-51343168D01*
X226618701Y-51275314D02*
X226698893Y-51275314D01*
X226698893Y-51275314D02*
X226655713Y-51324663D01*
X226655713Y-51324663D02*
X226674218Y-51324663D01*
X226674218Y-51324663D02*
X226686556Y-51330831D01*
X226686556Y-51330831D02*
X226692724Y-51337000D01*
X226692724Y-51337000D02*
X226698893Y-51349337D01*
X226698893Y-51349337D02*
X226698893Y-51380180D01*
X226698893Y-51380180D02*
X226692724Y-51392517D01*
X226692724Y-51392517D02*
X226686556Y-51398686D01*
X226686556Y-51398686D02*
X226674218Y-51404854D01*
X226674218Y-51404854D02*
X226637207Y-51404854D01*
X226637207Y-51404854D02*
X226624870Y-51398686D01*
X226624870Y-51398686D02*
X226618701Y-51392517D01*
X226748241Y-51287651D02*
X226754409Y-51281483D01*
X226754409Y-51281483D02*
X226766747Y-51275314D01*
X226766747Y-51275314D02*
X226797589Y-51275314D01*
X226797589Y-51275314D02*
X226809927Y-51281483D01*
X226809927Y-51281483D02*
X226816095Y-51287651D01*
X226816095Y-51287651D02*
X226822264Y-51299988D01*
X226822264Y-51299988D02*
X226822264Y-51312326D01*
X226822264Y-51312326D02*
X226816095Y-51330831D01*
X226816095Y-51330831D02*
X226742072Y-51404854D01*
X226742072Y-51404854D02*
X226822264Y-51404854D01*
X225789572Y-51172712D02*
X225795740Y-51166544D01*
X225795740Y-51166544D02*
X225814246Y-51160375D01*
X225814246Y-51160375D02*
X225826583Y-51160375D01*
X225826583Y-51160375D02*
X225845089Y-51166544D01*
X225845089Y-51166544D02*
X225857426Y-51178881D01*
X225857426Y-51178881D02*
X225863595Y-51191218D01*
X225863595Y-51191218D02*
X225869763Y-51215892D01*
X225869763Y-51215892D02*
X225869763Y-51234398D01*
X225869763Y-51234398D02*
X225863595Y-51259072D01*
X225863595Y-51259072D02*
X225857426Y-51271409D01*
X225857426Y-51271409D02*
X225845089Y-51283746D01*
X225845089Y-51283746D02*
X225826583Y-51289915D01*
X225826583Y-51289915D02*
X225814246Y-51289915D01*
X225814246Y-51289915D02*
X225795740Y-51283746D01*
X225795740Y-51283746D02*
X225789572Y-51277578D01*
X225672369Y-51289915D02*
X225734055Y-51289915D01*
X225734055Y-51289915D02*
X225740223Y-51228229D01*
X225740223Y-51228229D02*
X225734055Y-51234398D01*
X225734055Y-51234398D02*
X225721718Y-51240566D01*
X225721718Y-51240566D02*
X225690875Y-51240566D01*
X225690875Y-51240566D02*
X225678538Y-51234398D01*
X225678538Y-51234398D02*
X225672369Y-51228229D01*
X225672369Y-51228229D02*
X225666200Y-51215892D01*
X225666200Y-51215892D02*
X225666200Y-51185049D01*
X225666200Y-51185049D02*
X225672369Y-51172712D01*
X225672369Y-51172712D02*
X225678538Y-51166544D01*
X225678538Y-51166544D02*
X225690875Y-51160375D01*
X225690875Y-51160375D02*
X225721718Y-51160375D01*
X225721718Y-51160375D02*
X225734055Y-51166544D01*
X225734055Y-51166544D02*
X225740223Y-51172712D01*
X225623021Y-51289915D02*
X225536661Y-51289915D01*
X225536661Y-51289915D02*
X225592178Y-51160375D01*
X231934057Y-51389839D02*
X231995743Y-51346659D01*
X231934057Y-51315816D02*
X232063597Y-51315816D01*
X232063597Y-51315816D02*
X232063597Y-51365165D01*
X232063597Y-51365165D02*
X232057428Y-51377502D01*
X232057428Y-51377502D02*
X232051260Y-51383671D01*
X232051260Y-51383671D02*
X232038923Y-51389839D01*
X232038923Y-51389839D02*
X232020417Y-51389839D01*
X232020417Y-51389839D02*
X232008080Y-51383671D01*
X232008080Y-51383671D02*
X232001911Y-51377502D01*
X232001911Y-51377502D02*
X231995743Y-51365165D01*
X231995743Y-51365165D02*
X231995743Y-51315816D01*
X232020417Y-51500874D02*
X231934057Y-51500874D01*
X232069766Y-51470031D02*
X231977237Y-51439188D01*
X231977237Y-51439188D02*
X231977237Y-51519379D01*
X232063597Y-51556390D02*
X232063597Y-51636582D01*
X232063597Y-51636582D02*
X232014248Y-51593402D01*
X232014248Y-51593402D02*
X232014248Y-51611907D01*
X232014248Y-51611907D02*
X232008080Y-51624245D01*
X232008080Y-51624245D02*
X232001911Y-51630413D01*
X232001911Y-51630413D02*
X231989574Y-51636582D01*
X231989574Y-51636582D02*
X231958731Y-51636582D01*
X231958731Y-51636582D02*
X231946394Y-51630413D01*
X231946394Y-51630413D02*
X231940226Y-51624245D01*
X231940226Y-51624245D02*
X231934057Y-51611907D01*
X231934057Y-51611907D02*
X231934057Y-51574896D01*
X231934057Y-51574896D02*
X231940226Y-51562559D01*
X231940226Y-51562559D02*
X231946394Y-51556390D01*
X231247894Y-56622239D02*
X231241726Y-56616071D01*
X231241726Y-56616071D02*
X231235557Y-56597565D01*
X231235557Y-56597565D02*
X231235557Y-56585228D01*
X231235557Y-56585228D02*
X231241726Y-56566722D01*
X231241726Y-56566722D02*
X231254063Y-56554385D01*
X231254063Y-56554385D02*
X231266400Y-56548216D01*
X231266400Y-56548216D02*
X231291074Y-56542048D01*
X231291074Y-56542048D02*
X231309580Y-56542048D01*
X231309580Y-56542048D02*
X231334254Y-56548216D01*
X231334254Y-56548216D02*
X231346591Y-56554385D01*
X231346591Y-56554385D02*
X231358928Y-56566722D01*
X231358928Y-56566722D02*
X231365097Y-56585228D01*
X231365097Y-56585228D02*
X231365097Y-56597565D01*
X231365097Y-56597565D02*
X231358928Y-56616071D01*
X231358928Y-56616071D02*
X231352760Y-56622239D01*
X231365097Y-56739442D02*
X231365097Y-56677756D01*
X231365097Y-56677756D02*
X231303411Y-56671588D01*
X231303411Y-56671588D02*
X231309580Y-56677756D01*
X231309580Y-56677756D02*
X231315748Y-56690094D01*
X231315748Y-56690094D02*
X231315748Y-56720936D01*
X231315748Y-56720936D02*
X231309580Y-56733274D01*
X231309580Y-56733274D02*
X231303411Y-56739442D01*
X231303411Y-56739442D02*
X231291074Y-56745611D01*
X231291074Y-56745611D02*
X231260231Y-56745611D01*
X231260231Y-56745611D02*
X231247894Y-56739442D01*
X231247894Y-56739442D02*
X231241726Y-56733274D01*
X231241726Y-56733274D02*
X231235557Y-56720936D01*
X231235557Y-56720936D02*
X231235557Y-56690094D01*
X231235557Y-56690094D02*
X231241726Y-56677756D01*
X231241726Y-56677756D02*
X231247894Y-56671588D01*
X231321917Y-56856645D02*
X231235557Y-56856645D01*
X231371266Y-56825802D02*
X231278737Y-56794959D01*
X231278737Y-56794959D02*
X231278737Y-56875150D01*
X222702021Y-53424517D02*
X222695853Y-53430686D01*
X222695853Y-53430686D02*
X222677347Y-53436854D01*
X222677347Y-53436854D02*
X222665010Y-53436854D01*
X222665010Y-53436854D02*
X222646504Y-53430686D01*
X222646504Y-53430686D02*
X222634167Y-53418348D01*
X222634167Y-53418348D02*
X222627998Y-53406011D01*
X222627998Y-53406011D02*
X222621830Y-53381337D01*
X222621830Y-53381337D02*
X222621830Y-53362831D01*
X222621830Y-53362831D02*
X222627998Y-53338157D01*
X222627998Y-53338157D02*
X222634167Y-53325820D01*
X222634167Y-53325820D02*
X222646504Y-53313483D01*
X222646504Y-53313483D02*
X222665010Y-53307314D01*
X222665010Y-53307314D02*
X222677347Y-53307314D01*
X222677347Y-53307314D02*
X222695853Y-53313483D01*
X222695853Y-53313483D02*
X222702021Y-53319651D01*
X222819224Y-53307314D02*
X222757538Y-53307314D01*
X222757538Y-53307314D02*
X222751370Y-53369000D01*
X222751370Y-53369000D02*
X222757538Y-53362831D01*
X222757538Y-53362831D02*
X222769876Y-53356663D01*
X222769876Y-53356663D02*
X222800718Y-53356663D01*
X222800718Y-53356663D02*
X222813056Y-53362831D01*
X222813056Y-53362831D02*
X222819224Y-53369000D01*
X222819224Y-53369000D02*
X222825393Y-53381337D01*
X222825393Y-53381337D02*
X222825393Y-53412180D01*
X222825393Y-53412180D02*
X222819224Y-53424517D01*
X222819224Y-53424517D02*
X222813056Y-53430686D01*
X222813056Y-53430686D02*
X222800718Y-53436854D01*
X222800718Y-53436854D02*
X222769876Y-53436854D01*
X222769876Y-53436854D02*
X222757538Y-53430686D01*
X222757538Y-53430686D02*
X222751370Y-53424517D01*
X222942595Y-53307314D02*
X222880909Y-53307314D01*
X222880909Y-53307314D02*
X222874741Y-53369000D01*
X222874741Y-53369000D02*
X222880909Y-53362831D01*
X222880909Y-53362831D02*
X222893247Y-53356663D01*
X222893247Y-53356663D02*
X222924089Y-53356663D01*
X222924089Y-53356663D02*
X222936427Y-53362831D01*
X222936427Y-53362831D02*
X222942595Y-53369000D01*
X222942595Y-53369000D02*
X222948764Y-53381337D01*
X222948764Y-53381337D02*
X222948764Y-53412180D01*
X222948764Y-53412180D02*
X222942595Y-53424517D01*
X222942595Y-53424517D02*
X222936427Y-53430686D01*
X222936427Y-53430686D02*
X222924089Y-53436854D01*
X222924089Y-53436854D02*
X222893247Y-53436854D01*
X222893247Y-53436854D02*
X222880909Y-53430686D01*
X222880909Y-53430686D02*
X222874741Y-53424517D01*
X224609699Y-50413390D02*
X224615868Y-50419558D01*
X224615868Y-50419558D02*
X224622036Y-50438064D01*
X224622036Y-50438064D02*
X224622036Y-50450401D01*
X224622036Y-50450401D02*
X224615868Y-50468907D01*
X224615868Y-50468907D02*
X224603530Y-50481244D01*
X224603530Y-50481244D02*
X224591193Y-50487413D01*
X224591193Y-50487413D02*
X224566519Y-50493581D01*
X224566519Y-50493581D02*
X224548013Y-50493581D01*
X224548013Y-50493581D02*
X224523339Y-50487413D01*
X224523339Y-50487413D02*
X224511002Y-50481244D01*
X224511002Y-50481244D02*
X224498665Y-50468907D01*
X224498665Y-50468907D02*
X224492496Y-50450401D01*
X224492496Y-50450401D02*
X224492496Y-50438064D01*
X224492496Y-50438064D02*
X224498665Y-50419558D01*
X224498665Y-50419558D02*
X224504833Y-50413390D01*
X224535676Y-50302356D02*
X224622036Y-50302356D01*
X224486328Y-50333198D02*
X224578856Y-50364041D01*
X224578856Y-50364041D02*
X224578856Y-50283850D01*
X224492496Y-50246839D02*
X224492496Y-50160479D01*
X224492496Y-50160479D02*
X224622036Y-50215996D01*
X226866394Y-59263839D02*
X226860226Y-59257671D01*
X226860226Y-59257671D02*
X226854057Y-59239165D01*
X226854057Y-59239165D02*
X226854057Y-59226828D01*
X226854057Y-59226828D02*
X226860226Y-59208322D01*
X226860226Y-59208322D02*
X226872563Y-59195985D01*
X226872563Y-59195985D02*
X226884900Y-59189816D01*
X226884900Y-59189816D02*
X226909574Y-59183648D01*
X226909574Y-59183648D02*
X226928080Y-59183648D01*
X226928080Y-59183648D02*
X226952754Y-59189816D01*
X226952754Y-59189816D02*
X226965091Y-59195985D01*
X226965091Y-59195985D02*
X226977428Y-59208322D01*
X226977428Y-59208322D02*
X226983597Y-59226828D01*
X226983597Y-59226828D02*
X226983597Y-59239165D01*
X226983597Y-59239165D02*
X226977428Y-59257671D01*
X226977428Y-59257671D02*
X226971260Y-59263839D01*
X226983597Y-59374874D02*
X226983597Y-59350199D01*
X226983597Y-59350199D02*
X226977428Y-59337862D01*
X226977428Y-59337862D02*
X226971260Y-59331694D01*
X226971260Y-59331694D02*
X226952754Y-59319356D01*
X226952754Y-59319356D02*
X226928080Y-59313188D01*
X226928080Y-59313188D02*
X226878731Y-59313188D01*
X226878731Y-59313188D02*
X226866394Y-59319356D01*
X226866394Y-59319356D02*
X226860226Y-59325525D01*
X226860226Y-59325525D02*
X226854057Y-59337862D01*
X226854057Y-59337862D02*
X226854057Y-59362536D01*
X226854057Y-59362536D02*
X226860226Y-59374874D01*
X226860226Y-59374874D02*
X226866394Y-59381042D01*
X226866394Y-59381042D02*
X226878731Y-59387211D01*
X226878731Y-59387211D02*
X226909574Y-59387211D01*
X226909574Y-59387211D02*
X226921911Y-59381042D01*
X226921911Y-59381042D02*
X226928080Y-59374874D01*
X226928080Y-59374874D02*
X226934248Y-59362536D01*
X226934248Y-59362536D02*
X226934248Y-59337862D01*
X226934248Y-59337862D02*
X226928080Y-59325525D01*
X226928080Y-59325525D02*
X226921911Y-59319356D01*
X226921911Y-59319356D02*
X226909574Y-59313188D01*
X226983597Y-59430390D02*
X226983597Y-59510582D01*
X226983597Y-59510582D02*
X226934248Y-59467402D01*
X226934248Y-59467402D02*
X226934248Y-59485907D01*
X226934248Y-59485907D02*
X226928080Y-59498245D01*
X226928080Y-59498245D02*
X226921911Y-59504413D01*
X226921911Y-59504413D02*
X226909574Y-59510582D01*
X226909574Y-59510582D02*
X226878731Y-59510582D01*
X226878731Y-59510582D02*
X226866394Y-59504413D01*
X226866394Y-59504413D02*
X226860226Y-59498245D01*
X226860226Y-59498245D02*
X226854057Y-59485907D01*
X226854057Y-59485907D02*
X226854057Y-59448896D01*
X226854057Y-59448896D02*
X226860226Y-59436559D01*
X226860226Y-59436559D02*
X226866394Y-59430390D01*
X225599936Y-59430390D02*
X225538250Y-59473570D01*
X225599936Y-59504413D02*
X225470396Y-59504413D01*
X225470396Y-59504413D02*
X225470396Y-59455064D01*
X225470396Y-59455064D02*
X225476565Y-59442727D01*
X225476565Y-59442727D02*
X225482733Y-59436558D01*
X225482733Y-59436558D02*
X225495070Y-59430390D01*
X225495070Y-59430390D02*
X225513576Y-59430390D01*
X225513576Y-59430390D02*
X225525913Y-59436558D01*
X225525913Y-59436558D02*
X225532082Y-59442727D01*
X225532082Y-59442727D02*
X225538250Y-59455064D01*
X225538250Y-59455064D02*
X225538250Y-59504413D01*
X225470396Y-59387210D02*
X225470396Y-59307018D01*
X225470396Y-59307018D02*
X225519745Y-59350198D01*
X225519745Y-59350198D02*
X225519745Y-59331693D01*
X225519745Y-59331693D02*
X225525913Y-59319356D01*
X225525913Y-59319356D02*
X225532082Y-59313187D01*
X225532082Y-59313187D02*
X225544419Y-59307018D01*
X225544419Y-59307018D02*
X225575262Y-59307018D01*
X225575262Y-59307018D02*
X225587599Y-59313187D01*
X225587599Y-59313187D02*
X225593768Y-59319356D01*
X225593768Y-59319356D02*
X225599936Y-59331693D01*
X225599936Y-59331693D02*
X225599936Y-59368704D01*
X225599936Y-59368704D02*
X225593768Y-59381041D01*
X225593768Y-59381041D02*
X225587599Y-59387210D01*
X225470396Y-59189816D02*
X225470396Y-59251502D01*
X225470396Y-59251502D02*
X225532082Y-59257670D01*
X225532082Y-59257670D02*
X225525913Y-59251502D01*
X225525913Y-59251502D02*
X225519745Y-59239165D01*
X225519745Y-59239165D02*
X225519745Y-59208322D01*
X225519745Y-59208322D02*
X225525913Y-59195985D01*
X225525913Y-59195985D02*
X225532082Y-59189816D01*
X225532082Y-59189816D02*
X225544419Y-59183647D01*
X225544419Y-59183647D02*
X225575262Y-59183647D01*
X225575262Y-59183647D02*
X225587599Y-59189816D01*
X225587599Y-59189816D02*
X225593768Y-59195985D01*
X225593768Y-59195985D02*
X225599936Y-59208322D01*
X225599936Y-59208322D02*
X225599936Y-59239165D01*
X225599936Y-59239165D02*
X225593768Y-59251502D01*
X225593768Y-59251502D02*
X225587599Y-59257670D01*
X220963572Y-55998712D02*
X220969740Y-55992544D01*
X220969740Y-55992544D02*
X220988246Y-55986375D01*
X220988246Y-55986375D02*
X221000583Y-55986375D01*
X221000583Y-55986375D02*
X221019089Y-55992544D01*
X221019089Y-55992544D02*
X221031426Y-56004881D01*
X221031426Y-56004881D02*
X221037595Y-56017218D01*
X221037595Y-56017218D02*
X221043763Y-56041892D01*
X221043763Y-56041892D02*
X221043763Y-56060398D01*
X221043763Y-56060398D02*
X221037595Y-56085072D01*
X221037595Y-56085072D02*
X221031426Y-56097409D01*
X221031426Y-56097409D02*
X221019089Y-56109746D01*
X221019089Y-56109746D02*
X221000583Y-56115915D01*
X221000583Y-56115915D02*
X220988246Y-56115915D01*
X220988246Y-56115915D02*
X220969740Y-56109746D01*
X220969740Y-56109746D02*
X220963572Y-56103578D01*
X220846369Y-56115915D02*
X220908055Y-56115915D01*
X220908055Y-56115915D02*
X220914223Y-56054229D01*
X220914223Y-56054229D02*
X220908055Y-56060398D01*
X220908055Y-56060398D02*
X220895718Y-56066566D01*
X220895718Y-56066566D02*
X220864875Y-56066566D01*
X220864875Y-56066566D02*
X220852538Y-56060398D01*
X220852538Y-56060398D02*
X220846369Y-56054229D01*
X220846369Y-56054229D02*
X220840200Y-56041892D01*
X220840200Y-56041892D02*
X220840200Y-56011049D01*
X220840200Y-56011049D02*
X220846369Y-55998712D01*
X220846369Y-55998712D02*
X220852538Y-55992544D01*
X220852538Y-55992544D02*
X220864875Y-55986375D01*
X220864875Y-55986375D02*
X220895718Y-55986375D01*
X220895718Y-55986375D02*
X220908055Y-55992544D01*
X220908055Y-55992544D02*
X220914223Y-55998712D01*
X220716829Y-55986375D02*
X220790852Y-55986375D01*
X220753841Y-55986375D02*
X220753841Y-56115915D01*
X220753841Y-56115915D02*
X220766178Y-56097409D01*
X220766178Y-56097409D02*
X220778515Y-56085072D01*
X220778515Y-56085072D02*
X220790852Y-56078904D01*
X221087894Y-54673639D02*
X221081726Y-54667471D01*
X221081726Y-54667471D02*
X221075557Y-54648965D01*
X221075557Y-54648965D02*
X221075557Y-54636628D01*
X221075557Y-54636628D02*
X221081726Y-54618122D01*
X221081726Y-54618122D02*
X221094063Y-54605785D01*
X221094063Y-54605785D02*
X221106400Y-54599616D01*
X221106400Y-54599616D02*
X221131074Y-54593448D01*
X221131074Y-54593448D02*
X221149580Y-54593448D01*
X221149580Y-54593448D02*
X221174254Y-54599616D01*
X221174254Y-54599616D02*
X221186591Y-54605785D01*
X221186591Y-54605785D02*
X221198928Y-54618122D01*
X221198928Y-54618122D02*
X221205097Y-54636628D01*
X221205097Y-54636628D02*
X221205097Y-54648965D01*
X221205097Y-54648965D02*
X221198928Y-54667471D01*
X221198928Y-54667471D02*
X221192760Y-54673639D01*
X221161917Y-54784674D02*
X221075557Y-54784674D01*
X221211266Y-54753831D02*
X221118737Y-54722988D01*
X221118737Y-54722988D02*
X221118737Y-54803179D01*
X221075557Y-54858696D02*
X221075557Y-54883370D01*
X221075557Y-54883370D02*
X221081726Y-54895707D01*
X221081726Y-54895707D02*
X221087894Y-54901876D01*
X221087894Y-54901876D02*
X221106400Y-54914213D01*
X221106400Y-54914213D02*
X221131074Y-54920382D01*
X221131074Y-54920382D02*
X221180423Y-54920382D01*
X221180423Y-54920382D02*
X221192760Y-54914213D01*
X221192760Y-54914213D02*
X221198928Y-54908045D01*
X221198928Y-54908045D02*
X221205097Y-54895707D01*
X221205097Y-54895707D02*
X221205097Y-54871033D01*
X221205097Y-54871033D02*
X221198928Y-54858696D01*
X221198928Y-54858696D02*
X221192760Y-54852527D01*
X221192760Y-54852527D02*
X221180423Y-54846359D01*
X221180423Y-54846359D02*
X221149580Y-54846359D01*
X221149580Y-54846359D02*
X221137243Y-54852527D01*
X221137243Y-54852527D02*
X221131074Y-54858696D01*
X221131074Y-54858696D02*
X221124906Y-54871033D01*
X221124906Y-54871033D02*
X221124906Y-54895707D01*
X221124906Y-54895707D02*
X221131074Y-54908045D01*
X221131074Y-54908045D02*
X221137243Y-54914213D01*
X221137243Y-54914213D02*
X221149580Y-54920382D01*
X223884572Y-51172712D02*
X223890740Y-51166544D01*
X223890740Y-51166544D02*
X223909246Y-51160375D01*
X223909246Y-51160375D02*
X223921583Y-51160375D01*
X223921583Y-51160375D02*
X223940089Y-51166544D01*
X223940089Y-51166544D02*
X223952426Y-51178881D01*
X223952426Y-51178881D02*
X223958595Y-51191218D01*
X223958595Y-51191218D02*
X223964763Y-51215892D01*
X223964763Y-51215892D02*
X223964763Y-51234398D01*
X223964763Y-51234398D02*
X223958595Y-51259072D01*
X223958595Y-51259072D02*
X223952426Y-51271409D01*
X223952426Y-51271409D02*
X223940089Y-51283746D01*
X223940089Y-51283746D02*
X223921583Y-51289915D01*
X223921583Y-51289915D02*
X223909246Y-51289915D01*
X223909246Y-51289915D02*
X223890740Y-51283746D01*
X223890740Y-51283746D02*
X223884572Y-51277578D01*
X223773538Y-51246735D02*
X223773538Y-51160375D01*
X223804380Y-51296084D02*
X223835223Y-51203555D01*
X223835223Y-51203555D02*
X223755032Y-51203555D01*
X223643998Y-51289915D02*
X223705684Y-51289915D01*
X223705684Y-51289915D02*
X223711852Y-51228229D01*
X223711852Y-51228229D02*
X223705684Y-51234398D01*
X223705684Y-51234398D02*
X223693347Y-51240566D01*
X223693347Y-51240566D02*
X223662504Y-51240566D01*
X223662504Y-51240566D02*
X223650167Y-51234398D01*
X223650167Y-51234398D02*
X223643998Y-51228229D01*
X223643998Y-51228229D02*
X223637829Y-51215892D01*
X223637829Y-51215892D02*
X223637829Y-51185049D01*
X223637829Y-51185049D02*
X223643998Y-51172712D01*
X223643998Y-51172712D02*
X223650167Y-51166544D01*
X223650167Y-51166544D02*
X223662504Y-51160375D01*
X223662504Y-51160375D02*
X223693347Y-51160375D01*
X223693347Y-51160375D02*
X223705684Y-51166544D01*
X223705684Y-51166544D02*
X223711852Y-51172712D01*
X228202038Y-60824659D02*
X228208206Y-60818491D01*
X228208206Y-60818491D02*
X228226712Y-60812322D01*
X228226712Y-60812322D02*
X228239049Y-60812322D01*
X228239049Y-60812322D02*
X228257555Y-60818491D01*
X228257555Y-60818491D02*
X228269892Y-60830828D01*
X228269892Y-60830828D02*
X228276061Y-60843165D01*
X228276061Y-60843165D02*
X228282229Y-60867839D01*
X228282229Y-60867839D02*
X228282229Y-60886345D01*
X228282229Y-60886345D02*
X228276061Y-60911019D01*
X228276061Y-60911019D02*
X228269892Y-60923356D01*
X228269892Y-60923356D02*
X228257555Y-60935693D01*
X228257555Y-60935693D02*
X228239049Y-60941862D01*
X228239049Y-60941862D02*
X228226712Y-60941862D01*
X228226712Y-60941862D02*
X228208206Y-60935693D01*
X228208206Y-60935693D02*
X228202038Y-60929525D01*
X228158858Y-60941862D02*
X228072498Y-60941862D01*
X228072498Y-60941862D02*
X228128015Y-60812322D01*
X227998475Y-60941862D02*
X227986138Y-60941862D01*
X227986138Y-60941862D02*
X227973801Y-60935693D01*
X227973801Y-60935693D02*
X227967633Y-60929525D01*
X227967633Y-60929525D02*
X227961464Y-60917188D01*
X227961464Y-60917188D02*
X227955295Y-60892513D01*
X227955295Y-60892513D02*
X227955295Y-60861671D01*
X227955295Y-60861671D02*
X227961464Y-60836996D01*
X227961464Y-60836996D02*
X227967633Y-60824659D01*
X227967633Y-60824659D02*
X227973801Y-60818491D01*
X227973801Y-60818491D02*
X227986138Y-60812322D01*
X227986138Y-60812322D02*
X227998475Y-60812322D01*
X227998475Y-60812322D02*
X228010813Y-60818491D01*
X228010813Y-60818491D02*
X228016981Y-60824659D01*
X228016981Y-60824659D02*
X228023150Y-60836996D01*
X228023150Y-60836996D02*
X228029318Y-60861671D01*
X228029318Y-60861671D02*
X228029318Y-60892513D01*
X228029318Y-60892513D02*
X228023150Y-60917188D01*
X228023150Y-60917188D02*
X228016981Y-60929525D01*
X228016981Y-60929525D02*
X228010813Y-60935693D01*
X228010813Y-60935693D02*
X227998475Y-60941862D01*
X227818894Y-60025839D02*
X227812726Y-60019671D01*
X227812726Y-60019671D02*
X227806557Y-60001165D01*
X227806557Y-60001165D02*
X227806557Y-59988828D01*
X227806557Y-59988828D02*
X227812726Y-59970322D01*
X227812726Y-59970322D02*
X227825063Y-59957985D01*
X227825063Y-59957985D02*
X227837400Y-59951816D01*
X227837400Y-59951816D02*
X227862074Y-59945648D01*
X227862074Y-59945648D02*
X227880580Y-59945648D01*
X227880580Y-59945648D02*
X227905254Y-59951816D01*
X227905254Y-59951816D02*
X227917591Y-59957985D01*
X227917591Y-59957985D02*
X227929928Y-59970322D01*
X227929928Y-59970322D02*
X227936097Y-59988828D01*
X227936097Y-59988828D02*
X227936097Y-60001165D01*
X227936097Y-60001165D02*
X227929928Y-60019671D01*
X227929928Y-60019671D02*
X227923760Y-60025839D01*
X227936097Y-60136874D02*
X227936097Y-60112199D01*
X227936097Y-60112199D02*
X227929928Y-60099862D01*
X227929928Y-60099862D02*
X227923760Y-60093694D01*
X227923760Y-60093694D02*
X227905254Y-60081356D01*
X227905254Y-60081356D02*
X227880580Y-60075188D01*
X227880580Y-60075188D02*
X227831231Y-60075188D01*
X227831231Y-60075188D02*
X227818894Y-60081356D01*
X227818894Y-60081356D02*
X227812726Y-60087525D01*
X227812726Y-60087525D02*
X227806557Y-60099862D01*
X227806557Y-60099862D02*
X227806557Y-60124536D01*
X227806557Y-60124536D02*
X227812726Y-60136874D01*
X227812726Y-60136874D02*
X227818894Y-60143042D01*
X227818894Y-60143042D02*
X227831231Y-60149211D01*
X227831231Y-60149211D02*
X227862074Y-60149211D01*
X227862074Y-60149211D02*
X227874411Y-60143042D01*
X227874411Y-60143042D02*
X227880580Y-60136874D01*
X227880580Y-60136874D02*
X227886748Y-60124536D01*
X227886748Y-60124536D02*
X227886748Y-60099862D01*
X227886748Y-60099862D02*
X227880580Y-60087525D01*
X227880580Y-60087525D02*
X227874411Y-60081356D01*
X227874411Y-60081356D02*
X227862074Y-60075188D01*
X227936097Y-60192390D02*
X227936097Y-60278750D01*
X227936097Y-60278750D02*
X227806557Y-60223233D01*
X225012557Y-50246839D02*
X225074243Y-50203659D01*
X225012557Y-50172816D02*
X225142097Y-50172816D01*
X225142097Y-50172816D02*
X225142097Y-50222165D01*
X225142097Y-50222165D02*
X225135928Y-50234502D01*
X225135928Y-50234502D02*
X225129760Y-50240671D01*
X225129760Y-50240671D02*
X225117423Y-50246839D01*
X225117423Y-50246839D02*
X225098917Y-50246839D01*
X225098917Y-50246839D02*
X225086580Y-50240671D01*
X225086580Y-50240671D02*
X225080411Y-50234502D01*
X225080411Y-50234502D02*
X225074243Y-50222165D01*
X225074243Y-50222165D02*
X225074243Y-50172816D01*
X225142097Y-50290019D02*
X225142097Y-50370211D01*
X225142097Y-50370211D02*
X225092748Y-50327031D01*
X225092748Y-50327031D02*
X225092748Y-50345536D01*
X225092748Y-50345536D02*
X225086580Y-50357874D01*
X225086580Y-50357874D02*
X225080411Y-50364042D01*
X225080411Y-50364042D02*
X225068074Y-50370211D01*
X225068074Y-50370211D02*
X225037231Y-50370211D01*
X225037231Y-50370211D02*
X225024894Y-50364042D01*
X225024894Y-50364042D02*
X225018726Y-50357874D01*
X225018726Y-50357874D02*
X225012557Y-50345536D01*
X225012557Y-50345536D02*
X225012557Y-50308525D01*
X225012557Y-50308525D02*
X225018726Y-50296188D01*
X225018726Y-50296188D02*
X225024894Y-50290019D01*
X225142097Y-50413390D02*
X225142097Y-50499750D01*
X225142097Y-50499750D02*
X225012557Y-50444233D01*
X220963572Y-55478375D02*
X221006752Y-55540061D01*
X221037595Y-55478375D02*
X221037595Y-55607915D01*
X221037595Y-55607915D02*
X220988246Y-55607915D01*
X220988246Y-55607915D02*
X220975909Y-55601746D01*
X220975909Y-55601746D02*
X220969740Y-55595578D01*
X220969740Y-55595578D02*
X220963572Y-55583241D01*
X220963572Y-55583241D02*
X220963572Y-55564735D01*
X220963572Y-55564735D02*
X220969740Y-55552398D01*
X220969740Y-55552398D02*
X220975909Y-55546229D01*
X220975909Y-55546229D02*
X220988246Y-55540061D01*
X220988246Y-55540061D02*
X221037595Y-55540061D01*
X220920392Y-55607915D02*
X220840200Y-55607915D01*
X220840200Y-55607915D02*
X220883380Y-55558566D01*
X220883380Y-55558566D02*
X220864875Y-55558566D01*
X220864875Y-55558566D02*
X220852538Y-55552398D01*
X220852538Y-55552398D02*
X220846369Y-55546229D01*
X220846369Y-55546229D02*
X220840200Y-55533892D01*
X220840200Y-55533892D02*
X220840200Y-55503049D01*
X220840200Y-55503049D02*
X220846369Y-55490712D01*
X220846369Y-55490712D02*
X220852538Y-55484544D01*
X220852538Y-55484544D02*
X220864875Y-55478375D01*
X220864875Y-55478375D02*
X220901886Y-55478375D01*
X220901886Y-55478375D02*
X220914223Y-55484544D01*
X220914223Y-55484544D02*
X220920392Y-55490712D01*
X220797021Y-55607915D02*
X220716829Y-55607915D01*
X220716829Y-55607915D02*
X220760009Y-55558566D01*
X220760009Y-55558566D02*
X220741504Y-55558566D01*
X220741504Y-55558566D02*
X220729167Y-55552398D01*
X220729167Y-55552398D02*
X220722998Y-55546229D01*
X220722998Y-55546229D02*
X220716829Y-55533892D01*
X220716829Y-55533892D02*
X220716829Y-55503049D01*
X220716829Y-55503049D02*
X220722998Y-55490712D01*
X220722998Y-55490712D02*
X220729167Y-55484544D01*
X220729167Y-55484544D02*
X220741504Y-55478375D01*
X220741504Y-55478375D02*
X220778515Y-55478375D01*
X220778515Y-55478375D02*
X220790852Y-55484544D01*
X220790852Y-55484544D02*
X220797021Y-55490712D01*
X231480036Y-54604390D02*
X231418350Y-54647570D01*
X231480036Y-54678413D02*
X231350496Y-54678413D01*
X231350496Y-54678413D02*
X231350496Y-54629064D01*
X231350496Y-54629064D02*
X231356665Y-54616727D01*
X231356665Y-54616727D02*
X231362833Y-54610558D01*
X231362833Y-54610558D02*
X231375170Y-54604390D01*
X231375170Y-54604390D02*
X231393676Y-54604390D01*
X231393676Y-54604390D02*
X231406013Y-54610558D01*
X231406013Y-54610558D02*
X231412182Y-54616727D01*
X231412182Y-54616727D02*
X231418350Y-54629064D01*
X231418350Y-54629064D02*
X231418350Y-54678413D01*
X231393676Y-54493356D02*
X231480036Y-54493356D01*
X231344328Y-54524198D02*
X231436856Y-54555041D01*
X231436856Y-54555041D02*
X231436856Y-54474850D01*
X231393676Y-54369985D02*
X231480036Y-54369985D01*
X231344328Y-54400827D02*
X231436856Y-54431670D01*
X231436856Y-54431670D02*
X231436856Y-54351479D01*
X225520557Y-50246839D02*
X225582243Y-50203659D01*
X225520557Y-50172816D02*
X225650097Y-50172816D01*
X225650097Y-50172816D02*
X225650097Y-50222165D01*
X225650097Y-50222165D02*
X225643928Y-50234502D01*
X225643928Y-50234502D02*
X225637760Y-50240671D01*
X225637760Y-50240671D02*
X225625423Y-50246839D01*
X225625423Y-50246839D02*
X225606917Y-50246839D01*
X225606917Y-50246839D02*
X225594580Y-50240671D01*
X225594580Y-50240671D02*
X225588411Y-50234502D01*
X225588411Y-50234502D02*
X225582243Y-50222165D01*
X225582243Y-50222165D02*
X225582243Y-50172816D01*
X225650097Y-50290019D02*
X225650097Y-50370211D01*
X225650097Y-50370211D02*
X225600748Y-50327031D01*
X225600748Y-50327031D02*
X225600748Y-50345536D01*
X225600748Y-50345536D02*
X225594580Y-50357874D01*
X225594580Y-50357874D02*
X225588411Y-50364042D01*
X225588411Y-50364042D02*
X225576074Y-50370211D01*
X225576074Y-50370211D02*
X225545231Y-50370211D01*
X225545231Y-50370211D02*
X225532894Y-50364042D01*
X225532894Y-50364042D02*
X225526726Y-50357874D01*
X225526726Y-50357874D02*
X225520557Y-50345536D01*
X225520557Y-50345536D02*
X225520557Y-50308525D01*
X225520557Y-50308525D02*
X225526726Y-50296188D01*
X225526726Y-50296188D02*
X225532894Y-50290019D01*
X225650097Y-50481245D02*
X225650097Y-50456570D01*
X225650097Y-50456570D02*
X225643928Y-50444233D01*
X225643928Y-50444233D02*
X225637760Y-50438065D01*
X225637760Y-50438065D02*
X225619254Y-50425727D01*
X225619254Y-50425727D02*
X225594580Y-50419559D01*
X225594580Y-50419559D02*
X225545231Y-50419559D01*
X225545231Y-50419559D02*
X225532894Y-50425727D01*
X225532894Y-50425727D02*
X225526726Y-50431896D01*
X225526726Y-50431896D02*
X225520557Y-50444233D01*
X225520557Y-50444233D02*
X225520557Y-50468907D01*
X225520557Y-50468907D02*
X225526726Y-50481245D01*
X225526726Y-50481245D02*
X225532894Y-50487413D01*
X225532894Y-50487413D02*
X225545231Y-50493582D01*
X225545231Y-50493582D02*
X225576074Y-50493582D01*
X225576074Y-50493582D02*
X225588411Y-50487413D01*
X225588411Y-50487413D02*
X225594580Y-50481245D01*
X225594580Y-50481245D02*
X225600748Y-50468907D01*
X225600748Y-50468907D02*
X225600748Y-50444233D01*
X225600748Y-50444233D02*
X225594580Y-50431896D01*
X225594580Y-50431896D02*
X225588411Y-50425727D01*
X225588411Y-50425727D02*
X225576074Y-50419559D01*
X225066536Y-59430390D02*
X225004850Y-59473570D01*
X225066536Y-59504413D02*
X224936996Y-59504413D01*
X224936996Y-59504413D02*
X224936996Y-59455064D01*
X224936996Y-59455064D02*
X224943165Y-59442727D01*
X224943165Y-59442727D02*
X224949333Y-59436558D01*
X224949333Y-59436558D02*
X224961670Y-59430390D01*
X224961670Y-59430390D02*
X224980176Y-59430390D01*
X224980176Y-59430390D02*
X224992513Y-59436558D01*
X224992513Y-59436558D02*
X224998682Y-59442727D01*
X224998682Y-59442727D02*
X225004850Y-59455064D01*
X225004850Y-59455064D02*
X225004850Y-59504413D01*
X224936996Y-59387210D02*
X224936996Y-59307018D01*
X224936996Y-59307018D02*
X224986345Y-59350198D01*
X224986345Y-59350198D02*
X224986345Y-59331693D01*
X224986345Y-59331693D02*
X224992513Y-59319356D01*
X224992513Y-59319356D02*
X224998682Y-59313187D01*
X224998682Y-59313187D02*
X225011019Y-59307018D01*
X225011019Y-59307018D02*
X225041862Y-59307018D01*
X225041862Y-59307018D02*
X225054199Y-59313187D01*
X225054199Y-59313187D02*
X225060368Y-59319356D01*
X225060368Y-59319356D02*
X225066536Y-59331693D01*
X225066536Y-59331693D02*
X225066536Y-59368704D01*
X225066536Y-59368704D02*
X225060368Y-59381041D01*
X225060368Y-59381041D02*
X225054199Y-59387210D01*
X224980176Y-59195985D02*
X225066536Y-59195985D01*
X224930828Y-59226827D02*
X225023356Y-59257670D01*
X225023356Y-59257670D02*
X225023356Y-59177479D01*
X220579894Y-54691839D02*
X220573726Y-54685671D01*
X220573726Y-54685671D02*
X220567557Y-54667165D01*
X220567557Y-54667165D02*
X220567557Y-54654828D01*
X220567557Y-54654828D02*
X220573726Y-54636322D01*
X220573726Y-54636322D02*
X220586063Y-54623985D01*
X220586063Y-54623985D02*
X220598400Y-54617816D01*
X220598400Y-54617816D02*
X220623074Y-54611648D01*
X220623074Y-54611648D02*
X220641580Y-54611648D01*
X220641580Y-54611648D02*
X220666254Y-54617816D01*
X220666254Y-54617816D02*
X220678591Y-54623985D01*
X220678591Y-54623985D02*
X220690928Y-54636322D01*
X220690928Y-54636322D02*
X220697097Y-54654828D01*
X220697097Y-54654828D02*
X220697097Y-54667165D01*
X220697097Y-54667165D02*
X220690928Y-54685671D01*
X220690928Y-54685671D02*
X220684760Y-54691839D01*
X220653917Y-54802874D02*
X220567557Y-54802874D01*
X220703266Y-54772031D02*
X220610737Y-54741188D01*
X220610737Y-54741188D02*
X220610737Y-54821379D01*
X220641580Y-54889233D02*
X220647748Y-54876896D01*
X220647748Y-54876896D02*
X220653917Y-54870727D01*
X220653917Y-54870727D02*
X220666254Y-54864559D01*
X220666254Y-54864559D02*
X220672423Y-54864559D01*
X220672423Y-54864559D02*
X220684760Y-54870727D01*
X220684760Y-54870727D02*
X220690928Y-54876896D01*
X220690928Y-54876896D02*
X220697097Y-54889233D01*
X220697097Y-54889233D02*
X220697097Y-54913907D01*
X220697097Y-54913907D02*
X220690928Y-54926245D01*
X220690928Y-54926245D02*
X220684760Y-54932413D01*
X220684760Y-54932413D02*
X220672423Y-54938582D01*
X220672423Y-54938582D02*
X220666254Y-54938582D01*
X220666254Y-54938582D02*
X220653917Y-54932413D01*
X220653917Y-54932413D02*
X220647748Y-54926245D01*
X220647748Y-54926245D02*
X220641580Y-54913907D01*
X220641580Y-54913907D02*
X220641580Y-54889233D01*
X220641580Y-54889233D02*
X220635411Y-54876896D01*
X220635411Y-54876896D02*
X220629243Y-54870727D01*
X220629243Y-54870727D02*
X220616906Y-54864559D01*
X220616906Y-54864559D02*
X220592231Y-54864559D01*
X220592231Y-54864559D02*
X220579894Y-54870727D01*
X220579894Y-54870727D02*
X220573726Y-54876896D01*
X220573726Y-54876896D02*
X220567557Y-54889233D01*
X220567557Y-54889233D02*
X220567557Y-54913907D01*
X220567557Y-54913907D02*
X220573726Y-54926245D01*
X220573726Y-54926245D02*
X220579894Y-54932413D01*
X220579894Y-54932413D02*
X220592231Y-54938582D01*
X220592231Y-54938582D02*
X220616906Y-54938582D01*
X220616906Y-54938582D02*
X220629243Y-54932413D01*
X220629243Y-54932413D02*
X220635411Y-54926245D01*
X220635411Y-54926245D02*
X220641580Y-54913907D01*
X226654036Y-50413390D02*
X226592350Y-50456570D01*
X226654036Y-50487413D02*
X226524496Y-50487413D01*
X226524496Y-50487413D02*
X226524496Y-50438064D01*
X226524496Y-50438064D02*
X226530665Y-50425727D01*
X226530665Y-50425727D02*
X226536833Y-50419558D01*
X226536833Y-50419558D02*
X226549170Y-50413390D01*
X226549170Y-50413390D02*
X226567676Y-50413390D01*
X226567676Y-50413390D02*
X226580013Y-50419558D01*
X226580013Y-50419558D02*
X226586182Y-50425727D01*
X226586182Y-50425727D02*
X226592350Y-50438064D01*
X226592350Y-50438064D02*
X226592350Y-50487413D01*
X226567676Y-50302356D02*
X226654036Y-50302356D01*
X226518328Y-50333198D02*
X226610856Y-50364041D01*
X226610856Y-50364041D02*
X226610856Y-50283850D01*
X226524496Y-50209827D02*
X226524496Y-50197490D01*
X226524496Y-50197490D02*
X226530665Y-50185153D01*
X226530665Y-50185153D02*
X226536833Y-50178985D01*
X226536833Y-50178985D02*
X226549170Y-50172816D01*
X226549170Y-50172816D02*
X226573845Y-50166647D01*
X226573845Y-50166647D02*
X226604688Y-50166647D01*
X226604688Y-50166647D02*
X226629362Y-50172816D01*
X226629362Y-50172816D02*
X226641699Y-50178985D01*
X226641699Y-50178985D02*
X226647868Y-50185153D01*
X226647868Y-50185153D02*
X226654036Y-50197490D01*
X226654036Y-50197490D02*
X226654036Y-50209827D01*
X226654036Y-50209827D02*
X226647868Y-50222165D01*
X226647868Y-50222165D02*
X226641699Y-50228333D01*
X226641699Y-50228333D02*
X226629362Y-50234502D01*
X226629362Y-50234502D02*
X226604688Y-50240670D01*
X226604688Y-50240670D02*
X226573845Y-50240670D01*
X226573845Y-50240670D02*
X226549170Y-50234502D01*
X226549170Y-50234502D02*
X226536833Y-50228333D01*
X226536833Y-50228333D02*
X226530665Y-50222165D01*
X226530665Y-50222165D02*
X226524496Y-50209827D01*
X228834894Y-59263839D02*
X228828726Y-59257671D01*
X228828726Y-59257671D02*
X228822557Y-59239165D01*
X228822557Y-59239165D02*
X228822557Y-59226828D01*
X228822557Y-59226828D02*
X228828726Y-59208322D01*
X228828726Y-59208322D02*
X228841063Y-59195985D01*
X228841063Y-59195985D02*
X228853400Y-59189816D01*
X228853400Y-59189816D02*
X228878074Y-59183648D01*
X228878074Y-59183648D02*
X228896580Y-59183648D01*
X228896580Y-59183648D02*
X228921254Y-59189816D01*
X228921254Y-59189816D02*
X228933591Y-59195985D01*
X228933591Y-59195985D02*
X228945928Y-59208322D01*
X228945928Y-59208322D02*
X228952097Y-59226828D01*
X228952097Y-59226828D02*
X228952097Y-59239165D01*
X228952097Y-59239165D02*
X228945928Y-59257671D01*
X228945928Y-59257671D02*
X228939760Y-59263839D01*
X228952097Y-59374874D02*
X228952097Y-59350199D01*
X228952097Y-59350199D02*
X228945928Y-59337862D01*
X228945928Y-59337862D02*
X228939760Y-59331694D01*
X228939760Y-59331694D02*
X228921254Y-59319356D01*
X228921254Y-59319356D02*
X228896580Y-59313188D01*
X228896580Y-59313188D02*
X228847231Y-59313188D01*
X228847231Y-59313188D02*
X228834894Y-59319356D01*
X228834894Y-59319356D02*
X228828726Y-59325525D01*
X228828726Y-59325525D02*
X228822557Y-59337862D01*
X228822557Y-59337862D02*
X228822557Y-59362536D01*
X228822557Y-59362536D02*
X228828726Y-59374874D01*
X228828726Y-59374874D02*
X228834894Y-59381042D01*
X228834894Y-59381042D02*
X228847231Y-59387211D01*
X228847231Y-59387211D02*
X228878074Y-59387211D01*
X228878074Y-59387211D02*
X228890411Y-59381042D01*
X228890411Y-59381042D02*
X228896580Y-59374874D01*
X228896580Y-59374874D02*
X228902748Y-59362536D01*
X228902748Y-59362536D02*
X228902748Y-59337862D01*
X228902748Y-59337862D02*
X228896580Y-59325525D01*
X228896580Y-59325525D02*
X228890411Y-59319356D01*
X228890411Y-59319356D02*
X228878074Y-59313188D01*
X228952097Y-59504413D02*
X228952097Y-59442727D01*
X228952097Y-59442727D02*
X228890411Y-59436559D01*
X228890411Y-59436559D02*
X228896580Y-59442727D01*
X228896580Y-59442727D02*
X228902748Y-59455065D01*
X228902748Y-59455065D02*
X228902748Y-59485907D01*
X228902748Y-59485907D02*
X228896580Y-59498245D01*
X228896580Y-59498245D02*
X228890411Y-59504413D01*
X228890411Y-59504413D02*
X228878074Y-59510582D01*
X228878074Y-59510582D02*
X228847231Y-59510582D01*
X228847231Y-59510582D02*
X228834894Y-59504413D01*
X228834894Y-59504413D02*
X228828726Y-59498245D01*
X228828726Y-59498245D02*
X228822557Y-59485907D01*
X228822557Y-59485907D02*
X228822557Y-59455065D01*
X228822557Y-59455065D02*
X228828726Y-59442727D01*
X228828726Y-59442727D02*
X228834894Y-59436559D01*
X222790057Y-55517339D02*
X222851743Y-55474159D01*
X222790057Y-55443316D02*
X222919597Y-55443316D01*
X222919597Y-55443316D02*
X222919597Y-55492665D01*
X222919597Y-55492665D02*
X222913428Y-55505002D01*
X222913428Y-55505002D02*
X222907260Y-55511171D01*
X222907260Y-55511171D02*
X222894923Y-55517339D01*
X222894923Y-55517339D02*
X222876417Y-55517339D01*
X222876417Y-55517339D02*
X222864080Y-55511171D01*
X222864080Y-55511171D02*
X222857911Y-55505002D01*
X222857911Y-55505002D02*
X222851743Y-55492665D01*
X222851743Y-55492665D02*
X222851743Y-55443316D01*
X222919597Y-55560519D02*
X222919597Y-55640711D01*
X222919597Y-55640711D02*
X222870248Y-55597531D01*
X222870248Y-55597531D02*
X222870248Y-55616036D01*
X222870248Y-55616036D02*
X222864080Y-55628374D01*
X222864080Y-55628374D02*
X222857911Y-55634542D01*
X222857911Y-55634542D02*
X222845574Y-55640711D01*
X222845574Y-55640711D02*
X222814731Y-55640711D01*
X222814731Y-55640711D02*
X222802394Y-55634542D01*
X222802394Y-55634542D02*
X222796226Y-55628374D01*
X222796226Y-55628374D02*
X222790057Y-55616036D01*
X222790057Y-55616036D02*
X222790057Y-55579025D01*
X222790057Y-55579025D02*
X222796226Y-55566688D01*
X222796226Y-55566688D02*
X222802394Y-55560519D01*
X222790057Y-55764082D02*
X222790057Y-55690059D01*
X222790057Y-55727070D02*
X222919597Y-55727070D01*
X222919597Y-55727070D02*
X222901091Y-55714733D01*
X222901091Y-55714733D02*
X222888754Y-55702396D01*
X222888754Y-55702396D02*
X222882586Y-55690059D01*
X231882894Y-54437839D02*
X231876726Y-54431671D01*
X231876726Y-54431671D02*
X231870557Y-54413165D01*
X231870557Y-54413165D02*
X231870557Y-54400828D01*
X231870557Y-54400828D02*
X231876726Y-54382322D01*
X231876726Y-54382322D02*
X231889063Y-54369985D01*
X231889063Y-54369985D02*
X231901400Y-54363816D01*
X231901400Y-54363816D02*
X231926074Y-54357648D01*
X231926074Y-54357648D02*
X231944580Y-54357648D01*
X231944580Y-54357648D02*
X231969254Y-54363816D01*
X231969254Y-54363816D02*
X231981591Y-54369985D01*
X231981591Y-54369985D02*
X231993928Y-54382322D01*
X231993928Y-54382322D02*
X232000097Y-54400828D01*
X232000097Y-54400828D02*
X232000097Y-54413165D01*
X232000097Y-54413165D02*
X231993928Y-54431671D01*
X231993928Y-54431671D02*
X231987760Y-54437839D01*
X232000097Y-54555042D02*
X232000097Y-54493356D01*
X232000097Y-54493356D02*
X231938411Y-54487188D01*
X231938411Y-54487188D02*
X231944580Y-54493356D01*
X231944580Y-54493356D02*
X231950748Y-54505694D01*
X231950748Y-54505694D02*
X231950748Y-54536536D01*
X231950748Y-54536536D02*
X231944580Y-54548874D01*
X231944580Y-54548874D02*
X231938411Y-54555042D01*
X231938411Y-54555042D02*
X231926074Y-54561211D01*
X231926074Y-54561211D02*
X231895231Y-54561211D01*
X231895231Y-54561211D02*
X231882894Y-54555042D01*
X231882894Y-54555042D02*
X231876726Y-54548874D01*
X231876726Y-54548874D02*
X231870557Y-54536536D01*
X231870557Y-54536536D02*
X231870557Y-54505694D01*
X231870557Y-54505694D02*
X231876726Y-54493356D01*
X231876726Y-54493356D02*
X231882894Y-54487188D01*
X231870557Y-54622896D02*
X231870557Y-54647570D01*
X231870557Y-54647570D02*
X231876726Y-54659907D01*
X231876726Y-54659907D02*
X231882894Y-54666076D01*
X231882894Y-54666076D02*
X231901400Y-54678413D01*
X231901400Y-54678413D02*
X231926074Y-54684582D01*
X231926074Y-54684582D02*
X231975423Y-54684582D01*
X231975423Y-54684582D02*
X231987760Y-54678413D01*
X231987760Y-54678413D02*
X231993928Y-54672245D01*
X231993928Y-54672245D02*
X232000097Y-54659907D01*
X232000097Y-54659907D02*
X232000097Y-54635233D01*
X232000097Y-54635233D02*
X231993928Y-54622896D01*
X231993928Y-54622896D02*
X231987760Y-54616727D01*
X231987760Y-54616727D02*
X231975423Y-54610559D01*
X231975423Y-54610559D02*
X231944580Y-54610559D01*
X231944580Y-54610559D02*
X231932243Y-54616727D01*
X231932243Y-54616727D02*
X231926074Y-54622896D01*
X231926074Y-54622896D02*
X231919906Y-54635233D01*
X231919906Y-54635233D02*
X231919906Y-54659907D01*
X231919906Y-54659907D02*
X231926074Y-54672245D01*
X231926074Y-54672245D02*
X231932243Y-54678413D01*
X231932243Y-54678413D02*
X231944580Y-54684582D01*
X226146036Y-50413390D02*
X226084350Y-50456570D01*
X226146036Y-50487413D02*
X226016496Y-50487413D01*
X226016496Y-50487413D02*
X226016496Y-50438064D01*
X226016496Y-50438064D02*
X226022665Y-50425727D01*
X226022665Y-50425727D02*
X226028833Y-50419558D01*
X226028833Y-50419558D02*
X226041170Y-50413390D01*
X226041170Y-50413390D02*
X226059676Y-50413390D01*
X226059676Y-50413390D02*
X226072013Y-50419558D01*
X226072013Y-50419558D02*
X226078182Y-50425727D01*
X226078182Y-50425727D02*
X226084350Y-50438064D01*
X226084350Y-50438064D02*
X226084350Y-50487413D01*
X226059676Y-50302356D02*
X226146036Y-50302356D01*
X226010328Y-50333198D02*
X226102856Y-50364041D01*
X226102856Y-50364041D02*
X226102856Y-50283850D01*
X226146036Y-50166647D02*
X226146036Y-50240670D01*
X226146036Y-50203659D02*
X226016496Y-50203659D01*
X226016496Y-50203659D02*
X226035002Y-50215996D01*
X226035002Y-50215996D02*
X226047339Y-50228333D01*
X226047339Y-50228333D02*
X226053508Y-50240670D01*
X224114036Y-50413390D02*
X224052350Y-50456570D01*
X224114036Y-50487413D02*
X223984496Y-50487413D01*
X223984496Y-50487413D02*
X223984496Y-50438064D01*
X223984496Y-50438064D02*
X223990665Y-50425727D01*
X223990665Y-50425727D02*
X223996833Y-50419558D01*
X223996833Y-50419558D02*
X224009170Y-50413390D01*
X224009170Y-50413390D02*
X224027676Y-50413390D01*
X224027676Y-50413390D02*
X224040013Y-50419558D01*
X224040013Y-50419558D02*
X224046182Y-50425727D01*
X224046182Y-50425727D02*
X224052350Y-50438064D01*
X224052350Y-50438064D02*
X224052350Y-50487413D01*
X223996833Y-50364041D02*
X223990665Y-50357873D01*
X223990665Y-50357873D02*
X223984496Y-50345536D01*
X223984496Y-50345536D02*
X223984496Y-50314693D01*
X223984496Y-50314693D02*
X223990665Y-50302356D01*
X223990665Y-50302356D02*
X223996833Y-50296187D01*
X223996833Y-50296187D02*
X224009170Y-50290018D01*
X224009170Y-50290018D02*
X224021508Y-50290018D01*
X224021508Y-50290018D02*
X224040013Y-50296187D01*
X224040013Y-50296187D02*
X224114036Y-50370210D01*
X224114036Y-50370210D02*
X224114036Y-50290018D01*
X224040013Y-50215996D02*
X224033845Y-50228333D01*
X224033845Y-50228333D02*
X224027676Y-50234502D01*
X224027676Y-50234502D02*
X224015339Y-50240670D01*
X224015339Y-50240670D02*
X224009170Y-50240670D01*
X224009170Y-50240670D02*
X223996833Y-50234502D01*
X223996833Y-50234502D02*
X223990665Y-50228333D01*
X223990665Y-50228333D02*
X223984496Y-50215996D01*
X223984496Y-50215996D02*
X223984496Y-50191322D01*
X223984496Y-50191322D02*
X223990665Y-50178985D01*
X223990665Y-50178985D02*
X223996833Y-50172816D01*
X223996833Y-50172816D02*
X224009170Y-50166647D01*
X224009170Y-50166647D02*
X224015339Y-50166647D01*
X224015339Y-50166647D02*
X224027676Y-50172816D01*
X224027676Y-50172816D02*
X224033845Y-50178985D01*
X224033845Y-50178985D02*
X224040013Y-50191322D01*
X224040013Y-50191322D02*
X224040013Y-50215996D01*
X224040013Y-50215996D02*
X224046182Y-50228333D01*
X224046182Y-50228333D02*
X224052350Y-50234502D01*
X224052350Y-50234502D02*
X224064688Y-50240670D01*
X224064688Y-50240670D02*
X224089362Y-50240670D01*
X224089362Y-50240670D02*
X224101699Y-50234502D01*
X224101699Y-50234502D02*
X224107868Y-50228333D01*
X224107868Y-50228333D02*
X224114036Y-50215996D01*
X224114036Y-50215996D02*
X224114036Y-50191322D01*
X224114036Y-50191322D02*
X224107868Y-50178985D01*
X224107868Y-50178985D02*
X224101699Y-50172816D01*
X224101699Y-50172816D02*
X224089362Y-50166647D01*
X224089362Y-50166647D02*
X224064688Y-50166647D01*
X224064688Y-50166647D02*
X224052350Y-50172816D01*
X224052350Y-50172816D02*
X224046182Y-50178985D01*
X224046182Y-50178985D02*
X224040013Y-50191322D01*
X222891294Y-59263839D02*
X222885126Y-59257671D01*
X222885126Y-59257671D02*
X222878957Y-59239165D01*
X222878957Y-59239165D02*
X222878957Y-59226828D01*
X222878957Y-59226828D02*
X222885126Y-59208322D01*
X222885126Y-59208322D02*
X222897463Y-59195985D01*
X222897463Y-59195985D02*
X222909800Y-59189816D01*
X222909800Y-59189816D02*
X222934474Y-59183648D01*
X222934474Y-59183648D02*
X222952980Y-59183648D01*
X222952980Y-59183648D02*
X222977654Y-59189816D01*
X222977654Y-59189816D02*
X222989991Y-59195985D01*
X222989991Y-59195985D02*
X223002328Y-59208322D01*
X223002328Y-59208322D02*
X223008497Y-59226828D01*
X223008497Y-59226828D02*
X223008497Y-59239165D01*
X223008497Y-59239165D02*
X223002328Y-59257671D01*
X223002328Y-59257671D02*
X222996160Y-59263839D01*
X223008497Y-59374874D02*
X223008497Y-59350199D01*
X223008497Y-59350199D02*
X223002328Y-59337862D01*
X223002328Y-59337862D02*
X222996160Y-59331694D01*
X222996160Y-59331694D02*
X222977654Y-59319356D01*
X222977654Y-59319356D02*
X222952980Y-59313188D01*
X222952980Y-59313188D02*
X222903631Y-59313188D01*
X222903631Y-59313188D02*
X222891294Y-59319356D01*
X222891294Y-59319356D02*
X222885126Y-59325525D01*
X222885126Y-59325525D02*
X222878957Y-59337862D01*
X222878957Y-59337862D02*
X222878957Y-59362536D01*
X222878957Y-59362536D02*
X222885126Y-59374874D01*
X222885126Y-59374874D02*
X222891294Y-59381042D01*
X222891294Y-59381042D02*
X222903631Y-59387211D01*
X222903631Y-59387211D02*
X222934474Y-59387211D01*
X222934474Y-59387211D02*
X222946811Y-59381042D01*
X222946811Y-59381042D02*
X222952980Y-59374874D01*
X222952980Y-59374874D02*
X222959148Y-59362536D01*
X222959148Y-59362536D02*
X222959148Y-59337862D01*
X222959148Y-59337862D02*
X222952980Y-59325525D01*
X222952980Y-59325525D02*
X222946811Y-59319356D01*
X222946811Y-59319356D02*
X222934474Y-59313188D01*
X222878957Y-59510582D02*
X222878957Y-59436559D01*
X222878957Y-59473570D02*
X223008497Y-59473570D01*
X223008497Y-59473570D02*
X222989991Y-59461233D01*
X222989991Y-59461233D02*
X222977654Y-59448896D01*
X222977654Y-59448896D02*
X222971486Y-59436559D01*
X230870799Y-51556390D02*
X230876968Y-51562558D01*
X230876968Y-51562558D02*
X230883136Y-51581064D01*
X230883136Y-51581064D02*
X230883136Y-51593401D01*
X230883136Y-51593401D02*
X230876968Y-51611907D01*
X230876968Y-51611907D02*
X230864630Y-51624244D01*
X230864630Y-51624244D02*
X230852293Y-51630413D01*
X230852293Y-51630413D02*
X230827619Y-51636581D01*
X230827619Y-51636581D02*
X230809113Y-51636581D01*
X230809113Y-51636581D02*
X230784439Y-51630413D01*
X230784439Y-51630413D02*
X230772102Y-51624244D01*
X230772102Y-51624244D02*
X230759765Y-51611907D01*
X230759765Y-51611907D02*
X230753596Y-51593401D01*
X230753596Y-51593401D02*
X230753596Y-51581064D01*
X230753596Y-51581064D02*
X230759765Y-51562558D01*
X230759765Y-51562558D02*
X230765933Y-51556390D01*
X230753596Y-51513210D02*
X230753596Y-51426850D01*
X230753596Y-51426850D02*
X230883136Y-51482367D01*
X230809113Y-51358996D02*
X230802945Y-51371333D01*
X230802945Y-51371333D02*
X230796776Y-51377502D01*
X230796776Y-51377502D02*
X230784439Y-51383670D01*
X230784439Y-51383670D02*
X230778270Y-51383670D01*
X230778270Y-51383670D02*
X230765933Y-51377502D01*
X230765933Y-51377502D02*
X230759765Y-51371333D01*
X230759765Y-51371333D02*
X230753596Y-51358996D01*
X230753596Y-51358996D02*
X230753596Y-51334322D01*
X230753596Y-51334322D02*
X230759765Y-51321985D01*
X230759765Y-51321985D02*
X230765933Y-51315816D01*
X230765933Y-51315816D02*
X230778270Y-51309647D01*
X230778270Y-51309647D02*
X230784439Y-51309647D01*
X230784439Y-51309647D02*
X230796776Y-51315816D01*
X230796776Y-51315816D02*
X230802945Y-51321985D01*
X230802945Y-51321985D02*
X230809113Y-51334322D01*
X230809113Y-51334322D02*
X230809113Y-51358996D01*
X230809113Y-51358996D02*
X230815282Y-51371333D01*
X230815282Y-51371333D02*
X230821450Y-51377502D01*
X230821450Y-51377502D02*
X230833788Y-51383670D01*
X230833788Y-51383670D02*
X230858462Y-51383670D01*
X230858462Y-51383670D02*
X230870799Y-51377502D01*
X230870799Y-51377502D02*
X230876968Y-51371333D01*
X230876968Y-51371333D02*
X230883136Y-51358996D01*
X230883136Y-51358996D02*
X230883136Y-51334322D01*
X230883136Y-51334322D02*
X230876968Y-51321985D01*
X230876968Y-51321985D02*
X230870799Y-51315816D01*
X230870799Y-51315816D02*
X230858462Y-51309647D01*
X230858462Y-51309647D02*
X230833788Y-51309647D01*
X230833788Y-51309647D02*
X230821450Y-51315816D01*
X230821450Y-51315816D02*
X230815282Y-51321985D01*
X230815282Y-51321985D02*
X230809113Y-51334322D01*
X223606036Y-50413390D02*
X223544350Y-50456570D01*
X223606036Y-50487413D02*
X223476496Y-50487413D01*
X223476496Y-50487413D02*
X223476496Y-50438064D01*
X223476496Y-50438064D02*
X223482665Y-50425727D01*
X223482665Y-50425727D02*
X223488833Y-50419558D01*
X223488833Y-50419558D02*
X223501170Y-50413390D01*
X223501170Y-50413390D02*
X223519676Y-50413390D01*
X223519676Y-50413390D02*
X223532013Y-50419558D01*
X223532013Y-50419558D02*
X223538182Y-50425727D01*
X223538182Y-50425727D02*
X223544350Y-50438064D01*
X223544350Y-50438064D02*
X223544350Y-50487413D01*
X223488833Y-50364041D02*
X223482665Y-50357873D01*
X223482665Y-50357873D02*
X223476496Y-50345536D01*
X223476496Y-50345536D02*
X223476496Y-50314693D01*
X223476496Y-50314693D02*
X223482665Y-50302356D01*
X223482665Y-50302356D02*
X223488833Y-50296187D01*
X223488833Y-50296187D02*
X223501170Y-50290018D01*
X223501170Y-50290018D02*
X223513508Y-50290018D01*
X223513508Y-50290018D02*
X223532013Y-50296187D01*
X223532013Y-50296187D02*
X223606036Y-50370210D01*
X223606036Y-50370210D02*
X223606036Y-50290018D01*
X223476496Y-50246839D02*
X223476496Y-50160479D01*
X223476496Y-50160479D02*
X223606036Y-50215996D01*
X223983494Y-59263839D02*
X223977326Y-59257671D01*
X223977326Y-59257671D02*
X223971157Y-59239165D01*
X223971157Y-59239165D02*
X223971157Y-59226828D01*
X223971157Y-59226828D02*
X223977326Y-59208322D01*
X223977326Y-59208322D02*
X223989663Y-59195985D01*
X223989663Y-59195985D02*
X224002000Y-59189816D01*
X224002000Y-59189816D02*
X224026674Y-59183648D01*
X224026674Y-59183648D02*
X224045180Y-59183648D01*
X224045180Y-59183648D02*
X224069854Y-59189816D01*
X224069854Y-59189816D02*
X224082191Y-59195985D01*
X224082191Y-59195985D02*
X224094528Y-59208322D01*
X224094528Y-59208322D02*
X224100697Y-59226828D01*
X224100697Y-59226828D02*
X224100697Y-59239165D01*
X224100697Y-59239165D02*
X224094528Y-59257671D01*
X224094528Y-59257671D02*
X224088360Y-59263839D01*
X224057517Y-59374874D02*
X223971157Y-59374874D01*
X224106866Y-59344031D02*
X224014337Y-59313188D01*
X224014337Y-59313188D02*
X224014337Y-59393379D01*
X224100697Y-59498245D02*
X224100697Y-59473570D01*
X224100697Y-59473570D02*
X224094528Y-59461233D01*
X224094528Y-59461233D02*
X224088360Y-59455065D01*
X224088360Y-59455065D02*
X224069854Y-59442727D01*
X224069854Y-59442727D02*
X224045180Y-59436559D01*
X224045180Y-59436559D02*
X223995831Y-59436559D01*
X223995831Y-59436559D02*
X223983494Y-59442727D01*
X223983494Y-59442727D02*
X223977326Y-59448896D01*
X223977326Y-59448896D02*
X223971157Y-59461233D01*
X223971157Y-59461233D02*
X223971157Y-59485907D01*
X223971157Y-59485907D02*
X223977326Y-59498245D01*
X223977326Y-59498245D02*
X223983494Y-59504413D01*
X223983494Y-59504413D02*
X223995831Y-59510582D01*
X223995831Y-59510582D02*
X224026674Y-59510582D01*
X224026674Y-59510582D02*
X224039011Y-59504413D01*
X224039011Y-59504413D02*
X224045180Y-59498245D01*
X224045180Y-59498245D02*
X224051348Y-59485907D01*
X224051348Y-59485907D02*
X224051348Y-59461233D01*
X224051348Y-59461233D02*
X224045180Y-59448896D01*
X224045180Y-59448896D02*
X224039011Y-59442727D01*
X224039011Y-59442727D02*
X224026674Y-59436559D01*
X230104894Y-59263839D02*
X230098726Y-59257671D01*
X230098726Y-59257671D02*
X230092557Y-59239165D01*
X230092557Y-59239165D02*
X230092557Y-59226828D01*
X230092557Y-59226828D02*
X230098726Y-59208322D01*
X230098726Y-59208322D02*
X230111063Y-59195985D01*
X230111063Y-59195985D02*
X230123400Y-59189816D01*
X230123400Y-59189816D02*
X230148074Y-59183648D01*
X230148074Y-59183648D02*
X230166580Y-59183648D01*
X230166580Y-59183648D02*
X230191254Y-59189816D01*
X230191254Y-59189816D02*
X230203591Y-59195985D01*
X230203591Y-59195985D02*
X230215928Y-59208322D01*
X230215928Y-59208322D02*
X230222097Y-59226828D01*
X230222097Y-59226828D02*
X230222097Y-59239165D01*
X230222097Y-59239165D02*
X230215928Y-59257671D01*
X230215928Y-59257671D02*
X230209760Y-59263839D01*
X230222097Y-59374874D02*
X230222097Y-59350199D01*
X230222097Y-59350199D02*
X230215928Y-59337862D01*
X230215928Y-59337862D02*
X230209760Y-59331694D01*
X230209760Y-59331694D02*
X230191254Y-59319356D01*
X230191254Y-59319356D02*
X230166580Y-59313188D01*
X230166580Y-59313188D02*
X230117231Y-59313188D01*
X230117231Y-59313188D02*
X230104894Y-59319356D01*
X230104894Y-59319356D02*
X230098726Y-59325525D01*
X230098726Y-59325525D02*
X230092557Y-59337862D01*
X230092557Y-59337862D02*
X230092557Y-59362536D01*
X230092557Y-59362536D02*
X230098726Y-59374874D01*
X230098726Y-59374874D02*
X230104894Y-59381042D01*
X230104894Y-59381042D02*
X230117231Y-59387211D01*
X230117231Y-59387211D02*
X230148074Y-59387211D01*
X230148074Y-59387211D02*
X230160411Y-59381042D01*
X230160411Y-59381042D02*
X230166580Y-59374874D01*
X230166580Y-59374874D02*
X230172748Y-59362536D01*
X230172748Y-59362536D02*
X230172748Y-59337862D01*
X230172748Y-59337862D02*
X230166580Y-59325525D01*
X230166580Y-59325525D02*
X230160411Y-59319356D01*
X230160411Y-59319356D02*
X230148074Y-59313188D01*
X230092557Y-59448896D02*
X230092557Y-59473570D01*
X230092557Y-59473570D02*
X230098726Y-59485907D01*
X230098726Y-59485907D02*
X230104894Y-59492076D01*
X230104894Y-59492076D02*
X230123400Y-59504413D01*
X230123400Y-59504413D02*
X230148074Y-59510582D01*
X230148074Y-59510582D02*
X230197423Y-59510582D01*
X230197423Y-59510582D02*
X230209760Y-59504413D01*
X230209760Y-59504413D02*
X230215928Y-59498245D01*
X230215928Y-59498245D02*
X230222097Y-59485907D01*
X230222097Y-59485907D02*
X230222097Y-59461233D01*
X230222097Y-59461233D02*
X230215928Y-59448896D01*
X230215928Y-59448896D02*
X230209760Y-59442727D01*
X230209760Y-59442727D02*
X230197423Y-59436559D01*
X230197423Y-59436559D02*
X230166580Y-59436559D01*
X230166580Y-59436559D02*
X230154243Y-59442727D01*
X230154243Y-59442727D02*
X230148074Y-59448896D01*
X230148074Y-59448896D02*
X230141906Y-59461233D01*
X230141906Y-59461233D02*
X230141906Y-59485907D01*
X230141906Y-59485907D02*
X230148074Y-59498245D01*
X230148074Y-59498245D02*
X230154243Y-59504413D01*
X230154243Y-59504413D02*
X230166580Y-59510582D01*
X229919821Y-51265517D02*
X229913653Y-51271686D01*
X229913653Y-51271686D02*
X229895147Y-51277854D01*
X229895147Y-51277854D02*
X229882810Y-51277854D01*
X229882810Y-51277854D02*
X229864304Y-51271686D01*
X229864304Y-51271686D02*
X229851967Y-51259348D01*
X229851967Y-51259348D02*
X229845798Y-51247011D01*
X229845798Y-51247011D02*
X229839630Y-51222337D01*
X229839630Y-51222337D02*
X229839630Y-51203831D01*
X229839630Y-51203831D02*
X229845798Y-51179157D01*
X229845798Y-51179157D02*
X229851967Y-51166820D01*
X229851967Y-51166820D02*
X229864304Y-51154483D01*
X229864304Y-51154483D02*
X229882810Y-51148314D01*
X229882810Y-51148314D02*
X229895147Y-51148314D01*
X229895147Y-51148314D02*
X229913653Y-51154483D01*
X229913653Y-51154483D02*
X229919821Y-51160651D01*
X230030856Y-51148314D02*
X230006181Y-51148314D01*
X230006181Y-51148314D02*
X229993844Y-51154483D01*
X229993844Y-51154483D02*
X229987676Y-51160651D01*
X229987676Y-51160651D02*
X229975338Y-51179157D01*
X229975338Y-51179157D02*
X229969170Y-51203831D01*
X229969170Y-51203831D02*
X229969170Y-51253180D01*
X229969170Y-51253180D02*
X229975338Y-51265517D01*
X229975338Y-51265517D02*
X229981507Y-51271686D01*
X229981507Y-51271686D02*
X229993844Y-51277854D01*
X229993844Y-51277854D02*
X230018518Y-51277854D01*
X230018518Y-51277854D02*
X230030856Y-51271686D01*
X230030856Y-51271686D02*
X230037024Y-51265517D01*
X230037024Y-51265517D02*
X230043193Y-51253180D01*
X230043193Y-51253180D02*
X230043193Y-51222337D01*
X230043193Y-51222337D02*
X230037024Y-51210000D01*
X230037024Y-51210000D02*
X230030856Y-51203831D01*
X230030856Y-51203831D02*
X230018518Y-51197663D01*
X230018518Y-51197663D02*
X229993844Y-51197663D01*
X229993844Y-51197663D02*
X229981507Y-51203831D01*
X229981507Y-51203831D02*
X229975338Y-51210000D01*
X229975338Y-51210000D02*
X229969170Y-51222337D01*
X230092541Y-51160651D02*
X230098709Y-51154483D01*
X230098709Y-51154483D02*
X230111047Y-51148314D01*
X230111047Y-51148314D02*
X230141889Y-51148314D01*
X230141889Y-51148314D02*
X230154227Y-51154483D01*
X230154227Y-51154483D02*
X230160395Y-51160651D01*
X230160395Y-51160651D02*
X230166564Y-51172988D01*
X230166564Y-51172988D02*
X230166564Y-51185326D01*
X230166564Y-51185326D02*
X230160395Y-51203831D01*
X230160395Y-51203831D02*
X230086372Y-51277854D01*
X230086372Y-51277854D02*
X230166564Y-51277854D01*
X222907536Y-54731390D02*
X222845850Y-54774570D01*
X222907536Y-54805413D02*
X222777996Y-54805413D01*
X222777996Y-54805413D02*
X222777996Y-54756064D01*
X222777996Y-54756064D02*
X222784165Y-54743727D01*
X222784165Y-54743727D02*
X222790333Y-54737558D01*
X222790333Y-54737558D02*
X222802670Y-54731390D01*
X222802670Y-54731390D02*
X222821176Y-54731390D01*
X222821176Y-54731390D02*
X222833513Y-54737558D01*
X222833513Y-54737558D02*
X222839682Y-54743727D01*
X222839682Y-54743727D02*
X222845850Y-54756064D01*
X222845850Y-54756064D02*
X222845850Y-54805413D01*
X222777996Y-54688210D02*
X222777996Y-54608018D01*
X222777996Y-54608018D02*
X222827345Y-54651198D01*
X222827345Y-54651198D02*
X222827345Y-54632693D01*
X222827345Y-54632693D02*
X222833513Y-54620356D01*
X222833513Y-54620356D02*
X222839682Y-54614187D01*
X222839682Y-54614187D02*
X222852019Y-54608018D01*
X222852019Y-54608018D02*
X222882862Y-54608018D01*
X222882862Y-54608018D02*
X222895199Y-54614187D01*
X222895199Y-54614187D02*
X222901368Y-54620356D01*
X222901368Y-54620356D02*
X222907536Y-54632693D01*
X222907536Y-54632693D02*
X222907536Y-54669704D01*
X222907536Y-54669704D02*
X222901368Y-54682041D01*
X222901368Y-54682041D02*
X222895199Y-54688210D01*
X222777996Y-54527827D02*
X222777996Y-54515490D01*
X222777996Y-54515490D02*
X222784165Y-54503153D01*
X222784165Y-54503153D02*
X222790333Y-54496985D01*
X222790333Y-54496985D02*
X222802670Y-54490816D01*
X222802670Y-54490816D02*
X222827345Y-54484647D01*
X222827345Y-54484647D02*
X222858188Y-54484647D01*
X222858188Y-54484647D02*
X222882862Y-54490816D01*
X222882862Y-54490816D02*
X222895199Y-54496985D01*
X222895199Y-54496985D02*
X222901368Y-54503153D01*
X222901368Y-54503153D02*
X222907536Y-54515490D01*
X222907536Y-54515490D02*
X222907536Y-54527827D01*
X222907536Y-54527827D02*
X222901368Y-54540165D01*
X222901368Y-54540165D02*
X222895199Y-54546333D01*
X222895199Y-54546333D02*
X222882862Y-54552502D01*
X222882862Y-54552502D02*
X222858188Y-54558670D01*
X222858188Y-54558670D02*
X222827345Y-54558670D01*
X222827345Y-54558670D02*
X222802670Y-54552502D01*
X222802670Y-54552502D02*
X222790333Y-54546333D01*
X222790333Y-54546333D02*
X222784165Y-54540165D01*
X222784165Y-54540165D02*
X222777996Y-54527827D01*
X221976894Y-53548839D02*
X221970726Y-53542671D01*
X221970726Y-53542671D02*
X221964557Y-53524165D01*
X221964557Y-53524165D02*
X221964557Y-53511828D01*
X221964557Y-53511828D02*
X221970726Y-53493322D01*
X221970726Y-53493322D02*
X221983063Y-53480985D01*
X221983063Y-53480985D02*
X221995400Y-53474816D01*
X221995400Y-53474816D02*
X222020074Y-53468648D01*
X222020074Y-53468648D02*
X222038580Y-53468648D01*
X222038580Y-53468648D02*
X222063254Y-53474816D01*
X222063254Y-53474816D02*
X222075591Y-53480985D01*
X222075591Y-53480985D02*
X222087928Y-53493322D01*
X222087928Y-53493322D02*
X222094097Y-53511828D01*
X222094097Y-53511828D02*
X222094097Y-53524165D01*
X222094097Y-53524165D02*
X222087928Y-53542671D01*
X222087928Y-53542671D02*
X222081760Y-53548839D01*
X222094097Y-53666042D02*
X222094097Y-53604356D01*
X222094097Y-53604356D02*
X222032411Y-53598188D01*
X222032411Y-53598188D02*
X222038580Y-53604356D01*
X222038580Y-53604356D02*
X222044748Y-53616694D01*
X222044748Y-53616694D02*
X222044748Y-53647536D01*
X222044748Y-53647536D02*
X222038580Y-53659874D01*
X222038580Y-53659874D02*
X222032411Y-53666042D01*
X222032411Y-53666042D02*
X222020074Y-53672211D01*
X222020074Y-53672211D02*
X221989231Y-53672211D01*
X221989231Y-53672211D02*
X221976894Y-53666042D01*
X221976894Y-53666042D02*
X221970726Y-53659874D01*
X221970726Y-53659874D02*
X221964557Y-53647536D01*
X221964557Y-53647536D02*
X221964557Y-53616694D01*
X221964557Y-53616694D02*
X221970726Y-53604356D01*
X221970726Y-53604356D02*
X221976894Y-53598188D01*
X222094097Y-53752402D02*
X222094097Y-53764739D01*
X222094097Y-53764739D02*
X222087928Y-53777076D01*
X222087928Y-53777076D02*
X222081760Y-53783245D01*
X222081760Y-53783245D02*
X222069423Y-53789413D01*
X222069423Y-53789413D02*
X222044748Y-53795582D01*
X222044748Y-53795582D02*
X222013906Y-53795582D01*
X222013906Y-53795582D02*
X221989231Y-53789413D01*
X221989231Y-53789413D02*
X221976894Y-53783245D01*
X221976894Y-53783245D02*
X221970726Y-53777076D01*
X221970726Y-53777076D02*
X221964557Y-53764739D01*
X221964557Y-53764739D02*
X221964557Y-53752402D01*
X221964557Y-53752402D02*
X221970726Y-53740065D01*
X221970726Y-53740065D02*
X221976894Y-53733896D01*
X221976894Y-53733896D02*
X221989231Y-53727727D01*
X221989231Y-53727727D02*
X222013906Y-53721559D01*
X222013906Y-53721559D02*
X222044748Y-53721559D01*
X222044748Y-53721559D02*
X222069423Y-53727727D01*
X222069423Y-53727727D02*
X222081760Y-53733896D01*
X222081760Y-53733896D02*
X222087928Y-53740065D01*
X222087928Y-53740065D02*
X222094097Y-53752402D01*
X233412341Y-62727640D02*
X233418509Y-62721472D01*
X233418509Y-62721472D02*
X233437015Y-62715303D01*
X233437015Y-62715303D02*
X233449352Y-62715303D01*
X233449352Y-62715303D02*
X233467858Y-62721472D01*
X233467858Y-62721472D02*
X233480195Y-62733809D01*
X233480195Y-62733809D02*
X233486364Y-62746146D01*
X233486364Y-62746146D02*
X233492532Y-62770820D01*
X233492532Y-62770820D02*
X233492532Y-62789326D01*
X233492532Y-62789326D02*
X233486364Y-62814000D01*
X233486364Y-62814000D02*
X233480195Y-62826337D01*
X233480195Y-62826337D02*
X233467858Y-62838674D01*
X233467858Y-62838674D02*
X233449352Y-62844843D01*
X233449352Y-62844843D02*
X233437015Y-62844843D01*
X233437015Y-62844843D02*
X233418509Y-62838674D01*
X233418509Y-62838674D02*
X233412341Y-62832506D01*
X233301307Y-62801663D02*
X233301307Y-62715303D01*
X233332149Y-62851012D02*
X233362992Y-62758483D01*
X233362992Y-62758483D02*
X233282801Y-62758483D01*
X233177936Y-62801663D02*
X233177936Y-62715303D01*
X233208778Y-62851012D02*
X233239621Y-62758483D01*
X233239621Y-62758483D02*
X233159430Y-62758483D01*
X228202572Y-59300712D02*
X228208740Y-59294544D01*
X228208740Y-59294544D02*
X228227246Y-59288375D01*
X228227246Y-59288375D02*
X228239583Y-59288375D01*
X228239583Y-59288375D02*
X228258089Y-59294544D01*
X228258089Y-59294544D02*
X228270426Y-59306881D01*
X228270426Y-59306881D02*
X228276595Y-59319218D01*
X228276595Y-59319218D02*
X228282763Y-59343892D01*
X228282763Y-59343892D02*
X228282763Y-59362398D01*
X228282763Y-59362398D02*
X228276595Y-59387072D01*
X228276595Y-59387072D02*
X228270426Y-59399409D01*
X228270426Y-59399409D02*
X228258089Y-59411746D01*
X228258089Y-59411746D02*
X228239583Y-59417915D01*
X228239583Y-59417915D02*
X228227246Y-59417915D01*
X228227246Y-59417915D02*
X228208740Y-59411746D01*
X228208740Y-59411746D02*
X228202572Y-59405578D01*
X228091538Y-59417915D02*
X228116212Y-59417915D01*
X228116212Y-59417915D02*
X228128549Y-59411746D01*
X228128549Y-59411746D02*
X228134718Y-59405578D01*
X228134718Y-59405578D02*
X228147055Y-59387072D01*
X228147055Y-59387072D02*
X228153223Y-59362398D01*
X228153223Y-59362398D02*
X228153223Y-59313049D01*
X228153223Y-59313049D02*
X228147055Y-59300712D01*
X228147055Y-59300712D02*
X228140886Y-59294544D01*
X228140886Y-59294544D02*
X228128549Y-59288375D01*
X228128549Y-59288375D02*
X228103875Y-59288375D01*
X228103875Y-59288375D02*
X228091538Y-59294544D01*
X228091538Y-59294544D02*
X228085369Y-59300712D01*
X228085369Y-59300712D02*
X228079200Y-59313049D01*
X228079200Y-59313049D02*
X228079200Y-59343892D01*
X228079200Y-59343892D02*
X228085369Y-59356229D01*
X228085369Y-59356229D02*
X228091538Y-59362398D01*
X228091538Y-59362398D02*
X228103875Y-59368566D01*
X228103875Y-59368566D02*
X228128549Y-59368566D01*
X228128549Y-59368566D02*
X228140886Y-59362398D01*
X228140886Y-59362398D02*
X228147055Y-59356229D01*
X228147055Y-59356229D02*
X228153223Y-59343892D01*
X227968167Y-59417915D02*
X227992841Y-59417915D01*
X227992841Y-59417915D02*
X228005178Y-59411746D01*
X228005178Y-59411746D02*
X228011347Y-59405578D01*
X228011347Y-59405578D02*
X228023684Y-59387072D01*
X228023684Y-59387072D02*
X228029852Y-59362398D01*
X228029852Y-59362398D02*
X228029852Y-59313049D01*
X228029852Y-59313049D02*
X228023684Y-59300712D01*
X228023684Y-59300712D02*
X228017515Y-59294544D01*
X228017515Y-59294544D02*
X228005178Y-59288375D01*
X228005178Y-59288375D02*
X227980504Y-59288375D01*
X227980504Y-59288375D02*
X227968167Y-59294544D01*
X227968167Y-59294544D02*
X227961998Y-59300712D01*
X227961998Y-59300712D02*
X227955829Y-59313049D01*
X227955829Y-59313049D02*
X227955829Y-59343892D01*
X227955829Y-59343892D02*
X227961998Y-59356229D01*
X227961998Y-59356229D02*
X227968167Y-59362398D01*
X227968167Y-59362398D02*
X227980504Y-59368566D01*
X227980504Y-59368566D02*
X228005178Y-59368566D01*
X228005178Y-59368566D02*
X228017515Y-59362398D01*
X228017515Y-59362398D02*
X228023684Y-59356229D01*
X228023684Y-59356229D02*
X228029852Y-59343892D01*
X222868572Y-53839712D02*
X222874740Y-53833544D01*
X222874740Y-53833544D02*
X222893246Y-53827375D01*
X222893246Y-53827375D02*
X222905583Y-53827375D01*
X222905583Y-53827375D02*
X222924089Y-53833544D01*
X222924089Y-53833544D02*
X222936426Y-53845881D01*
X222936426Y-53845881D02*
X222942595Y-53858218D01*
X222942595Y-53858218D02*
X222948763Y-53882892D01*
X222948763Y-53882892D02*
X222948763Y-53901398D01*
X222948763Y-53901398D02*
X222942595Y-53926072D01*
X222942595Y-53926072D02*
X222936426Y-53938409D01*
X222936426Y-53938409D02*
X222924089Y-53950746D01*
X222924089Y-53950746D02*
X222905583Y-53956915D01*
X222905583Y-53956915D02*
X222893246Y-53956915D01*
X222893246Y-53956915D02*
X222874740Y-53950746D01*
X222874740Y-53950746D02*
X222868572Y-53944578D01*
X222751369Y-53956915D02*
X222813055Y-53956915D01*
X222813055Y-53956915D02*
X222819223Y-53895229D01*
X222819223Y-53895229D02*
X222813055Y-53901398D01*
X222813055Y-53901398D02*
X222800718Y-53907566D01*
X222800718Y-53907566D02*
X222769875Y-53907566D01*
X222769875Y-53907566D02*
X222757538Y-53901398D01*
X222757538Y-53901398D02*
X222751369Y-53895229D01*
X222751369Y-53895229D02*
X222745200Y-53882892D01*
X222745200Y-53882892D02*
X222745200Y-53852049D01*
X222745200Y-53852049D02*
X222751369Y-53839712D01*
X222751369Y-53839712D02*
X222757538Y-53833544D01*
X222757538Y-53833544D02*
X222769875Y-53827375D01*
X222769875Y-53827375D02*
X222800718Y-53827375D01*
X222800718Y-53827375D02*
X222813055Y-53833544D01*
X222813055Y-53833544D02*
X222819223Y-53839712D01*
X222671178Y-53901398D02*
X222683515Y-53907566D01*
X222683515Y-53907566D02*
X222689684Y-53913735D01*
X222689684Y-53913735D02*
X222695852Y-53926072D01*
X222695852Y-53926072D02*
X222695852Y-53932241D01*
X222695852Y-53932241D02*
X222689684Y-53944578D01*
X222689684Y-53944578D02*
X222683515Y-53950746D01*
X222683515Y-53950746D02*
X222671178Y-53956915D01*
X222671178Y-53956915D02*
X222646504Y-53956915D01*
X222646504Y-53956915D02*
X222634167Y-53950746D01*
X222634167Y-53950746D02*
X222627998Y-53944578D01*
X222627998Y-53944578D02*
X222621829Y-53932241D01*
X222621829Y-53932241D02*
X222621829Y-53926072D01*
X222621829Y-53926072D02*
X222627998Y-53913735D01*
X222627998Y-53913735D02*
X222634167Y-53907566D01*
X222634167Y-53907566D02*
X222646504Y-53901398D01*
X222646504Y-53901398D02*
X222671178Y-53901398D01*
X222671178Y-53901398D02*
X222683515Y-53895229D01*
X222683515Y-53895229D02*
X222689684Y-53889061D01*
X222689684Y-53889061D02*
X222695852Y-53876724D01*
X222695852Y-53876724D02*
X222695852Y-53852049D01*
X222695852Y-53852049D02*
X222689684Y-53839712D01*
X222689684Y-53839712D02*
X222683515Y-53833544D01*
X222683515Y-53833544D02*
X222671178Y-53827375D01*
X222671178Y-53827375D02*
X222646504Y-53827375D01*
X222646504Y-53827375D02*
X222634167Y-53833544D01*
X222634167Y-53833544D02*
X222627998Y-53839712D01*
X222627998Y-53839712D02*
X222621829Y-53852049D01*
X222621829Y-53852049D02*
X222621829Y-53876724D01*
X222621829Y-53876724D02*
X222627998Y-53889061D01*
X222627998Y-53889061D02*
X222634167Y-53895229D01*
X222634167Y-53895229D02*
X222646504Y-53901398D01*
X227707272Y-51287375D02*
X227750452Y-51349061D01*
X227781295Y-51287375D02*
X227781295Y-51416915D01*
X227781295Y-51416915D02*
X227731946Y-51416915D01*
X227731946Y-51416915D02*
X227719609Y-51410746D01*
X227719609Y-51410746D02*
X227713440Y-51404578D01*
X227713440Y-51404578D02*
X227707272Y-51392241D01*
X227707272Y-51392241D02*
X227707272Y-51373735D01*
X227707272Y-51373735D02*
X227713440Y-51361398D01*
X227713440Y-51361398D02*
X227719609Y-51355229D01*
X227719609Y-51355229D02*
X227731946Y-51349061D01*
X227731946Y-51349061D02*
X227781295Y-51349061D01*
X227596238Y-51373735D02*
X227596238Y-51287375D01*
X227627080Y-51423084D02*
X227657923Y-51330555D01*
X227657923Y-51330555D02*
X227577732Y-51330555D01*
X227466698Y-51416915D02*
X227528384Y-51416915D01*
X227528384Y-51416915D02*
X227534552Y-51355229D01*
X227534552Y-51355229D02*
X227528384Y-51361398D01*
X227528384Y-51361398D02*
X227516047Y-51367566D01*
X227516047Y-51367566D02*
X227485204Y-51367566D01*
X227485204Y-51367566D02*
X227472867Y-51361398D01*
X227472867Y-51361398D02*
X227466698Y-51355229D01*
X227466698Y-51355229D02*
X227460529Y-51342892D01*
X227460529Y-51342892D02*
X227460529Y-51312049D01*
X227460529Y-51312049D02*
X227466698Y-51299712D01*
X227466698Y-51299712D02*
X227472867Y-51293544D01*
X227472867Y-51293544D02*
X227485204Y-51287375D01*
X227485204Y-51287375D02*
X227516047Y-51287375D01*
X227516047Y-51287375D02*
X227528384Y-51293544D01*
X227528384Y-51293544D02*
X227534552Y-51299712D01*
X231465021Y-55647017D02*
X231458853Y-55653186D01*
X231458853Y-55653186D02*
X231440347Y-55659354D01*
X231440347Y-55659354D02*
X231428010Y-55659354D01*
X231428010Y-55659354D02*
X231409504Y-55653186D01*
X231409504Y-55653186D02*
X231397167Y-55640848D01*
X231397167Y-55640848D02*
X231390998Y-55628511D01*
X231390998Y-55628511D02*
X231384830Y-55603837D01*
X231384830Y-55603837D02*
X231384830Y-55585331D01*
X231384830Y-55585331D02*
X231390998Y-55560657D01*
X231390998Y-55560657D02*
X231397167Y-55548320D01*
X231397167Y-55548320D02*
X231409504Y-55535983D01*
X231409504Y-55535983D02*
X231428010Y-55529814D01*
X231428010Y-55529814D02*
X231440347Y-55529814D01*
X231440347Y-55529814D02*
X231458853Y-55535983D01*
X231458853Y-55535983D02*
X231465021Y-55542151D01*
X231576056Y-55529814D02*
X231551381Y-55529814D01*
X231551381Y-55529814D02*
X231539044Y-55535983D01*
X231539044Y-55535983D02*
X231532876Y-55542151D01*
X231532876Y-55542151D02*
X231520538Y-55560657D01*
X231520538Y-55560657D02*
X231514370Y-55585331D01*
X231514370Y-55585331D02*
X231514370Y-55634680D01*
X231514370Y-55634680D02*
X231520538Y-55647017D01*
X231520538Y-55647017D02*
X231526707Y-55653186D01*
X231526707Y-55653186D02*
X231539044Y-55659354D01*
X231539044Y-55659354D02*
X231563718Y-55659354D01*
X231563718Y-55659354D02*
X231576056Y-55653186D01*
X231576056Y-55653186D02*
X231582224Y-55647017D01*
X231582224Y-55647017D02*
X231588393Y-55634680D01*
X231588393Y-55634680D02*
X231588393Y-55603837D01*
X231588393Y-55603837D02*
X231582224Y-55591500D01*
X231582224Y-55591500D02*
X231576056Y-55585331D01*
X231576056Y-55585331D02*
X231563718Y-55579163D01*
X231563718Y-55579163D02*
X231539044Y-55579163D01*
X231539044Y-55579163D02*
X231526707Y-55585331D01*
X231526707Y-55585331D02*
X231520538Y-55591500D01*
X231520538Y-55591500D02*
X231514370Y-55603837D01*
X231668584Y-55529814D02*
X231680921Y-55529814D01*
X231680921Y-55529814D02*
X231693258Y-55535983D01*
X231693258Y-55535983D02*
X231699427Y-55542151D01*
X231699427Y-55542151D02*
X231705595Y-55554488D01*
X231705595Y-55554488D02*
X231711764Y-55579163D01*
X231711764Y-55579163D02*
X231711764Y-55610006D01*
X231711764Y-55610006D02*
X231705595Y-55634680D01*
X231705595Y-55634680D02*
X231699427Y-55647017D01*
X231699427Y-55647017D02*
X231693258Y-55653186D01*
X231693258Y-55653186D02*
X231680921Y-55659354D01*
X231680921Y-55659354D02*
X231668584Y-55659354D01*
X231668584Y-55659354D02*
X231656247Y-55653186D01*
X231656247Y-55653186D02*
X231650078Y-55647017D01*
X231650078Y-55647017D02*
X231643909Y-55634680D01*
X231643909Y-55634680D02*
X231637741Y-55610006D01*
X231637741Y-55610006D02*
X231637741Y-55579163D01*
X231637741Y-55579163D02*
X231643909Y-55554488D01*
X231643909Y-55554488D02*
X231650078Y-55542151D01*
X231650078Y-55542151D02*
X231656247Y-55535983D01*
X231656247Y-55535983D02*
X231668584Y-55529814D01*
X231988036Y-56788790D02*
X231926350Y-56831970D01*
X231988036Y-56862813D02*
X231858496Y-56862813D01*
X231858496Y-56862813D02*
X231858496Y-56813464D01*
X231858496Y-56813464D02*
X231864665Y-56801127D01*
X231864665Y-56801127D02*
X231870833Y-56794958D01*
X231870833Y-56794958D02*
X231883170Y-56788790D01*
X231883170Y-56788790D02*
X231901676Y-56788790D01*
X231901676Y-56788790D02*
X231914013Y-56794958D01*
X231914013Y-56794958D02*
X231920182Y-56801127D01*
X231920182Y-56801127D02*
X231926350Y-56813464D01*
X231926350Y-56813464D02*
X231926350Y-56862813D01*
X231901676Y-56677756D02*
X231988036Y-56677756D01*
X231852328Y-56708598D02*
X231944856Y-56739441D01*
X231944856Y-56739441D02*
X231944856Y-56659250D01*
X231870833Y-56616070D02*
X231864665Y-56609902D01*
X231864665Y-56609902D02*
X231858496Y-56597565D01*
X231858496Y-56597565D02*
X231858496Y-56566722D01*
X231858496Y-56566722D02*
X231864665Y-56554385D01*
X231864665Y-56554385D02*
X231870833Y-56548216D01*
X231870833Y-56548216D02*
X231883170Y-56542047D01*
X231883170Y-56542047D02*
X231895508Y-56542047D01*
X231895508Y-56542047D02*
X231914013Y-56548216D01*
X231914013Y-56548216D02*
X231988036Y-56622239D01*
X231988036Y-56622239D02*
X231988036Y-56542047D01*
X229091572Y-51172712D02*
X229097740Y-51166544D01*
X229097740Y-51166544D02*
X229116246Y-51160375D01*
X229116246Y-51160375D02*
X229128583Y-51160375D01*
X229128583Y-51160375D02*
X229147089Y-51166544D01*
X229147089Y-51166544D02*
X229159426Y-51178881D01*
X229159426Y-51178881D02*
X229165595Y-51191218D01*
X229165595Y-51191218D02*
X229171763Y-51215892D01*
X229171763Y-51215892D02*
X229171763Y-51234398D01*
X229171763Y-51234398D02*
X229165595Y-51259072D01*
X229165595Y-51259072D02*
X229159426Y-51271409D01*
X229159426Y-51271409D02*
X229147089Y-51283746D01*
X229147089Y-51283746D02*
X229128583Y-51289915D01*
X229128583Y-51289915D02*
X229116246Y-51289915D01*
X229116246Y-51289915D02*
X229097740Y-51283746D01*
X229097740Y-51283746D02*
X229091572Y-51277578D01*
X229017549Y-51234398D02*
X229029886Y-51240566D01*
X229029886Y-51240566D02*
X229036055Y-51246735D01*
X229036055Y-51246735D02*
X229042223Y-51259072D01*
X229042223Y-51259072D02*
X229042223Y-51265241D01*
X229042223Y-51265241D02*
X229036055Y-51277578D01*
X229036055Y-51277578D02*
X229029886Y-51283746D01*
X229029886Y-51283746D02*
X229017549Y-51289915D01*
X229017549Y-51289915D02*
X228992875Y-51289915D01*
X228992875Y-51289915D02*
X228980538Y-51283746D01*
X228980538Y-51283746D02*
X228974369Y-51277578D01*
X228974369Y-51277578D02*
X228968200Y-51265241D01*
X228968200Y-51265241D02*
X228968200Y-51259072D01*
X228968200Y-51259072D02*
X228974369Y-51246735D01*
X228974369Y-51246735D02*
X228980538Y-51240566D01*
X228980538Y-51240566D02*
X228992875Y-51234398D01*
X228992875Y-51234398D02*
X229017549Y-51234398D01*
X229017549Y-51234398D02*
X229029886Y-51228229D01*
X229029886Y-51228229D02*
X229036055Y-51222061D01*
X229036055Y-51222061D02*
X229042223Y-51209724D01*
X229042223Y-51209724D02*
X229042223Y-51185049D01*
X229042223Y-51185049D02*
X229036055Y-51172712D01*
X229036055Y-51172712D02*
X229029886Y-51166544D01*
X229029886Y-51166544D02*
X229017549Y-51160375D01*
X229017549Y-51160375D02*
X228992875Y-51160375D01*
X228992875Y-51160375D02*
X228980538Y-51166544D01*
X228980538Y-51166544D02*
X228974369Y-51172712D01*
X228974369Y-51172712D02*
X228968200Y-51185049D01*
X228968200Y-51185049D02*
X228968200Y-51209724D01*
X228968200Y-51209724D02*
X228974369Y-51222061D01*
X228974369Y-51222061D02*
X228980538Y-51228229D01*
X228980538Y-51228229D02*
X228992875Y-51234398D01*
X228888009Y-51289915D02*
X228875672Y-51289915D01*
X228875672Y-51289915D02*
X228863335Y-51283746D01*
X228863335Y-51283746D02*
X228857167Y-51277578D01*
X228857167Y-51277578D02*
X228850998Y-51265241D01*
X228850998Y-51265241D02*
X228844829Y-51240566D01*
X228844829Y-51240566D02*
X228844829Y-51209724D01*
X228844829Y-51209724D02*
X228850998Y-51185049D01*
X228850998Y-51185049D02*
X228857167Y-51172712D01*
X228857167Y-51172712D02*
X228863335Y-51166544D01*
X228863335Y-51166544D02*
X228875672Y-51160375D01*
X228875672Y-51160375D02*
X228888009Y-51160375D01*
X228888009Y-51160375D02*
X228900347Y-51166544D01*
X228900347Y-51166544D02*
X228906515Y-51172712D01*
X228906515Y-51172712D02*
X228912684Y-51185049D01*
X228912684Y-51185049D02*
X228918852Y-51209724D01*
X228918852Y-51209724D02*
X228918852Y-51240566D01*
X228918852Y-51240566D02*
X228912684Y-51265241D01*
X228912684Y-51265241D02*
X228906515Y-51277578D01*
X228906515Y-51277578D02*
X228900347Y-51283746D01*
X228900347Y-51283746D02*
X228888009Y-51289915D01*
D12*
X229667867Y-50293277D02*
X229667867Y-50521877D01*
X229667867Y-50521877D02*
X229613438Y-50521877D01*
X229613438Y-50521877D02*
X229580781Y-50510991D01*
X229580781Y-50510991D02*
X229559010Y-50489220D01*
X229559010Y-50489220D02*
X229548124Y-50467448D01*
X229548124Y-50467448D02*
X229537238Y-50423905D01*
X229537238Y-50423905D02*
X229537238Y-50391248D01*
X229537238Y-50391248D02*
X229548124Y-50347705D01*
X229548124Y-50347705D02*
X229559010Y-50325934D01*
X229559010Y-50325934D02*
X229580781Y-50304163D01*
X229580781Y-50304163D02*
X229613438Y-50293277D01*
X229613438Y-50293277D02*
X229667867Y-50293277D01*
X229461038Y-50521877D02*
X229319524Y-50521877D01*
X229319524Y-50521877D02*
X229395724Y-50434791D01*
X229395724Y-50434791D02*
X229363067Y-50434791D01*
X229363067Y-50434791D02*
X229341296Y-50423905D01*
X229341296Y-50423905D02*
X229330410Y-50413020D01*
X229330410Y-50413020D02*
X229319524Y-50391248D01*
X229319524Y-50391248D02*
X229319524Y-50336820D01*
X229319524Y-50336820D02*
X229330410Y-50315048D01*
X229330410Y-50315048D02*
X229341296Y-50304163D01*
X229341296Y-50304163D02*
X229363067Y-50293277D01*
X229363067Y-50293277D02*
X229428381Y-50293277D01*
X229428381Y-50293277D02*
X229450153Y-50304163D01*
X229450153Y-50304163D02*
X229461038Y-50315048D01*
D13*
%TO.C,J14*%
G36*
X235349586Y-46284997D02*
G01*
X233908780Y-46284997D01*
X233736304Y-46265563D01*
X233567056Y-46206342D01*
X233415231Y-46110943D01*
X233288440Y-45984152D01*
X233189948Y-45827403D01*
X233114386Y-45496345D01*
X233114386Y-45352191D01*
X233133820Y-45179715D01*
X233193041Y-45010467D01*
X233288440Y-44858642D01*
X233415231Y-44731851D01*
X233571980Y-44633359D01*
X233903038Y-44557797D01*
X235349586Y-44557797D01*
X235349586Y-46284997D01*
G37*
G36*
X235349586Y-48824997D02*
G01*
X233908780Y-48824997D01*
X233736304Y-48805563D01*
X233567056Y-48746342D01*
X233415231Y-48650943D01*
X233288440Y-48524152D01*
X233189948Y-48367403D01*
X233114386Y-48036345D01*
X233114386Y-47892191D01*
X233133820Y-47719715D01*
X233193041Y-47550467D01*
X233288440Y-47398642D01*
X233415231Y-47271851D01*
X233571980Y-47173359D01*
X233903038Y-47097797D01*
X235349586Y-47097797D01*
X235349586Y-48824997D01*
G37*
G36*
X235349586Y-51364997D02*
G01*
X233908780Y-51364997D01*
X233736304Y-51345563D01*
X233567056Y-51286342D01*
X233415231Y-51190943D01*
X233288440Y-51064152D01*
X233189948Y-50907403D01*
X233114386Y-50576345D01*
X233114386Y-50432191D01*
X233133820Y-50259715D01*
X233193041Y-50090467D01*
X233288440Y-49938642D01*
X233415231Y-49811851D01*
X233571980Y-49713359D01*
X233903038Y-49637797D01*
X235349586Y-49637797D01*
X235349586Y-51364997D01*
G37*
G36*
X235349586Y-53904997D02*
G01*
X233908780Y-53904997D01*
X233736304Y-53885563D01*
X233567056Y-53826342D01*
X233415231Y-53730943D01*
X233288440Y-53604152D01*
X233189948Y-53447403D01*
X233114386Y-53116345D01*
X233114386Y-52972191D01*
X233133820Y-52799715D01*
X233193041Y-52630467D01*
X233288440Y-52478642D01*
X233415231Y-52351851D01*
X233571980Y-52253359D01*
X233903038Y-52177797D01*
X235349586Y-52177797D01*
X235349586Y-53904997D01*
G37*
G36*
X235349586Y-56444997D02*
G01*
X233908780Y-56444997D01*
X233736304Y-56425563D01*
X233567056Y-56366342D01*
X233415231Y-56270943D01*
X233288440Y-56144152D01*
X233189948Y-55987403D01*
X233114386Y-55656345D01*
X233114386Y-55512191D01*
X233133820Y-55339715D01*
X233193041Y-55170467D01*
X233288440Y-55018642D01*
X233415231Y-54891851D01*
X233571980Y-54793359D01*
X233903038Y-54717797D01*
X235349586Y-54717797D01*
X235349586Y-56444997D01*
G37*
G36*
X235349586Y-58984997D02*
G01*
X233908780Y-58984997D01*
X233736304Y-58965563D01*
X233567056Y-58906342D01*
X233415231Y-58810943D01*
X233288440Y-58684152D01*
X233189948Y-58527403D01*
X233114386Y-58196345D01*
X233114386Y-58052191D01*
X233133820Y-57879715D01*
X233193041Y-57710467D01*
X233288440Y-57558642D01*
X233415231Y-57431851D01*
X233571980Y-57333359D01*
X233903038Y-57257797D01*
X235349586Y-57257797D01*
X235349586Y-58984997D01*
G37*
G36*
X235349586Y-61524997D02*
G01*
X233908780Y-61524997D01*
X233736304Y-61505563D01*
X233567056Y-61446342D01*
X233415231Y-61350943D01*
X233288440Y-61224152D01*
X233189948Y-61067403D01*
X233114386Y-60736345D01*
X233114386Y-60592191D01*
X233133820Y-60419715D01*
X233193041Y-60250467D01*
X233288440Y-60098642D01*
X233415231Y-59971851D01*
X233571980Y-59873359D01*
X233903038Y-59797797D01*
X235349586Y-59797797D01*
X235349586Y-61524997D01*
G37*
%TO.C,U7*%
G36*
X221435234Y-53706015D02*
G01*
X221435234Y-53816225D01*
X221188374Y-54063085D01*
X221078164Y-54063085D01*
X220831304Y-53816225D01*
X220831304Y-53706015D01*
X221078164Y-53459155D01*
X221188374Y-53459155D01*
X221435234Y-53706015D01*
G37*
G36*
X221788269Y-53984049D02*
G01*
X221788269Y-54213191D01*
X221735340Y-54266120D01*
X221331198Y-54266120D01*
X221278269Y-54213191D01*
X221278269Y-54155834D01*
X221293673Y-54118644D01*
X221465793Y-53946524D01*
X221502983Y-53931120D01*
X221735340Y-53931120D01*
X221788269Y-53984049D01*
G37*
G36*
X221788269Y-53309049D02*
G01*
X221788269Y-53538191D01*
X221735340Y-53591120D01*
X221502983Y-53591120D01*
X221465793Y-53575716D01*
X221293673Y-53403596D01*
X221278269Y-53366406D01*
X221278269Y-53309049D01*
X221331198Y-53256120D01*
X221735340Y-53256120D01*
X221788269Y-53309049D01*
G37*
G36*
X220988269Y-53309049D02*
G01*
X220988269Y-53366406D01*
X220972865Y-53403596D01*
X220801100Y-53575361D01*
X220783644Y-53587024D01*
X220763052Y-53591120D01*
X220531198Y-53591120D01*
X220478269Y-53538191D01*
X220478269Y-53309049D01*
X220531198Y-53256120D01*
X220935340Y-53256120D01*
X220988269Y-53309049D01*
G37*
G36*
X220783644Y-53935216D02*
G01*
X220801100Y-53946879D01*
X220972865Y-54118644D01*
X220988269Y-54155834D01*
X220988269Y-54213191D01*
X220935340Y-54266120D01*
X220531198Y-54266120D01*
X220478269Y-54213191D01*
X220478269Y-53984049D01*
X220531198Y-53931120D01*
X220763052Y-53931120D01*
X220783644Y-53935216D01*
G37*
%TO.C,J13*%
G36*
X218980350Y-44575621D02*
G01*
X219149598Y-44634842D01*
X219301423Y-44730241D01*
X219428214Y-44857032D01*
X219526706Y-45013781D01*
X219602268Y-45344839D01*
X219602268Y-45488993D01*
X219582834Y-45661469D01*
X219523613Y-45830717D01*
X219428214Y-45982542D01*
X219301423Y-46109333D01*
X219144674Y-46207825D01*
X218813616Y-46283387D01*
X217367068Y-46283387D01*
X217367068Y-44556187D01*
X218807874Y-44556187D01*
X218980350Y-44575621D01*
G37*
G36*
X218980350Y-47115621D02*
G01*
X219149598Y-47174842D01*
X219301423Y-47270241D01*
X219428214Y-47397032D01*
X219526706Y-47553781D01*
X219602268Y-47884839D01*
X219602268Y-48028993D01*
X219582834Y-48201469D01*
X219523613Y-48370717D01*
X219428214Y-48522542D01*
X219301423Y-48649333D01*
X219144674Y-48747825D01*
X218813616Y-48823387D01*
X217367068Y-48823387D01*
X217367068Y-47096187D01*
X218807874Y-47096187D01*
X218980350Y-47115621D01*
G37*
G36*
X218980350Y-49655621D02*
G01*
X219149598Y-49714842D01*
X219301423Y-49810241D01*
X219428214Y-49937032D01*
X219526706Y-50093781D01*
X219602268Y-50424839D01*
X219602268Y-50568993D01*
X219582834Y-50741469D01*
X219523613Y-50910717D01*
X219428214Y-51062542D01*
X219301423Y-51189333D01*
X219144674Y-51287825D01*
X218813616Y-51363387D01*
X217367068Y-51363387D01*
X217367068Y-49636187D01*
X218807874Y-49636187D01*
X218980350Y-49655621D01*
G37*
G36*
X218980350Y-52195621D02*
G01*
X219149598Y-52254842D01*
X219301423Y-52350241D01*
X219428214Y-52477032D01*
X219526706Y-52633781D01*
X219602268Y-52964839D01*
X219602268Y-53108993D01*
X219582834Y-53281469D01*
X219523613Y-53450717D01*
X219428214Y-53602542D01*
X219301423Y-53729333D01*
X219144674Y-53827825D01*
X218813616Y-53903387D01*
X217367068Y-53903387D01*
X217367068Y-52176187D01*
X218807874Y-52176187D01*
X218980350Y-52195621D01*
G37*
G36*
X218980350Y-54735621D02*
G01*
X219149598Y-54794842D01*
X219301423Y-54890241D01*
X219428214Y-55017032D01*
X219526706Y-55173781D01*
X219602268Y-55504839D01*
X219602268Y-55648993D01*
X219582834Y-55821469D01*
X219523613Y-55990717D01*
X219428214Y-56142542D01*
X219301423Y-56269333D01*
X219144674Y-56367825D01*
X218813616Y-56443387D01*
X217367068Y-56443387D01*
X217367068Y-54716187D01*
X218807874Y-54716187D01*
X218980350Y-54735621D01*
G37*
G36*
X218980350Y-57275621D02*
G01*
X219149598Y-57334842D01*
X219301423Y-57430241D01*
X219428214Y-57557032D01*
X219526706Y-57713781D01*
X219602268Y-58044839D01*
X219602268Y-58188993D01*
X219582834Y-58361469D01*
X219523613Y-58530717D01*
X219428214Y-58682542D01*
X219301423Y-58809333D01*
X219144674Y-58907825D01*
X218813616Y-58983387D01*
X217367068Y-58983387D01*
X217367068Y-57256187D01*
X218807874Y-57256187D01*
X218980350Y-57275621D01*
G37*
G36*
X218980350Y-59815621D02*
G01*
X219149598Y-59874842D01*
X219301423Y-59970241D01*
X219428214Y-60097032D01*
X219526706Y-60253781D01*
X219602268Y-60584839D01*
X219602268Y-60728993D01*
X219582834Y-60901469D01*
X219523613Y-61070717D01*
X219428214Y-61222542D01*
X219301423Y-61349333D01*
X219144674Y-61447825D01*
X218813616Y-61523387D01*
X217367068Y-61523387D01*
X217367068Y-59796187D01*
X218807874Y-59796187D01*
X218980350Y-59815621D01*
G37*
%TO.C,USB1*%
G36*
X222176741Y-42677818D02*
G01*
X222311619Y-42733685D01*
X222427441Y-42822559D01*
X222518395Y-42941091D01*
X222590800Y-43211312D01*
X222590800Y-44110330D01*
X222572182Y-44251741D01*
X222516315Y-44386619D01*
X222427441Y-44502441D01*
X222311619Y-44591315D01*
X222176741Y-44647182D01*
X222032000Y-44666238D01*
X221887259Y-44647182D01*
X221752381Y-44591315D01*
X221636559Y-44502441D01*
X221547685Y-44386619D01*
X221491818Y-44251741D01*
X221473200Y-44110330D01*
X221473200Y-43214670D01*
X221491818Y-43073259D01*
X221547685Y-42938381D01*
X221636559Y-42822559D01*
X221755091Y-42731605D01*
X222028613Y-42658316D01*
X222176741Y-42677818D01*
G37*
G36*
X222176741Y-46868818D02*
G01*
X222311619Y-46924685D01*
X222427441Y-47013559D01*
X222518395Y-47132091D01*
X222590800Y-47402312D01*
X222590800Y-48301330D01*
X222572182Y-48442741D01*
X222516315Y-48577619D01*
X222427441Y-48693441D01*
X222311619Y-48782315D01*
X222176741Y-48838182D01*
X222032000Y-48857238D01*
X221887259Y-48838182D01*
X221752381Y-48782315D01*
X221636559Y-48693441D01*
X221547685Y-48577619D01*
X221491818Y-48442741D01*
X221473200Y-48301330D01*
X221473200Y-47405670D01*
X221491818Y-47264259D01*
X221547685Y-47129381D01*
X221636559Y-47013559D01*
X221755091Y-46922605D01*
X222028613Y-46849316D01*
X222176741Y-46868818D01*
G37*
G36*
X230812741Y-42677818D02*
G01*
X230947619Y-42733685D01*
X231063441Y-42822559D01*
X231154395Y-42941091D01*
X231226800Y-43211312D01*
X231226800Y-44110330D01*
X231208182Y-44251741D01*
X231152315Y-44386619D01*
X231063441Y-44502441D01*
X230947619Y-44591315D01*
X230812741Y-44647182D01*
X230668000Y-44666238D01*
X230523259Y-44647182D01*
X230388381Y-44591315D01*
X230272559Y-44502441D01*
X230183685Y-44386619D01*
X230127818Y-44251741D01*
X230109200Y-44110330D01*
X230109200Y-43214670D01*
X230127818Y-43073259D01*
X230183685Y-42938381D01*
X230272559Y-42822559D01*
X230391091Y-42731605D01*
X230664613Y-42658316D01*
X230812741Y-42677818D01*
G37*
G36*
X230812741Y-46868818D02*
G01*
X230947619Y-46924685D01*
X231063441Y-47013559D01*
X231154395Y-47132091D01*
X231226800Y-47402312D01*
X231226800Y-48301330D01*
X231208182Y-48442741D01*
X231152315Y-48577619D01*
X231063441Y-48693441D01*
X230947619Y-48782315D01*
X230812741Y-48838182D01*
X230668000Y-48857238D01*
X230523259Y-48838182D01*
X230388381Y-48782315D01*
X230272559Y-48693441D01*
X230183685Y-48577619D01*
X230127818Y-48442741D01*
X230109200Y-48301330D01*
X230109200Y-47405670D01*
X230127818Y-47264259D01*
X230183685Y-47129381D01*
X230272559Y-47013559D01*
X230391091Y-46922605D01*
X230664613Y-46849316D01*
X230812741Y-46868818D01*
G37*
%TO.C,U9*%
D14*
X224313797Y-53283115D02*
G75*
G02*
X224138797Y-53283115I-87500J0D01*
G01*
X224138797Y-53283115D02*
G75*
G02*
X224313797Y-53283115I87500J0D01*
G01*
X224313797Y-54283115D02*
G75*
G02*
X224138797Y-54283115I-87500J0D01*
G01*
X224138797Y-54283115D02*
G75*
G02*
X224313797Y-54283115I87500J0D01*
G01*
X224313797Y-54783115D02*
G75*
G02*
X224138797Y-54783115I-87500J0D01*
G01*
X224138797Y-54783115D02*
G75*
G02*
X224313797Y-54783115I87500J0D01*
G01*
X224313797Y-55283115D02*
G75*
G02*
X224138797Y-55283115I-87500J0D01*
G01*
X224138797Y-55283115D02*
G75*
G02*
X224313797Y-55283115I87500J0D01*
G01*
X224313797Y-55783115D02*
G75*
G02*
X224138797Y-55783115I-87500J0D01*
G01*
X224138797Y-55783115D02*
G75*
G02*
X224313797Y-55783115I87500J0D01*
G01*
X224313797Y-56283115D02*
G75*
G02*
X224138797Y-56283115I-87500J0D01*
G01*
X224138797Y-56283115D02*
G75*
G02*
X224313797Y-56283115I87500J0D01*
G01*
X224313797Y-56783115D02*
G75*
G02*
X224138797Y-56783115I-87500J0D01*
G01*
X224138797Y-56783115D02*
G75*
G02*
X224313797Y-56783115I87500J0D01*
G01*
X224313797Y-57283115D02*
G75*
G02*
X224138797Y-57283115I-87500J0D01*
G01*
X224138797Y-57283115D02*
G75*
G02*
X224313797Y-57283115I87500J0D01*
G01*
X224563797Y-52533115D02*
G75*
G02*
X224388797Y-52533115I-87500J0D01*
G01*
X224388797Y-52533115D02*
G75*
G02*
X224563797Y-52533115I87500J0D01*
G01*
X225063797Y-52533115D02*
G75*
G02*
X224888797Y-52533115I-87500J0D01*
G01*
X224888797Y-52533115D02*
G75*
G02*
X225063797Y-52533115I87500J0D01*
G01*
X225063797Y-58033115D02*
G75*
G02*
X224888797Y-58033115I-87500J0D01*
G01*
X224888797Y-58033115D02*
G75*
G02*
X225063797Y-58033115I87500J0D01*
G01*
X225563797Y-58033115D02*
G75*
G02*
X225388797Y-58033115I-87500J0D01*
G01*
X225388797Y-58033115D02*
G75*
G02*
X225563797Y-58033115I87500J0D01*
G01*
X226063797Y-52533115D02*
G75*
G02*
X225888797Y-52533115I-87500J0D01*
G01*
X225888797Y-52533115D02*
G75*
G02*
X226063797Y-52533115I87500J0D01*
G01*
X226063797Y-58033115D02*
G75*
G02*
X225888797Y-58033115I-87500J0D01*
G01*
X225888797Y-58033115D02*
G75*
G02*
X226063797Y-58033115I87500J0D01*
G01*
X226563797Y-52533115D02*
G75*
G02*
X226388797Y-52533115I-87500J0D01*
G01*
X226388797Y-52533115D02*
G75*
G02*
X226563797Y-52533115I87500J0D01*
G01*
X226563797Y-58033115D02*
G75*
G02*
X226388797Y-58033115I-87500J0D01*
G01*
X226388797Y-58033115D02*
G75*
G02*
X226563797Y-58033115I87500J0D01*
G01*
X227063797Y-52533115D02*
G75*
G02*
X226888797Y-52533115I-87500J0D01*
G01*
X226888797Y-52533115D02*
G75*
G02*
X227063797Y-52533115I87500J0D01*
G01*
X227563797Y-52533115D02*
G75*
G02*
X227388797Y-52533115I-87500J0D01*
G01*
X227388797Y-52533115D02*
G75*
G02*
X227563797Y-52533115I87500J0D01*
G01*
X228063797Y-52533115D02*
G75*
G02*
X227888797Y-52533115I-87500J0D01*
G01*
X227888797Y-52533115D02*
G75*
G02*
X228063797Y-52533115I87500J0D01*
G01*
X228063797Y-58033115D02*
G75*
G02*
X227888797Y-58033115I-87500J0D01*
G01*
X227888797Y-58033115D02*
G75*
G02*
X228063797Y-58033115I87500J0D01*
G01*
X228563797Y-52533115D02*
G75*
G02*
X228388797Y-52533115I-87500J0D01*
G01*
X228388797Y-52533115D02*
G75*
G02*
X228563797Y-52533115I87500J0D01*
G01*
X228563797Y-58033115D02*
G75*
G02*
X228388797Y-58033115I-87500J0D01*
G01*
X228388797Y-58033115D02*
G75*
G02*
X228563797Y-58033115I87500J0D01*
G01*
X229063797Y-52533115D02*
G75*
G02*
X228888797Y-52533115I-87500J0D01*
G01*
X228888797Y-52533115D02*
G75*
G02*
X229063797Y-52533115I87500J0D01*
G01*
X229063797Y-58033115D02*
G75*
G02*
X228888797Y-58033115I-87500J0D01*
G01*
X228888797Y-58033115D02*
G75*
G02*
X229063797Y-58033115I87500J0D01*
G01*
X229813797Y-52783115D02*
G75*
G02*
X229638797Y-52783115I-87500J0D01*
G01*
X229638797Y-52783115D02*
G75*
G02*
X229813797Y-52783115I87500J0D01*
G01*
X229813797Y-53283115D02*
G75*
G02*
X229638797Y-53283115I-87500J0D01*
G01*
X229638797Y-53283115D02*
G75*
G02*
X229813797Y-53283115I87500J0D01*
G01*
X229813797Y-53783115D02*
G75*
G02*
X229638797Y-53783115I-87500J0D01*
G01*
X229638797Y-53783115D02*
G75*
G02*
X229813797Y-53783115I87500J0D01*
G01*
X229813797Y-54283115D02*
G75*
G02*
X229638797Y-54283115I-87500J0D01*
G01*
X229638797Y-54283115D02*
G75*
G02*
X229813797Y-54283115I87500J0D01*
G01*
X229813797Y-54783115D02*
G75*
G02*
X229638797Y-54783115I-87500J0D01*
G01*
X229638797Y-54783115D02*
G75*
G02*
X229813797Y-54783115I87500J0D01*
G01*
X229813797Y-55283115D02*
G75*
G02*
X229638797Y-55283115I-87500J0D01*
G01*
X229638797Y-55283115D02*
G75*
G02*
X229813797Y-55283115I87500J0D01*
G01*
X229813797Y-55783115D02*
G75*
G02*
X229638797Y-55783115I-87500J0D01*
G01*
X229638797Y-55783115D02*
G75*
G02*
X229813797Y-55783115I87500J0D01*
G01*
X229813797Y-56283115D02*
G75*
G02*
X229638797Y-56283115I-87500J0D01*
G01*
X229638797Y-56283115D02*
G75*
G02*
X229813797Y-56283115I87500J0D01*
G01*
X229813797Y-56783115D02*
G75*
G02*
X229638797Y-56783115I-87500J0D01*
G01*
X229638797Y-56783115D02*
G75*
G02*
X229813797Y-56783115I87500J0D01*
G01*
D13*
G36*
X223838797Y-52399862D02*
G01*
X223884550Y-52445615D01*
X223901297Y-52508115D01*
X223901297Y-52558115D01*
X223884550Y-52620615D01*
X223838797Y-52666368D01*
X223776297Y-52683115D01*
X223676297Y-52683115D01*
X223613797Y-52666368D01*
X223568044Y-52620615D01*
X223551297Y-52558115D01*
X223551297Y-52508115D01*
X223568044Y-52445615D01*
X223613797Y-52399862D01*
X223676297Y-52383115D01*
X223776297Y-52383115D01*
X223838797Y-52399862D01*
G37*
G36*
X223838797Y-52899862D02*
G01*
X223884550Y-52945615D01*
X223901297Y-53008115D01*
X223901297Y-53058115D01*
X223884550Y-53120615D01*
X223838797Y-53166368D01*
X223776297Y-53183115D01*
X223676297Y-53183115D01*
X223613797Y-53166368D01*
X223568044Y-53120615D01*
X223551297Y-53058115D01*
X223551297Y-53008115D01*
X223568044Y-52945615D01*
X223613797Y-52899862D01*
X223676297Y-52883115D01*
X223776297Y-52883115D01*
X223838797Y-52899862D01*
G37*
G36*
X223838797Y-53399862D02*
G01*
X223884550Y-53445615D01*
X223901297Y-53508115D01*
X223901297Y-53558115D01*
X223884550Y-53620615D01*
X223838797Y-53666368D01*
X223776297Y-53683115D01*
X223676297Y-53683115D01*
X223613797Y-53666368D01*
X223568044Y-53620615D01*
X223551297Y-53558115D01*
X223551297Y-53508115D01*
X223568044Y-53445615D01*
X223613797Y-53399862D01*
X223676297Y-53383115D01*
X223776297Y-53383115D01*
X223838797Y-53399862D01*
G37*
G36*
X223838797Y-53899862D02*
G01*
X223884550Y-53945615D01*
X223901297Y-54008115D01*
X223901297Y-54058115D01*
X223884550Y-54120615D01*
X223838797Y-54166368D01*
X223776297Y-54183115D01*
X223676297Y-54183115D01*
X223613797Y-54166368D01*
X223568044Y-54120615D01*
X223551297Y-54058115D01*
X223551297Y-54008115D01*
X223568044Y-53945615D01*
X223613797Y-53899862D01*
X223676297Y-53883115D01*
X223776297Y-53883115D01*
X223838797Y-53899862D01*
G37*
G36*
X223838797Y-54399862D02*
G01*
X223884550Y-54445615D01*
X223901297Y-54508115D01*
X223901297Y-54558115D01*
X223884550Y-54620615D01*
X223838797Y-54666368D01*
X223776297Y-54683115D01*
X223676297Y-54683115D01*
X223613797Y-54666368D01*
X223568044Y-54620615D01*
X223551297Y-54558115D01*
X223551297Y-54508115D01*
X223568044Y-54445615D01*
X223613797Y-54399862D01*
X223676297Y-54383115D01*
X223776297Y-54383115D01*
X223838797Y-54399862D01*
G37*
G36*
X223838797Y-54899862D02*
G01*
X223884550Y-54945615D01*
X223901297Y-55008115D01*
X223901297Y-55058115D01*
X223884550Y-55120615D01*
X223838797Y-55166368D01*
X223776297Y-55183115D01*
X223676297Y-55183115D01*
X223613797Y-55166368D01*
X223568044Y-55120615D01*
X223551297Y-55058115D01*
X223551297Y-55008115D01*
X223568044Y-54945615D01*
X223613797Y-54899862D01*
X223676297Y-54883115D01*
X223776297Y-54883115D01*
X223838797Y-54899862D01*
G37*
G36*
X223838797Y-55399862D02*
G01*
X223884550Y-55445615D01*
X223901297Y-55508115D01*
X223901297Y-55558115D01*
X223884550Y-55620615D01*
X223838797Y-55666368D01*
X223776297Y-55683115D01*
X223676297Y-55683115D01*
X223613797Y-55666368D01*
X223568044Y-55620615D01*
X223551297Y-55558115D01*
X223551297Y-55508115D01*
X223568044Y-55445615D01*
X223613797Y-55399862D01*
X223676297Y-55383115D01*
X223776297Y-55383115D01*
X223838797Y-55399862D01*
G37*
G36*
X223838797Y-55899862D02*
G01*
X223884550Y-55945615D01*
X223901297Y-56008115D01*
X223901297Y-56058115D01*
X223884550Y-56120615D01*
X223838797Y-56166368D01*
X223776297Y-56183115D01*
X223676297Y-56183115D01*
X223613797Y-56166368D01*
X223568044Y-56120615D01*
X223551297Y-56058115D01*
X223551297Y-56008115D01*
X223568044Y-55945615D01*
X223613797Y-55899862D01*
X223676297Y-55883115D01*
X223776297Y-55883115D01*
X223838797Y-55899862D01*
G37*
G36*
X223838797Y-56399862D02*
G01*
X223884550Y-56445615D01*
X223901297Y-56508115D01*
X223901297Y-56558115D01*
X223884550Y-56620615D01*
X223838797Y-56666368D01*
X223776297Y-56683115D01*
X223676297Y-56683115D01*
X223613797Y-56666368D01*
X223568044Y-56620615D01*
X223551297Y-56558115D01*
X223551297Y-56508115D01*
X223568044Y-56445615D01*
X223613797Y-56399862D01*
X223676297Y-56383115D01*
X223776297Y-56383115D01*
X223838797Y-56399862D01*
G37*
G36*
X223838797Y-56899862D02*
G01*
X223884550Y-56945615D01*
X223901297Y-57008115D01*
X223901297Y-57058115D01*
X223884550Y-57120615D01*
X223838797Y-57166368D01*
X223776297Y-57183115D01*
X223676297Y-57183115D01*
X223613797Y-57166368D01*
X223568044Y-57120615D01*
X223551297Y-57058115D01*
X223551297Y-57008115D01*
X223568044Y-56945615D01*
X223613797Y-56899862D01*
X223676297Y-56883115D01*
X223776297Y-56883115D01*
X223838797Y-56899862D01*
G37*
G36*
X223838797Y-57399862D02*
G01*
X223884550Y-57445615D01*
X223901297Y-57508115D01*
X223901297Y-57558115D01*
X223884550Y-57620615D01*
X223838797Y-57666368D01*
X223776297Y-57683115D01*
X223676297Y-57683115D01*
X223613797Y-57666368D01*
X223568044Y-57620615D01*
X223551297Y-57558115D01*
X223551297Y-57508115D01*
X223568044Y-57445615D01*
X223613797Y-57399862D01*
X223676297Y-57383115D01*
X223776297Y-57383115D01*
X223838797Y-57399862D01*
G37*
G36*
X223838797Y-57899862D02*
G01*
X223884550Y-57945615D01*
X223901297Y-58008115D01*
X223901297Y-58058115D01*
X223884550Y-58120615D01*
X223838797Y-58166368D01*
X223776297Y-58183115D01*
X223676297Y-58183115D01*
X223613797Y-58166368D01*
X223568044Y-58120615D01*
X223551297Y-58058115D01*
X223551297Y-58008115D01*
X223568044Y-57945615D01*
X223613797Y-57899862D01*
X223676297Y-57883115D01*
X223776297Y-57883115D01*
X223838797Y-57899862D01*
G37*
G36*
X224313797Y-58374862D02*
G01*
X224359550Y-58420615D01*
X224376297Y-58483115D01*
X224376297Y-58583115D01*
X224359550Y-58645615D01*
X224313797Y-58691368D01*
X224251297Y-58708115D01*
X224201297Y-58708115D01*
X224138797Y-58691368D01*
X224093044Y-58645615D01*
X224076297Y-58583115D01*
X224076297Y-58483115D01*
X224093044Y-58420615D01*
X224138797Y-58374862D01*
X224201297Y-58358115D01*
X224251297Y-58358115D01*
X224313797Y-58374862D01*
G37*
G36*
X224813797Y-58374862D02*
G01*
X224859550Y-58420615D01*
X224876297Y-58483115D01*
X224876297Y-58583115D01*
X224859550Y-58645615D01*
X224813797Y-58691368D01*
X224751297Y-58708115D01*
X224701297Y-58708115D01*
X224638797Y-58691368D01*
X224593044Y-58645615D01*
X224576297Y-58583115D01*
X224576297Y-58483115D01*
X224593044Y-58420615D01*
X224638797Y-58374862D01*
X224701297Y-58358115D01*
X224751297Y-58358115D01*
X224813797Y-58374862D01*
G37*
G36*
X225313797Y-51874862D02*
G01*
X225359550Y-51920615D01*
X225376297Y-51983115D01*
X225376297Y-52083115D01*
X225359550Y-52145615D01*
X225313797Y-52191368D01*
X225251297Y-52208115D01*
X225201297Y-52208115D01*
X225138797Y-52191368D01*
X225093044Y-52145615D01*
X225076297Y-52083115D01*
X225076297Y-51983115D01*
X225093044Y-51920615D01*
X225138797Y-51874862D01*
X225201297Y-51858115D01*
X225251297Y-51858115D01*
X225313797Y-51874862D01*
G37*
G36*
X225313797Y-58374862D02*
G01*
X225359550Y-58420615D01*
X225376297Y-58483115D01*
X225376297Y-58583115D01*
X225359550Y-58645615D01*
X225313797Y-58691368D01*
X225251297Y-58708115D01*
X225201297Y-58708115D01*
X225138797Y-58691368D01*
X225093044Y-58645615D01*
X225076297Y-58583115D01*
X225076297Y-58483115D01*
X225093044Y-58420615D01*
X225138797Y-58374862D01*
X225201297Y-58358115D01*
X225251297Y-58358115D01*
X225313797Y-58374862D01*
G37*
G36*
X225813797Y-51874862D02*
G01*
X225859550Y-51920615D01*
X225876297Y-51983115D01*
X225876297Y-52083115D01*
X225859550Y-52145615D01*
X225813797Y-52191368D01*
X225751297Y-52208115D01*
X225701297Y-52208115D01*
X225638797Y-52191368D01*
X225593044Y-52145615D01*
X225576297Y-52083115D01*
X225576297Y-51983115D01*
X225593044Y-51920615D01*
X225638797Y-51874862D01*
X225701297Y-51858115D01*
X225751297Y-51858115D01*
X225813797Y-51874862D01*
G37*
G36*
X225813797Y-58374862D02*
G01*
X225859550Y-58420615D01*
X225876297Y-58483115D01*
X225876297Y-58583115D01*
X225859550Y-58645615D01*
X225813797Y-58691368D01*
X225751297Y-58708115D01*
X225701297Y-58708115D01*
X225638797Y-58691368D01*
X225593044Y-58645615D01*
X225576297Y-58583115D01*
X225576297Y-58483115D01*
X225593044Y-58420615D01*
X225638797Y-58374862D01*
X225701297Y-58358115D01*
X225751297Y-58358115D01*
X225813797Y-58374862D01*
G37*
G36*
X226313797Y-51874862D02*
G01*
X226359550Y-51920615D01*
X226376297Y-51983115D01*
X226376297Y-52083115D01*
X226359550Y-52145615D01*
X226313797Y-52191368D01*
X226251297Y-52208115D01*
X226201297Y-52208115D01*
X226138797Y-52191368D01*
X226093044Y-52145615D01*
X226076297Y-52083115D01*
X226076297Y-51983115D01*
X226093044Y-51920615D01*
X226138797Y-51874862D01*
X226201297Y-51858115D01*
X226251297Y-51858115D01*
X226313797Y-51874862D01*
G37*
G36*
X226313797Y-58374862D02*
G01*
X226359550Y-58420615D01*
X226376297Y-58483115D01*
X226376297Y-58583115D01*
X226359550Y-58645615D01*
X226313797Y-58691368D01*
X226251297Y-58708115D01*
X226201297Y-58708115D01*
X226138797Y-58691368D01*
X226093044Y-58645615D01*
X226076297Y-58583115D01*
X226076297Y-58483115D01*
X226093044Y-58420615D01*
X226138797Y-58374862D01*
X226201297Y-58358115D01*
X226251297Y-58358115D01*
X226313797Y-58374862D01*
G37*
G36*
X226813797Y-51874862D02*
G01*
X226859550Y-51920615D01*
X226876297Y-51983115D01*
X226876297Y-52083115D01*
X226859550Y-52145615D01*
X226813797Y-52191368D01*
X226751297Y-52208115D01*
X226701297Y-52208115D01*
X226638797Y-52191368D01*
X226593044Y-52145615D01*
X226576297Y-52083115D01*
X226576297Y-51983115D01*
X226593044Y-51920615D01*
X226638797Y-51874862D01*
X226701297Y-51858115D01*
X226751297Y-51858115D01*
X226813797Y-51874862D01*
G37*
G36*
X226813797Y-58374862D02*
G01*
X226859550Y-58420615D01*
X226876297Y-58483115D01*
X226876297Y-58583115D01*
X226859550Y-58645615D01*
X226813797Y-58691368D01*
X226751297Y-58708115D01*
X226701297Y-58708115D01*
X226638797Y-58691368D01*
X226593044Y-58645615D01*
X226576297Y-58583115D01*
X226576297Y-58483115D01*
X226593044Y-58420615D01*
X226638797Y-58374862D01*
X226701297Y-58358115D01*
X226751297Y-58358115D01*
X226813797Y-58374862D01*
G37*
G36*
X227313797Y-51874862D02*
G01*
X227359550Y-51920615D01*
X227376297Y-51983115D01*
X227376297Y-52083115D01*
X227359550Y-52145615D01*
X227313797Y-52191368D01*
X227251297Y-52208115D01*
X227201297Y-52208115D01*
X227138797Y-52191368D01*
X227093044Y-52145615D01*
X227076297Y-52083115D01*
X227076297Y-51983115D01*
X227093044Y-51920615D01*
X227138797Y-51874862D01*
X227201297Y-51858115D01*
X227251297Y-51858115D01*
X227313797Y-51874862D01*
G37*
G36*
X227313797Y-58374862D02*
G01*
X227359550Y-58420615D01*
X227376297Y-58483115D01*
X227376297Y-58583115D01*
X227359550Y-58645615D01*
X227313797Y-58691368D01*
X227251297Y-58708115D01*
X227201297Y-58708115D01*
X227138797Y-58691368D01*
X227093044Y-58645615D01*
X227076297Y-58583115D01*
X227076297Y-58483115D01*
X227093044Y-58420615D01*
X227138797Y-58374862D01*
X227201297Y-58358115D01*
X227251297Y-58358115D01*
X227313797Y-58374862D01*
G37*
G36*
X227813797Y-51874862D02*
G01*
X227859550Y-51920615D01*
X227876297Y-51983115D01*
X227876297Y-52083115D01*
X227859550Y-52145615D01*
X227813797Y-52191368D01*
X227751297Y-52208115D01*
X227701297Y-52208115D01*
X227638797Y-52191368D01*
X227593044Y-52145615D01*
X227576297Y-52083115D01*
X227576297Y-51983115D01*
X227593044Y-51920615D01*
X227638797Y-51874862D01*
X227701297Y-51858115D01*
X227751297Y-51858115D01*
X227813797Y-51874862D01*
G37*
G36*
X227813797Y-58374862D02*
G01*
X227859550Y-58420615D01*
X227876297Y-58483115D01*
X227876297Y-58583115D01*
X227859550Y-58645615D01*
X227813797Y-58691368D01*
X227751297Y-58708115D01*
X227701297Y-58708115D01*
X227638797Y-58691368D01*
X227593044Y-58645615D01*
X227576297Y-58583115D01*
X227576297Y-58483115D01*
X227593044Y-58420615D01*
X227638797Y-58374862D01*
X227701297Y-58358115D01*
X227751297Y-58358115D01*
X227813797Y-58374862D01*
G37*
G36*
X228313797Y-51874862D02*
G01*
X228359550Y-51920615D01*
X228376297Y-51983115D01*
X228376297Y-52083115D01*
X228359550Y-52145615D01*
X228313797Y-52191368D01*
X228251297Y-52208115D01*
X228201297Y-52208115D01*
X228138797Y-52191368D01*
X228093044Y-52145615D01*
X228076297Y-52083115D01*
X228076297Y-51983115D01*
X228093044Y-51920615D01*
X228138797Y-51874862D01*
X228201297Y-51858115D01*
X228251297Y-51858115D01*
X228313797Y-51874862D01*
G37*
G36*
X228813797Y-58374862D02*
G01*
X228859550Y-58420615D01*
X228876297Y-58483115D01*
X228876297Y-58583115D01*
X228859550Y-58645615D01*
X228813797Y-58691368D01*
X228751297Y-58708115D01*
X228701297Y-58708115D01*
X228638797Y-58691368D01*
X228593044Y-58645615D01*
X228576297Y-58583115D01*
X228576297Y-58483115D01*
X228593044Y-58420615D01*
X228638797Y-58374862D01*
X228701297Y-58358115D01*
X228751297Y-58358115D01*
X228813797Y-58374862D01*
G37*
G36*
X229313797Y-51874862D02*
G01*
X229359550Y-51920615D01*
X229376297Y-51983115D01*
X229376297Y-52083115D01*
X229359550Y-52145615D01*
X229313797Y-52191368D01*
X229251297Y-52208115D01*
X229201297Y-52208115D01*
X229138797Y-52191368D01*
X229093044Y-52145615D01*
X229076297Y-52083115D01*
X229076297Y-51983115D01*
X229093044Y-51920615D01*
X229138797Y-51874862D01*
X229201297Y-51858115D01*
X229251297Y-51858115D01*
X229313797Y-51874862D01*
G37*
G36*
X229813797Y-51874862D02*
G01*
X229859550Y-51920615D01*
X229876297Y-51983115D01*
X229876297Y-52083115D01*
X229859550Y-52145615D01*
X229813797Y-52191368D01*
X229751297Y-52208115D01*
X229701297Y-52208115D01*
X229638797Y-52191368D01*
X229593044Y-52145615D01*
X229576297Y-52083115D01*
X229576297Y-51983115D01*
X229593044Y-51920615D01*
X229638797Y-51874862D01*
X229701297Y-51858115D01*
X229751297Y-51858115D01*
X229813797Y-51874862D01*
G37*
G36*
X229813797Y-58374862D02*
G01*
X229859550Y-58420615D01*
X229876297Y-58483115D01*
X229876297Y-58583115D01*
X229859550Y-58645615D01*
X229813797Y-58691368D01*
X229751297Y-58708115D01*
X229701297Y-58708115D01*
X229638797Y-58691368D01*
X229593044Y-58645615D01*
X229576297Y-58583115D01*
X229576297Y-58483115D01*
X229593044Y-58420615D01*
X229638797Y-58374862D01*
X229701297Y-58358115D01*
X229751297Y-58358115D01*
X229813797Y-58374862D01*
G37*
G36*
X230338797Y-53899862D02*
G01*
X230384550Y-53945615D01*
X230401297Y-54008115D01*
X230401297Y-54058115D01*
X230384550Y-54120615D01*
X230338797Y-54166368D01*
X230276297Y-54183115D01*
X230176297Y-54183115D01*
X230113797Y-54166368D01*
X230068044Y-54120615D01*
X230051297Y-54058115D01*
X230051297Y-54008115D01*
X230068044Y-53945615D01*
X230113797Y-53899862D01*
X230176297Y-53883115D01*
X230276297Y-53883115D01*
X230338797Y-53899862D01*
G37*
G36*
X230338797Y-54399862D02*
G01*
X230384550Y-54445615D01*
X230401297Y-54508115D01*
X230401297Y-54558115D01*
X230384550Y-54620615D01*
X230338797Y-54666368D01*
X230276297Y-54683115D01*
X230176297Y-54683115D01*
X230113797Y-54666368D01*
X230068044Y-54620615D01*
X230051297Y-54558115D01*
X230051297Y-54508115D01*
X230068044Y-54445615D01*
X230113797Y-54399862D01*
X230176297Y-54383115D01*
X230276297Y-54383115D01*
X230338797Y-54399862D01*
G37*
G36*
X230338797Y-54899862D02*
G01*
X230384550Y-54945615D01*
X230401297Y-55008115D01*
X230401297Y-55058115D01*
X230384550Y-55120615D01*
X230338797Y-55166368D01*
X230276297Y-55183115D01*
X230176297Y-55183115D01*
X230113797Y-55166368D01*
X230068044Y-55120615D01*
X230051297Y-55058115D01*
X230051297Y-55008115D01*
X230068044Y-54945615D01*
X230113797Y-54899862D01*
X230176297Y-54883115D01*
X230276297Y-54883115D01*
X230338797Y-54899862D01*
G37*
G36*
X230338797Y-55399862D02*
G01*
X230384550Y-55445615D01*
X230401297Y-55508115D01*
X230401297Y-55558115D01*
X230384550Y-55620615D01*
X230338797Y-55666368D01*
X230276297Y-55683115D01*
X230176297Y-55683115D01*
X230113797Y-55666368D01*
X230068044Y-55620615D01*
X230051297Y-55558115D01*
X230051297Y-55508115D01*
X230068044Y-55445615D01*
X230113797Y-55399862D01*
X230176297Y-55383115D01*
X230276297Y-55383115D01*
X230338797Y-55399862D01*
G37*
G36*
X230338797Y-55899862D02*
G01*
X230384550Y-55945615D01*
X230401297Y-56008115D01*
X230401297Y-56058115D01*
X230384550Y-56120615D01*
X230338797Y-56166368D01*
X230276297Y-56183115D01*
X230176297Y-56183115D01*
X230113797Y-56166368D01*
X230068044Y-56120615D01*
X230051297Y-56058115D01*
X230051297Y-56008115D01*
X230068044Y-55945615D01*
X230113797Y-55899862D01*
X230176297Y-55883115D01*
X230276297Y-55883115D01*
X230338797Y-55899862D01*
G37*
G36*
X230338797Y-56399862D02*
G01*
X230384550Y-56445615D01*
X230401297Y-56508115D01*
X230401297Y-56558115D01*
X230384550Y-56620615D01*
X230338797Y-56666368D01*
X230276297Y-56683115D01*
X230176297Y-56683115D01*
X230113797Y-56666368D01*
X230068044Y-56620615D01*
X230051297Y-56558115D01*
X230051297Y-56508115D01*
X230068044Y-56445615D01*
X230113797Y-56399862D01*
X230176297Y-56383115D01*
X230276297Y-56383115D01*
X230338797Y-56399862D01*
G37*
G36*
X230338797Y-56899862D02*
G01*
X230384550Y-56945615D01*
X230401297Y-57008115D01*
X230401297Y-57058115D01*
X230384550Y-57120615D01*
X230338797Y-57166368D01*
X230276297Y-57183115D01*
X230176297Y-57183115D01*
X230113797Y-57166368D01*
X230068044Y-57120615D01*
X230051297Y-57058115D01*
X230051297Y-57008115D01*
X230068044Y-56945615D01*
X230113797Y-56899862D01*
X230176297Y-56883115D01*
X230276297Y-56883115D01*
X230338797Y-56899862D01*
G37*
G36*
X230338797Y-57399862D02*
G01*
X230384550Y-57445615D01*
X230401297Y-57508115D01*
X230401297Y-57558115D01*
X230384550Y-57620615D01*
X230338797Y-57666368D01*
X230276297Y-57683115D01*
X230176297Y-57683115D01*
X230113797Y-57666368D01*
X230068044Y-57620615D01*
X230051297Y-57558115D01*
X230051297Y-57508115D01*
X230068044Y-57445615D01*
X230113797Y-57399862D01*
X230176297Y-57383115D01*
X230276297Y-57383115D01*
X230338797Y-57399862D01*
G37*
G36*
X230338797Y-57899862D02*
G01*
X230384550Y-57945615D01*
X230401297Y-58008115D01*
X230401297Y-58058115D01*
X230384550Y-58120615D01*
X230338797Y-58166368D01*
X230276297Y-58183115D01*
X230176297Y-58183115D01*
X230113797Y-58166368D01*
X230068044Y-58120615D01*
X230051297Y-58058115D01*
X230051297Y-58008115D01*
X230068044Y-57945615D01*
X230113797Y-57899862D01*
X230176297Y-57883115D01*
X230276297Y-57883115D01*
X230338797Y-57899862D01*
G37*
%TD*%
D15*
%TO.C,C64*%
X229516297Y-59093115D03*
X229516297Y-59601115D03*
%TD*%
%TO.C,C79*%
X231357797Y-51219115D03*
X231357797Y-51727115D03*
%TD*%
D16*
%TO.C,C68*%
X231421297Y-57569115D03*
X231929297Y-57569115D03*
%TD*%
D17*
%TO.C,R26*%
X223509197Y-59601115D03*
X223509197Y-59093115D03*
%TD*%
D18*
%TO.C,R32*%
X226404797Y-51346115D03*
X226912797Y-51346115D03*
%TD*%
D19*
%TO.C,J14*%
X233977986Y-60661397D03*
D20*
X233977986Y-58121397D03*
X233977986Y-55581397D03*
X233977986Y-53041397D03*
X233977986Y-50501397D03*
X233977986Y-47961397D03*
X233977986Y-45421397D03*
D21*
X235247986Y-60661397D03*
X235247986Y-58121397D03*
X235247986Y-55581397D03*
X235247986Y-53041397D03*
X235247986Y-50501397D03*
X235247986Y-47961397D03*
X235247986Y-45421397D03*
%TD*%
D22*
%TO.C,C57*%
X225960297Y-51219115D03*
X225452297Y-51219115D03*
%TD*%
D23*
%TO.C,R43*%
X231992797Y-51219115D03*
X231992797Y-51727115D03*
%TD*%
D15*
%TO.C,C54*%
X231294297Y-56451515D03*
X231294297Y-56959515D03*
%TD*%
D16*
%TO.C,C55*%
X222531297Y-53378115D03*
X223039297Y-53378115D03*
%TD*%
D24*
%TO.C,C47*%
X224563297Y-50584115D03*
X224563297Y-50076115D03*
%TD*%
D15*
%TO.C,C63*%
X226912797Y-59093115D03*
X226912797Y-59601115D03*
%TD*%
D17*
%TO.C,R35*%
X225541197Y-59601115D03*
X225541197Y-59093115D03*
%TD*%
D22*
%TO.C,C51*%
X221134297Y-56045115D03*
X220626297Y-56045115D03*
%TD*%
D25*
%TO.C,RGB6*%
X231672878Y-44997376D03*
D26*
X231672878Y-45747376D03*
D27*
X232422878Y-45747376D03*
D28*
X232422878Y-44997376D03*
%TD*%
D29*
%TO.C,X2*%
X231818507Y-59391996D03*
X231818507Y-58291996D03*
X231018507Y-58291996D03*
X231018507Y-59391996D03*
%TD*%
D15*
%TO.C,C49*%
X221134297Y-54502915D03*
X221134297Y-55010915D03*
%TD*%
D30*
%TO.C,C71*%
X221660436Y-62473220D03*
X220771436Y-62473220D03*
%TD*%
D22*
%TO.C,C45*%
X224055297Y-51219115D03*
X223547297Y-51219115D03*
%TD*%
D31*
%TO.C,MIC1*%
X232053603Y-62904874D03*
D32*
X232053603Y-62015874D03*
D31*
X232053603Y-61126874D03*
X229767603Y-61126874D03*
D32*
X229767603Y-62015874D03*
D31*
X229767603Y-62904874D03*
%TD*%
D22*
%TO.C,C70*%
X228372763Y-60871062D03*
X227864763Y-60871062D03*
%TD*%
D15*
%TO.C,C67*%
X227865297Y-59855115D03*
X227865297Y-60363115D03*
%TD*%
D23*
%TO.C,R37*%
X225071297Y-50076115D03*
X225071297Y-50584115D03*
%TD*%
D33*
%TO.C,R33*%
X221134297Y-55537115D03*
X220626297Y-55537115D03*
%TD*%
D17*
%TO.C,R44*%
X231421297Y-54775115D03*
X231421297Y-54267115D03*
%TD*%
D23*
%TO.C,R36*%
X225579297Y-50076115D03*
X225579297Y-50584115D03*
%TD*%
D17*
%TO.C,R34*%
X225007797Y-59601115D03*
X225007797Y-59093115D03*
%TD*%
D34*
%TO.C,J13*%
X218738668Y-45419787D03*
D20*
X218738668Y-47959787D03*
X218738668Y-50499787D03*
X218738668Y-53039787D03*
X218738668Y-55579787D03*
X218738668Y-58119787D03*
X218738668Y-60659787D03*
D21*
X217468668Y-45419787D03*
X217468668Y-47959787D03*
X217468668Y-50499787D03*
X217468668Y-53039787D03*
X217468668Y-55579787D03*
X217468668Y-58119787D03*
X217468668Y-60659787D03*
%TD*%
D15*
%TO.C,C48*%
X220626297Y-54521115D03*
X220626297Y-55029115D03*
%TD*%
D17*
%TO.C,R40*%
X226595297Y-50584115D03*
X226595297Y-50076115D03*
%TD*%
D15*
%TO.C,C65*%
X228881297Y-59093115D03*
X228881297Y-59601115D03*
%TD*%
D23*
%TO.C,R31*%
X222848797Y-55346615D03*
X222848797Y-55854615D03*
%TD*%
D35*
%TO.C,U6*%
X221695814Y-55007279D03*
X222095814Y-55007279D03*
X221695814Y-55407279D03*
X222095814Y-55407279D03*
X221695814Y-55807279D03*
X222095814Y-55807279D03*
%TD*%
D15*
%TO.C,C59*%
X231929297Y-54267115D03*
X231929297Y-54775115D03*
%TD*%
D36*
%TO.C,U8*%
X222265732Y-56727427D03*
X221765732Y-56727427D03*
X221265732Y-56727427D03*
X220765732Y-56727427D03*
X220765732Y-59427427D03*
X221265732Y-59427427D03*
X221765732Y-59427427D03*
X222265732Y-59427427D03*
D37*
X221515732Y-58077427D03*
%TD*%
D17*
%TO.C,R41*%
X226087297Y-50584115D03*
X226087297Y-50076115D03*
%TD*%
%TO.C,R28*%
X224055297Y-50584115D03*
X224055297Y-50076115D03*
%TD*%
D15*
%TO.C,C61*%
X222937697Y-59093115D03*
X222937697Y-59601115D03*
%TD*%
D24*
%TO.C,C78*%
X230824397Y-51727115D03*
X230824397Y-51219115D03*
%TD*%
D38*
%TO.C,USB1*%
X229225000Y-47325000D03*
X223475000Y-47325000D03*
D39*
X229550000Y-48475000D03*
X228750000Y-48475000D03*
D40*
X227600000Y-48475000D03*
X226600000Y-48475000D03*
X226100000Y-48475000D03*
X225100000Y-48475000D03*
D39*
X223150000Y-48475000D03*
X223950000Y-48475000D03*
D40*
X224600000Y-48475000D03*
X225600000Y-48475000D03*
X227100000Y-48475000D03*
X228100000Y-48475000D03*
D41*
X230668000Y-43662500D03*
X222032000Y-43662500D03*
X230668000Y-47853500D03*
X222032000Y-47853500D03*
D42*
X227850000Y-43925000D03*
X224850000Y-43925000D03*
%TD*%
D17*
%TO.C,R27*%
X223547297Y-50584115D03*
X223547297Y-50076115D03*
%TD*%
D15*
%TO.C,C46*%
X224029897Y-59093115D03*
X224029897Y-59601115D03*
%TD*%
D43*
%TO.C,U9*%
X226976297Y-55283115D03*
%TD*%
D15*
%TO.C,C69*%
X230151297Y-59093115D03*
X230151297Y-59601115D03*
%TD*%
D44*
%TO.C,U5*%
X222630443Y-50270929D03*
X222130443Y-50270929D03*
X221630443Y-50270929D03*
X221130443Y-50270929D03*
D45*
X220930443Y-50970929D03*
X220930443Y-51470929D03*
X220930443Y-51970929D03*
D46*
X221130443Y-52670929D03*
X221630443Y-52670929D03*
X222130443Y-52670929D03*
X222630443Y-52670929D03*
D45*
X222830443Y-51970929D03*
X222830443Y-51470929D03*
X222830443Y-50970929D03*
%TD*%
D16*
%TO.C,C62*%
X229749097Y-51219115D03*
X230257097Y-51219115D03*
%TD*%
D47*
%TO.C,Q2*%
X227229237Y-50131738D03*
D48*
X227054237Y-50781738D03*
X227404237Y-50781738D03*
%TD*%
D17*
%TO.C,R30*%
X222848797Y-54902115D03*
X222848797Y-54394115D03*
%TD*%
D15*
%TO.C,C50*%
X222023297Y-53378115D03*
X222023297Y-53886115D03*
%TD*%
D22*
%TO.C,C44*%
X233583066Y-62774043D03*
X233075066Y-62774043D03*
%TD*%
%TO.C,C66*%
X228373297Y-59347115D03*
X227865297Y-59347115D03*
%TD*%
D49*
%TO.C,ANT1*%
X226144768Y-61996758D03*
X226144768Y-62936758D03*
D50*
X222944768Y-62466758D03*
%TD*%
D22*
%TO.C,C58*%
X223039297Y-53886115D03*
X222531297Y-53886115D03*
%TD*%
D51*
%TO.C,K1*%
X220244886Y-45792071D03*
X220244886Y-43192071D03*
X220994886Y-45792071D03*
X220994886Y-43192071D03*
%TD*%
D52*
%TO.C,L5*%
X231738681Y-52386769D03*
X231738681Y-53656769D03*
%TD*%
D33*
%TO.C,R45*%
X227877997Y-51346115D03*
X227369997Y-51346115D03*
%TD*%
D16*
%TO.C,C60*%
X231294297Y-55600615D03*
X231802297Y-55600615D03*
%TD*%
D53*
%TO.C,X4*%
X230831164Y-50442229D03*
D54*
X231931164Y-50442229D03*
%TD*%
D17*
%TO.C,R42*%
X231929297Y-56959515D03*
X231929297Y-56451515D03*
%TD*%
D22*
%TO.C,C80*%
X229262297Y-51219115D03*
X228754297Y-51219115D03*
%TD*%
D55*
%TO.C,D3*%
X229869006Y-50328980D03*
X228269006Y-50328980D03*
%TD*%
D56*
%TO.C,CHG2*%
X232432264Y-43215004D03*
X231666264Y-43215004D03*
%TD*%
M02*
