M48
; DRILL file KiCad 10.0.0 date 2026-06-20T20:43:17
; FORMAT={-:-/ absolute / metric / decimal}
; #@! TF.CreationDate,2026-06-20T20:43:17+01:00
; #@! TF.GenerationSoftware,Kicad,Pcbnew,10.0.0
; #@! TF.FileFunction,Plated,1,4,PTH
FMAT,2
METRIC
; #@! TA.AperFunction,Plated,PTH,ViaDrill
T1C0.200
; #@! TA.AperFunction,Plated,PTH,ComponentDrill
T2C0.508
; #@! TA.AperFunction,Plated,PTH,ComponentDrill
T3C0.700
; #@! TA.AperFunction,Plated,PTH,ComponentDrill
T4C0.850
%
G90
G05
T1
X218.108Y-43.821
X218.743Y-43.186
X218.743Y-43.821
X218.87Y-62.617
X219.061Y-46.678
X219.061Y-49.218
X219.061Y-51.758
X219.061Y-54.298
X219.061Y-56.838
X219.061Y-59.378
X219.378Y-43.186
X219.378Y-43.821
X219.505Y-62.109
X219.569Y-62.68
X220.013Y-61.474
X220.013Y-61.982
X220.14Y-54.997
X220.14Y-55.632
X220.14Y-58.934
X220.14Y-62.617
X220.394Y-60.077
X220.521Y-53.727
X220.648Y-44.456
X220.775Y-58.743
X220.839Y-57.664
X221.029Y-60.077
X221.156Y-53.727
X221.283Y-48.901
X221.283Y-57.283
X221.347Y-58.743
X221.474Y-51.758
X221.474Y-54.552
X221.474Y-56.013
X221.664Y-60.077
X221.918Y-58.743
X222.045Y-51.695
X222.045Y-54.235
X222.071Y-50.933
X222.299Y-60.077
X222.363Y-54.743
X222.49Y-55.683
X222.934Y-60.077
X222.998Y-58.616
X223.061Y-56.521
X223.315Y-43.059
X223.366Y-56.051
X223.379Y-52.33
X223.379Y-54.933
X223.379Y-55.492
X223.506Y-49.726
X223.569Y-45.218
X223.569Y-46.234
X223.569Y-60.077
X223.696Y-58.553
X224.077Y-49.726
X224.132Y-47.613
X224.204Y-60.077
X224.25Y-58.057
X224.331Y-50.996
X224.458Y-43.059
X224.534Y-58.934
X224.626Y-59.565
X224.649Y-55.124
X224.7Y-56.572
X224.712Y-45.853
X224.767Y-53.32
X224.903Y-49.409
X224.903Y-55.987
X224.966Y-60.077
X225.068Y-53.803
X225.347Y-43.059
X225.474Y-51.619
X225.703Y-52.711
X225.728Y-60.077
X225.87Y-59.057
X226.109Y-49.663
X226.109Y-57.41
X226.363Y-43.059
X226.363Y-50.869
X226.363Y-52.965
X226.363Y-54.616
X226.363Y-55.251
X226.363Y-55.886
X226.427Y-59.061
X226.49Y-60.077
X226.871Y-57.41
X226.998Y-52.965
X226.998Y-54.616
X226.998Y-55.251
X226.998Y-55.886
X227.252Y-60.077
X227.379Y-43.059
X227.43Y-57.41
X227.57Y-53.028
X227.608Y-49.536
X227.633Y-54.616
X227.633Y-55.251
X227.633Y-55.886
X228.078Y-53.282
X228.268Y-43.059
X228.37Y-51.504
X228.395Y-57.537
X228.522Y-60.077
X228.7Y-52.05
X228.776Y-50.298
X228.967Y-58.743
X229.03Y-60.331
X229.03Y-60.978
X229.03Y-61.613
X229.03Y-62.248
X229.03Y-62.909
X229.259Y-56.318
X229.268Y-55.691
X229.284Y-54.489
X229.284Y-55.124
X229.284Y-56.902
X229.411Y-43.059
X229.551Y-51.53
X229.919Y-44.964
X230.122Y-51.72
X230.199Y-53.638
X230.541Y-54.997
X230.618Y-56.038
X230.681Y-45.853
X230.681Y-56.902
X230.681Y-57.537
X230.757Y-52.177
X230.77Y-54.438
X230.935Y-60.077
X231.443Y-49.536
X231.57Y-60.077
X231.697Y-44.532
X231.951Y-53.219
X232.078Y-56.026
X232.332Y-60.077
X232.358Y-51.746
X232.456Y-46.234
X232.586Y-47.123
X232.586Y-54.489
X232.586Y-56.33
X232.967Y-62.045
X233.221Y-54.108
X233.285Y-59.569
X233.348Y-43.186
X233.348Y-43.821
X233.666Y-46.678
X233.666Y-49.218
X233.983Y-43.186
X233.983Y-43.821
X233.983Y-62.236
X233.983Y-62.871
X234.618Y-43.821
T2
X222.032Y-43.663
X222.032Y-47.853
X230.668Y-43.663
X230.668Y-47.853
T3
X217.469Y-45.42
X217.469Y-47.96
X217.469Y-50.5
X217.469Y-53.04
X217.469Y-55.58
X217.469Y-58.12
X217.469Y-60.66
X235.248Y-45.421
X235.248Y-47.961
X235.248Y-50.501
X235.248Y-53.041
X235.248Y-55.581
X235.248Y-58.121
X235.248Y-60.661
T4
X218.739Y-45.42
X218.739Y-47.96
X218.739Y-50.5
X218.739Y-53.04
X218.739Y-55.58
X218.739Y-58.12
X218.739Y-60.66
X233.978Y-45.421
X233.978Y-47.961
X233.978Y-50.501
X233.978Y-53.041
X233.978Y-55.581
X233.978Y-58.121
X233.978Y-60.661
M30
